%TF.GenerationSoftware,KiCad,Pcbnew,5.1.12-1.fc35*%
%TF.CreationDate,2022-02-21T17:57:33-08:00*%
%TF.ProjectId,jackalope_unibody,6a61636b-616c-46f7-9065-5f756e69626f,v1.0.0*%
%TF.SameCoordinates,Original*%
%TF.FileFunction,Soldermask,Top*%
%TF.FilePolarity,Negative*%
%FSLAX46Y46*%
G04 Gerber Fmt 4.6, Leading zero omitted, Abs format (unit mm)*
G04 Created by KiCad (PCBNEW 5.1.12-1.fc35) date 2022-02-21 17:57:33*
%MOMM*%
%LPD*%
G01*
G04 APERTURE LIST*
%ADD10C,1.300000*%
%ADD11C,2.200000*%
%ADD12C,1.850000*%
%ADD13C,4.087800*%
%ADD14C,1.801800*%
%ADD15C,2.386000*%
%ADD16C,2.005000*%
%ADD17C,1.852600*%
G04 APERTURE END LIST*
D10*
%TO.C,RESET*%
X191750000Y42710000D03*
D11*
X188250000Y39010000D03*
D12*
X189250000Y41500000D03*
X194250000Y41500000D03*
D11*
X195260000Y39010000D03*
%TD*%
D13*
%TO.C,S1*%
X0Y0D03*
D14*
X5002823Y-882133D03*
X-5002823Y882133D03*
D15*
X3383544Y4561757D03*
X-3311051Y3163011D03*
%TD*%
%TO.C,D1*%
G36*
G01*
X-3871183Y-9573216D02*
X-3662806Y-8391447D01*
G75*
G02*
X-3604884Y-8350889I49240J-8682D01*
G01*
X-2718557Y-8507172D01*
G75*
G02*
X-2677999Y-8565094I-8682J-49240D01*
G01*
X-2886376Y-9746863D01*
G75*
G02*
X-2944298Y-9787421I-49240J8682D01*
G01*
X-3830625Y-9631138D01*
G75*
G02*
X-3871183Y-9573216I8682J49240D01*
G01*
G37*
G36*
G01*
X-621317Y-10146254D02*
X-412940Y-8964485D01*
G75*
G02*
X-355018Y-8923927I49240J-8682D01*
G01*
X531309Y-9080210D01*
G75*
G02*
X571867Y-9138132I-8682J-49240D01*
G01*
X363490Y-10319901D01*
G75*
G02*
X305568Y-10360459I-49240J8682D01*
G01*
X-580759Y-10204176D01*
G75*
G02*
X-621317Y-10146254I8682J49240D01*
G01*
G37*
D16*
X2102460Y-10017274D03*
G36*
G01*
X-6480883Y-9406513D02*
X-6172137Y-7655525D01*
G75*
G02*
X-6114215Y-7614967I49240J-8682D01*
G01*
X-4363227Y-7923713D01*
G75*
G02*
X-4322669Y-7981635I-8682J-49240D01*
G01*
X-4631415Y-9732623D01*
G75*
G02*
X-4689337Y-9773181I-49240J8682D01*
G01*
X-6440325Y-9464435D01*
G75*
G02*
X-6480883Y-9406513I8682J49240D01*
G01*
G37*
%TD*%
D13*
%TO.C,S2*%
X3299315Y18711347D03*
D14*
X8302138Y17829214D03*
X-1703508Y19593480D03*
D15*
X6682859Y23273104D03*
X-11736Y21874358D03*
%TD*%
%TO.C,D2*%
G36*
G01*
X-571867Y9138132D02*
X-363490Y10319901D01*
G75*
G02*
X-305568Y10360459I49240J-8682D01*
G01*
X580759Y10204176D01*
G75*
G02*
X621317Y10146254I-8682J-49240D01*
G01*
X412940Y8964485D01*
G75*
G02*
X355018Y8923927I-49240J8682D01*
G01*
X-531309Y9080210D01*
G75*
G02*
X-571867Y9138132I8682J49240D01*
G01*
G37*
G36*
G01*
X2677999Y8565094D02*
X2886376Y9746863D01*
G75*
G02*
X2944298Y9787421I49240J-8682D01*
G01*
X3830625Y9631138D01*
G75*
G02*
X3871183Y9573216I-8682J-49240D01*
G01*
X3662806Y8391447D01*
G75*
G02*
X3604884Y8350889I-49240J8682D01*
G01*
X2718557Y8507172D01*
G75*
G02*
X2677999Y8565094I8682J49240D01*
G01*
G37*
D16*
X5401776Y8694074D03*
G36*
G01*
X-3181567Y9304835D02*
X-2872821Y11055823D01*
G75*
G02*
X-2814899Y11096381I49240J-8682D01*
G01*
X-1063911Y10787635D01*
G75*
G02*
X-1023353Y10729713I-8682J-49240D01*
G01*
X-1332099Y8978725D01*
G75*
G02*
X-1390021Y8938167I-49240J8682D01*
G01*
X-3141009Y9246913D01*
G75*
G02*
X-3181567Y9304835I8682J49240D01*
G01*
G37*
%TD*%
D13*
%TO.C,S3*%
X6598631Y37422695D03*
D14*
X11601454Y36540562D03*
X1595808Y38304828D03*
D15*
X9982175Y41984452D03*
X3287580Y40585706D03*
%TD*%
%TO.C,D3*%
G36*
G01*
X2727448Y27849479D02*
X2935825Y29031248D01*
G75*
G02*
X2993747Y29071806I49240J-8682D01*
G01*
X3880074Y28915523D01*
G75*
G02*
X3920632Y28857601I-8682J-49240D01*
G01*
X3712255Y27675832D01*
G75*
G02*
X3654333Y27635274I-49240J8682D01*
G01*
X2768006Y27791557D01*
G75*
G02*
X2727448Y27849479I8682J49240D01*
G01*
G37*
G36*
G01*
X5977314Y27276441D02*
X6185691Y28458210D01*
G75*
G02*
X6243613Y28498768I49240J-8682D01*
G01*
X7129940Y28342485D01*
G75*
G02*
X7170498Y28284563I-8682J-49240D01*
G01*
X6962121Y27102794D01*
G75*
G02*
X6904199Y27062236I-49240J8682D01*
G01*
X6017872Y27218519D01*
G75*
G02*
X5977314Y27276441I8682J49240D01*
G01*
G37*
D16*
X8701091Y27405421D03*
G36*
G01*
X117748Y28016182D02*
X426494Y29767170D01*
G75*
G02*
X484416Y29807728I49240J-8682D01*
G01*
X2235404Y29498982D01*
G75*
G02*
X2275962Y29441060I-8682J-49240D01*
G01*
X1967216Y27690072D01*
G75*
G02*
X1909294Y27649514I-49240J8682D01*
G01*
X158306Y27958260D01*
G75*
G02*
X117748Y28016182I8682J49240D01*
G01*
G37*
%TD*%
D13*
%TO.C,S4*%
X18711347Y-3299315D03*
D14*
X23714170Y-4181448D03*
X13708524Y-2417182D03*
D15*
X22094891Y1262442D03*
X15400296Y-136304D03*
%TD*%
%TO.C,D4*%
G36*
G01*
X14840165Y-12872531D02*
X15048542Y-11690762D01*
G75*
G02*
X15106464Y-11650204I49240J-8682D01*
G01*
X15992791Y-11806487D01*
G75*
G02*
X16033349Y-11864409I-8682J-49240D01*
G01*
X15824972Y-13046178D01*
G75*
G02*
X15767050Y-13086736I-49240J8682D01*
G01*
X14880723Y-12930453D01*
G75*
G02*
X14840165Y-12872531I8682J49240D01*
G01*
G37*
G36*
G01*
X18090031Y-13445569D02*
X18298408Y-12263800D01*
G75*
G02*
X18356330Y-12223242I49240J-8682D01*
G01*
X19242657Y-12379525D01*
G75*
G02*
X19283215Y-12437447I-8682J-49240D01*
G01*
X19074838Y-13619216D01*
G75*
G02*
X19016916Y-13659774I-49240J8682D01*
G01*
X18130589Y-13503491D01*
G75*
G02*
X18090031Y-13445569I8682J49240D01*
G01*
G37*
D16*
X20813808Y-13316589D03*
G36*
G01*
X12230465Y-12705828D02*
X12539211Y-10954840D01*
G75*
G02*
X12597133Y-10914282I49240J-8682D01*
G01*
X14348121Y-11223028D01*
G75*
G02*
X14388679Y-11280950I-8682J-49240D01*
G01*
X14079933Y-13031938D01*
G75*
G02*
X14022011Y-13072496I-49240J8682D01*
G01*
X12271023Y-12763750D01*
G75*
G02*
X12230465Y-12705828I8682J49240D01*
G01*
G37*
%TD*%
D13*
%TO.C,S5*%
X22010663Y15412032D03*
D14*
X27013486Y14529899D03*
X17007840Y16294165D03*
D15*
X25394207Y19973789D03*
X18699612Y18575043D03*
%TD*%
%TO.C,D5*%
G36*
G01*
X18139480Y5838816D02*
X18347857Y7020585D01*
G75*
G02*
X18405779Y7061143I49240J-8682D01*
G01*
X19292106Y6904860D01*
G75*
G02*
X19332664Y6846938I-8682J-49240D01*
G01*
X19124287Y5665169D01*
G75*
G02*
X19066365Y5624611I-49240J8682D01*
G01*
X18180038Y5780894D01*
G75*
G02*
X18139480Y5838816I8682J49240D01*
G01*
G37*
G36*
G01*
X21389346Y5265778D02*
X21597723Y6447547D01*
G75*
G02*
X21655645Y6488105I49240J-8682D01*
G01*
X22541972Y6331822D01*
G75*
G02*
X22582530Y6273900I-8682J-49240D01*
G01*
X22374153Y5092131D01*
G75*
G02*
X22316231Y5051573I-49240J8682D01*
G01*
X21429904Y5207856D01*
G75*
G02*
X21389346Y5265778I8682J49240D01*
G01*
G37*
D16*
X24113123Y5394758D03*
G36*
G01*
X15529780Y6005519D02*
X15838526Y7756507D01*
G75*
G02*
X15896448Y7797065I49240J-8682D01*
G01*
X17647436Y7488319D01*
G75*
G02*
X17687994Y7430397I-8682J-49240D01*
G01*
X17379248Y5679409D01*
G75*
G02*
X17321326Y5638851I-49240J8682D01*
G01*
X15570338Y5947597D01*
G75*
G02*
X15529780Y6005519I8682J49240D01*
G01*
G37*
%TD*%
D13*
%TO.C,S6*%
X25309978Y34123379D03*
D14*
X30312801Y33241246D03*
X20307155Y35005512D03*
D15*
X28693522Y38685136D03*
X21998927Y37286390D03*
%TD*%
%TO.C,D6*%
G36*
G01*
X21438795Y24550164D02*
X21647172Y25731933D01*
G75*
G02*
X21705094Y25772491I49240J-8682D01*
G01*
X22591421Y25616208D01*
G75*
G02*
X22631979Y25558286I-8682J-49240D01*
G01*
X22423602Y24376517D01*
G75*
G02*
X22365680Y24335959I-49240J8682D01*
G01*
X21479353Y24492242D01*
G75*
G02*
X21438795Y24550164I8682J49240D01*
G01*
G37*
G36*
G01*
X24688661Y23977126D02*
X24897038Y25158895D01*
G75*
G02*
X24954960Y25199453I49240J-8682D01*
G01*
X25841287Y25043170D01*
G75*
G02*
X25881845Y24985248I-8682J-49240D01*
G01*
X25673468Y23803479D01*
G75*
G02*
X25615546Y23762921I-49240J8682D01*
G01*
X24729219Y23919204D01*
G75*
G02*
X24688661Y23977126I8682J49240D01*
G01*
G37*
D16*
X27412438Y24106106D03*
G36*
G01*
X18829095Y24716867D02*
X19137841Y26467855D01*
G75*
G02*
X19195763Y26508413I49240J-8682D01*
G01*
X20946751Y26199667D01*
G75*
G02*
X20987309Y26141745I-8682J-49240D01*
G01*
X20678563Y24390757D01*
G75*
G02*
X20620641Y24350199I-49240J8682D01*
G01*
X18869653Y24658945D01*
G75*
G02*
X18829095Y24716867I8682J49240D01*
G01*
G37*
%TD*%
D13*
%TO.C,S7*%
X40629529Y4124049D03*
D14*
X45558631Y2895086D03*
X35700427Y5353012D03*
D15*
X44323043Y8438670D03*
X37547184Y7510323D03*
%TD*%
%TO.C,D7*%
G36*
G01*
X36099982Y-5155806D02*
X36390288Y-3991451D01*
G75*
G02*
X36450899Y-3955032I48515J-12096D01*
G01*
X37324165Y-4172761D01*
G75*
G02*
X37360584Y-4233372I-12096J-48515D01*
G01*
X37070278Y-5397727D01*
G75*
G02*
X37009667Y-5434146I-48515J12096D01*
G01*
X36136401Y-5216417D01*
G75*
G02*
X36099982Y-5155806I12096J48515D01*
G01*
G37*
G36*
G01*
X39301958Y-5954148D02*
X39592264Y-4789793D01*
G75*
G02*
X39652875Y-4753374I48515J-12096D01*
G01*
X40526141Y-4971103D01*
G75*
G02*
X40562560Y-5031714I-12096J-48515D01*
G01*
X40272254Y-6196069D01*
G75*
G02*
X40211643Y-6232488I-48515J12096D01*
G01*
X39338377Y-6014759D01*
G75*
G02*
X39301958Y-5954148I12096J48515D01*
G01*
G37*
D16*
X42028098Y-6015482D03*
G36*
G01*
X33508268Y-4807466D02*
X33938405Y-3082281D01*
G75*
G02*
X33999016Y-3045862I48515J-12096D01*
G01*
X35724201Y-3475999D01*
G75*
G02*
X35760620Y-3536610I-12096J-48515D01*
G01*
X35330483Y-5261795D01*
G75*
G02*
X35269872Y-5298214I-48515J12096D01*
G01*
X33544687Y-4868077D01*
G75*
G02*
X33508268Y-4807466I12096J48515D01*
G01*
G37*
%TD*%
D13*
%TO.C,S8*%
X45226045Y22559668D03*
D14*
X50155147Y21330705D03*
X40296943Y23788631D03*
D15*
X48919559Y26874289D03*
X42143700Y25945942D03*
%TD*%
%TO.C,D8*%
G36*
G01*
X40696498Y13279813D02*
X40986804Y14444168D01*
G75*
G02*
X41047415Y14480587I48515J-12096D01*
G01*
X41920681Y14262858D01*
G75*
G02*
X41957100Y14202247I-12096J-48515D01*
G01*
X41666794Y13037892D01*
G75*
G02*
X41606183Y13001473I-48515J12096D01*
G01*
X40732917Y13219202D01*
G75*
G02*
X40696498Y13279813I12096J48515D01*
G01*
G37*
G36*
G01*
X43898474Y12481471D02*
X44188780Y13645826D01*
G75*
G02*
X44249391Y13682245I48515J-12096D01*
G01*
X45122657Y13464516D01*
G75*
G02*
X45159076Y13403905I-12096J-48515D01*
G01*
X44868770Y12239550D01*
G75*
G02*
X44808159Y12203131I-48515J12096D01*
G01*
X43934893Y12420860D01*
G75*
G02*
X43898474Y12481471I12096J48515D01*
G01*
G37*
D16*
X46624614Y12420137D03*
G36*
G01*
X38104784Y13628153D02*
X38534921Y15353338D01*
G75*
G02*
X38595532Y15389757I48515J-12096D01*
G01*
X40320717Y14959620D01*
G75*
G02*
X40357136Y14899009I-12096J-48515D01*
G01*
X39926999Y13173824D01*
G75*
G02*
X39866388Y13137405I-48515J12096D01*
G01*
X38141203Y13567542D01*
G75*
G02*
X38104784Y13628153I12096J48515D01*
G01*
G37*
%TD*%
D13*
%TO.C,S9*%
X49822561Y40995287D03*
D14*
X54751663Y39766324D03*
X44893459Y42224250D03*
D15*
X53516075Y45309908D03*
X46740216Y44381561D03*
%TD*%
%TO.C,D9*%
G36*
G01*
X45293014Y31715431D02*
X45583320Y32879786D01*
G75*
G02*
X45643931Y32916205I48515J-12096D01*
G01*
X46517197Y32698476D01*
G75*
G02*
X46553616Y32637865I-12096J-48515D01*
G01*
X46263310Y31473510D01*
G75*
G02*
X46202699Y31437091I-48515J12096D01*
G01*
X45329433Y31654820D01*
G75*
G02*
X45293014Y31715431I12096J48515D01*
G01*
G37*
G36*
G01*
X48494990Y30917089D02*
X48785296Y32081444D01*
G75*
G02*
X48845907Y32117863I48515J-12096D01*
G01*
X49719173Y31900134D01*
G75*
G02*
X49755592Y31839523I-12096J-48515D01*
G01*
X49465286Y30675168D01*
G75*
G02*
X49404675Y30638749I-48515J12096D01*
G01*
X48531409Y30856478D01*
G75*
G02*
X48494990Y30917089I12096J48515D01*
G01*
G37*
D16*
X51221130Y30855755D03*
G36*
G01*
X42701300Y32063771D02*
X43131437Y33788956D01*
G75*
G02*
X43192048Y33825375I48515J-12096D01*
G01*
X44917233Y33395238D01*
G75*
G02*
X44953652Y33334627I-12096J-48515D01*
G01*
X44523515Y31609442D01*
G75*
G02*
X44462904Y31573023I-48515J12096D01*
G01*
X42737719Y32003160D01*
G75*
G02*
X42701300Y32063771I12096J48515D01*
G01*
G37*
%TD*%
D13*
%TO.C,S10*%
X60274757Y4379012D03*
D14*
X65203859Y3150049D03*
X55345655Y5607975D03*
D15*
X63968271Y8693633D03*
X57192412Y7765286D03*
%TD*%
%TO.C,D10*%
G36*
G01*
X55745210Y-4900844D02*
X56035516Y-3736489D01*
G75*
G02*
X56096127Y-3700070I48515J-12096D01*
G01*
X56969393Y-3917799D01*
G75*
G02*
X57005812Y-3978410I-12096J-48515D01*
G01*
X56715506Y-5142765D01*
G75*
G02*
X56654895Y-5179184I-48515J12096D01*
G01*
X55781629Y-4961455D01*
G75*
G02*
X55745210Y-4900844I12096J48515D01*
G01*
G37*
G36*
G01*
X58947186Y-5699186D02*
X59237492Y-4534831D01*
G75*
G02*
X59298103Y-4498412I48515J-12096D01*
G01*
X60171369Y-4716141D01*
G75*
G02*
X60207788Y-4776752I-12096J-48515D01*
G01*
X59917482Y-5941107D01*
G75*
G02*
X59856871Y-5977526I-48515J12096D01*
G01*
X58983605Y-5759797D01*
G75*
G02*
X58947186Y-5699186I12096J48515D01*
G01*
G37*
D16*
X61673326Y-5760520D03*
G36*
G01*
X53153496Y-4552504D02*
X53583633Y-2827319D01*
G75*
G02*
X53644244Y-2790900I48515J-12096D01*
G01*
X55369429Y-3221037D01*
G75*
G02*
X55405848Y-3281648I-12096J-48515D01*
G01*
X54975711Y-5006833D01*
G75*
G02*
X54915100Y-5043252I-48515J12096D01*
G01*
X53189915Y-4613115D01*
G75*
G02*
X53153496Y-4552504I12096J48515D01*
G01*
G37*
%TD*%
D13*
%TO.C,S11*%
X64871273Y22814631D03*
D14*
X69800375Y21585668D03*
X59942171Y24043594D03*
D15*
X68564787Y27129252D03*
X61788928Y26200905D03*
%TD*%
%TO.C,D11*%
G36*
G01*
X60341726Y13534775D02*
X60632032Y14699130D01*
G75*
G02*
X60692643Y14735549I48515J-12096D01*
G01*
X61565909Y14517820D01*
G75*
G02*
X61602328Y14457209I-12096J-48515D01*
G01*
X61312022Y13292854D01*
G75*
G02*
X61251411Y13256435I-48515J12096D01*
G01*
X60378145Y13474164D01*
G75*
G02*
X60341726Y13534775I12096J48515D01*
G01*
G37*
G36*
G01*
X63543702Y12736433D02*
X63834008Y13900788D01*
G75*
G02*
X63894619Y13937207I48515J-12096D01*
G01*
X64767885Y13719478D01*
G75*
G02*
X64804304Y13658867I-12096J-48515D01*
G01*
X64513998Y12494512D01*
G75*
G02*
X64453387Y12458093I-48515J12096D01*
G01*
X63580121Y12675822D01*
G75*
G02*
X63543702Y12736433I12096J48515D01*
G01*
G37*
D16*
X66269842Y12675099D03*
G36*
G01*
X57750012Y13883115D02*
X58180149Y15608300D01*
G75*
G02*
X58240760Y15644719I48515J-12096D01*
G01*
X59965945Y15214582D01*
G75*
G02*
X60002364Y15153971I-12096J-48515D01*
G01*
X59572227Y13428786D01*
G75*
G02*
X59511616Y13392367I-48515J12096D01*
G01*
X57786431Y13822504D01*
G75*
G02*
X57750012Y13883115I12096J48515D01*
G01*
G37*
%TD*%
D13*
%TO.C,S12*%
X69467789Y41250249D03*
D14*
X74396891Y40021286D03*
X64538687Y42479212D03*
D15*
X73161303Y45564870D03*
X66385444Y44636523D03*
%TD*%
%TO.C,D12*%
G36*
G01*
X64938242Y31970394D02*
X65228548Y33134749D01*
G75*
G02*
X65289159Y33171168I48515J-12096D01*
G01*
X66162425Y32953439D01*
G75*
G02*
X66198844Y32892828I-12096J-48515D01*
G01*
X65908538Y31728473D01*
G75*
G02*
X65847927Y31692054I-48515J12096D01*
G01*
X64974661Y31909783D01*
G75*
G02*
X64938242Y31970394I12096J48515D01*
G01*
G37*
G36*
G01*
X68140218Y31172052D02*
X68430524Y32336407D01*
G75*
G02*
X68491135Y32372826I48515J-12096D01*
G01*
X69364401Y32155097D01*
G75*
G02*
X69400820Y32094486I-12096J-48515D01*
G01*
X69110514Y30930131D01*
G75*
G02*
X69049903Y30893712I-48515J12096D01*
G01*
X68176637Y31111441D01*
G75*
G02*
X68140218Y31172052I12096J48515D01*
G01*
G37*
D16*
X70866358Y31110718D03*
G36*
G01*
X62346528Y32318734D02*
X62776665Y34043919D01*
G75*
G02*
X62837276Y34080338I48515J-12096D01*
G01*
X64562461Y33650201D01*
G75*
G02*
X64598880Y33589590I-12096J-48515D01*
G01*
X64168743Y31864405D01*
G75*
G02*
X64108132Y31827986I-48515J12096D01*
G01*
X62382947Y32258123D01*
G75*
G02*
X62346528Y32318734I12096J48515D01*
G01*
G37*
%TD*%
D13*
%TO.C,S13*%
X77258845Y-6039279D03*
D14*
X82187947Y-7268242D03*
X72329743Y-4810316D03*
D15*
X80952359Y-1724658D03*
X74176500Y-2653005D03*
%TD*%
%TO.C,D13*%
G36*
G01*
X72729298Y-15319134D02*
X73019604Y-14154779D01*
G75*
G02*
X73080215Y-14118360I48515J-12096D01*
G01*
X73953481Y-14336089D01*
G75*
G02*
X73989900Y-14396700I-12096J-48515D01*
G01*
X73699594Y-15561055D01*
G75*
G02*
X73638983Y-15597474I-48515J12096D01*
G01*
X72765717Y-15379745D01*
G75*
G02*
X72729298Y-15319134I12096J48515D01*
G01*
G37*
G36*
G01*
X75931274Y-16117476D02*
X76221580Y-14953121D01*
G75*
G02*
X76282191Y-14916702I48515J-12096D01*
G01*
X77155457Y-15134431D01*
G75*
G02*
X77191876Y-15195042I-12096J-48515D01*
G01*
X76901570Y-16359397D01*
G75*
G02*
X76840959Y-16395816I-48515J12096D01*
G01*
X75967693Y-16178087D01*
G75*
G02*
X75931274Y-16117476I12096J48515D01*
G01*
G37*
D16*
X78657414Y-16178810D03*
G36*
G01*
X70137584Y-14970794D02*
X70567721Y-13245609D01*
G75*
G02*
X70628332Y-13209190I48515J-12096D01*
G01*
X72353517Y-13639327D01*
G75*
G02*
X72389936Y-13699938I-12096J-48515D01*
G01*
X71959799Y-15425123D01*
G75*
G02*
X71899188Y-15461542I-48515J12096D01*
G01*
X70174003Y-15031405D01*
G75*
G02*
X70137584Y-14970794I12096J48515D01*
G01*
G37*
%TD*%
D13*
%TO.C,S14*%
X81855361Y12396340D03*
D14*
X86784463Y11167377D03*
X76926259Y13625303D03*
D15*
X85548875Y16710961D03*
X78773016Y15782614D03*
%TD*%
%TO.C,D14*%
G36*
G01*
X77325814Y3116485D02*
X77616120Y4280840D01*
G75*
G02*
X77676731Y4317259I48515J-12096D01*
G01*
X78549997Y4099530D01*
G75*
G02*
X78586416Y4038919I-12096J-48515D01*
G01*
X78296110Y2874564D01*
G75*
G02*
X78235499Y2838145I-48515J12096D01*
G01*
X77362233Y3055874D01*
G75*
G02*
X77325814Y3116485I12096J48515D01*
G01*
G37*
G36*
G01*
X80527790Y2318143D02*
X80818096Y3482498D01*
G75*
G02*
X80878707Y3518917I48515J-12096D01*
G01*
X81751973Y3301188D01*
G75*
G02*
X81788392Y3240577I-12096J-48515D01*
G01*
X81498086Y2076222D01*
G75*
G02*
X81437475Y2039803I-48515J12096D01*
G01*
X80564209Y2257532D01*
G75*
G02*
X80527790Y2318143I12096J48515D01*
G01*
G37*
D16*
X83253930Y2256809D03*
G36*
G01*
X74734100Y3464825D02*
X75164237Y5190010D01*
G75*
G02*
X75224848Y5226429I48515J-12096D01*
G01*
X76950033Y4796292D01*
G75*
G02*
X76986452Y4735681I-12096J-48515D01*
G01*
X76556315Y3010496D01*
G75*
G02*
X76495704Y2974077I-48515J12096D01*
G01*
X74770519Y3404214D01*
G75*
G02*
X74734100Y3464825I12096J48515D01*
G01*
G37*
%TD*%
D13*
%TO.C,S15*%
X86451877Y30831959D03*
D14*
X91380979Y29602996D03*
X81522775Y32060922D03*
D15*
X90145391Y35146580D03*
X83369532Y34218233D03*
%TD*%
%TO.C,D15*%
G36*
G01*
X81922330Y21552104D02*
X82212636Y22716459D01*
G75*
G02*
X82273247Y22752878I48515J-12096D01*
G01*
X83146513Y22535149D01*
G75*
G02*
X83182932Y22474538I-12096J-48515D01*
G01*
X82892626Y21310183D01*
G75*
G02*
X82832015Y21273764I-48515J12096D01*
G01*
X81958749Y21491493D01*
G75*
G02*
X81922330Y21552104I12096J48515D01*
G01*
G37*
G36*
G01*
X85124306Y20753762D02*
X85414612Y21918117D01*
G75*
G02*
X85475223Y21954536I48515J-12096D01*
G01*
X86348489Y21736807D01*
G75*
G02*
X86384908Y21676196I-12096J-48515D01*
G01*
X86094602Y20511841D01*
G75*
G02*
X86033991Y20475422I-48515J12096D01*
G01*
X85160725Y20693151D01*
G75*
G02*
X85124306Y20753762I12096J48515D01*
G01*
G37*
D16*
X87850446Y20692428D03*
G36*
G01*
X79330616Y21900444D02*
X79760753Y23625629D01*
G75*
G02*
X79821364Y23662048I48515J-12096D01*
G01*
X81546549Y23231911D01*
G75*
G02*
X81582968Y23171300I-12096J-48515D01*
G01*
X81152831Y21446115D01*
G75*
G02*
X81092220Y21409696I-48515J12096D01*
G01*
X79367035Y21839833D01*
G75*
G02*
X79330616Y21900444I12096J48515D01*
G01*
G37*
%TD*%
D13*
%TO.C,S16*%
X95210620Y-12576386D03*
D14*
X100139722Y-13805349D03*
X90281518Y-11347423D03*
D15*
X98904134Y-8261765D03*
X92128275Y-9190112D03*
%TD*%
%TO.C,D16*%
G36*
G01*
X90681073Y-21856242D02*
X90971379Y-20691887D01*
G75*
G02*
X91031990Y-20655468I48515J-12096D01*
G01*
X91905256Y-20873197D01*
G75*
G02*
X91941675Y-20933808I-12096J-48515D01*
G01*
X91651369Y-22098163D01*
G75*
G02*
X91590758Y-22134582I-48515J12096D01*
G01*
X90717492Y-21916853D01*
G75*
G02*
X90681073Y-21856242I12096J48515D01*
G01*
G37*
G36*
G01*
X93883049Y-22654584D02*
X94173355Y-21490229D01*
G75*
G02*
X94233966Y-21453810I48515J-12096D01*
G01*
X95107232Y-21671539D01*
G75*
G02*
X95143651Y-21732150I-12096J-48515D01*
G01*
X94853345Y-22896505D01*
G75*
G02*
X94792734Y-22932924I-48515J12096D01*
G01*
X93919468Y-22715195D01*
G75*
G02*
X93883049Y-22654584I12096J48515D01*
G01*
G37*
D16*
X96609189Y-22715918D03*
G36*
G01*
X88089359Y-21507902D02*
X88519496Y-19782717D01*
G75*
G02*
X88580107Y-19746298I48515J-12096D01*
G01*
X90305292Y-20176435D01*
G75*
G02*
X90341711Y-20237046I-12096J-48515D01*
G01*
X89911574Y-21962231D01*
G75*
G02*
X89850963Y-21998650I-48515J12096D01*
G01*
X88125778Y-21568513D01*
G75*
G02*
X88089359Y-21507902I12096J48515D01*
G01*
G37*
%TD*%
D13*
%TO.C,S17*%
X99807136Y5859233D03*
D14*
X104736238Y4630270D03*
X94878034Y7088196D03*
D15*
X103500650Y10173854D03*
X96724791Y9245507D03*
%TD*%
%TO.C,D17*%
G36*
G01*
X95277589Y-3420623D02*
X95567895Y-2256268D01*
G75*
G02*
X95628506Y-2219849I48515J-12096D01*
G01*
X96501772Y-2437578D01*
G75*
G02*
X96538191Y-2498189I-12096J-48515D01*
G01*
X96247885Y-3662544D01*
G75*
G02*
X96187274Y-3698963I-48515J12096D01*
G01*
X95314008Y-3481234D01*
G75*
G02*
X95277589Y-3420623I12096J48515D01*
G01*
G37*
G36*
G01*
X98479565Y-4218965D02*
X98769871Y-3054610D01*
G75*
G02*
X98830482Y-3018191I48515J-12096D01*
G01*
X99703748Y-3235920D01*
G75*
G02*
X99740167Y-3296531I-12096J-48515D01*
G01*
X99449861Y-4460886D01*
G75*
G02*
X99389250Y-4497305I-48515J12096D01*
G01*
X98515984Y-4279576D01*
G75*
G02*
X98479565Y-4218965I12096J48515D01*
G01*
G37*
D16*
X101205705Y-4280299D03*
G36*
G01*
X92685875Y-3072283D02*
X93116012Y-1347098D01*
G75*
G02*
X93176623Y-1310679I48515J-12096D01*
G01*
X94901808Y-1740816D01*
G75*
G02*
X94938227Y-1801427I-12096J-48515D01*
G01*
X94508090Y-3526612D01*
G75*
G02*
X94447479Y-3563031I-48515J12096D01*
G01*
X92722294Y-3132894D01*
G75*
G02*
X92685875Y-3072283I12096J48515D01*
G01*
G37*
%TD*%
D13*
%TO.C,S18*%
X104403652Y24294852D03*
D14*
X109332754Y23065889D03*
X99474550Y25523815D03*
D15*
X108097166Y28609473D03*
X101321307Y27681126D03*
%TD*%
%TO.C,D18*%
G36*
G01*
X99874105Y15014996D02*
X100164411Y16179351D01*
G75*
G02*
X100225022Y16215770I48515J-12096D01*
G01*
X101098288Y15998041D01*
G75*
G02*
X101134707Y15937430I-12096J-48515D01*
G01*
X100844401Y14773075D01*
G75*
G02*
X100783790Y14736656I-48515J12096D01*
G01*
X99910524Y14954385D01*
G75*
G02*
X99874105Y15014996I12096J48515D01*
G01*
G37*
G36*
G01*
X103076081Y14216654D02*
X103366387Y15381009D01*
G75*
G02*
X103426998Y15417428I48515J-12096D01*
G01*
X104300264Y15199699D01*
G75*
G02*
X104336683Y15139088I-12096J-48515D01*
G01*
X104046377Y13974733D01*
G75*
G02*
X103985766Y13938314I-48515J12096D01*
G01*
X103112500Y14156043D01*
G75*
G02*
X103076081Y14216654I12096J48515D01*
G01*
G37*
D16*
X105802221Y14155320D03*
G36*
G01*
X97282391Y15363336D02*
X97712528Y17088521D01*
G75*
G02*
X97773139Y17124940I48515J-12096D01*
G01*
X99498324Y16694803D01*
G75*
G02*
X99534743Y16634192I-12096J-48515D01*
G01*
X99104606Y14909007D01*
G75*
G02*
X99043995Y14872588I-48515J12096D01*
G01*
X97318810Y15302725D01*
G75*
G02*
X97282391Y15363336I12096J48515D01*
G01*
G37*
%TD*%
D13*
%TO.C,S19*%
X117275067Y-2618466D03*
D14*
X122204169Y-3847429D03*
X112345965Y-1389503D03*
D15*
X120968581Y1696155D03*
X114192722Y767808D03*
%TD*%
%TO.C,D19*%
G36*
G01*
X112745520Y-11898322D02*
X113035826Y-10733967D01*
G75*
G02*
X113096437Y-10697548I48515J-12096D01*
G01*
X113969703Y-10915277D01*
G75*
G02*
X114006122Y-10975888I-12096J-48515D01*
G01*
X113715816Y-12140243D01*
G75*
G02*
X113655205Y-12176662I-48515J12096D01*
G01*
X112781939Y-11958933D01*
G75*
G02*
X112745520Y-11898322I12096J48515D01*
G01*
G37*
G36*
G01*
X115947496Y-12696664D02*
X116237802Y-11532309D01*
G75*
G02*
X116298413Y-11495890I48515J-12096D01*
G01*
X117171679Y-11713619D01*
G75*
G02*
X117208098Y-11774230I-12096J-48515D01*
G01*
X116917792Y-12938585D01*
G75*
G02*
X116857181Y-12975004I-48515J12096D01*
G01*
X115983915Y-12757275D01*
G75*
G02*
X115947496Y-12696664I12096J48515D01*
G01*
G37*
D16*
X118673636Y-12757998D03*
G36*
G01*
X110153806Y-11549982D02*
X110583943Y-9824797D01*
G75*
G02*
X110644554Y-9788378I48515J-12096D01*
G01*
X112369739Y-10218515D01*
G75*
G02*
X112406158Y-10279126I-12096J-48515D01*
G01*
X111976021Y-12004311D01*
G75*
G02*
X111915410Y-12040730I-48515J12096D01*
G01*
X110190225Y-11610593D01*
G75*
G02*
X110153806Y-11549982I12096J48515D01*
G01*
G37*
%TD*%
D13*
%TO.C,S20*%
X121871583Y15817153D03*
D14*
X126800685Y14588190D03*
X116942481Y17046116D03*
D15*
X125565097Y20131774D03*
X118789238Y19203427D03*
%TD*%
%TO.C,D20*%
G36*
G01*
X117342036Y6537297D02*
X117632342Y7701652D01*
G75*
G02*
X117692953Y7738071I48515J-12096D01*
G01*
X118566219Y7520342D01*
G75*
G02*
X118602638Y7459731I-12096J-48515D01*
G01*
X118312332Y6295376D01*
G75*
G02*
X118251721Y6258957I-48515J12096D01*
G01*
X117378455Y6476686D01*
G75*
G02*
X117342036Y6537297I12096J48515D01*
G01*
G37*
G36*
G01*
X120544012Y5738955D02*
X120834318Y6903310D01*
G75*
G02*
X120894929Y6939729I48515J-12096D01*
G01*
X121768195Y6722000D01*
G75*
G02*
X121804614Y6661389I-12096J-48515D01*
G01*
X121514308Y5497034D01*
G75*
G02*
X121453697Y5460615I-48515J12096D01*
G01*
X120580431Y5678344D01*
G75*
G02*
X120544012Y5738955I12096J48515D01*
G01*
G37*
D16*
X123270152Y5677621D03*
G36*
G01*
X114750322Y6885637D02*
X115180459Y8610822D01*
G75*
G02*
X115241070Y8647241I48515J-12096D01*
G01*
X116966255Y8217104D01*
G75*
G02*
X117002674Y8156493I-12096J-48515D01*
G01*
X116572537Y6431308D01*
G75*
G02*
X116511926Y6394889I-48515J12096D01*
G01*
X114786741Y6825026D01*
G75*
G02*
X114750322Y6885637I12096J48515D01*
G01*
G37*
%TD*%
D13*
%TO.C,S21*%
X82370502Y-35140326D03*
D14*
X87299604Y-36369289D03*
X77441400Y-33911363D03*
D15*
X86064016Y-30825705D03*
X79288157Y-31754052D03*
%TD*%
%TO.C,D21*%
G36*
G01*
X77840955Y-44420181D02*
X78131261Y-43255826D01*
G75*
G02*
X78191872Y-43219407I48515J-12096D01*
G01*
X79065138Y-43437136D01*
G75*
G02*
X79101557Y-43497747I-12096J-48515D01*
G01*
X78811251Y-44662102D01*
G75*
G02*
X78750640Y-44698521I-48515J12096D01*
G01*
X77877374Y-44480792D01*
G75*
G02*
X77840955Y-44420181I12096J48515D01*
G01*
G37*
G36*
G01*
X81042931Y-45218523D02*
X81333237Y-44054168D01*
G75*
G02*
X81393848Y-44017749I48515J-12096D01*
G01*
X82267114Y-44235478D01*
G75*
G02*
X82303533Y-44296089I-12096J-48515D01*
G01*
X82013227Y-45460444D01*
G75*
G02*
X81952616Y-45496863I-48515J12096D01*
G01*
X81079350Y-45279134D01*
G75*
G02*
X81042931Y-45218523I12096J48515D01*
G01*
G37*
D16*
X83769071Y-45279857D03*
G36*
G01*
X75249241Y-44071841D02*
X75679378Y-42346656D01*
G75*
G02*
X75739989Y-42310237I48515J-12096D01*
G01*
X77465174Y-42740374D01*
G75*
G02*
X77501593Y-42800985I-12096J-48515D01*
G01*
X77071456Y-44526170D01*
G75*
G02*
X77010845Y-44562589I-48515J12096D01*
G01*
X75285660Y-44132452D01*
G75*
G02*
X75249241Y-44071841I12096J48515D01*
G01*
G37*
%TD*%
D13*
%TO.C,S22*%
X112928949Y-33483880D03*
D14*
X117237033Y-36175870D03*
X108620865Y-30791890D03*
D15*
X117774981Y-30521791D03*
X111043881Y-29310845D03*
%TD*%
%TO.C,D22*%
G36*
G01*
X105753462Y-40909839D02*
X106389365Y-39892181D01*
G75*
G02*
X106458263Y-39876275I42402J-26496D01*
G01*
X107221506Y-40353203D01*
G75*
G02*
X107237412Y-40422101I-26496J-42402D01*
G01*
X106601509Y-41439759D01*
G75*
G02*
X106532611Y-41455665I-42402J26496D01*
G01*
X105769368Y-40978737D01*
G75*
G02*
X105753462Y-40909839I26496J42402D01*
G01*
G37*
G36*
G01*
X108552020Y-42658573D02*
X109187923Y-41640915D01*
G75*
G02*
X109256821Y-41625009I42402J-26496D01*
G01*
X110020064Y-42101937D01*
G75*
G02*
X110035970Y-42170835I-26496J-42402D01*
G01*
X109400067Y-43188493D01*
G75*
G02*
X109331169Y-43204399I-42402J26496D01*
G01*
X108567926Y-42727471D01*
G75*
G02*
X108552020Y-42658573I26496J42402D01*
G01*
G37*
D16*
X111125779Y-43559329D03*
G36*
G01*
X103396238Y-39777666D02*
X104338434Y-38269836D01*
G75*
G02*
X104407332Y-38253930I42402J-26496D01*
G01*
X105915162Y-39196126D01*
G75*
G02*
X105931068Y-39265024I-26496J-42402D01*
G01*
X104988872Y-40772854D01*
G75*
G02*
X104919974Y-40788760I-42402J26496D01*
G01*
X103412144Y-39846564D01*
G75*
G02*
X103396238Y-39777666I26496J42402D01*
G01*
G37*
%TD*%
D13*
%TO.C,S23*%
X132964196Y-47182470D03*
D14*
X136967291Y-50310030D03*
X128961101Y-44054910D03*
D15*
X138093304Y-44743156D03*
X131525655Y-42835252D03*
%TD*%
%TO.C,D23*%
G36*
G01*
X125051791Y-53817707D02*
X125790585Y-52872094D01*
G75*
G02*
X125860769Y-52863476I39401J-30783D01*
G01*
X126569979Y-53417571D01*
G75*
G02*
X126578597Y-53487755I-30783J-39401D01*
G01*
X125839803Y-54433368D01*
G75*
G02*
X125769619Y-54441986I-39401J30783D01*
G01*
X125060409Y-53887891D01*
G75*
G02*
X125051791Y-53817707I30783J39401D01*
G01*
G37*
G36*
G01*
X127652227Y-55849389D02*
X128391021Y-54903776D01*
G75*
G02*
X128461205Y-54895158I39401J-30783D01*
G01*
X129170415Y-55449253D01*
G75*
G02*
X129179033Y-55519437I-30783J-39401D01*
G01*
X128440239Y-56465050D01*
G75*
G02*
X128370055Y-56473668I-39401J30783D01*
G01*
X127660845Y-55919573D01*
G75*
G02*
X127652227Y-55849389I30783J39401D01*
G01*
G37*
D16*
X130117733Y-57014242D03*
G36*
G01*
X122825825Y-52445338D02*
X123920471Y-51044254D01*
G75*
G02*
X123990655Y-51035636I39401J-30783D01*
G01*
X125391739Y-52130282D01*
G75*
G02*
X125400357Y-52200466I-30783J-39401D01*
G01*
X124305711Y-53601550D01*
G75*
G02*
X124235527Y-53610168I-39401J30783D01*
G01*
X122834443Y-52515522D01*
G75*
G02*
X122825825Y-52445338I30783J39401D01*
G01*
G37*
%TD*%
D13*
%TO.C,S24*%
X102860483Y-49596794D03*
D14*
X107168567Y-52288784D03*
X98552399Y-46904804D03*
D15*
X107706515Y-46634705D03*
X100975415Y-45423759D03*
%TD*%
%TO.C,D24*%
G36*
G01*
X95684996Y-57022753D02*
X96320899Y-56005095D01*
G75*
G02*
X96389797Y-55989189I42402J-26496D01*
G01*
X97153040Y-56466117D01*
G75*
G02*
X97168946Y-56535015I-26496J-42402D01*
G01*
X96533043Y-57552673D01*
G75*
G02*
X96464145Y-57568579I-42402J26496D01*
G01*
X95700902Y-57091651D01*
G75*
G02*
X95684996Y-57022753I26496J42402D01*
G01*
G37*
G36*
G01*
X98483554Y-58771487D02*
X99119457Y-57753829D01*
G75*
G02*
X99188355Y-57737923I42402J-26496D01*
G01*
X99951598Y-58214851D01*
G75*
G02*
X99967504Y-58283749I-26496J-42402D01*
G01*
X99331601Y-59301407D01*
G75*
G02*
X99262703Y-59317313I-42402J26496D01*
G01*
X98499460Y-58840385D01*
G75*
G02*
X98483554Y-58771487I26496J42402D01*
G01*
G37*
D16*
X101057313Y-59672243D03*
G36*
G01*
X93327772Y-55890580D02*
X94269968Y-54382750D01*
G75*
G02*
X94338866Y-54366844I42402J-26496D01*
G01*
X95846696Y-55309040D01*
G75*
G02*
X95862602Y-55377938I-26496J-42402D01*
G01*
X94920406Y-56885768D01*
G75*
G02*
X94851508Y-56901674I-42402J26496D01*
G01*
X93343678Y-55959478D01*
G75*
G02*
X93327772Y-55890580I26496J42402D01*
G01*
G37*
%TD*%
D13*
%TO.C,S25*%
X121082830Y-62212465D03*
D14*
X125085925Y-65340025D03*
X117079735Y-59084905D03*
D15*
X126211938Y-59773151D03*
X119644289Y-57865247D03*
%TD*%
%TO.C,D25*%
G36*
G01*
X113170425Y-68847703D02*
X113909219Y-67902090D01*
G75*
G02*
X113979403Y-67893472I39401J-30783D01*
G01*
X114688613Y-68447567D01*
G75*
G02*
X114697231Y-68517751I-30783J-39401D01*
G01*
X113958437Y-69463364D01*
G75*
G02*
X113888253Y-69471982I-39401J30783D01*
G01*
X113179043Y-68917887D01*
G75*
G02*
X113170425Y-68847703I30783J39401D01*
G01*
G37*
G36*
G01*
X115770861Y-70879385D02*
X116509655Y-69933772D01*
G75*
G02*
X116579839Y-69925154I39401J-30783D01*
G01*
X117289049Y-70479249D01*
G75*
G02*
X117297667Y-70549433I-30783J-39401D01*
G01*
X116558873Y-71495046D01*
G75*
G02*
X116488689Y-71503664I-39401J30783D01*
G01*
X115779479Y-70949569D01*
G75*
G02*
X115770861Y-70879385I30783J39401D01*
G01*
G37*
D16*
X118236367Y-72044238D03*
G36*
G01*
X110944459Y-67475334D02*
X112039105Y-66074250D01*
G75*
G02*
X112109289Y-66065632I39401J-30783D01*
G01*
X113510373Y-67160278D01*
G75*
G02*
X113518991Y-67230462I-30783J-39401D01*
G01*
X112424345Y-68631546D01*
G75*
G02*
X112354161Y-68640164I-39401J30783D01*
G01*
X110953077Y-67545518D01*
G75*
G02*
X110944459Y-67475334I30783J39401D01*
G01*
G37*
%TD*%
D13*
%TO.C,S26*%
X301598631Y0D03*
D14*
X306601454Y882133D03*
X296595808Y-882133D03*
D15*
X303217910Y5443890D03*
X297405447Y1839812D03*
%TD*%
%TO.C,D26*%
G36*
G01*
X301235141Y-10319901D02*
X301026764Y-9138132D01*
G75*
G02*
X301067322Y-9080210I49240J8682D01*
G01*
X301953649Y-8923927D01*
G75*
G02*
X302011571Y-8964485I8682J-49240D01*
G01*
X302219948Y-10146254D01*
G75*
G02*
X302179390Y-10204176I-49240J-8682D01*
G01*
X301293063Y-10360459D01*
G75*
G02*
X301235141Y-10319901I-8682J49240D01*
G01*
G37*
G36*
G01*
X304485007Y-9746863D02*
X304276630Y-8565094D01*
G75*
G02*
X304317188Y-8507172I49240J8682D01*
G01*
X305203515Y-8350889D01*
G75*
G02*
X305261437Y-8391447I8682J-49240D01*
G01*
X305469814Y-9573216D01*
G75*
G02*
X305429256Y-9631138I-49240J-8682D01*
G01*
X304542929Y-9787421D01*
G75*
G02*
X304485007Y-9746863I-8682J49240D01*
G01*
G37*
D16*
X307000407Y-8694074D03*
G36*
G01*
X298725810Y-11055823D02*
X298417064Y-9304835D01*
G75*
G02*
X298457622Y-9246913I49240J8682D01*
G01*
X300208610Y-8938167D01*
G75*
G02*
X300266532Y-8978725I8682J-49240D01*
G01*
X300575278Y-10729713D01*
G75*
G02*
X300534720Y-10787635I-49240J-8682D01*
G01*
X298783732Y-11096381D01*
G75*
G02*
X298725810Y-11055823I-8682J49240D01*
G01*
G37*
%TD*%
D13*
%TO.C,S27*%
X298299315Y18711347D03*
D14*
X303302138Y19593480D03*
X293296492Y17829214D03*
D15*
X299918594Y24155237D03*
X294106131Y20551159D03*
%TD*%
%TO.C,D27*%
G36*
G01*
X297935825Y8391447D02*
X297727448Y9573216D01*
G75*
G02*
X297768006Y9631138I49240J8682D01*
G01*
X298654333Y9787421D01*
G75*
G02*
X298712255Y9746863I8682J-49240D01*
G01*
X298920632Y8565094D01*
G75*
G02*
X298880074Y8507172I-49240J-8682D01*
G01*
X297993747Y8350889D01*
G75*
G02*
X297935825Y8391447I-8682J49240D01*
G01*
G37*
G36*
G01*
X301185691Y8964485D02*
X300977314Y10146254D01*
G75*
G02*
X301017872Y10204176I49240J8682D01*
G01*
X301904199Y10360459D01*
G75*
G02*
X301962121Y10319901I8682J-49240D01*
G01*
X302170498Y9138132D01*
G75*
G02*
X302129940Y9080210I-49240J-8682D01*
G01*
X301243613Y8923927D01*
G75*
G02*
X301185691Y8964485I-8682J49240D01*
G01*
G37*
D16*
X303701091Y10017274D03*
G36*
G01*
X295426494Y7655525D02*
X295117748Y9406513D01*
G75*
G02*
X295158306Y9464435I49240J8682D01*
G01*
X296909294Y9773181D01*
G75*
G02*
X296967216Y9732623I8682J-49240D01*
G01*
X297275962Y7981635D01*
G75*
G02*
X297235404Y7923713I-49240J-8682D01*
G01*
X295484416Y7614967D01*
G75*
G02*
X295426494Y7655525I-8682J49240D01*
G01*
G37*
%TD*%
D13*
%TO.C,S28*%
X295000000Y37422695D03*
D14*
X300002823Y38304828D03*
X289997177Y36540562D03*
D15*
X296619279Y42866585D03*
X290806816Y39262507D03*
%TD*%
%TO.C,D28*%
G36*
G01*
X294636510Y27102794D02*
X294428133Y28284563D01*
G75*
G02*
X294468691Y28342485I49240J8682D01*
G01*
X295355018Y28498768D01*
G75*
G02*
X295412940Y28458210I8682J-49240D01*
G01*
X295621317Y27276441D01*
G75*
G02*
X295580759Y27218519I-49240J-8682D01*
G01*
X294694432Y27062236D01*
G75*
G02*
X294636510Y27102794I-8682J49240D01*
G01*
G37*
G36*
G01*
X297886376Y27675832D02*
X297677999Y28857601D01*
G75*
G02*
X297718557Y28915523I49240J8682D01*
G01*
X298604884Y29071806D01*
G75*
G02*
X298662806Y29031248I8682J-49240D01*
G01*
X298871183Y27849479D01*
G75*
G02*
X298830625Y27791557I-49240J-8682D01*
G01*
X297944298Y27635274D01*
G75*
G02*
X297886376Y27675832I-8682J49240D01*
G01*
G37*
D16*
X300401776Y28728621D03*
G36*
G01*
X292127179Y26366872D02*
X291818433Y28117860D01*
G75*
G02*
X291858991Y28175782I49240J8682D01*
G01*
X293609979Y28484528D01*
G75*
G02*
X293667901Y28443970I8682J-49240D01*
G01*
X293976647Y26692982D01*
G75*
G02*
X293936089Y26635060I-49240J-8682D01*
G01*
X292185101Y26326314D01*
G75*
G02*
X292127179Y26366872I-8682J49240D01*
G01*
G37*
%TD*%
D13*
%TO.C,S29*%
X282887284Y-3299315D03*
D14*
X287890107Y-2417182D03*
X277884461Y-4181448D03*
D15*
X284506563Y2144575D03*
X278694100Y-1459503D03*
%TD*%
%TO.C,D29*%
G36*
G01*
X282523793Y-13619216D02*
X282315416Y-12437447D01*
G75*
G02*
X282355974Y-12379525I49240J8682D01*
G01*
X283242301Y-12223242D01*
G75*
G02*
X283300223Y-12263800I8682J-49240D01*
G01*
X283508600Y-13445569D01*
G75*
G02*
X283468042Y-13503491I-49240J-8682D01*
G01*
X282581715Y-13659774D01*
G75*
G02*
X282523793Y-13619216I-8682J49240D01*
G01*
G37*
G36*
G01*
X285773659Y-13046178D02*
X285565282Y-11864409D01*
G75*
G02*
X285605840Y-11806487I49240J8682D01*
G01*
X286492167Y-11650204D01*
G75*
G02*
X286550089Y-11690762I8682J-49240D01*
G01*
X286758466Y-12872531D01*
G75*
G02*
X286717908Y-12930453I-49240J-8682D01*
G01*
X285831581Y-13086736D01*
G75*
G02*
X285773659Y-13046178I-8682J49240D01*
G01*
G37*
D16*
X288289059Y-11993389D03*
G36*
G01*
X280014462Y-14355138D02*
X279705716Y-12604150D01*
G75*
G02*
X279746274Y-12546228I49240J8682D01*
G01*
X281497262Y-12237482D01*
G75*
G02*
X281555184Y-12278040I8682J-49240D01*
G01*
X281863930Y-14029028D01*
G75*
G02*
X281823372Y-14086950I-49240J-8682D01*
G01*
X280072384Y-14395696D01*
G75*
G02*
X280014462Y-14355138I-8682J49240D01*
G01*
G37*
%TD*%
D13*
%TO.C,S30*%
X279587968Y15412032D03*
D14*
X284590791Y16294165D03*
X274585145Y14529899D03*
D15*
X281207247Y20855922D03*
X275394784Y17251844D03*
%TD*%
%TO.C,D30*%
G36*
G01*
X279224478Y5092131D02*
X279016101Y6273900D01*
G75*
G02*
X279056659Y6331822I49240J8682D01*
G01*
X279942986Y6488105D01*
G75*
G02*
X280000908Y6447547I8682J-49240D01*
G01*
X280209285Y5265778D01*
G75*
G02*
X280168727Y5207856I-49240J-8682D01*
G01*
X279282400Y5051573D01*
G75*
G02*
X279224478Y5092131I-8682J49240D01*
G01*
G37*
G36*
G01*
X282474344Y5665169D02*
X282265967Y6846938D01*
G75*
G02*
X282306525Y6904860I49240J8682D01*
G01*
X283192852Y7061143D01*
G75*
G02*
X283250774Y7020585I8682J-49240D01*
G01*
X283459151Y5838816D01*
G75*
G02*
X283418593Y5780894I-49240J-8682D01*
G01*
X282532266Y5624611D01*
G75*
G02*
X282474344Y5665169I-8682J49240D01*
G01*
G37*
D16*
X284989744Y6717958D03*
G36*
G01*
X276715147Y4356209D02*
X276406401Y6107197D01*
G75*
G02*
X276446959Y6165119I49240J8682D01*
G01*
X278197947Y6473865D01*
G75*
G02*
X278255869Y6433307I8682J-49240D01*
G01*
X278564615Y4682319D01*
G75*
G02*
X278524057Y4624397I-49240J-8682D01*
G01*
X276773069Y4315651D01*
G75*
G02*
X276715147Y4356209I-8682J49240D01*
G01*
G37*
%TD*%
D13*
%TO.C,S31*%
X276288653Y34123379D03*
D14*
X281291476Y35005512D03*
X271285830Y33241246D03*
D15*
X277907932Y39567269D03*
X272095469Y35963191D03*
%TD*%
%TO.C,D31*%
G36*
G01*
X275925163Y23803479D02*
X275716786Y24985248D01*
G75*
G02*
X275757344Y25043170I49240J8682D01*
G01*
X276643671Y25199453D01*
G75*
G02*
X276701593Y25158895I8682J-49240D01*
G01*
X276909970Y23977126D01*
G75*
G02*
X276869412Y23919204I-49240J-8682D01*
G01*
X275983085Y23762921D01*
G75*
G02*
X275925163Y23803479I-8682J49240D01*
G01*
G37*
G36*
G01*
X279175029Y24376517D02*
X278966652Y25558286D01*
G75*
G02*
X279007210Y25616208I49240J8682D01*
G01*
X279893537Y25772491D01*
G75*
G02*
X279951459Y25731933I8682J-49240D01*
G01*
X280159836Y24550164D01*
G75*
G02*
X280119278Y24492242I-49240J-8682D01*
G01*
X279232951Y24335959D01*
G75*
G02*
X279175029Y24376517I-8682J49240D01*
G01*
G37*
D16*
X281690429Y25429306D03*
G36*
G01*
X273415832Y23067557D02*
X273107086Y24818545D01*
G75*
G02*
X273147644Y24876467I49240J8682D01*
G01*
X274898632Y25185213D01*
G75*
G02*
X274956554Y25144655I8682J-49240D01*
G01*
X275265300Y23393667D01*
G75*
G02*
X275224742Y23335745I-49240J-8682D01*
G01*
X273473754Y23026999D01*
G75*
G02*
X273415832Y23067557I-8682J49240D01*
G01*
G37*
%TD*%
D13*
%TO.C,S32*%
X260969102Y4124049D03*
D14*
X265898204Y5353012D03*
X256040000Y2895086D03*
D15*
X262204690Y9667633D03*
X256657794Y5666878D03*
%TD*%
%TO.C,D32*%
G36*
G01*
X261326377Y-6196069D02*
X261036071Y-5031714D01*
G75*
G02*
X261072490Y-4971103I48515J12096D01*
G01*
X261945756Y-4753374D01*
G75*
G02*
X262006367Y-4789793I12096J-48515D01*
G01*
X262296673Y-5954148D01*
G75*
G02*
X262260254Y-6014759I-48515J-12096D01*
G01*
X261386988Y-6232488D01*
G75*
G02*
X261326377Y-6196069I-12096J48515D01*
G01*
G37*
G36*
G01*
X264528353Y-5397727D02*
X264238047Y-4233372D01*
G75*
G02*
X264274466Y-4172761I48515J12096D01*
G01*
X265147732Y-3955032D01*
G75*
G02*
X265208343Y-3991451I12096J-48515D01*
G01*
X265498649Y-5155806D01*
G75*
G02*
X265462230Y-5216417I-48515J-12096D01*
G01*
X264588964Y-5434146D01*
G75*
G02*
X264528353Y-5397727I-12096J48515D01*
G01*
G37*
D16*
X266964187Y-4172038D03*
G36*
G01*
X258874494Y-7105239D02*
X258444357Y-5380054D01*
G75*
G02*
X258480776Y-5319443I48515J12096D01*
G01*
X260205961Y-4889306D01*
G75*
G02*
X260266572Y-4925725I12096J-48515D01*
G01*
X260696709Y-6650910D01*
G75*
G02*
X260660290Y-6711521I-48515J-12096D01*
G01*
X258935105Y-7141658D01*
G75*
G02*
X258874494Y-7105239I-12096J48515D01*
G01*
G37*
%TD*%
D13*
%TO.C,S33*%
X256372586Y22559668D03*
D14*
X261301688Y23788631D03*
X251443484Y21330705D03*
D15*
X257608174Y28103252D03*
X252061278Y24102497D03*
%TD*%
%TO.C,D33*%
G36*
G01*
X256729861Y12239550D02*
X256439555Y13403905D01*
G75*
G02*
X256475974Y13464516I48515J12096D01*
G01*
X257349240Y13682245D01*
G75*
G02*
X257409851Y13645826I12096J-48515D01*
G01*
X257700157Y12481471D01*
G75*
G02*
X257663738Y12420860I-48515J-12096D01*
G01*
X256790472Y12203131D01*
G75*
G02*
X256729861Y12239550I-12096J48515D01*
G01*
G37*
G36*
G01*
X259931837Y13037892D02*
X259641531Y14202247D01*
G75*
G02*
X259677950Y14262858I48515J12096D01*
G01*
X260551216Y14480587D01*
G75*
G02*
X260611827Y14444168I12096J-48515D01*
G01*
X260902133Y13279813D01*
G75*
G02*
X260865714Y13219202I-48515J-12096D01*
G01*
X259992448Y13001473D01*
G75*
G02*
X259931837Y13037892I-12096J48515D01*
G01*
G37*
D16*
X262367671Y14263581D03*
G36*
G01*
X254277978Y11330380D02*
X253847841Y13055565D01*
G75*
G02*
X253884260Y13116176I48515J12096D01*
G01*
X255609445Y13546313D01*
G75*
G02*
X255670056Y13509894I12096J-48515D01*
G01*
X256100193Y11784709D01*
G75*
G02*
X256063774Y11724098I-48515J-12096D01*
G01*
X254338589Y11293961D01*
G75*
G02*
X254277978Y11330380I-12096J48515D01*
G01*
G37*
%TD*%
D13*
%TO.C,S34*%
X251776070Y40995287D03*
D14*
X256705172Y42224250D03*
X246846968Y39766324D03*
D15*
X253011658Y46538871D03*
X247464762Y42538116D03*
%TD*%
%TO.C,D34*%
G36*
G01*
X252133345Y30675168D02*
X251843039Y31839523D01*
G75*
G02*
X251879458Y31900134I48515J12096D01*
G01*
X252752724Y32117863D01*
G75*
G02*
X252813335Y32081444I12096J-48515D01*
G01*
X253103641Y30917089D01*
G75*
G02*
X253067222Y30856478I-48515J-12096D01*
G01*
X252193956Y30638749D01*
G75*
G02*
X252133345Y30675168I-12096J48515D01*
G01*
G37*
G36*
G01*
X255335321Y31473510D02*
X255045015Y32637865D01*
G75*
G02*
X255081434Y32698476I48515J12096D01*
G01*
X255954700Y32916205D01*
G75*
G02*
X256015311Y32879786I12096J-48515D01*
G01*
X256305617Y31715431D01*
G75*
G02*
X256269198Y31654820I-48515J-12096D01*
G01*
X255395932Y31437091D01*
G75*
G02*
X255335321Y31473510I-12096J48515D01*
G01*
G37*
D16*
X257771155Y32699199D03*
G36*
G01*
X249681462Y29765998D02*
X249251325Y31491183D01*
G75*
G02*
X249287744Y31551794I48515J12096D01*
G01*
X251012929Y31981931D01*
G75*
G02*
X251073540Y31945512I12096J-48515D01*
G01*
X251503677Y30220327D01*
G75*
G02*
X251467258Y30159716I-48515J-12096D01*
G01*
X249742073Y29729579D01*
G75*
G02*
X249681462Y29765998I-12096J48515D01*
G01*
G37*
%TD*%
D13*
%TO.C,S35*%
X241323873Y4379012D03*
D14*
X246252975Y5607975D03*
X236394771Y3150049D03*
D15*
X242559461Y9922596D03*
X237012565Y5921841D03*
%TD*%
%TO.C,D35*%
G36*
G01*
X241681148Y-5941107D02*
X241390842Y-4776752D01*
G75*
G02*
X241427261Y-4716141I48515J12096D01*
G01*
X242300527Y-4498412D01*
G75*
G02*
X242361138Y-4534831I12096J-48515D01*
G01*
X242651444Y-5699186D01*
G75*
G02*
X242615025Y-5759797I-48515J-12096D01*
G01*
X241741759Y-5977526D01*
G75*
G02*
X241681148Y-5941107I-12096J48515D01*
G01*
G37*
G36*
G01*
X244883124Y-5142765D02*
X244592818Y-3978410D01*
G75*
G02*
X244629237Y-3917799I48515J12096D01*
G01*
X245502503Y-3700070D01*
G75*
G02*
X245563114Y-3736489I12096J-48515D01*
G01*
X245853420Y-4900844D01*
G75*
G02*
X245817001Y-4961455I-48515J-12096D01*
G01*
X244943735Y-5179184D01*
G75*
G02*
X244883124Y-5142765I-12096J48515D01*
G01*
G37*
D16*
X247318958Y-3917076D03*
G36*
G01*
X239229265Y-6850277D02*
X238799128Y-5125092D01*
G75*
G02*
X238835547Y-5064481I48515J12096D01*
G01*
X240560732Y-4634344D01*
G75*
G02*
X240621343Y-4670763I12096J-48515D01*
G01*
X241051480Y-6395948D01*
G75*
G02*
X241015061Y-6456559I-48515J-12096D01*
G01*
X239289876Y-6886696D01*
G75*
G02*
X239229265Y-6850277I-12096J48515D01*
G01*
G37*
%TD*%
D13*
%TO.C,S36*%
X236727357Y22814631D03*
D14*
X241656459Y24043594D03*
X231798255Y21585668D03*
D15*
X237962945Y28358215D03*
X232416049Y24357460D03*
%TD*%
%TO.C,D36*%
G36*
G01*
X237084632Y12494512D02*
X236794326Y13658867D01*
G75*
G02*
X236830745Y13719478I48515J12096D01*
G01*
X237704011Y13937207D01*
G75*
G02*
X237764622Y13900788I12096J-48515D01*
G01*
X238054928Y12736433D01*
G75*
G02*
X238018509Y12675822I-48515J-12096D01*
G01*
X237145243Y12458093D01*
G75*
G02*
X237084632Y12494512I-12096J48515D01*
G01*
G37*
G36*
G01*
X240286608Y13292854D02*
X239996302Y14457209D01*
G75*
G02*
X240032721Y14517820I48515J12096D01*
G01*
X240905987Y14735549D01*
G75*
G02*
X240966598Y14699130I12096J-48515D01*
G01*
X241256904Y13534775D01*
G75*
G02*
X241220485Y13474164I-48515J-12096D01*
G01*
X240347219Y13256435D01*
G75*
G02*
X240286608Y13292854I-12096J48515D01*
G01*
G37*
D16*
X242722442Y14518543D03*
G36*
G01*
X234632749Y11585342D02*
X234202612Y13310527D01*
G75*
G02*
X234239031Y13371138I48515J12096D01*
G01*
X235964216Y13801275D01*
G75*
G02*
X236024827Y13764856I12096J-48515D01*
G01*
X236454964Y12039671D01*
G75*
G02*
X236418545Y11979060I-48515J-12096D01*
G01*
X234693360Y11548923D01*
G75*
G02*
X234632749Y11585342I-12096J48515D01*
G01*
G37*
%TD*%
D13*
%TO.C,S37*%
X232130841Y41250249D03*
D14*
X237059943Y42479212D03*
X227201739Y40021286D03*
D15*
X233366429Y46793833D03*
X227819533Y42793078D03*
%TD*%
%TO.C,D37*%
G36*
G01*
X232488116Y30930131D02*
X232197810Y32094486D01*
G75*
G02*
X232234229Y32155097I48515J12096D01*
G01*
X233107495Y32372826D01*
G75*
G02*
X233168106Y32336407I12096J-48515D01*
G01*
X233458412Y31172052D01*
G75*
G02*
X233421993Y31111441I-48515J-12096D01*
G01*
X232548727Y30893712D01*
G75*
G02*
X232488116Y30930131I-12096J48515D01*
G01*
G37*
G36*
G01*
X235690092Y31728473D02*
X235399786Y32892828D01*
G75*
G02*
X235436205Y32953439I48515J12096D01*
G01*
X236309471Y33171168D01*
G75*
G02*
X236370082Y33134749I12096J-48515D01*
G01*
X236660388Y31970394D01*
G75*
G02*
X236623969Y31909783I-48515J-12096D01*
G01*
X235750703Y31692054D01*
G75*
G02*
X235690092Y31728473I-12096J48515D01*
G01*
G37*
D16*
X238125926Y32954162D03*
G36*
G01*
X230036233Y30020961D02*
X229606096Y31746146D01*
G75*
G02*
X229642515Y31806757I48515J12096D01*
G01*
X231367700Y32236894D01*
G75*
G02*
X231428311Y32200475I12096J-48515D01*
G01*
X231858448Y30475290D01*
G75*
G02*
X231822029Y30414679I-48515J-12096D01*
G01*
X230096844Y29984542D01*
G75*
G02*
X230036233Y30020961I-12096J48515D01*
G01*
G37*
%TD*%
D13*
%TO.C,S38*%
X224339786Y-6039279D03*
D14*
X229268888Y-4810316D03*
X219410684Y-7268242D03*
D15*
X225575374Y-495695D03*
X220028478Y-4496450D03*
%TD*%
%TO.C,D38*%
G36*
G01*
X224697061Y-16359397D02*
X224406755Y-15195042D01*
G75*
G02*
X224443174Y-15134431I48515J12096D01*
G01*
X225316440Y-14916702D01*
G75*
G02*
X225377051Y-14953121I12096J-48515D01*
G01*
X225667357Y-16117476D01*
G75*
G02*
X225630938Y-16178087I-48515J-12096D01*
G01*
X224757672Y-16395816D01*
G75*
G02*
X224697061Y-16359397I-12096J48515D01*
G01*
G37*
G36*
G01*
X227899037Y-15561055D02*
X227608731Y-14396700D01*
G75*
G02*
X227645150Y-14336089I48515J12096D01*
G01*
X228518416Y-14118360D01*
G75*
G02*
X228579027Y-14154779I12096J-48515D01*
G01*
X228869333Y-15319134D01*
G75*
G02*
X228832914Y-15379745I-48515J-12096D01*
G01*
X227959648Y-15597474D01*
G75*
G02*
X227899037Y-15561055I-12096J48515D01*
G01*
G37*
D16*
X230334871Y-14335366D03*
G36*
G01*
X222245178Y-17268567D02*
X221815041Y-15543382D01*
G75*
G02*
X221851460Y-15482771I48515J12096D01*
G01*
X223576645Y-15052634D01*
G75*
G02*
X223637256Y-15089053I12096J-48515D01*
G01*
X224067393Y-16814238D01*
G75*
G02*
X224030974Y-16874849I-48515J-12096D01*
G01*
X222305789Y-17304986D01*
G75*
G02*
X222245178Y-17268567I-12096J48515D01*
G01*
G37*
%TD*%
D13*
%TO.C,S39*%
X219743270Y12396340D03*
D14*
X224672372Y13625303D03*
X214814168Y11167377D03*
D15*
X220978858Y17939924D03*
X215431962Y13939169D03*
%TD*%
%TO.C,D39*%
G36*
G01*
X220100545Y2076222D02*
X219810239Y3240577D01*
G75*
G02*
X219846658Y3301188I48515J12096D01*
G01*
X220719924Y3518917D01*
G75*
G02*
X220780535Y3482498I12096J-48515D01*
G01*
X221070841Y2318143D01*
G75*
G02*
X221034422Y2257532I-48515J-12096D01*
G01*
X220161156Y2039803D01*
G75*
G02*
X220100545Y2076222I-12096J48515D01*
G01*
G37*
G36*
G01*
X223302521Y2874564D02*
X223012215Y4038919D01*
G75*
G02*
X223048634Y4099530I48515J12096D01*
G01*
X223921900Y4317259D01*
G75*
G02*
X223982511Y4280840I12096J-48515D01*
G01*
X224272817Y3116485D01*
G75*
G02*
X224236398Y3055874I-48515J-12096D01*
G01*
X223363132Y2838145D01*
G75*
G02*
X223302521Y2874564I-12096J48515D01*
G01*
G37*
D16*
X225738355Y4100253D03*
G36*
G01*
X217648662Y1167052D02*
X217218525Y2892237D01*
G75*
G02*
X217254944Y2952848I48515J12096D01*
G01*
X218980129Y3382985D01*
G75*
G02*
X219040740Y3346566I12096J-48515D01*
G01*
X219470877Y1621381D01*
G75*
G02*
X219434458Y1560770I-48515J-12096D01*
G01*
X217709273Y1130633D01*
G75*
G02*
X217648662Y1167052I-12096J48515D01*
G01*
G37*
%TD*%
D13*
%TO.C,S40*%
X215146754Y30831959D03*
D14*
X220075856Y32060922D03*
X210217652Y29602996D03*
D15*
X216382342Y36375543D03*
X210835446Y32374788D03*
%TD*%
%TO.C,D40*%
G36*
G01*
X215504029Y20511841D02*
X215213723Y21676196D01*
G75*
G02*
X215250142Y21736807I48515J12096D01*
G01*
X216123408Y21954536D01*
G75*
G02*
X216184019Y21918117I12096J-48515D01*
G01*
X216474325Y20753762D01*
G75*
G02*
X216437906Y20693151I-48515J-12096D01*
G01*
X215564640Y20475422D01*
G75*
G02*
X215504029Y20511841I-12096J48515D01*
G01*
G37*
G36*
G01*
X218706005Y21310183D02*
X218415699Y22474538D01*
G75*
G02*
X218452118Y22535149I48515J12096D01*
G01*
X219325384Y22752878D01*
G75*
G02*
X219385995Y22716459I12096J-48515D01*
G01*
X219676301Y21552104D01*
G75*
G02*
X219639882Y21491493I-48515J-12096D01*
G01*
X218766616Y21273764D01*
G75*
G02*
X218706005Y21310183I-12096J48515D01*
G01*
G37*
D16*
X221141839Y22535872D03*
G36*
G01*
X213052146Y19602671D02*
X212622009Y21327856D01*
G75*
G02*
X212658428Y21388467I48515J12096D01*
G01*
X214383613Y21818604D01*
G75*
G02*
X214444224Y21782185I12096J-48515D01*
G01*
X214874361Y20057000D01*
G75*
G02*
X214837942Y19996389I-48515J-12096D01*
G01*
X213112757Y19566252D01*
G75*
G02*
X213052146Y19602671I-12096J48515D01*
G01*
G37*
%TD*%
D13*
%TO.C,S41*%
X206388011Y-12576386D03*
D14*
X211317113Y-11347423D03*
X201458909Y-13805349D03*
D15*
X207623599Y-7032802D03*
X202076703Y-11033557D03*
%TD*%
%TO.C,D41*%
G36*
G01*
X206745286Y-22896505D02*
X206454980Y-21732150D01*
G75*
G02*
X206491399Y-21671539I48515J12096D01*
G01*
X207364665Y-21453810D01*
G75*
G02*
X207425276Y-21490229I12096J-48515D01*
G01*
X207715582Y-22654584D01*
G75*
G02*
X207679163Y-22715195I-48515J-12096D01*
G01*
X206805897Y-22932924D01*
G75*
G02*
X206745286Y-22896505I-12096J48515D01*
G01*
G37*
G36*
G01*
X209947262Y-22098163D02*
X209656956Y-20933808D01*
G75*
G02*
X209693375Y-20873197I48515J12096D01*
G01*
X210566641Y-20655468D01*
G75*
G02*
X210627252Y-20691887I12096J-48515D01*
G01*
X210917558Y-21856242D01*
G75*
G02*
X210881139Y-21916853I-48515J-12096D01*
G01*
X210007873Y-22134582D01*
G75*
G02*
X209947262Y-22098163I-12096J48515D01*
G01*
G37*
D16*
X212383096Y-20872474D03*
G36*
G01*
X204293403Y-23805675D02*
X203863266Y-22080490D01*
G75*
G02*
X203899685Y-22019879I48515J12096D01*
G01*
X205624870Y-21589742D01*
G75*
G02*
X205685481Y-21626161I12096J-48515D01*
G01*
X206115618Y-23351346D01*
G75*
G02*
X206079199Y-23411957I-48515J-12096D01*
G01*
X204354014Y-23842094D01*
G75*
G02*
X204293403Y-23805675I-12096J48515D01*
G01*
G37*
%TD*%
D13*
%TO.C,S42*%
X201791495Y5859233D03*
D14*
X206720597Y7088196D03*
X196862393Y4630270D03*
D15*
X203027083Y11402817D03*
X197480187Y7402062D03*
%TD*%
%TO.C,D42*%
G36*
G01*
X202148770Y-4460886D02*
X201858464Y-3296531D01*
G75*
G02*
X201894883Y-3235920I48515J12096D01*
G01*
X202768149Y-3018191D01*
G75*
G02*
X202828760Y-3054610I12096J-48515D01*
G01*
X203119066Y-4218965D01*
G75*
G02*
X203082647Y-4279576I-48515J-12096D01*
G01*
X202209381Y-4497305D01*
G75*
G02*
X202148770Y-4460886I-12096J48515D01*
G01*
G37*
G36*
G01*
X205350746Y-3662544D02*
X205060440Y-2498189D01*
G75*
G02*
X205096859Y-2437578I48515J12096D01*
G01*
X205970125Y-2219849D01*
G75*
G02*
X206030736Y-2256268I12096J-48515D01*
G01*
X206321042Y-3420623D01*
G75*
G02*
X206284623Y-3481234I-48515J-12096D01*
G01*
X205411357Y-3698963D01*
G75*
G02*
X205350746Y-3662544I-12096J48515D01*
G01*
G37*
D16*
X207786580Y-2436855D03*
G36*
G01*
X199696887Y-5370056D02*
X199266750Y-3644871D01*
G75*
G02*
X199303169Y-3584260I48515J12096D01*
G01*
X201028354Y-3154123D01*
G75*
G02*
X201088965Y-3190542I12096J-48515D01*
G01*
X201519102Y-4915727D01*
G75*
G02*
X201482683Y-4976338I-48515J-12096D01*
G01*
X199757498Y-5406475D01*
G75*
G02*
X199696887Y-5370056I-12096J48515D01*
G01*
G37*
%TD*%
D13*
%TO.C,S43*%
X197194979Y24294852D03*
D14*
X202124081Y25523815D03*
X192265877Y23065889D03*
D15*
X198430567Y29838436D03*
X192883671Y25837681D03*
%TD*%
%TO.C,D43*%
G36*
G01*
X197552254Y13974733D02*
X197261948Y15139088D01*
G75*
G02*
X197298367Y15199699I48515J12096D01*
G01*
X198171633Y15417428D01*
G75*
G02*
X198232244Y15381009I12096J-48515D01*
G01*
X198522550Y14216654D01*
G75*
G02*
X198486131Y14156043I-48515J-12096D01*
G01*
X197612865Y13938314D01*
G75*
G02*
X197552254Y13974733I-12096J48515D01*
G01*
G37*
G36*
G01*
X200754230Y14773075D02*
X200463924Y15937430D01*
G75*
G02*
X200500343Y15998041I48515J12096D01*
G01*
X201373609Y16215770D01*
G75*
G02*
X201434220Y16179351I12096J-48515D01*
G01*
X201724526Y15014996D01*
G75*
G02*
X201688107Y14954385I-48515J-12096D01*
G01*
X200814841Y14736656D01*
G75*
G02*
X200754230Y14773075I-12096J48515D01*
G01*
G37*
D16*
X203190064Y15998764D03*
G36*
G01*
X195100371Y13065563D02*
X194670234Y14790748D01*
G75*
G02*
X194706653Y14851359I48515J12096D01*
G01*
X196431838Y15281496D01*
G75*
G02*
X196492449Y15245077I12096J-48515D01*
G01*
X196922586Y13519892D01*
G75*
G02*
X196886167Y13459281I-48515J-12096D01*
G01*
X195160982Y13029144D01*
G75*
G02*
X195100371Y13065563I-12096J48515D01*
G01*
G37*
%TD*%
D13*
%TO.C,S44*%
X184323564Y-2618466D03*
D14*
X189252666Y-1389503D03*
X179394462Y-3847429D03*
D15*
X185559152Y2925118D03*
X180012256Y-1075637D03*
%TD*%
%TO.C,D44*%
G36*
G01*
X184680839Y-12938585D02*
X184390533Y-11774230D01*
G75*
G02*
X184426952Y-11713619I48515J12096D01*
G01*
X185300218Y-11495890D01*
G75*
G02*
X185360829Y-11532309I12096J-48515D01*
G01*
X185651135Y-12696664D01*
G75*
G02*
X185614716Y-12757275I-48515J-12096D01*
G01*
X184741450Y-12975004D01*
G75*
G02*
X184680839Y-12938585I-12096J48515D01*
G01*
G37*
G36*
G01*
X187882815Y-12140243D02*
X187592509Y-10975888D01*
G75*
G02*
X187628928Y-10915277I48515J12096D01*
G01*
X188502194Y-10697548D01*
G75*
G02*
X188562805Y-10733967I12096J-48515D01*
G01*
X188853111Y-11898322D01*
G75*
G02*
X188816692Y-11958933I-48515J-12096D01*
G01*
X187943426Y-12176662D01*
G75*
G02*
X187882815Y-12140243I-12096J48515D01*
G01*
G37*
D16*
X190318649Y-10914554D03*
G36*
G01*
X182228956Y-13847755D02*
X181798819Y-12122570D01*
G75*
G02*
X181835238Y-12061959I48515J12096D01*
G01*
X183560423Y-11631822D01*
G75*
G02*
X183621034Y-11668241I12096J-48515D01*
G01*
X184051171Y-13393426D01*
G75*
G02*
X184014752Y-13454037I-48515J-12096D01*
G01*
X182289567Y-13884174D01*
G75*
G02*
X182228956Y-13847755I-12096J48515D01*
G01*
G37*
%TD*%
D13*
%TO.C,S45*%
X179727048Y15817153D03*
D14*
X184656150Y17046116D03*
X174797946Y14588190D03*
D15*
X180962636Y21360737D03*
X175415740Y17359982D03*
%TD*%
%TO.C,D45*%
G36*
G01*
X180084323Y5497034D02*
X179794017Y6661389D01*
G75*
G02*
X179830436Y6722000I48515J12096D01*
G01*
X180703702Y6939729D01*
G75*
G02*
X180764313Y6903310I12096J-48515D01*
G01*
X181054619Y5738955D01*
G75*
G02*
X181018200Y5678344I-48515J-12096D01*
G01*
X180144934Y5460615D01*
G75*
G02*
X180084323Y5497034I-12096J48515D01*
G01*
G37*
G36*
G01*
X183286299Y6295376D02*
X182995993Y7459731D01*
G75*
G02*
X183032412Y7520342I48515J12096D01*
G01*
X183905678Y7738071D01*
G75*
G02*
X183966289Y7701652I12096J-48515D01*
G01*
X184256595Y6537297D01*
G75*
G02*
X184220176Y6476686I-48515J-12096D01*
G01*
X183346910Y6258957D01*
G75*
G02*
X183286299Y6295376I-12096J48515D01*
G01*
G37*
D16*
X185722133Y7521065D03*
G36*
G01*
X177632440Y4587864D02*
X177202303Y6313049D01*
G75*
G02*
X177238722Y6373660I48515J12096D01*
G01*
X178963907Y6803797D01*
G75*
G02*
X179024518Y6767378I12096J-48515D01*
G01*
X179454655Y5042193D01*
G75*
G02*
X179418236Y4981582I-48515J-12096D01*
G01*
X177693051Y4551445D01*
G75*
G02*
X177632440Y4587864I-12096J48515D01*
G01*
G37*
%TD*%
D13*
%TO.C,S46*%
X219228129Y-35140326D03*
D14*
X224157231Y-33911363D03*
X214299027Y-36369289D03*
D15*
X220463717Y-29596742D03*
X214916821Y-33597497D03*
%TD*%
%TO.C,D46*%
G36*
G01*
X219585404Y-45460444D02*
X219295098Y-44296089D01*
G75*
G02*
X219331517Y-44235478I48515J12096D01*
G01*
X220204783Y-44017749D01*
G75*
G02*
X220265394Y-44054168I12096J-48515D01*
G01*
X220555700Y-45218523D01*
G75*
G02*
X220519281Y-45279134I-48515J-12096D01*
G01*
X219646015Y-45496863D01*
G75*
G02*
X219585404Y-45460444I-12096J48515D01*
G01*
G37*
G36*
G01*
X222787380Y-44662102D02*
X222497074Y-43497747D01*
G75*
G02*
X222533493Y-43437136I48515J12096D01*
G01*
X223406759Y-43219407D01*
G75*
G02*
X223467370Y-43255826I12096J-48515D01*
G01*
X223757676Y-44420181D01*
G75*
G02*
X223721257Y-44480792I-48515J-12096D01*
G01*
X222847991Y-44698521D01*
G75*
G02*
X222787380Y-44662102I-12096J48515D01*
G01*
G37*
D16*
X225223214Y-43436413D03*
G36*
G01*
X217133521Y-46369614D02*
X216703384Y-44644429D01*
G75*
G02*
X216739803Y-44583818I48515J12096D01*
G01*
X218464988Y-44153681D01*
G75*
G02*
X218525599Y-44190100I12096J-48515D01*
G01*
X218955736Y-45915285D01*
G75*
G02*
X218919317Y-45975896I-48515J-12096D01*
G01*
X217194132Y-46406033D01*
G75*
G02*
X217133521Y-46369614I-12096J48515D01*
G01*
G37*
%TD*%
D13*
%TO.C,S47*%
X188669682Y-33483880D03*
D14*
X192977766Y-30791890D03*
X184361598Y-36175870D03*
D15*
X188131734Y-27829801D03*
X184092624Y-33348830D03*
%TD*%
%TO.C,D47*%
G36*
G01*
X192198564Y-43188493D02*
X191562661Y-42170835D01*
G75*
G02*
X191578567Y-42101937I42402J26496D01*
G01*
X192341810Y-41625009D01*
G75*
G02*
X192410708Y-41640915I26496J-42402D01*
G01*
X193046611Y-42658573D01*
G75*
G02*
X193030705Y-42727471I-42402J-26496D01*
G01*
X192267462Y-43204399D01*
G75*
G02*
X192198564Y-43188493I-26496J42402D01*
G01*
G37*
G36*
G01*
X194997122Y-41439759D02*
X194361219Y-40422101D01*
G75*
G02*
X194377125Y-40353203I42402J26496D01*
G01*
X195140368Y-39876275D01*
G75*
G02*
X195209266Y-39892181I26496J-42402D01*
G01*
X195845169Y-40909839D01*
G75*
G02*
X195829263Y-40978737I-42402J-26496D01*
G01*
X195066020Y-41455665D01*
G75*
G02*
X194997122Y-41439759I-26496J42402D01*
G01*
G37*
D16*
X196934978Y-39521345D03*
G36*
G01*
X190147633Y-44810838D02*
X189205437Y-43303008D01*
G75*
G02*
X189221343Y-43234110I42402J26496D01*
G01*
X190729173Y-42291914D01*
G75*
G02*
X190798071Y-42307820I26496J-42402D01*
G01*
X191740267Y-43815650D01*
G75*
G02*
X191724361Y-43884548I-42402J-26496D01*
G01*
X190216531Y-44826744D01*
G75*
G02*
X190147633Y-44810838I-26496J42402D01*
G01*
G37*
%TD*%
D13*
%TO.C,S48*%
X168634435Y-47182470D03*
D14*
X172637530Y-44054910D03*
X164631340Y-50310030D03*
D15*
X167508422Y-41615595D03*
X164068334Y-47526593D03*
%TD*%
%TO.C,D48*%
G36*
G01*
X173158392Y-56465050D02*
X172419598Y-55519437D01*
G75*
G02*
X172428216Y-55449253I39401J30783D01*
G01*
X173137426Y-54895158D01*
G75*
G02*
X173207610Y-54903776I30783J-39401D01*
G01*
X173946404Y-55849389D01*
G75*
G02*
X173937786Y-55919573I-39401J-30783D01*
G01*
X173228576Y-56473668D01*
G75*
G02*
X173158392Y-56465050I-30783J39401D01*
G01*
G37*
G36*
G01*
X175758828Y-54433368D02*
X175020034Y-53487755D01*
G75*
G02*
X175028652Y-53417571I39401J30783D01*
G01*
X175737862Y-52863476D01*
G75*
G02*
X175808046Y-52872094I30783J-39401D01*
G01*
X176546840Y-53817707D01*
G75*
G02*
X176538222Y-53887891I-39401J-30783D01*
G01*
X175829012Y-54441986D01*
G75*
G02*
X175758828Y-54433368I-30783J39401D01*
G01*
G37*
D16*
X177485540Y-52322902D03*
G36*
G01*
X171288278Y-58292890D02*
X170193632Y-56891806D01*
G75*
G02*
X170202250Y-56821622I39401J30783D01*
G01*
X171603334Y-55726976D01*
G75*
G02*
X171673518Y-55735594I30783J-39401D01*
G01*
X172768164Y-57136678D01*
G75*
G02*
X172759546Y-57206862I-39401J-30783D01*
G01*
X171358462Y-58301508D01*
G75*
G02*
X171288278Y-58292890I-30783J39401D01*
G01*
G37*
%TD*%
D13*
%TO.C,S49*%
X198738148Y-49596794D03*
D14*
X203046232Y-46904804D03*
X194430064Y-52288784D03*
D15*
X198200200Y-43942715D03*
X194161090Y-49461744D03*
%TD*%
%TO.C,D49*%
G36*
G01*
X202267030Y-59301407D02*
X201631127Y-58283749D01*
G75*
G02*
X201647033Y-58214851I42402J26496D01*
G01*
X202410276Y-57737923D01*
G75*
G02*
X202479174Y-57753829I26496J-42402D01*
G01*
X203115077Y-58771487D01*
G75*
G02*
X203099171Y-58840385I-42402J-26496D01*
G01*
X202335928Y-59317313D01*
G75*
G02*
X202267030Y-59301407I-26496J42402D01*
G01*
G37*
G36*
G01*
X205065588Y-57552673D02*
X204429685Y-56535015D01*
G75*
G02*
X204445591Y-56466117I42402J26496D01*
G01*
X205208834Y-55989189D01*
G75*
G02*
X205277732Y-56005095I26496J-42402D01*
G01*
X205913635Y-57022753D01*
G75*
G02*
X205897729Y-57091651I-42402J-26496D01*
G01*
X205134486Y-57568579D01*
G75*
G02*
X205065588Y-57552673I-26496J42402D01*
G01*
G37*
D16*
X207003444Y-55634259D03*
G36*
G01*
X200216099Y-60923752D02*
X199273903Y-59415922D01*
G75*
G02*
X199289809Y-59347024I42402J26496D01*
G01*
X200797639Y-58404828D01*
G75*
G02*
X200866537Y-58420734I26496J-42402D01*
G01*
X201808733Y-59928564D01*
G75*
G02*
X201792827Y-59997462I-42402J-26496D01*
G01*
X200284997Y-60939658D01*
G75*
G02*
X200216099Y-60923752I-26496J42402D01*
G01*
G37*
%TD*%
D13*
%TO.C,S50*%
X180515800Y-62212465D03*
D14*
X184518895Y-59084905D03*
X176512705Y-65340025D03*
D15*
X179389787Y-56645590D03*
X175949699Y-62556588D03*
%TD*%
%TO.C,D50*%
G36*
G01*
X185039757Y-71495046D02*
X184300963Y-70549433D01*
G75*
G02*
X184309581Y-70479249I39401J30783D01*
G01*
X185018791Y-69925154D01*
G75*
G02*
X185088975Y-69933772I30783J-39401D01*
G01*
X185827769Y-70879385D01*
G75*
G02*
X185819151Y-70949569I-39401J-30783D01*
G01*
X185109941Y-71503664D01*
G75*
G02*
X185039757Y-71495046I-30783J39401D01*
G01*
G37*
G36*
G01*
X187640193Y-69463364D02*
X186901399Y-68517751D01*
G75*
G02*
X186910017Y-68447567I39401J30783D01*
G01*
X187619227Y-67893472D01*
G75*
G02*
X187689411Y-67902090I30783J-39401D01*
G01*
X188428205Y-68847703D01*
G75*
G02*
X188419587Y-68917887I-39401J-30783D01*
G01*
X187710377Y-69471982D01*
G75*
G02*
X187640193Y-69463364I-30783J39401D01*
G01*
G37*
D16*
X189366905Y-67352898D03*
G36*
G01*
X183169643Y-73322886D02*
X182074997Y-71921802D01*
G75*
G02*
X182083615Y-71851618I39401J30783D01*
G01*
X183484699Y-70756972D01*
G75*
G02*
X183554883Y-70765590I30783J-39401D01*
G01*
X184649529Y-72166674D01*
G75*
G02*
X184640911Y-72236858I-39401J-30783D01*
G01*
X183239827Y-73331504D01*
G75*
G02*
X183169643Y-73322886I-30783J39401D01*
G01*
G37*
%TD*%
%TO.C,MCU1*%
G36*
G01*
X157543015Y31191152D02*
X159295615Y31191152D01*
G75*
G02*
X159345615Y31141152I0J-50000D01*
G01*
X159345615Y29388552D01*
G75*
G02*
X159295615Y29338552I-50000J0D01*
G01*
X157543015Y29338552D01*
G75*
G02*
X157493015Y29388552I0J50000D01*
G01*
X157493015Y31141152D01*
G75*
G02*
X157543015Y31191152I50000J0D01*
G01*
G37*
D17*
X158419315Y27724852D03*
X158419315Y25184852D03*
X158419315Y22644852D03*
X158419315Y20104852D03*
X158419315Y17564852D03*
X158419315Y15024852D03*
X158419315Y12484852D03*
X158419315Y9944852D03*
X158419315Y7404852D03*
X158419315Y4864852D03*
X158419315Y2324852D03*
X143179315Y30264852D03*
X143179315Y27724852D03*
X143179315Y25184852D03*
X143179315Y22644852D03*
X143179315Y20104852D03*
X143179315Y17564852D03*
X143179315Y15024852D03*
X143179315Y12484852D03*
X143179315Y9944852D03*
X143179315Y7404852D03*
X143179315Y4864852D03*
X143179315Y2324852D03*
%TD*%
M02*
