%TF.GenerationSoftware,KiCad,Pcbnew,5.1.12-1.fc35*%
%TF.CreationDate,2022-02-21T17:57:33-08:00*%
%TF.ProjectId,jackalope_unibody,6a61636b-616c-46f7-9065-5f756e69626f,v1.0.0*%
%TF.SameCoordinates,Original*%
%TF.FileFunction,Copper,L2,Bot*%
%TF.FilePolarity,Positive*%
%FSLAX46Y46*%
G04 Gerber Fmt 4.6, Leading zero omitted, Abs format (unit mm)*
G04 Created by KiCad (PCBNEW 5.1.12-1.fc35) date 2022-02-21 17:57:33*
%MOMM*%
%LPD*%
G01*
G04 APERTURE LIST*
%TA.AperFunction,ComponentPad*%
%ADD10C,2.100000*%
%TD*%
%TA.AperFunction,ComponentPad*%
%ADD11C,1.750000*%
%TD*%
%TA.AperFunction,ComponentPad*%
%ADD12C,2.286000*%
%TD*%
%TA.AperFunction,SMDPad,CuDef*%
%ADD13C,0.100000*%
%TD*%
%TA.AperFunction,ComponentPad*%
%ADD14C,1.905000*%
%TD*%
%TA.AperFunction,ComponentPad*%
%ADD15C,0.100000*%
%TD*%
%TA.AperFunction,ComponentPad*%
%ADD16R,1.752600X1.752600*%
%TD*%
%TA.AperFunction,ComponentPad*%
%ADD17C,1.752600*%
%TD*%
%TA.AperFunction,Conductor*%
%ADD18C,0.250000*%
%TD*%
G04 APERTURE END LIST*
D10*
%TO.P,RESET,*%
%TO.N,*%
X188250000Y39010000D03*
D11*
%TO.P,RESET,1*%
%TO.N,GND*%
X189250000Y41500000D03*
%TO.P,RESET,2*%
%TO.N,RST*%
X194250000Y41500000D03*
D10*
%TO.P,RESET,*%
%TO.N,*%
X195260000Y39010000D03*
%TD*%
D12*
%TO.P,S1,1*%
%TO.N,outer_bottom*%
X3383544Y4561757D03*
%TO.P,S1,2*%
%TO.N,P1*%
X-3311051Y3163011D03*
%TD*%
%TA.AperFunction,SMDPad,CuDef*%
D13*
%TO.P,D1,2*%
%TO.N,outer_bottom*%
G36*
X-572077Y-10154936D02*
G01*
X-363700Y-8973167D01*
X522627Y-9129450D01*
X314250Y-10311219D01*
X-572077Y-10154936D01*
G37*
%TD.AperFunction*%
%TA.AperFunction,SMDPad,CuDef*%
%TO.P,D1,1*%
%TO.N,P9*%
G36*
X-3821943Y-9581898D02*
G01*
X-3613566Y-8400129D01*
X-2727239Y-8556412D01*
X-2935616Y-9738181D01*
X-3821943Y-9581898D01*
G37*
%TD.AperFunction*%
D14*
%TO.N,outer_bottom*%
X2102460Y-10017274D03*
%TA.AperFunction,ComponentPad*%
D15*
%TO.P,D1,2*%
%TO.N,P9*%
G36*
X-6431643Y-9415195D02*
G01*
X-6122897Y-7664207D01*
X-4371909Y-7972953D01*
X-4680655Y-9723941D01*
X-6431643Y-9415195D01*
G37*
%TD.AperFunction*%
%TD*%
D12*
%TO.P,S2,1*%
%TO.N,outer_home*%
X6682859Y23273104D03*
%TO.P,S2,2*%
%TO.N,P1*%
X-11736Y21874358D03*
%TD*%
%TA.AperFunction,SMDPad,CuDef*%
D13*
%TO.P,D2,2*%
%TO.N,outer_home*%
G36*
X2727239Y8556412D02*
G01*
X2935616Y9738181D01*
X3821943Y9581898D01*
X3613566Y8400129D01*
X2727239Y8556412D01*
G37*
%TD.AperFunction*%
%TA.AperFunction,SMDPad,CuDef*%
%TO.P,D2,1*%
%TO.N,P8*%
G36*
X-522627Y9129450D02*
G01*
X-314250Y10311219D01*
X572077Y10154936D01*
X363700Y8973167D01*
X-522627Y9129450D01*
G37*
%TD.AperFunction*%
D14*
%TO.N,outer_home*%
X5401776Y8694074D03*
%TA.AperFunction,ComponentPad*%
D15*
%TO.P,D2,2*%
%TO.N,P8*%
G36*
X-3132327Y9296153D02*
G01*
X-2823581Y11047141D01*
X-1072593Y10738395D01*
X-1381339Y8987407D01*
X-3132327Y9296153D01*
G37*
%TD.AperFunction*%
%TD*%
D12*
%TO.P,S3,1*%
%TO.N,outer_top*%
X9982175Y41984452D03*
%TO.P,S3,2*%
%TO.N,P1*%
X3287580Y40585706D03*
%TD*%
%TA.AperFunction,SMDPad,CuDef*%
D13*
%TO.P,D3,2*%
%TO.N,outer_top*%
G36*
X6026554Y27267759D02*
G01*
X6234931Y28449528D01*
X7121258Y28293245D01*
X6912881Y27111476D01*
X6026554Y27267759D01*
G37*
%TD.AperFunction*%
%TA.AperFunction,SMDPad,CuDef*%
%TO.P,D3,1*%
%TO.N,P7*%
G36*
X2776688Y27840797D02*
G01*
X2985065Y29022566D01*
X3871392Y28866283D01*
X3663015Y27684514D01*
X2776688Y27840797D01*
G37*
%TD.AperFunction*%
D14*
%TO.N,outer_top*%
X8701091Y27405421D03*
%TA.AperFunction,ComponentPad*%
D15*
%TO.P,D3,2*%
%TO.N,P7*%
G36*
X166988Y28007500D02*
G01*
X475734Y29758488D01*
X2226722Y29449742D01*
X1917976Y27698754D01*
X166988Y28007500D01*
G37*
%TD.AperFunction*%
%TD*%
D12*
%TO.P,S4,1*%
%TO.N,pinky_bottom*%
X22094891Y1262442D03*
%TO.P,S4,2*%
%TO.N,P0*%
X15400296Y-136304D03*
%TD*%
%TA.AperFunction,SMDPad,CuDef*%
D13*
%TO.P,D4,2*%
%TO.N,pinky_bottom*%
G36*
X18139271Y-13454251D02*
G01*
X18347648Y-12272482D01*
X19233975Y-12428765D01*
X19025598Y-13610534D01*
X18139271Y-13454251D01*
G37*
%TD.AperFunction*%
%TA.AperFunction,SMDPad,CuDef*%
%TO.P,D4,1*%
%TO.N,P9*%
G36*
X14889405Y-12881213D02*
G01*
X15097782Y-11699444D01*
X15984109Y-11855727D01*
X15775732Y-13037496D01*
X14889405Y-12881213D01*
G37*
%TD.AperFunction*%
D14*
%TO.N,pinky_bottom*%
X20813808Y-13316589D03*
%TA.AperFunction,ComponentPad*%
D15*
%TO.P,D4,2*%
%TO.N,P9*%
G36*
X12279705Y-12714510D02*
G01*
X12588451Y-10963522D01*
X14339439Y-11272268D01*
X14030693Y-13023256D01*
X12279705Y-12714510D01*
G37*
%TD.AperFunction*%
%TD*%
D12*
%TO.P,S5,1*%
%TO.N,pinky_home*%
X25394207Y19973789D03*
%TO.P,S5,2*%
%TO.N,P0*%
X18699612Y18575043D03*
%TD*%
%TA.AperFunction,SMDPad,CuDef*%
D13*
%TO.P,D5,2*%
%TO.N,pinky_home*%
G36*
X21438586Y5257096D02*
G01*
X21646963Y6438865D01*
X22533290Y6282582D01*
X22324913Y5100813D01*
X21438586Y5257096D01*
G37*
%TD.AperFunction*%
%TA.AperFunction,SMDPad,CuDef*%
%TO.P,D5,1*%
%TO.N,P8*%
G36*
X18188720Y5830134D02*
G01*
X18397097Y7011903D01*
X19283424Y6855620D01*
X19075047Y5673851D01*
X18188720Y5830134D01*
G37*
%TD.AperFunction*%
D14*
%TO.N,pinky_home*%
X24113123Y5394758D03*
%TA.AperFunction,ComponentPad*%
D15*
%TO.P,D5,2*%
%TO.N,P8*%
G36*
X15579020Y5996837D02*
G01*
X15887766Y7747825D01*
X17638754Y7439079D01*
X17330008Y5688091D01*
X15579020Y5996837D01*
G37*
%TD.AperFunction*%
%TD*%
D12*
%TO.P,S6,1*%
%TO.N,pinky_top*%
X28693522Y38685136D03*
%TO.P,S6,2*%
%TO.N,P0*%
X21998927Y37286390D03*
%TD*%
%TA.AperFunction,SMDPad,CuDef*%
D13*
%TO.P,D6,2*%
%TO.N,pinky_top*%
G36*
X24737901Y23968444D02*
G01*
X24946278Y25150213D01*
X25832605Y24993930D01*
X25624228Y23812161D01*
X24737901Y23968444D01*
G37*
%TD.AperFunction*%
%TA.AperFunction,SMDPad,CuDef*%
%TO.P,D6,1*%
%TO.N,P7*%
G36*
X21488035Y24541482D02*
G01*
X21696412Y25723251D01*
X22582739Y25566968D01*
X22374362Y24385199D01*
X21488035Y24541482D01*
G37*
%TD.AperFunction*%
D14*
%TO.N,pinky_top*%
X27412438Y24106106D03*
%TA.AperFunction,ComponentPad*%
D15*
%TO.P,D6,2*%
%TO.N,P7*%
G36*
X18878335Y24708185D02*
G01*
X19187081Y26459173D01*
X20938069Y26150427D01*
X20629323Y24399439D01*
X18878335Y24708185D01*
G37*
%TD.AperFunction*%
%TD*%
D12*
%TO.P,S7,1*%
%TO.N,ring_bottom*%
X44323043Y8438670D03*
%TO.P,S7,2*%
%TO.N,P2*%
X37547184Y7510323D03*
%TD*%
%TA.AperFunction,SMDPad,CuDef*%
D13*
%TO.P,D7,2*%
%TO.N,ring_bottom*%
G36*
X39350473Y-5966244D02*
G01*
X39640779Y-4801889D01*
X40514045Y-5019618D01*
X40223739Y-6183973D01*
X39350473Y-5966244D01*
G37*
%TD.AperFunction*%
%TA.AperFunction,SMDPad,CuDef*%
%TO.P,D7,1*%
%TO.N,P9*%
G36*
X36148497Y-5167902D02*
G01*
X36438803Y-4003547D01*
X37312069Y-4221276D01*
X37021763Y-5385631D01*
X36148497Y-5167902D01*
G37*
%TD.AperFunction*%
D14*
%TO.N,ring_bottom*%
X42028098Y-6015482D03*
%TA.AperFunction,ComponentPad*%
D15*
%TO.P,D7,2*%
%TO.N,P9*%
G36*
X33556783Y-4819562D02*
G01*
X33986920Y-3094377D01*
X35712105Y-3524514D01*
X35281968Y-5249699D01*
X33556783Y-4819562D01*
G37*
%TD.AperFunction*%
%TD*%
D12*
%TO.P,S8,1*%
%TO.N,ring_home*%
X48919559Y26874289D03*
%TO.P,S8,2*%
%TO.N,P2*%
X42143700Y25945942D03*
%TD*%
%TA.AperFunction,SMDPad,CuDef*%
D13*
%TO.P,D8,2*%
%TO.N,ring_home*%
G36*
X43946989Y12469375D02*
G01*
X44237295Y13633730D01*
X45110561Y13416001D01*
X44820255Y12251646D01*
X43946989Y12469375D01*
G37*
%TD.AperFunction*%
%TA.AperFunction,SMDPad,CuDef*%
%TO.P,D8,1*%
%TO.N,P8*%
G36*
X40745013Y13267717D02*
G01*
X41035319Y14432072D01*
X41908585Y14214343D01*
X41618279Y13049988D01*
X40745013Y13267717D01*
G37*
%TD.AperFunction*%
D14*
%TO.N,ring_home*%
X46624614Y12420137D03*
%TA.AperFunction,ComponentPad*%
D15*
%TO.P,D8,2*%
%TO.N,P8*%
G36*
X38153299Y13616057D02*
G01*
X38583436Y15341242D01*
X40308621Y14911105D01*
X39878484Y13185920D01*
X38153299Y13616057D01*
G37*
%TD.AperFunction*%
%TD*%
D12*
%TO.P,S9,1*%
%TO.N,ring_top*%
X53516075Y45309908D03*
%TO.P,S9,2*%
%TO.N,P2*%
X46740216Y44381561D03*
%TD*%
%TA.AperFunction,SMDPad,CuDef*%
D13*
%TO.P,D9,2*%
%TO.N,ring_top*%
G36*
X48543505Y30904993D02*
G01*
X48833811Y32069348D01*
X49707077Y31851619D01*
X49416771Y30687264D01*
X48543505Y30904993D01*
G37*
%TD.AperFunction*%
%TA.AperFunction,SMDPad,CuDef*%
%TO.P,D9,1*%
%TO.N,P7*%
G36*
X45341529Y31703335D02*
G01*
X45631835Y32867690D01*
X46505101Y32649961D01*
X46214795Y31485606D01*
X45341529Y31703335D01*
G37*
%TD.AperFunction*%
D14*
%TO.N,ring_top*%
X51221130Y30855755D03*
%TA.AperFunction,ComponentPad*%
D15*
%TO.P,D9,2*%
%TO.N,P7*%
G36*
X42749815Y32051675D02*
G01*
X43179952Y33776860D01*
X44905137Y33346723D01*
X44475000Y31621538D01*
X42749815Y32051675D01*
G37*
%TD.AperFunction*%
%TD*%
D12*
%TO.P,S10,1*%
%TO.N,middle_bottom*%
X63968271Y8693633D03*
%TO.P,S10,2*%
%TO.N,P3*%
X57192412Y7765286D03*
%TD*%
%TA.AperFunction,SMDPad,CuDef*%
D13*
%TO.P,D10,2*%
%TO.N,middle_bottom*%
G36*
X58995701Y-5711282D02*
G01*
X59286007Y-4546927D01*
X60159273Y-4764656D01*
X59868967Y-5929011D01*
X58995701Y-5711282D01*
G37*
%TD.AperFunction*%
%TA.AperFunction,SMDPad,CuDef*%
%TO.P,D10,1*%
%TO.N,P9*%
G36*
X55793725Y-4912940D02*
G01*
X56084031Y-3748585D01*
X56957297Y-3966314D01*
X56666991Y-5130669D01*
X55793725Y-4912940D01*
G37*
%TD.AperFunction*%
D14*
%TO.N,middle_bottom*%
X61673326Y-5760520D03*
%TA.AperFunction,ComponentPad*%
D15*
%TO.P,D10,2*%
%TO.N,P9*%
G36*
X53202011Y-4564600D02*
G01*
X53632148Y-2839415D01*
X55357333Y-3269552D01*
X54927196Y-4994737D01*
X53202011Y-4564600D01*
G37*
%TD.AperFunction*%
%TD*%
D12*
%TO.P,S11,1*%
%TO.N,middle_home*%
X68564787Y27129252D03*
%TO.P,S11,2*%
%TO.N,P3*%
X61788928Y26200905D03*
%TD*%
%TA.AperFunction,SMDPad,CuDef*%
D13*
%TO.P,D11,2*%
%TO.N,middle_home*%
G36*
X63592217Y12724337D02*
G01*
X63882523Y13888692D01*
X64755789Y13670963D01*
X64465483Y12506608D01*
X63592217Y12724337D01*
G37*
%TD.AperFunction*%
%TA.AperFunction,SMDPad,CuDef*%
%TO.P,D11,1*%
%TO.N,P8*%
G36*
X60390241Y13522679D02*
G01*
X60680547Y14687034D01*
X61553813Y14469305D01*
X61263507Y13304950D01*
X60390241Y13522679D01*
G37*
%TD.AperFunction*%
D14*
%TO.N,middle_home*%
X66269842Y12675099D03*
%TA.AperFunction,ComponentPad*%
D15*
%TO.P,D11,2*%
%TO.N,P8*%
G36*
X57798527Y13871019D02*
G01*
X58228664Y15596204D01*
X59953849Y15166067D01*
X59523712Y13440882D01*
X57798527Y13871019D01*
G37*
%TD.AperFunction*%
%TD*%
D12*
%TO.P,S12,1*%
%TO.N,middle_top*%
X73161303Y45564870D03*
%TO.P,S12,2*%
%TO.N,P3*%
X66385444Y44636523D03*
%TD*%
%TA.AperFunction,SMDPad,CuDef*%
D13*
%TO.P,D12,2*%
%TO.N,middle_top*%
G36*
X68188733Y31159956D02*
G01*
X68479039Y32324311D01*
X69352305Y32106582D01*
X69061999Y30942227D01*
X68188733Y31159956D01*
G37*
%TD.AperFunction*%
%TA.AperFunction,SMDPad,CuDef*%
%TO.P,D12,1*%
%TO.N,P7*%
G36*
X64986757Y31958298D02*
G01*
X65277063Y33122653D01*
X66150329Y32904924D01*
X65860023Y31740569D01*
X64986757Y31958298D01*
G37*
%TD.AperFunction*%
D14*
%TO.N,middle_top*%
X70866358Y31110718D03*
%TA.AperFunction,ComponentPad*%
D15*
%TO.P,D12,2*%
%TO.N,P7*%
G36*
X62395043Y32306638D02*
G01*
X62825180Y34031823D01*
X64550365Y33601686D01*
X64120228Y31876501D01*
X62395043Y32306638D01*
G37*
%TD.AperFunction*%
%TD*%
D12*
%TO.P,S13,1*%
%TO.N,index_bottom*%
X80952359Y-1724658D03*
%TO.P,S13,2*%
%TO.N,P4*%
X74176500Y-2653005D03*
%TD*%
%TA.AperFunction,SMDPad,CuDef*%
D13*
%TO.P,D13,2*%
%TO.N,index_bottom*%
G36*
X75979789Y-16129572D02*
G01*
X76270095Y-14965217D01*
X77143361Y-15182946D01*
X76853055Y-16347301D01*
X75979789Y-16129572D01*
G37*
%TD.AperFunction*%
%TA.AperFunction,SMDPad,CuDef*%
%TO.P,D13,1*%
%TO.N,P9*%
G36*
X72777813Y-15331230D02*
G01*
X73068119Y-14166875D01*
X73941385Y-14384604D01*
X73651079Y-15548959D01*
X72777813Y-15331230D01*
G37*
%TD.AperFunction*%
D14*
%TO.N,index_bottom*%
X78657414Y-16178810D03*
%TA.AperFunction,ComponentPad*%
D15*
%TO.P,D13,2*%
%TO.N,P9*%
G36*
X70186099Y-14982890D02*
G01*
X70616236Y-13257705D01*
X72341421Y-13687842D01*
X71911284Y-15413027D01*
X70186099Y-14982890D01*
G37*
%TD.AperFunction*%
%TD*%
D12*
%TO.P,S14,1*%
%TO.N,index_home*%
X85548875Y16710961D03*
%TO.P,S14,2*%
%TO.N,P4*%
X78773016Y15782614D03*
%TD*%
%TA.AperFunction,SMDPad,CuDef*%
D13*
%TO.P,D14,2*%
%TO.N,index_home*%
G36*
X80576305Y2306047D02*
G01*
X80866611Y3470402D01*
X81739877Y3252673D01*
X81449571Y2088318D01*
X80576305Y2306047D01*
G37*
%TD.AperFunction*%
%TA.AperFunction,SMDPad,CuDef*%
%TO.P,D14,1*%
%TO.N,P8*%
G36*
X77374329Y3104389D02*
G01*
X77664635Y4268744D01*
X78537901Y4051015D01*
X78247595Y2886660D01*
X77374329Y3104389D01*
G37*
%TD.AperFunction*%
D14*
%TO.N,index_home*%
X83253930Y2256809D03*
%TA.AperFunction,ComponentPad*%
D15*
%TO.P,D14,2*%
%TO.N,P8*%
G36*
X74782615Y3452729D02*
G01*
X75212752Y5177914D01*
X76937937Y4747777D01*
X76507800Y3022592D01*
X74782615Y3452729D01*
G37*
%TD.AperFunction*%
%TD*%
D12*
%TO.P,S15,1*%
%TO.N,index_top*%
X90145391Y35146580D03*
%TO.P,S15,2*%
%TO.N,P4*%
X83369532Y34218233D03*
%TD*%
%TA.AperFunction,SMDPad,CuDef*%
D13*
%TO.P,D15,2*%
%TO.N,index_top*%
G36*
X85172821Y20741666D02*
G01*
X85463127Y21906021D01*
X86336393Y21688292D01*
X86046087Y20523937D01*
X85172821Y20741666D01*
G37*
%TD.AperFunction*%
%TA.AperFunction,SMDPad,CuDef*%
%TO.P,D15,1*%
%TO.N,P7*%
G36*
X81970845Y21540008D02*
G01*
X82261151Y22704363D01*
X83134417Y22486634D01*
X82844111Y21322279D01*
X81970845Y21540008D01*
G37*
%TD.AperFunction*%
D14*
%TO.N,index_top*%
X87850446Y20692428D03*
%TA.AperFunction,ComponentPad*%
D15*
%TO.P,D15,2*%
%TO.N,P7*%
G36*
X79379131Y21888348D02*
G01*
X79809268Y23613533D01*
X81534453Y23183396D01*
X81104316Y21458211D01*
X79379131Y21888348D01*
G37*
%TD.AperFunction*%
%TD*%
D12*
%TO.P,S16,1*%
%TO.N,inner_bottom*%
X98904134Y-8261765D03*
%TO.P,S16,2*%
%TO.N,P5*%
X92128275Y-9190112D03*
%TD*%
%TA.AperFunction,SMDPad,CuDef*%
D13*
%TO.P,D16,2*%
%TO.N,inner_bottom*%
G36*
X93931564Y-22666680D02*
G01*
X94221870Y-21502325D01*
X95095136Y-21720054D01*
X94804830Y-22884409D01*
X93931564Y-22666680D01*
G37*
%TD.AperFunction*%
%TA.AperFunction,SMDPad,CuDef*%
%TO.P,D16,1*%
%TO.N,P9*%
G36*
X90729588Y-21868338D02*
G01*
X91019894Y-20703983D01*
X91893160Y-20921712D01*
X91602854Y-22086067D01*
X90729588Y-21868338D01*
G37*
%TD.AperFunction*%
D14*
%TO.N,inner_bottom*%
X96609189Y-22715918D03*
%TA.AperFunction,ComponentPad*%
D15*
%TO.P,D16,2*%
%TO.N,P9*%
G36*
X88137874Y-21519998D02*
G01*
X88568011Y-19794813D01*
X90293196Y-20224950D01*
X89863059Y-21950135D01*
X88137874Y-21519998D01*
G37*
%TD.AperFunction*%
%TD*%
D12*
%TO.P,S17,1*%
%TO.N,inner_home*%
X103500650Y10173854D03*
%TO.P,S17,2*%
%TO.N,P5*%
X96724791Y9245507D03*
%TD*%
%TA.AperFunction,SMDPad,CuDef*%
D13*
%TO.P,D17,2*%
%TO.N,inner_home*%
G36*
X98528080Y-4231061D02*
G01*
X98818386Y-3066706D01*
X99691652Y-3284435D01*
X99401346Y-4448790D01*
X98528080Y-4231061D01*
G37*
%TD.AperFunction*%
%TA.AperFunction,SMDPad,CuDef*%
%TO.P,D17,1*%
%TO.N,P8*%
G36*
X95326104Y-3432719D02*
G01*
X95616410Y-2268364D01*
X96489676Y-2486093D01*
X96199370Y-3650448D01*
X95326104Y-3432719D01*
G37*
%TD.AperFunction*%
D14*
%TO.N,inner_home*%
X101205705Y-4280299D03*
%TA.AperFunction,ComponentPad*%
D15*
%TO.P,D17,2*%
%TO.N,P8*%
G36*
X92734390Y-3084379D02*
G01*
X93164527Y-1359194D01*
X94889712Y-1789331D01*
X94459575Y-3514516D01*
X92734390Y-3084379D01*
G37*
%TD.AperFunction*%
%TD*%
D12*
%TO.P,S18,1*%
%TO.N,inner_top*%
X108097166Y28609473D03*
%TO.P,S18,2*%
%TO.N,P5*%
X101321307Y27681126D03*
%TD*%
%TA.AperFunction,SMDPad,CuDef*%
D13*
%TO.P,D18,2*%
%TO.N,inner_top*%
G36*
X103124596Y14204558D02*
G01*
X103414902Y15368913D01*
X104288168Y15151184D01*
X103997862Y13986829D01*
X103124596Y14204558D01*
G37*
%TD.AperFunction*%
%TA.AperFunction,SMDPad,CuDef*%
%TO.P,D18,1*%
%TO.N,P7*%
G36*
X99922620Y15002900D02*
G01*
X100212926Y16167255D01*
X101086192Y15949526D01*
X100795886Y14785171D01*
X99922620Y15002900D01*
G37*
%TD.AperFunction*%
D14*
%TO.N,inner_top*%
X105802221Y14155320D03*
%TA.AperFunction,ComponentPad*%
D15*
%TO.P,D18,2*%
%TO.N,P7*%
G36*
X97330906Y15351240D02*
G01*
X97761043Y17076425D01*
X99486228Y16646288D01*
X99056091Y14921103D01*
X97330906Y15351240D01*
G37*
%TD.AperFunction*%
%TD*%
D12*
%TO.P,S19,1*%
%TO.N,macro_home*%
X120968581Y1696155D03*
%TO.P,S19,2*%
%TO.N,P6*%
X114192722Y767808D03*
%TD*%
%TA.AperFunction,SMDPad,CuDef*%
D13*
%TO.P,D19,2*%
%TO.N,macro_home*%
G36*
X115996011Y-12708760D02*
G01*
X116286317Y-11544405D01*
X117159583Y-11762134D01*
X116869277Y-12926489D01*
X115996011Y-12708760D01*
G37*
%TD.AperFunction*%
%TA.AperFunction,SMDPad,CuDef*%
%TO.P,D19,1*%
%TO.N,P8*%
G36*
X112794035Y-11910418D02*
G01*
X113084341Y-10746063D01*
X113957607Y-10963792D01*
X113667301Y-12128147D01*
X112794035Y-11910418D01*
G37*
%TD.AperFunction*%
D14*
%TO.N,macro_home*%
X118673636Y-12757998D03*
%TA.AperFunction,ComponentPad*%
D15*
%TO.P,D19,2*%
%TO.N,P8*%
G36*
X110202321Y-11562078D02*
G01*
X110632458Y-9836893D01*
X112357643Y-10267030D01*
X111927506Y-11992215D01*
X110202321Y-11562078D01*
G37*
%TD.AperFunction*%
%TD*%
D12*
%TO.P,S20,1*%
%TO.N,macro_top*%
X125565097Y20131774D03*
%TO.P,S20,2*%
%TO.N,P6*%
X118789238Y19203427D03*
%TD*%
%TA.AperFunction,SMDPad,CuDef*%
D13*
%TO.P,D20,2*%
%TO.N,macro_top*%
G36*
X120592527Y5726859D02*
G01*
X120882833Y6891214D01*
X121756099Y6673485D01*
X121465793Y5509130D01*
X120592527Y5726859D01*
G37*
%TD.AperFunction*%
%TA.AperFunction,SMDPad,CuDef*%
%TO.P,D20,1*%
%TO.N,P7*%
G36*
X117390551Y6525201D02*
G01*
X117680857Y7689556D01*
X118554123Y7471827D01*
X118263817Y6307472D01*
X117390551Y6525201D01*
G37*
%TD.AperFunction*%
D14*
%TO.N,macro_top*%
X123270152Y5677621D03*
%TA.AperFunction,ComponentPad*%
D15*
%TO.P,D20,2*%
%TO.N,P7*%
G36*
X114798837Y6873541D02*
G01*
X115228974Y8598726D01*
X116954159Y8168589D01*
X116524022Y6443404D01*
X114798837Y6873541D01*
G37*
%TD.AperFunction*%
%TD*%
D12*
%TO.P,S21,1*%
%TO.N,inner_upper*%
X86064016Y-30825705D03*
%TO.P,S21,2*%
%TO.N,P2*%
X79288157Y-31754052D03*
%TD*%
%TA.AperFunction,SMDPad,CuDef*%
D13*
%TO.P,D21,2*%
%TO.N,inner_upper*%
G36*
X81091446Y-45230619D02*
G01*
X81381752Y-44066264D01*
X82255018Y-44283993D01*
X81964712Y-45448348D01*
X81091446Y-45230619D01*
G37*
%TD.AperFunction*%
%TA.AperFunction,SMDPad,CuDef*%
%TO.P,D21,1*%
%TO.N,P10*%
G36*
X77889470Y-44432277D02*
G01*
X78179776Y-43267922D01*
X79053042Y-43485651D01*
X78762736Y-44650006D01*
X77889470Y-44432277D01*
G37*
%TD.AperFunction*%
D14*
%TO.N,inner_upper*%
X83769071Y-45279857D03*
%TA.AperFunction,ComponentPad*%
D15*
%TO.P,D21,2*%
%TO.N,P10*%
G36*
X75297756Y-44083937D02*
G01*
X75727893Y-42358752D01*
X77453078Y-42788889D01*
X77022941Y-44514074D01*
X75297756Y-44083937D01*
G37*
%TD.AperFunction*%
%TD*%
D12*
%TO.P,S22,1*%
%TO.N,home_upper*%
X117774981Y-30521791D03*
%TO.P,S22,2*%
%TO.N,P3*%
X111043881Y-29310845D03*
%TD*%
%TA.AperFunction,SMDPad,CuDef*%
D13*
%TO.P,D22,2*%
%TO.N,home_upper*%
G36*
X108594422Y-42685069D02*
G01*
X109230325Y-41667411D01*
X109993568Y-42144339D01*
X109357665Y-43161997D01*
X108594422Y-42685069D01*
G37*
%TD.AperFunction*%
%TA.AperFunction,SMDPad,CuDef*%
%TO.P,D22,1*%
%TO.N,P10*%
G36*
X105795864Y-40936335D02*
G01*
X106431767Y-39918677D01*
X107195010Y-40395605D01*
X106559107Y-41413263D01*
X105795864Y-40936335D01*
G37*
%TD.AperFunction*%
D14*
%TO.N,home_upper*%
X111125779Y-43559329D03*
%TA.AperFunction,ComponentPad*%
D15*
%TO.P,D22,2*%
%TO.N,P10*%
G36*
X103438640Y-39804162D02*
G01*
X104380836Y-38296332D01*
X105888666Y-39238528D01*
X104946470Y-40746358D01*
X103438640Y-39804162D01*
G37*
%TD.AperFunction*%
%TD*%
D12*
%TO.P,S23,1*%
%TO.N,outer_upper*%
X138093304Y-44743156D03*
%TO.P,S23,2*%
%TO.N,P5*%
X131525655Y-42835252D03*
%TD*%
%TA.AperFunction,SMDPad,CuDef*%
D13*
%TO.P,D23,2*%
%TO.N,outer_upper*%
G36*
X127691628Y-55880172D02*
G01*
X128430422Y-54934559D01*
X129139632Y-55488654D01*
X128400838Y-56434267D01*
X127691628Y-55880172D01*
G37*
%TD.AperFunction*%
%TA.AperFunction,SMDPad,CuDef*%
%TO.P,D23,1*%
%TO.N,P10*%
G36*
X125091192Y-53848490D02*
G01*
X125829986Y-52902877D01*
X126539196Y-53456972D01*
X125800402Y-54402585D01*
X125091192Y-53848490D01*
G37*
%TD.AperFunction*%
D14*
%TO.N,outer_upper*%
X130117733Y-57014242D03*
%TA.AperFunction,ComponentPad*%
D15*
%TO.P,D23,2*%
%TO.N,P10*%
G36*
X122865226Y-52476121D02*
G01*
X123959872Y-51075037D01*
X125360956Y-52169683D01*
X124266310Y-53570767D01*
X122865226Y-52476121D01*
G37*
%TD.AperFunction*%
%TD*%
D12*
%TO.P,S24,1*%
%TO.N,home_lower*%
X107706515Y-46634705D03*
%TO.P,S24,2*%
%TO.N,P4*%
X100975415Y-45423759D03*
%TD*%
%TA.AperFunction,SMDPad,CuDef*%
D13*
%TO.P,D24,2*%
%TO.N,home_lower*%
G36*
X98525956Y-58797983D02*
G01*
X99161859Y-57780325D01*
X99925102Y-58257253D01*
X99289199Y-59274911D01*
X98525956Y-58797983D01*
G37*
%TD.AperFunction*%
%TA.AperFunction,SMDPad,CuDef*%
%TO.P,D24,1*%
%TO.N,P10*%
G36*
X95727398Y-57049249D02*
G01*
X96363301Y-56031591D01*
X97126544Y-56508519D01*
X96490641Y-57526177D01*
X95727398Y-57049249D01*
G37*
%TD.AperFunction*%
D14*
%TO.N,home_lower*%
X101057313Y-59672243D03*
%TA.AperFunction,ComponentPad*%
D15*
%TO.P,D24,2*%
%TO.N,P10*%
G36*
X93370174Y-55917076D02*
G01*
X94312370Y-54409246D01*
X95820200Y-55351442D01*
X94878004Y-56859272D01*
X93370174Y-55917076D01*
G37*
%TD.AperFunction*%
%TD*%
D12*
%TO.P,S25,1*%
%TO.N,outer_lower*%
X126211938Y-59773151D03*
%TO.P,S25,2*%
%TO.N,P6*%
X119644289Y-57865247D03*
%TD*%
%TA.AperFunction,SMDPad,CuDef*%
D13*
%TO.P,D25,2*%
%TO.N,outer_lower*%
G36*
X115810262Y-70910168D02*
G01*
X116549056Y-69964555D01*
X117258266Y-70518650D01*
X116519472Y-71464263D01*
X115810262Y-70910168D01*
G37*
%TD.AperFunction*%
%TA.AperFunction,SMDPad,CuDef*%
%TO.P,D25,1*%
%TO.N,P10*%
G36*
X113209826Y-68878486D02*
G01*
X113948620Y-67932873D01*
X114657830Y-68486968D01*
X113919036Y-69432581D01*
X113209826Y-68878486D01*
G37*
%TD.AperFunction*%
D14*
%TO.N,outer_lower*%
X118236367Y-72044238D03*
%TA.AperFunction,ComponentPad*%
D15*
%TO.P,D25,2*%
%TO.N,P10*%
G36*
X110983860Y-67506117D02*
G01*
X112078506Y-66105033D01*
X113479590Y-67199679D01*
X112384944Y-68600763D01*
X110983860Y-67506117D01*
G37*
%TD.AperFunction*%
%TD*%
D12*
%TO.P,S26,1*%
%TO.N,mirror_outer_bottom*%
X303217910Y5443890D03*
%TO.P,S26,2*%
%TO.N,P21*%
X297405447Y1839812D03*
%TD*%
%TA.AperFunction,SMDPad,CuDef*%
D13*
%TO.P,D26,2*%
%TO.N,mirror_outer_bottom*%
G36*
X304534247Y-9738181D02*
G01*
X304325870Y-8556412D01*
X305212197Y-8400129D01*
X305420574Y-9581898D01*
X304534247Y-9738181D01*
G37*
%TD.AperFunction*%
%TA.AperFunction,SMDPad,CuDef*%
%TO.P,D26,1*%
%TO.N,P9*%
G36*
X301284381Y-10311219D02*
G01*
X301076004Y-9129450D01*
X301962331Y-8973167D01*
X302170708Y-10154936D01*
X301284381Y-10311219D01*
G37*
%TD.AperFunction*%
D14*
%TO.N,mirror_outer_bottom*%
X307000407Y-8694074D03*
%TA.AperFunction,ComponentPad*%
D15*
%TO.P,D26,2*%
%TO.N,P9*%
G36*
X298775050Y-11047141D02*
G01*
X298466304Y-9296153D01*
X300217292Y-8987407D01*
X300526038Y-10738395D01*
X298775050Y-11047141D01*
G37*
%TD.AperFunction*%
%TD*%
D12*
%TO.P,S27,1*%
%TO.N,mirror_outer_home*%
X299918594Y24155237D03*
%TO.P,S27,2*%
%TO.N,P21*%
X294106131Y20551159D03*
%TD*%
%TA.AperFunction,SMDPad,CuDef*%
D13*
%TO.P,D27,2*%
%TO.N,mirror_outer_home*%
G36*
X301234931Y8973167D02*
G01*
X301026554Y10154936D01*
X301912881Y10311219D01*
X302121258Y9129450D01*
X301234931Y8973167D01*
G37*
%TD.AperFunction*%
%TA.AperFunction,SMDPad,CuDef*%
%TO.P,D27,1*%
%TO.N,P8*%
G36*
X297985065Y8400129D02*
G01*
X297776688Y9581898D01*
X298663015Y9738181D01*
X298871392Y8556412D01*
X297985065Y8400129D01*
G37*
%TD.AperFunction*%
D14*
%TO.N,mirror_outer_home*%
X303701091Y10017274D03*
%TA.AperFunction,ComponentPad*%
D15*
%TO.P,D27,2*%
%TO.N,P8*%
G36*
X295475734Y7664207D02*
G01*
X295166988Y9415195D01*
X296917976Y9723941D01*
X297226722Y7972953D01*
X295475734Y7664207D01*
G37*
%TD.AperFunction*%
%TD*%
D12*
%TO.P,S28,1*%
%TO.N,mirror_outer_top*%
X296619279Y42866585D03*
%TO.P,S28,2*%
%TO.N,P21*%
X290806816Y39262507D03*
%TD*%
%TA.AperFunction,SMDPad,CuDef*%
D13*
%TO.P,D28,2*%
%TO.N,mirror_outer_top*%
G36*
X297935616Y27684514D02*
G01*
X297727239Y28866283D01*
X298613566Y29022566D01*
X298821943Y27840797D01*
X297935616Y27684514D01*
G37*
%TD.AperFunction*%
%TA.AperFunction,SMDPad,CuDef*%
%TO.P,D28,1*%
%TO.N,P7*%
G36*
X294685750Y27111476D02*
G01*
X294477373Y28293245D01*
X295363700Y28449528D01*
X295572077Y27267759D01*
X294685750Y27111476D01*
G37*
%TD.AperFunction*%
D14*
%TO.N,mirror_outer_top*%
X300401776Y28728621D03*
%TA.AperFunction,ComponentPad*%
D15*
%TO.P,D28,2*%
%TO.N,P7*%
G36*
X292176419Y26375554D02*
G01*
X291867673Y28126542D01*
X293618661Y28435288D01*
X293927407Y26684300D01*
X292176419Y26375554D01*
G37*
%TD.AperFunction*%
%TD*%
D12*
%TO.P,S29,1*%
%TO.N,mirror_pinky_bottom*%
X284506563Y2144575D03*
%TO.P,S29,2*%
%TO.N,P20*%
X278694100Y-1459503D03*
%TD*%
%TA.AperFunction,SMDPad,CuDef*%
D13*
%TO.P,D29,2*%
%TO.N,mirror_pinky_bottom*%
G36*
X285822899Y-13037496D02*
G01*
X285614522Y-11855727D01*
X286500849Y-11699444D01*
X286709226Y-12881213D01*
X285822899Y-13037496D01*
G37*
%TD.AperFunction*%
%TA.AperFunction,SMDPad,CuDef*%
%TO.P,D29,1*%
%TO.N,P9*%
G36*
X282573033Y-13610534D02*
G01*
X282364656Y-12428765D01*
X283250983Y-12272482D01*
X283459360Y-13454251D01*
X282573033Y-13610534D01*
G37*
%TD.AperFunction*%
D14*
%TO.N,mirror_pinky_bottom*%
X288289059Y-11993389D03*
%TA.AperFunction,ComponentPad*%
D15*
%TO.P,D29,2*%
%TO.N,P9*%
G36*
X280063702Y-14346456D02*
G01*
X279754956Y-12595468D01*
X281505944Y-12286722D01*
X281814690Y-14037710D01*
X280063702Y-14346456D01*
G37*
%TD.AperFunction*%
%TD*%
D12*
%TO.P,S30,1*%
%TO.N,mirror_pinky_home*%
X281207247Y20855922D03*
%TO.P,S30,2*%
%TO.N,P20*%
X275394784Y17251844D03*
%TD*%
%TA.AperFunction,SMDPad,CuDef*%
D13*
%TO.P,D30,2*%
%TO.N,mirror_pinky_home*%
G36*
X282523584Y5673851D02*
G01*
X282315207Y6855620D01*
X283201534Y7011903D01*
X283409911Y5830134D01*
X282523584Y5673851D01*
G37*
%TD.AperFunction*%
%TA.AperFunction,SMDPad,CuDef*%
%TO.P,D30,1*%
%TO.N,P8*%
G36*
X279273718Y5100813D02*
G01*
X279065341Y6282582D01*
X279951668Y6438865D01*
X280160045Y5257096D01*
X279273718Y5100813D01*
G37*
%TD.AperFunction*%
D14*
%TO.N,mirror_pinky_home*%
X284989744Y6717958D03*
%TA.AperFunction,ComponentPad*%
D15*
%TO.P,D30,2*%
%TO.N,P8*%
G36*
X276764387Y4364891D02*
G01*
X276455641Y6115879D01*
X278206629Y6424625D01*
X278515375Y4673637D01*
X276764387Y4364891D01*
G37*
%TD.AperFunction*%
%TD*%
D12*
%TO.P,S31,1*%
%TO.N,mirror_pinky_top*%
X277907932Y39567269D03*
%TO.P,S31,2*%
%TO.N,P20*%
X272095469Y35963191D03*
%TD*%
%TA.AperFunction,SMDPad,CuDef*%
D13*
%TO.P,D31,2*%
%TO.N,mirror_pinky_top*%
G36*
X279224269Y24385199D02*
G01*
X279015892Y25566968D01*
X279902219Y25723251D01*
X280110596Y24541482D01*
X279224269Y24385199D01*
G37*
%TD.AperFunction*%
%TA.AperFunction,SMDPad,CuDef*%
%TO.P,D31,1*%
%TO.N,P7*%
G36*
X275974403Y23812161D02*
G01*
X275766026Y24993930D01*
X276652353Y25150213D01*
X276860730Y23968444D01*
X275974403Y23812161D01*
G37*
%TD.AperFunction*%
D14*
%TO.N,mirror_pinky_top*%
X281690429Y25429306D03*
%TA.AperFunction,ComponentPad*%
D15*
%TO.P,D31,2*%
%TO.N,P7*%
G36*
X273465072Y23076239D02*
G01*
X273156326Y24827227D01*
X274907314Y25135973D01*
X275216060Y23384985D01*
X273465072Y23076239D01*
G37*
%TD.AperFunction*%
%TD*%
D12*
%TO.P,S32,1*%
%TO.N,mirror_ring_bottom*%
X262204690Y9667633D03*
%TO.P,S32,2*%
%TO.N,P19*%
X256657794Y5666878D03*
%TD*%
%TA.AperFunction,SMDPad,CuDef*%
D13*
%TO.P,D32,2*%
%TO.N,mirror_ring_bottom*%
G36*
X264576868Y-5385631D02*
G01*
X264286562Y-4221276D01*
X265159828Y-4003547D01*
X265450134Y-5167902D01*
X264576868Y-5385631D01*
G37*
%TD.AperFunction*%
%TA.AperFunction,SMDPad,CuDef*%
%TO.P,D32,1*%
%TO.N,P9*%
G36*
X261374892Y-6183973D02*
G01*
X261084586Y-5019618D01*
X261957852Y-4801889D01*
X262248158Y-5966244D01*
X261374892Y-6183973D01*
G37*
%TD.AperFunction*%
D14*
%TO.N,mirror_ring_bottom*%
X266964187Y-4172038D03*
%TA.AperFunction,ComponentPad*%
D15*
%TO.P,D32,2*%
%TO.N,P9*%
G36*
X258923009Y-7093143D02*
G01*
X258492872Y-5367958D01*
X260218057Y-4937821D01*
X260648194Y-6663006D01*
X258923009Y-7093143D01*
G37*
%TD.AperFunction*%
%TD*%
D12*
%TO.P,S33,1*%
%TO.N,mirror_ring_home*%
X257608174Y28103252D03*
%TO.P,S33,2*%
%TO.N,P19*%
X252061278Y24102497D03*
%TD*%
%TA.AperFunction,SMDPad,CuDef*%
D13*
%TO.P,D33,2*%
%TO.N,mirror_ring_home*%
G36*
X259980352Y13049988D02*
G01*
X259690046Y14214343D01*
X260563312Y14432072D01*
X260853618Y13267717D01*
X259980352Y13049988D01*
G37*
%TD.AperFunction*%
%TA.AperFunction,SMDPad,CuDef*%
%TO.P,D33,1*%
%TO.N,P8*%
G36*
X256778376Y12251646D02*
G01*
X256488070Y13416001D01*
X257361336Y13633730D01*
X257651642Y12469375D01*
X256778376Y12251646D01*
G37*
%TD.AperFunction*%
D14*
%TO.N,mirror_ring_home*%
X262367671Y14263581D03*
%TA.AperFunction,ComponentPad*%
D15*
%TO.P,D33,2*%
%TO.N,P8*%
G36*
X254326493Y11342476D02*
G01*
X253896356Y13067661D01*
X255621541Y13497798D01*
X256051678Y11772613D01*
X254326493Y11342476D01*
G37*
%TD.AperFunction*%
%TD*%
D12*
%TO.P,S34,1*%
%TO.N,mirror_ring_top*%
X253011658Y46538871D03*
%TO.P,S34,2*%
%TO.N,P19*%
X247464762Y42538116D03*
%TD*%
%TA.AperFunction,SMDPad,CuDef*%
D13*
%TO.P,D34,2*%
%TO.N,mirror_ring_top*%
G36*
X255383836Y31485606D02*
G01*
X255093530Y32649961D01*
X255966796Y32867690D01*
X256257102Y31703335D01*
X255383836Y31485606D01*
G37*
%TD.AperFunction*%
%TA.AperFunction,SMDPad,CuDef*%
%TO.P,D34,1*%
%TO.N,P7*%
G36*
X252181860Y30687264D02*
G01*
X251891554Y31851619D01*
X252764820Y32069348D01*
X253055126Y30904993D01*
X252181860Y30687264D01*
G37*
%TD.AperFunction*%
D14*
%TO.N,mirror_ring_top*%
X257771155Y32699199D03*
%TA.AperFunction,ComponentPad*%
D15*
%TO.P,D34,2*%
%TO.N,P7*%
G36*
X249729977Y29778094D02*
G01*
X249299840Y31503279D01*
X251025025Y31933416D01*
X251455162Y30208231D01*
X249729977Y29778094D01*
G37*
%TD.AperFunction*%
%TD*%
D12*
%TO.P,S35,1*%
%TO.N,mirror_middle_bottom*%
X242559461Y9922596D03*
%TO.P,S35,2*%
%TO.N,P18*%
X237012565Y5921841D03*
%TD*%
%TA.AperFunction,SMDPad,CuDef*%
D13*
%TO.P,D35,2*%
%TO.N,mirror_middle_bottom*%
G36*
X244931639Y-5130669D02*
G01*
X244641333Y-3966314D01*
X245514599Y-3748585D01*
X245804905Y-4912940D01*
X244931639Y-5130669D01*
G37*
%TD.AperFunction*%
%TA.AperFunction,SMDPad,CuDef*%
%TO.P,D35,1*%
%TO.N,P9*%
G36*
X241729663Y-5929011D02*
G01*
X241439357Y-4764656D01*
X242312623Y-4546927D01*
X242602929Y-5711282D01*
X241729663Y-5929011D01*
G37*
%TD.AperFunction*%
D14*
%TO.N,mirror_middle_bottom*%
X247318958Y-3917076D03*
%TA.AperFunction,ComponentPad*%
D15*
%TO.P,D35,2*%
%TO.N,P9*%
G36*
X239277780Y-6838181D02*
G01*
X238847643Y-5112996D01*
X240572828Y-4682859D01*
X241002965Y-6408044D01*
X239277780Y-6838181D01*
G37*
%TD.AperFunction*%
%TD*%
D12*
%TO.P,S36,1*%
%TO.N,mirror_middle_home*%
X237962945Y28358215D03*
%TO.P,S36,2*%
%TO.N,P18*%
X232416049Y24357460D03*
%TD*%
%TA.AperFunction,SMDPad,CuDef*%
D13*
%TO.P,D36,2*%
%TO.N,mirror_middle_home*%
G36*
X240335123Y13304950D02*
G01*
X240044817Y14469305D01*
X240918083Y14687034D01*
X241208389Y13522679D01*
X240335123Y13304950D01*
G37*
%TD.AperFunction*%
%TA.AperFunction,SMDPad,CuDef*%
%TO.P,D36,1*%
%TO.N,P8*%
G36*
X237133147Y12506608D02*
G01*
X236842841Y13670963D01*
X237716107Y13888692D01*
X238006413Y12724337D01*
X237133147Y12506608D01*
G37*
%TD.AperFunction*%
D14*
%TO.N,mirror_middle_home*%
X242722442Y14518543D03*
%TA.AperFunction,ComponentPad*%
D15*
%TO.P,D36,2*%
%TO.N,P8*%
G36*
X234681264Y11597438D02*
G01*
X234251127Y13322623D01*
X235976312Y13752760D01*
X236406449Y12027575D01*
X234681264Y11597438D01*
G37*
%TD.AperFunction*%
%TD*%
D12*
%TO.P,S37,1*%
%TO.N,mirror_middle_top*%
X233366429Y46793833D03*
%TO.P,S37,2*%
%TO.N,P18*%
X227819533Y42793078D03*
%TD*%
%TA.AperFunction,SMDPad,CuDef*%
D13*
%TO.P,D37,2*%
%TO.N,mirror_middle_top*%
G36*
X235738607Y31740569D02*
G01*
X235448301Y32904924D01*
X236321567Y33122653D01*
X236611873Y31958298D01*
X235738607Y31740569D01*
G37*
%TD.AperFunction*%
%TA.AperFunction,SMDPad,CuDef*%
%TO.P,D37,1*%
%TO.N,P7*%
G36*
X232536631Y30942227D02*
G01*
X232246325Y32106582D01*
X233119591Y32324311D01*
X233409897Y31159956D01*
X232536631Y30942227D01*
G37*
%TD.AperFunction*%
D14*
%TO.N,mirror_middle_top*%
X238125926Y32954162D03*
%TA.AperFunction,ComponentPad*%
D15*
%TO.P,D37,2*%
%TO.N,P7*%
G36*
X230084748Y30033057D02*
G01*
X229654611Y31758242D01*
X231379796Y32188379D01*
X231809933Y30463194D01*
X230084748Y30033057D01*
G37*
%TD.AperFunction*%
%TD*%
D12*
%TO.P,S38,1*%
%TO.N,mirror_index_bottom*%
X225575374Y-495695D03*
%TO.P,S38,2*%
%TO.N,P15*%
X220028478Y-4496450D03*
%TD*%
%TA.AperFunction,SMDPad,CuDef*%
D13*
%TO.P,D38,2*%
%TO.N,mirror_index_bottom*%
G36*
X227947552Y-15548959D02*
G01*
X227657246Y-14384604D01*
X228530512Y-14166875D01*
X228820818Y-15331230D01*
X227947552Y-15548959D01*
G37*
%TD.AperFunction*%
%TA.AperFunction,SMDPad,CuDef*%
%TO.P,D38,1*%
%TO.N,P9*%
G36*
X224745576Y-16347301D02*
G01*
X224455270Y-15182946D01*
X225328536Y-14965217D01*
X225618842Y-16129572D01*
X224745576Y-16347301D01*
G37*
%TD.AperFunction*%
D14*
%TO.N,mirror_index_bottom*%
X230334871Y-14335366D03*
%TA.AperFunction,ComponentPad*%
D15*
%TO.P,D38,2*%
%TO.N,P9*%
G36*
X222293693Y-17256471D02*
G01*
X221863556Y-15531286D01*
X223588741Y-15101149D01*
X224018878Y-16826334D01*
X222293693Y-17256471D01*
G37*
%TD.AperFunction*%
%TD*%
D12*
%TO.P,S39,1*%
%TO.N,mirror_index_home*%
X220978858Y17939924D03*
%TO.P,S39,2*%
%TO.N,P15*%
X215431962Y13939169D03*
%TD*%
%TA.AperFunction,SMDPad,CuDef*%
D13*
%TO.P,D39,2*%
%TO.N,mirror_index_home*%
G36*
X223351036Y2886660D02*
G01*
X223060730Y4051015D01*
X223933996Y4268744D01*
X224224302Y3104389D01*
X223351036Y2886660D01*
G37*
%TD.AperFunction*%
%TA.AperFunction,SMDPad,CuDef*%
%TO.P,D39,1*%
%TO.N,P8*%
G36*
X220149060Y2088318D02*
G01*
X219858754Y3252673D01*
X220732020Y3470402D01*
X221022326Y2306047D01*
X220149060Y2088318D01*
G37*
%TD.AperFunction*%
D14*
%TO.N,mirror_index_home*%
X225738355Y4100253D03*
%TA.AperFunction,ComponentPad*%
D15*
%TO.P,D39,2*%
%TO.N,P8*%
G36*
X217697177Y1179148D02*
G01*
X217267040Y2904333D01*
X218992225Y3334470D01*
X219422362Y1609285D01*
X217697177Y1179148D01*
G37*
%TD.AperFunction*%
%TD*%
D12*
%TO.P,S40,1*%
%TO.N,mirror_index_top*%
X216382342Y36375543D03*
%TO.P,S40,2*%
%TO.N,P15*%
X210835446Y32374788D03*
%TD*%
%TA.AperFunction,SMDPad,CuDef*%
D13*
%TO.P,D40,2*%
%TO.N,mirror_index_top*%
G36*
X218754520Y21322279D02*
G01*
X218464214Y22486634D01*
X219337480Y22704363D01*
X219627786Y21540008D01*
X218754520Y21322279D01*
G37*
%TD.AperFunction*%
%TA.AperFunction,SMDPad,CuDef*%
%TO.P,D40,1*%
%TO.N,P7*%
G36*
X215552544Y20523937D02*
G01*
X215262238Y21688292D01*
X216135504Y21906021D01*
X216425810Y20741666D01*
X215552544Y20523937D01*
G37*
%TD.AperFunction*%
D14*
%TO.N,mirror_index_top*%
X221141839Y22535872D03*
%TA.AperFunction,ComponentPad*%
D15*
%TO.P,D40,2*%
%TO.N,P7*%
G36*
X213100661Y19614767D02*
G01*
X212670524Y21339952D01*
X214395709Y21770089D01*
X214825846Y20044904D01*
X213100661Y19614767D01*
G37*
%TD.AperFunction*%
%TD*%
D12*
%TO.P,S41,1*%
%TO.N,mirror_inner_bottom*%
X207623599Y-7032802D03*
%TO.P,S41,2*%
%TO.N,P14*%
X202076703Y-11033557D03*
%TD*%
%TA.AperFunction,SMDPad,CuDef*%
D13*
%TO.P,D41,2*%
%TO.N,mirror_inner_bottom*%
G36*
X209995777Y-22086067D02*
G01*
X209705471Y-20921712D01*
X210578737Y-20703983D01*
X210869043Y-21868338D01*
X209995777Y-22086067D01*
G37*
%TD.AperFunction*%
%TA.AperFunction,SMDPad,CuDef*%
%TO.P,D41,1*%
%TO.N,P9*%
G36*
X206793801Y-22884409D02*
G01*
X206503495Y-21720054D01*
X207376761Y-21502325D01*
X207667067Y-22666680D01*
X206793801Y-22884409D01*
G37*
%TD.AperFunction*%
D14*
%TO.N,mirror_inner_bottom*%
X212383096Y-20872474D03*
%TA.AperFunction,ComponentPad*%
D15*
%TO.P,D41,2*%
%TO.N,P9*%
G36*
X204341918Y-23793579D02*
G01*
X203911781Y-22068394D01*
X205636966Y-21638257D01*
X206067103Y-23363442D01*
X204341918Y-23793579D01*
G37*
%TD.AperFunction*%
%TD*%
D12*
%TO.P,S42,1*%
%TO.N,mirror_inner_home*%
X203027083Y11402817D03*
%TO.P,S42,2*%
%TO.N,P14*%
X197480187Y7402062D03*
%TD*%
%TA.AperFunction,SMDPad,CuDef*%
D13*
%TO.P,D42,2*%
%TO.N,mirror_inner_home*%
G36*
X205399261Y-3650448D02*
G01*
X205108955Y-2486093D01*
X205982221Y-2268364D01*
X206272527Y-3432719D01*
X205399261Y-3650448D01*
G37*
%TD.AperFunction*%
%TA.AperFunction,SMDPad,CuDef*%
%TO.P,D42,1*%
%TO.N,P8*%
G36*
X202197285Y-4448790D02*
G01*
X201906979Y-3284435D01*
X202780245Y-3066706D01*
X203070551Y-4231061D01*
X202197285Y-4448790D01*
G37*
%TD.AperFunction*%
D14*
%TO.N,mirror_inner_home*%
X207786580Y-2436855D03*
%TA.AperFunction,ComponentPad*%
D15*
%TO.P,D42,2*%
%TO.N,P8*%
G36*
X199745402Y-5357960D02*
G01*
X199315265Y-3632775D01*
X201040450Y-3202638D01*
X201470587Y-4927823D01*
X199745402Y-5357960D01*
G37*
%TD.AperFunction*%
%TD*%
D12*
%TO.P,S43,1*%
%TO.N,mirror_inner_top*%
X198430567Y29838436D03*
%TO.P,S43,2*%
%TO.N,P14*%
X192883671Y25837681D03*
%TD*%
%TA.AperFunction,SMDPad,CuDef*%
D13*
%TO.P,D43,2*%
%TO.N,mirror_inner_top*%
G36*
X200802745Y14785171D02*
G01*
X200512439Y15949526D01*
X201385705Y16167255D01*
X201676011Y15002900D01*
X200802745Y14785171D01*
G37*
%TD.AperFunction*%
%TA.AperFunction,SMDPad,CuDef*%
%TO.P,D43,1*%
%TO.N,P7*%
G36*
X197600769Y13986829D02*
G01*
X197310463Y15151184D01*
X198183729Y15368913D01*
X198474035Y14204558D01*
X197600769Y13986829D01*
G37*
%TD.AperFunction*%
D14*
%TO.N,mirror_inner_top*%
X203190064Y15998764D03*
%TA.AperFunction,ComponentPad*%
D15*
%TO.P,D43,2*%
%TO.N,P7*%
G36*
X195148886Y13077659D02*
G01*
X194718749Y14802844D01*
X196443934Y15232981D01*
X196874071Y13507796D01*
X195148886Y13077659D01*
G37*
%TD.AperFunction*%
%TD*%
D12*
%TO.P,S44,1*%
%TO.N,mirror_macro_home*%
X185559152Y2925118D03*
%TO.P,S44,2*%
%TO.N,P16*%
X180012256Y-1075637D03*
%TD*%
%TA.AperFunction,SMDPad,CuDef*%
D13*
%TO.P,D44,2*%
%TO.N,mirror_macro_home*%
G36*
X187931330Y-12128147D02*
G01*
X187641024Y-10963792D01*
X188514290Y-10746063D01*
X188804596Y-11910418D01*
X187931330Y-12128147D01*
G37*
%TD.AperFunction*%
%TA.AperFunction,SMDPad,CuDef*%
%TO.P,D44,1*%
%TO.N,P8*%
G36*
X184729354Y-12926489D02*
G01*
X184439048Y-11762134D01*
X185312314Y-11544405D01*
X185602620Y-12708760D01*
X184729354Y-12926489D01*
G37*
%TD.AperFunction*%
D14*
%TO.N,mirror_macro_home*%
X190318649Y-10914554D03*
%TA.AperFunction,ComponentPad*%
D15*
%TO.P,D44,2*%
%TO.N,P8*%
G36*
X182277471Y-13835659D02*
G01*
X181847334Y-12110474D01*
X183572519Y-11680337D01*
X184002656Y-13405522D01*
X182277471Y-13835659D01*
G37*
%TD.AperFunction*%
%TD*%
D12*
%TO.P,S45,1*%
%TO.N,mirror_macro_top*%
X180962636Y21360737D03*
%TO.P,S45,2*%
%TO.N,P16*%
X175415740Y17359982D03*
%TD*%
%TA.AperFunction,SMDPad,CuDef*%
D13*
%TO.P,D45,2*%
%TO.N,mirror_macro_top*%
G36*
X183334814Y6307472D02*
G01*
X183044508Y7471827D01*
X183917774Y7689556D01*
X184208080Y6525201D01*
X183334814Y6307472D01*
G37*
%TD.AperFunction*%
%TA.AperFunction,SMDPad,CuDef*%
%TO.P,D45,1*%
%TO.N,P7*%
G36*
X180132838Y5509130D02*
G01*
X179842532Y6673485D01*
X180715798Y6891214D01*
X181006104Y5726859D01*
X180132838Y5509130D01*
G37*
%TD.AperFunction*%
D14*
%TO.N,mirror_macro_top*%
X185722133Y7521065D03*
%TA.AperFunction,ComponentPad*%
D15*
%TO.P,D45,2*%
%TO.N,P7*%
G36*
X177680955Y4599960D02*
G01*
X177250818Y6325145D01*
X178976003Y6755282D01*
X179406140Y5030097D01*
X177680955Y4599960D01*
G37*
%TD.AperFunction*%
%TD*%
D12*
%TO.P,S46,1*%
%TO.N,mirror_inner_upper*%
X220463717Y-29596742D03*
%TO.P,S46,2*%
%TO.N,P19*%
X214916821Y-33597497D03*
%TD*%
%TA.AperFunction,SMDPad,CuDef*%
D13*
%TO.P,D46,2*%
%TO.N,mirror_inner_upper*%
G36*
X222835895Y-44650006D02*
G01*
X222545589Y-43485651D01*
X223418855Y-43267922D01*
X223709161Y-44432277D01*
X222835895Y-44650006D01*
G37*
%TD.AperFunction*%
%TA.AperFunction,SMDPad,CuDef*%
%TO.P,D46,1*%
%TO.N,P10*%
G36*
X219633919Y-45448348D02*
G01*
X219343613Y-44283993D01*
X220216879Y-44066264D01*
X220507185Y-45230619D01*
X219633919Y-45448348D01*
G37*
%TD.AperFunction*%
D14*
%TO.N,mirror_inner_upper*%
X225223214Y-43436413D03*
%TA.AperFunction,ComponentPad*%
D15*
%TO.P,D46,2*%
%TO.N,P10*%
G36*
X217182036Y-46357518D02*
G01*
X216751899Y-44632333D01*
X218477084Y-44202196D01*
X218907221Y-45927381D01*
X217182036Y-46357518D01*
G37*
%TD.AperFunction*%
%TD*%
D12*
%TO.P,S47,1*%
%TO.N,mirror_home_upper*%
X188131734Y-27829801D03*
%TO.P,S47,2*%
%TO.N,P18*%
X184092624Y-33348830D03*
%TD*%
%TA.AperFunction,SMDPad,CuDef*%
D13*
%TO.P,D47,2*%
%TO.N,mirror_home_upper*%
G36*
X195039524Y-41413263D02*
G01*
X194403621Y-40395605D01*
X195166864Y-39918677D01*
X195802767Y-40936335D01*
X195039524Y-41413263D01*
G37*
%TD.AperFunction*%
%TA.AperFunction,SMDPad,CuDef*%
%TO.P,D47,1*%
%TO.N,P10*%
G36*
X192240966Y-43161997D02*
G01*
X191605063Y-42144339D01*
X192368306Y-41667411D01*
X193004209Y-42685069D01*
X192240966Y-43161997D01*
G37*
%TD.AperFunction*%
D14*
%TO.N,mirror_home_upper*%
X196934978Y-39521345D03*
%TA.AperFunction,ComponentPad*%
D15*
%TO.P,D47,2*%
%TO.N,P10*%
G36*
X190190035Y-44784342D02*
G01*
X189247839Y-43276512D01*
X190755669Y-42334316D01*
X191697865Y-43842146D01*
X190190035Y-44784342D01*
G37*
%TD.AperFunction*%
%TD*%
D12*
%TO.P,S48,1*%
%TO.N,mirror_outer_upper*%
X167508422Y-41615595D03*
%TO.P,S48,2*%
%TO.N,P14*%
X164068334Y-47526593D03*
%TD*%
%TA.AperFunction,SMDPad,CuDef*%
D13*
%TO.P,D48,2*%
%TO.N,mirror_outer_upper*%
G36*
X175798229Y-54402585D02*
G01*
X175059435Y-53456972D01*
X175768645Y-52902877D01*
X176507439Y-53848490D01*
X175798229Y-54402585D01*
G37*
%TD.AperFunction*%
%TA.AperFunction,SMDPad,CuDef*%
%TO.P,D48,1*%
%TO.N,P10*%
G36*
X173197793Y-56434267D02*
G01*
X172458999Y-55488654D01*
X173168209Y-54934559D01*
X173907003Y-55880172D01*
X173197793Y-56434267D01*
G37*
%TD.AperFunction*%
D14*
%TO.N,mirror_outer_upper*%
X177485540Y-52322902D03*
%TA.AperFunction,ComponentPad*%
D15*
%TO.P,D48,2*%
%TO.N,P10*%
G36*
X171327679Y-58262107D02*
G01*
X170233033Y-56861023D01*
X171634117Y-55766377D01*
X172728763Y-57167461D01*
X171327679Y-58262107D01*
G37*
%TD.AperFunction*%
%TD*%
D12*
%TO.P,S49,1*%
%TO.N,mirror_home_lower*%
X198200200Y-43942715D03*
%TO.P,S49,2*%
%TO.N,P15*%
X194161090Y-49461744D03*
%TD*%
%TA.AperFunction,SMDPad,CuDef*%
D13*
%TO.P,D49,2*%
%TO.N,mirror_home_lower*%
G36*
X205107990Y-57526177D02*
G01*
X204472087Y-56508519D01*
X205235330Y-56031591D01*
X205871233Y-57049249D01*
X205107990Y-57526177D01*
G37*
%TD.AperFunction*%
%TA.AperFunction,SMDPad,CuDef*%
%TO.P,D49,1*%
%TO.N,P10*%
G36*
X202309432Y-59274911D02*
G01*
X201673529Y-58257253D01*
X202436772Y-57780325D01*
X203072675Y-58797983D01*
X202309432Y-59274911D01*
G37*
%TD.AperFunction*%
D14*
%TO.N,mirror_home_lower*%
X207003444Y-55634259D03*
%TA.AperFunction,ComponentPad*%
D15*
%TO.P,D49,2*%
%TO.N,P10*%
G36*
X200258501Y-60897256D02*
G01*
X199316305Y-59389426D01*
X200824135Y-58447230D01*
X201766331Y-59955060D01*
X200258501Y-60897256D01*
G37*
%TD.AperFunction*%
%TD*%
D12*
%TO.P,S50,1*%
%TO.N,mirror_outer_lower*%
X179389787Y-56645590D03*
%TO.P,S50,2*%
%TO.N,P16*%
X175949699Y-62556588D03*
%TD*%
%TA.AperFunction,SMDPad,CuDef*%
D13*
%TO.P,D50,2*%
%TO.N,mirror_outer_lower*%
G36*
X187679594Y-69432581D02*
G01*
X186940800Y-68486968D01*
X187650010Y-67932873D01*
X188388804Y-68878486D01*
X187679594Y-69432581D01*
G37*
%TD.AperFunction*%
%TA.AperFunction,SMDPad,CuDef*%
%TO.P,D50,1*%
%TO.N,P10*%
G36*
X185079158Y-71464263D02*
G01*
X184340364Y-70518650D01*
X185049574Y-69964555D01*
X185788368Y-70910168D01*
X185079158Y-71464263D01*
G37*
%TD.AperFunction*%
D14*
%TO.N,mirror_outer_lower*%
X189366905Y-67352898D03*
%TA.AperFunction,ComponentPad*%
D15*
%TO.P,D50,2*%
%TO.N,P10*%
G36*
X183209044Y-73292103D02*
G01*
X182114398Y-71891019D01*
X183515482Y-70796373D01*
X184610128Y-72197457D01*
X183209044Y-73292103D01*
G37*
%TD.AperFunction*%
%TD*%
D16*
%TO.P,MCU1,1*%
%TO.N,RAW*%
X158419315Y30264852D03*
D17*
%TO.P,MCU1,2*%
%TO.N,GND*%
X158419315Y27724852D03*
%TO.P,MCU1,3*%
%TO.N,RST*%
X158419315Y25184852D03*
%TO.P,MCU1,4*%
%TO.N,VCC*%
X158419315Y22644852D03*
%TO.P,MCU1,5*%
%TO.N,P21*%
X158419315Y20104852D03*
%TO.P,MCU1,6*%
%TO.N,P20*%
X158419315Y17564852D03*
%TO.P,MCU1,7*%
%TO.N,P19*%
X158419315Y15024852D03*
%TO.P,MCU1,8*%
%TO.N,P18*%
X158419315Y12484852D03*
%TO.P,MCU1,9*%
%TO.N,P15*%
X158419315Y9944852D03*
%TO.P,MCU1,10*%
%TO.N,P14*%
X158419315Y7404852D03*
%TO.P,MCU1,11*%
%TO.N,P16*%
X158419315Y4864852D03*
%TO.P,MCU1,12*%
%TO.N,P10*%
X158419315Y2324852D03*
%TO.P,MCU1,13*%
%TO.N,P1*%
X143179315Y30264852D03*
%TO.P,MCU1,14*%
%TO.N,P0*%
X143179315Y27724852D03*
%TO.P,MCU1,15*%
%TO.N,GND*%
X143179315Y25184852D03*
%TO.P,MCU1,16*%
X143179315Y22644852D03*
%TO.P,MCU1,17*%
%TO.N,P2*%
X143179315Y20104852D03*
%TO.P,MCU1,18*%
%TO.N,P3*%
X143179315Y17564852D03*
%TO.P,MCU1,19*%
%TO.N,P4*%
X143179315Y15024852D03*
%TO.P,MCU1,20*%
%TO.N,P5*%
X143179315Y12484852D03*
%TO.P,MCU1,21*%
%TO.N,P6*%
X143179315Y9944852D03*
%TO.P,MCU1,22*%
%TO.N,P7*%
X143179315Y7404852D03*
%TO.P,MCU1,23*%
%TO.N,P8*%
X143179315Y4864852D03*
%TO.P,MCU1,24*%
%TO.N,P9*%
X143179315Y2324852D03*
%TD*%
D18*
%TO.N,P9*%
X285836242Y-10017274D02*
X282912008Y-12941508D01*
X299496171Y-10017274D02*
X285836242Y-10017274D01*
X269490030Y-13316589D02*
X261666372Y-5492931D01*
X280784823Y-13316589D02*
X269490030Y-13316589D01*
X242798656Y-6015482D02*
X242021143Y-5237969D01*
X259570533Y-6015482D02*
X242798656Y-6015482D01*
X234932795Y-5760520D02*
X225037056Y-15656259D01*
X239925304Y-5760520D02*
X234932795Y-5760520D01*
X213099838Y-16178810D02*
X207085281Y-22193367D01*
X222941217Y-16178810D02*
X213099838Y-16178810D01*
X9964340Y-8648157D02*
X13309572Y-11993389D01*
X-2853593Y-8648157D02*
X9964340Y-8648157D01*
X-3274591Y-9069155D02*
X-2853593Y-8648157D01*
X25988457Y-4172038D02*
X34634444Y-4172038D01*
X17792025Y-12368470D02*
X25988457Y-4172038D01*
X15436757Y-12368470D02*
X17792025Y-12368470D01*
X37507796Y-3917076D02*
X54279672Y-3917076D01*
X36730283Y-4694589D02*
X37507796Y-3917076D01*
X71263760Y-13460252D02*
X71263760Y-14335366D01*
X62025425Y-4221917D02*
X71263760Y-13460252D01*
X56593221Y-4221917D02*
X62025425Y-4221917D01*
X56375511Y-4439627D02*
X56593221Y-4221917D01*
X82983268Y-14640207D02*
X89215535Y-20872474D01*
X73577309Y-14640207D02*
X82983268Y-14640207D01*
X73359599Y-14857917D02*
X73577309Y-14640207D01*
X119677148Y-21177315D02*
X143179315Y2324852D01*
X91529084Y-21177315D02*
X119677148Y-21177315D01*
X91311374Y-21395025D02*
X91529084Y-21177315D01*
X157980088Y3663551D02*
X161586449Y3663551D01*
X156641389Y2324852D02*
X157980088Y3663551D01*
X143179315Y2324852D02*
X156641389Y2324852D01*
X161586449Y3663551D02*
X183250000Y-18000000D01*
X200273524Y-18000000D02*
X204989442Y-22715918D01*
X183250000Y-18000000D02*
X200273524Y-18000000D01*
%TO.N,P8*%
X280784824Y8694074D02*
X277485508Y5394758D01*
X296196855Y8694074D02*
X280784824Y8694074D01*
X270460129Y12420137D02*
X254974017Y12420137D01*
X277485508Y5394758D02*
X270460129Y12420137D01*
X238202140Y12420137D02*
X237424627Y13197650D01*
X254974017Y12420137D02*
X238202140Y12420137D01*
X230336279Y12675099D02*
X220440540Y2779360D01*
X235328788Y12675099D02*
X230336279Y12675099D01*
X208503322Y2256809D02*
X202488765Y-3757748D01*
X218344701Y2256809D02*
X208503322Y2256809D01*
X192975982Y-4280299D02*
X185020834Y-12235447D01*
X200392926Y-4280299D02*
X192975982Y-4280299D01*
X113375821Y-10818737D02*
X113375821Y-11437105D01*
X129059410Y4864852D02*
X113375821Y-10818737D01*
X143179315Y4864852D02*
X129059410Y4864852D01*
X107159192Y-6793764D02*
X99793764Y-6793764D01*
X111279982Y-10914554D02*
X107159192Y-6793764D01*
X95959406Y-2959406D02*
X95907890Y-2959406D01*
X99793764Y-6793764D02*
X95959406Y-2959406D01*
X78422298Y3577702D02*
X77956115Y3577702D01*
X82256657Y-256657D02*
X78422298Y3577702D01*
X91631853Y-256657D02*
X82256657Y-256657D01*
X93812051Y-2436855D02*
X91631853Y-256657D01*
X75860276Y4100253D02*
X71756666Y4100253D01*
X61860927Y13995992D02*
X60972027Y13995992D01*
X71756666Y4100253D02*
X61860927Y13995992D01*
X42104312Y14518543D02*
X41326799Y13741030D01*
X58876188Y14518543D02*
X42104312Y14518543D01*
X21091340Y6342877D02*
X18736072Y6342877D01*
X29012044Y14263581D02*
X21091340Y6342877D01*
X39230960Y14263581D02*
X29012044Y14263581D01*
X2948960Y6717958D02*
X24725Y9642193D01*
X16608887Y6717958D02*
X2948960Y6717958D01*
X164100845Y6066153D02*
X166708499Y3458499D01*
X146566153Y6066153D02*
X164100845Y6066153D01*
X144272083Y3772083D02*
X146566153Y6066153D01*
X166708499Y3458499D02*
X182924995Y-12757998D01*
X166503446Y3663551D02*
X166708499Y3458499D01*
X143179315Y4864852D02*
X144272083Y3772083D01*
X144272083Y3772083D02*
X144380616Y3663551D01*
%TO.N,P7*%
X277095395Y24106106D02*
X274186193Y24106106D01*
X280394710Y27405421D02*
X277095395Y24106106D01*
X292897540Y27405421D02*
X280394710Y27405421D01*
X267436544Y30855755D02*
X250377501Y30855755D01*
X274186193Y24106106D02*
X267436544Y30855755D01*
X230987235Y30855755D02*
X230732272Y31110718D01*
X250377501Y30855755D02*
X230987235Y30855755D01*
X224166475Y31110718D02*
X213748185Y20692428D01*
X230732272Y31110718D02*
X224166475Y31110718D01*
X202333518Y20692428D02*
X195796410Y14155320D01*
X213748185Y20692428D02*
X202333518Y20692428D01*
X188379466Y14155320D02*
X180424318Y6200172D01*
X195796410Y14155320D02*
X188379466Y14155320D01*
X6705215Y25429306D02*
X19908202Y25429306D01*
X3780981Y28353540D02*
X6705215Y25429306D01*
X3324040Y28353540D02*
X3780981Y28353540D01*
X32035629Y32699199D02*
X43827476Y32699199D01*
X24390655Y25054225D02*
X32035629Y32699199D01*
X22035387Y25054225D02*
X24390655Y25054225D01*
X46700829Y32954162D02*
X63472704Y32954162D01*
X45923315Y32176648D02*
X46700829Y32954162D01*
X71218457Y32649321D02*
X80456792Y23410986D01*
X80456792Y23410986D02*
X80456792Y22535872D01*
X65786253Y32649321D02*
X71218457Y32649321D01*
X65568543Y32431611D02*
X65786253Y32649321D01*
X91871459Y22535872D02*
X98408567Y15998764D01*
X80456792Y22535872D02*
X91871459Y22535872D01*
X107703640Y15693923D02*
X115876498Y7521065D01*
X100722116Y15693923D02*
X107703640Y15693923D01*
X100504406Y15476213D02*
X100722116Y15693923D01*
X143063102Y7521065D02*
X143179315Y7404852D01*
X115876498Y7521065D02*
X143063102Y7521065D01*
X175399947Y8606153D02*
X178328479Y5677621D01*
X144380616Y8606153D02*
X175399947Y8606153D01*
X143179315Y7404852D02*
X144380616Y8606153D01*
%TO.N,P10*%
X202373102Y-58147868D02*
X202373102Y-58527618D01*
X215241113Y-45279857D02*
X202373102Y-58147868D01*
X217829560Y-45279857D02*
X215241113Y-45279857D01*
X185064366Y-69764735D02*
X185064366Y-70714409D01*
X195156858Y-59672243D02*
X185064366Y-69764735D01*
X200541318Y-59672243D02*
X195156858Y-59672243D01*
X171480898Y-60260429D02*
X171250000Y-60491327D01*
X171480898Y-57014242D02*
X171480898Y-60260429D01*
X181476584Y-72044238D02*
X183362263Y-72044238D01*
X171250000Y-61817654D02*
X181476584Y-72044238D01*
X171250000Y-60491327D02*
X171250000Y-61817654D01*
X171480898Y-57014242D02*
X166966656Y-52500000D01*
X126967925Y-52500000D02*
X125815194Y-53652731D01*
X117177098Y-52322902D02*
X112231725Y-57268275D01*
X117444862Y-52322902D02*
X117822902Y-52322902D01*
X106495437Y-40665970D02*
X106495437Y-41373477D01*
X106495437Y-41373477D02*
X117444862Y-52322902D01*
X117822902Y-52322902D02*
X117177098Y-52322902D01*
X124113091Y-52322902D02*
X117822902Y-52322902D01*
X111492334Y-56778884D02*
X112231725Y-57518275D01*
X96426971Y-56778884D02*
X111492334Y-56778884D01*
X112231725Y-57518275D02*
X112231725Y-67352898D01*
X112231725Y-57268275D02*
X112231725Y-57518275D01*
X90146551Y-55634259D02*
X78471256Y-43958964D01*
X94595187Y-55634259D02*
X90146551Y-55634259D01*
X158419315Y-51419315D02*
X159500000Y-52500000D01*
X158419315Y2324852D02*
X158419315Y-51419315D01*
X159500000Y-52500000D02*
X126967925Y-52500000D01*
X166966656Y-52500000D02*
X159500000Y-52500000D01*
%TO.N,GND*%
X143179315Y22644852D02*
X143179315Y25184852D01*
X155879315Y25184852D02*
X158419315Y27724852D01*
X143179315Y25184852D02*
X155879315Y25184852D01*
%TD*%
M02*
