%TF.GenerationSoftware,KiCad,Pcbnew,5.1.12-1.fc35*%
%TF.CreationDate,2022-02-21T17:57:33-08:00*%
%TF.ProjectId,jackalope_unibody,6a61636b-616c-46f7-9065-5f756e69626f,v1.0.0*%
%TF.SameCoordinates,Original*%
%TF.FileFunction,Paste,Top*%
%TF.FilePolarity,Positive*%
%FSLAX46Y46*%
G04 Gerber Fmt 4.6, Leading zero omitted, Abs format (unit mm)*
G04 Created by KiCad (PCBNEW 5.1.12-1.fc35) date 2022-02-21 17:57:33*
%MOMM*%
%LPD*%
G01*
G04 APERTURE LIST*
%ADD10C,0.100000*%
G04 APERTURE END LIST*
D10*
%TO.C,D1*%
G36*
X-3821943Y-9581898D02*
G01*
X-3613566Y-8400129D01*
X-2727239Y-8556412D01*
X-2935616Y-9738181D01*
X-3821943Y-9581898D01*
G37*
G36*
X-572077Y-10154936D02*
G01*
X-363700Y-8973167D01*
X522627Y-9129450D01*
X314250Y-10311219D01*
X-572077Y-10154936D01*
G37*
%TD*%
%TO.C,D2*%
G36*
X-522627Y9129450D02*
G01*
X-314250Y10311219D01*
X572077Y10154936D01*
X363700Y8973167D01*
X-522627Y9129450D01*
G37*
G36*
X2727239Y8556412D02*
G01*
X2935616Y9738181D01*
X3821943Y9581898D01*
X3613566Y8400129D01*
X2727239Y8556412D01*
G37*
%TD*%
%TO.C,D3*%
G36*
X2776688Y27840797D02*
G01*
X2985065Y29022566D01*
X3871392Y28866283D01*
X3663015Y27684514D01*
X2776688Y27840797D01*
G37*
G36*
X6026554Y27267759D02*
G01*
X6234931Y28449528D01*
X7121258Y28293245D01*
X6912881Y27111476D01*
X6026554Y27267759D01*
G37*
%TD*%
%TO.C,D4*%
G36*
X14889405Y-12881213D02*
G01*
X15097782Y-11699444D01*
X15984109Y-11855727D01*
X15775732Y-13037496D01*
X14889405Y-12881213D01*
G37*
G36*
X18139271Y-13454251D02*
G01*
X18347648Y-12272482D01*
X19233975Y-12428765D01*
X19025598Y-13610534D01*
X18139271Y-13454251D01*
G37*
%TD*%
%TO.C,D5*%
G36*
X18188720Y5830134D02*
G01*
X18397097Y7011903D01*
X19283424Y6855620D01*
X19075047Y5673851D01*
X18188720Y5830134D01*
G37*
G36*
X21438586Y5257096D02*
G01*
X21646963Y6438865D01*
X22533290Y6282582D01*
X22324913Y5100813D01*
X21438586Y5257096D01*
G37*
%TD*%
%TO.C,D6*%
G36*
X21488035Y24541482D02*
G01*
X21696412Y25723251D01*
X22582739Y25566968D01*
X22374362Y24385199D01*
X21488035Y24541482D01*
G37*
G36*
X24737901Y23968444D02*
G01*
X24946278Y25150213D01*
X25832605Y24993930D01*
X25624228Y23812161D01*
X24737901Y23968444D01*
G37*
%TD*%
%TO.C,D7*%
G36*
X36148497Y-5167902D02*
G01*
X36438803Y-4003547D01*
X37312069Y-4221276D01*
X37021763Y-5385631D01*
X36148497Y-5167902D01*
G37*
G36*
X39350473Y-5966244D02*
G01*
X39640779Y-4801889D01*
X40514045Y-5019618D01*
X40223739Y-6183973D01*
X39350473Y-5966244D01*
G37*
%TD*%
%TO.C,D8*%
G36*
X40745013Y13267717D02*
G01*
X41035319Y14432072D01*
X41908585Y14214343D01*
X41618279Y13049988D01*
X40745013Y13267717D01*
G37*
G36*
X43946989Y12469375D02*
G01*
X44237295Y13633730D01*
X45110561Y13416001D01*
X44820255Y12251646D01*
X43946989Y12469375D01*
G37*
%TD*%
%TO.C,D9*%
G36*
X45341529Y31703335D02*
G01*
X45631835Y32867690D01*
X46505101Y32649961D01*
X46214795Y31485606D01*
X45341529Y31703335D01*
G37*
G36*
X48543505Y30904993D02*
G01*
X48833811Y32069348D01*
X49707077Y31851619D01*
X49416771Y30687264D01*
X48543505Y30904993D01*
G37*
%TD*%
%TO.C,D10*%
G36*
X55793725Y-4912940D02*
G01*
X56084031Y-3748585D01*
X56957297Y-3966314D01*
X56666991Y-5130669D01*
X55793725Y-4912940D01*
G37*
G36*
X58995701Y-5711282D02*
G01*
X59286007Y-4546927D01*
X60159273Y-4764656D01*
X59868967Y-5929011D01*
X58995701Y-5711282D01*
G37*
%TD*%
%TO.C,D11*%
G36*
X60390241Y13522679D02*
G01*
X60680547Y14687034D01*
X61553813Y14469305D01*
X61263507Y13304950D01*
X60390241Y13522679D01*
G37*
G36*
X63592217Y12724337D02*
G01*
X63882523Y13888692D01*
X64755789Y13670963D01*
X64465483Y12506608D01*
X63592217Y12724337D01*
G37*
%TD*%
%TO.C,D12*%
G36*
X64986757Y31958298D02*
G01*
X65277063Y33122653D01*
X66150329Y32904924D01*
X65860023Y31740569D01*
X64986757Y31958298D01*
G37*
G36*
X68188733Y31159956D02*
G01*
X68479039Y32324311D01*
X69352305Y32106582D01*
X69061999Y30942227D01*
X68188733Y31159956D01*
G37*
%TD*%
%TO.C,D13*%
G36*
X72777813Y-15331230D02*
G01*
X73068119Y-14166875D01*
X73941385Y-14384604D01*
X73651079Y-15548959D01*
X72777813Y-15331230D01*
G37*
G36*
X75979789Y-16129572D02*
G01*
X76270095Y-14965217D01*
X77143361Y-15182946D01*
X76853055Y-16347301D01*
X75979789Y-16129572D01*
G37*
%TD*%
%TO.C,D14*%
G36*
X77374329Y3104389D02*
G01*
X77664635Y4268744D01*
X78537901Y4051015D01*
X78247595Y2886660D01*
X77374329Y3104389D01*
G37*
G36*
X80576305Y2306047D02*
G01*
X80866611Y3470402D01*
X81739877Y3252673D01*
X81449571Y2088318D01*
X80576305Y2306047D01*
G37*
%TD*%
%TO.C,D15*%
G36*
X81970845Y21540008D02*
G01*
X82261151Y22704363D01*
X83134417Y22486634D01*
X82844111Y21322279D01*
X81970845Y21540008D01*
G37*
G36*
X85172821Y20741666D02*
G01*
X85463127Y21906021D01*
X86336393Y21688292D01*
X86046087Y20523937D01*
X85172821Y20741666D01*
G37*
%TD*%
%TO.C,D16*%
G36*
X90729588Y-21868338D02*
G01*
X91019894Y-20703983D01*
X91893160Y-20921712D01*
X91602854Y-22086067D01*
X90729588Y-21868338D01*
G37*
G36*
X93931564Y-22666680D02*
G01*
X94221870Y-21502325D01*
X95095136Y-21720054D01*
X94804830Y-22884409D01*
X93931564Y-22666680D01*
G37*
%TD*%
%TO.C,D17*%
G36*
X95326104Y-3432719D02*
G01*
X95616410Y-2268364D01*
X96489676Y-2486093D01*
X96199370Y-3650448D01*
X95326104Y-3432719D01*
G37*
G36*
X98528080Y-4231061D02*
G01*
X98818386Y-3066706D01*
X99691652Y-3284435D01*
X99401346Y-4448790D01*
X98528080Y-4231061D01*
G37*
%TD*%
%TO.C,D18*%
G36*
X99922620Y15002900D02*
G01*
X100212926Y16167255D01*
X101086192Y15949526D01*
X100795886Y14785171D01*
X99922620Y15002900D01*
G37*
G36*
X103124596Y14204558D02*
G01*
X103414902Y15368913D01*
X104288168Y15151184D01*
X103997862Y13986829D01*
X103124596Y14204558D01*
G37*
%TD*%
%TO.C,D19*%
G36*
X112794035Y-11910418D02*
G01*
X113084341Y-10746063D01*
X113957607Y-10963792D01*
X113667301Y-12128147D01*
X112794035Y-11910418D01*
G37*
G36*
X115996011Y-12708760D02*
G01*
X116286317Y-11544405D01*
X117159583Y-11762134D01*
X116869277Y-12926489D01*
X115996011Y-12708760D01*
G37*
%TD*%
%TO.C,D20*%
G36*
X117390551Y6525201D02*
G01*
X117680857Y7689556D01*
X118554123Y7471827D01*
X118263817Y6307472D01*
X117390551Y6525201D01*
G37*
G36*
X120592527Y5726859D02*
G01*
X120882833Y6891214D01*
X121756099Y6673485D01*
X121465793Y5509130D01*
X120592527Y5726859D01*
G37*
%TD*%
%TO.C,D21*%
G36*
X77889470Y-44432277D02*
G01*
X78179776Y-43267922D01*
X79053042Y-43485651D01*
X78762736Y-44650006D01*
X77889470Y-44432277D01*
G37*
G36*
X81091446Y-45230619D02*
G01*
X81381752Y-44066264D01*
X82255018Y-44283993D01*
X81964712Y-45448348D01*
X81091446Y-45230619D01*
G37*
%TD*%
%TO.C,D22*%
G36*
X105795864Y-40936335D02*
G01*
X106431767Y-39918677D01*
X107195010Y-40395605D01*
X106559107Y-41413263D01*
X105795864Y-40936335D01*
G37*
G36*
X108594422Y-42685069D02*
G01*
X109230325Y-41667411D01*
X109993568Y-42144339D01*
X109357665Y-43161997D01*
X108594422Y-42685069D01*
G37*
%TD*%
%TO.C,D23*%
G36*
X125091192Y-53848490D02*
G01*
X125829986Y-52902877D01*
X126539196Y-53456972D01*
X125800402Y-54402585D01*
X125091192Y-53848490D01*
G37*
G36*
X127691628Y-55880172D02*
G01*
X128430422Y-54934559D01*
X129139632Y-55488654D01*
X128400838Y-56434267D01*
X127691628Y-55880172D01*
G37*
%TD*%
%TO.C,D24*%
G36*
X95727398Y-57049249D02*
G01*
X96363301Y-56031591D01*
X97126544Y-56508519D01*
X96490641Y-57526177D01*
X95727398Y-57049249D01*
G37*
G36*
X98525956Y-58797983D02*
G01*
X99161859Y-57780325D01*
X99925102Y-58257253D01*
X99289199Y-59274911D01*
X98525956Y-58797983D01*
G37*
%TD*%
%TO.C,D25*%
G36*
X113209826Y-68878486D02*
G01*
X113948620Y-67932873D01*
X114657830Y-68486968D01*
X113919036Y-69432581D01*
X113209826Y-68878486D01*
G37*
G36*
X115810262Y-70910168D02*
G01*
X116549056Y-69964555D01*
X117258266Y-70518650D01*
X116519472Y-71464263D01*
X115810262Y-70910168D01*
G37*
%TD*%
%TO.C,D26*%
G36*
X301284381Y-10311219D02*
G01*
X301076004Y-9129450D01*
X301962331Y-8973167D01*
X302170708Y-10154936D01*
X301284381Y-10311219D01*
G37*
G36*
X304534247Y-9738181D02*
G01*
X304325870Y-8556412D01*
X305212197Y-8400129D01*
X305420574Y-9581898D01*
X304534247Y-9738181D01*
G37*
%TD*%
%TO.C,D27*%
G36*
X297985065Y8400129D02*
G01*
X297776688Y9581898D01*
X298663015Y9738181D01*
X298871392Y8556412D01*
X297985065Y8400129D01*
G37*
G36*
X301234931Y8973167D02*
G01*
X301026554Y10154936D01*
X301912881Y10311219D01*
X302121258Y9129450D01*
X301234931Y8973167D01*
G37*
%TD*%
%TO.C,D28*%
G36*
X294685750Y27111476D02*
G01*
X294477373Y28293245D01*
X295363700Y28449528D01*
X295572077Y27267759D01*
X294685750Y27111476D01*
G37*
G36*
X297935616Y27684514D02*
G01*
X297727239Y28866283D01*
X298613566Y29022566D01*
X298821943Y27840797D01*
X297935616Y27684514D01*
G37*
%TD*%
%TO.C,D29*%
G36*
X282573033Y-13610534D02*
G01*
X282364656Y-12428765D01*
X283250983Y-12272482D01*
X283459360Y-13454251D01*
X282573033Y-13610534D01*
G37*
G36*
X285822899Y-13037496D02*
G01*
X285614522Y-11855727D01*
X286500849Y-11699444D01*
X286709226Y-12881213D01*
X285822899Y-13037496D01*
G37*
%TD*%
%TO.C,D30*%
G36*
X279273718Y5100813D02*
G01*
X279065341Y6282582D01*
X279951668Y6438865D01*
X280160045Y5257096D01*
X279273718Y5100813D01*
G37*
G36*
X282523584Y5673851D02*
G01*
X282315207Y6855620D01*
X283201534Y7011903D01*
X283409911Y5830134D01*
X282523584Y5673851D01*
G37*
%TD*%
%TO.C,D31*%
G36*
X275974403Y23812161D02*
G01*
X275766026Y24993930D01*
X276652353Y25150213D01*
X276860730Y23968444D01*
X275974403Y23812161D01*
G37*
G36*
X279224269Y24385199D02*
G01*
X279015892Y25566968D01*
X279902219Y25723251D01*
X280110596Y24541482D01*
X279224269Y24385199D01*
G37*
%TD*%
%TO.C,D32*%
G36*
X261374892Y-6183973D02*
G01*
X261084586Y-5019618D01*
X261957852Y-4801889D01*
X262248158Y-5966244D01*
X261374892Y-6183973D01*
G37*
G36*
X264576868Y-5385631D02*
G01*
X264286562Y-4221276D01*
X265159828Y-4003547D01*
X265450134Y-5167902D01*
X264576868Y-5385631D01*
G37*
%TD*%
%TO.C,D33*%
G36*
X256778376Y12251646D02*
G01*
X256488070Y13416001D01*
X257361336Y13633730D01*
X257651642Y12469375D01*
X256778376Y12251646D01*
G37*
G36*
X259980352Y13049988D02*
G01*
X259690046Y14214343D01*
X260563312Y14432072D01*
X260853618Y13267717D01*
X259980352Y13049988D01*
G37*
%TD*%
%TO.C,D34*%
G36*
X252181860Y30687264D02*
G01*
X251891554Y31851619D01*
X252764820Y32069348D01*
X253055126Y30904993D01*
X252181860Y30687264D01*
G37*
G36*
X255383836Y31485606D02*
G01*
X255093530Y32649961D01*
X255966796Y32867690D01*
X256257102Y31703335D01*
X255383836Y31485606D01*
G37*
%TD*%
%TO.C,D35*%
G36*
X241729663Y-5929011D02*
G01*
X241439357Y-4764656D01*
X242312623Y-4546927D01*
X242602929Y-5711282D01*
X241729663Y-5929011D01*
G37*
G36*
X244931639Y-5130669D02*
G01*
X244641333Y-3966314D01*
X245514599Y-3748585D01*
X245804905Y-4912940D01*
X244931639Y-5130669D01*
G37*
%TD*%
%TO.C,D36*%
G36*
X237133147Y12506608D02*
G01*
X236842841Y13670963D01*
X237716107Y13888692D01*
X238006413Y12724337D01*
X237133147Y12506608D01*
G37*
G36*
X240335123Y13304950D02*
G01*
X240044817Y14469305D01*
X240918083Y14687034D01*
X241208389Y13522679D01*
X240335123Y13304950D01*
G37*
%TD*%
%TO.C,D37*%
G36*
X232536631Y30942227D02*
G01*
X232246325Y32106582D01*
X233119591Y32324311D01*
X233409897Y31159956D01*
X232536631Y30942227D01*
G37*
G36*
X235738607Y31740569D02*
G01*
X235448301Y32904924D01*
X236321567Y33122653D01*
X236611873Y31958298D01*
X235738607Y31740569D01*
G37*
%TD*%
%TO.C,D38*%
G36*
X224745576Y-16347301D02*
G01*
X224455270Y-15182946D01*
X225328536Y-14965217D01*
X225618842Y-16129572D01*
X224745576Y-16347301D01*
G37*
G36*
X227947552Y-15548959D02*
G01*
X227657246Y-14384604D01*
X228530512Y-14166875D01*
X228820818Y-15331230D01*
X227947552Y-15548959D01*
G37*
%TD*%
%TO.C,D39*%
G36*
X220149060Y2088318D02*
G01*
X219858754Y3252673D01*
X220732020Y3470402D01*
X221022326Y2306047D01*
X220149060Y2088318D01*
G37*
G36*
X223351036Y2886660D02*
G01*
X223060730Y4051015D01*
X223933996Y4268744D01*
X224224302Y3104389D01*
X223351036Y2886660D01*
G37*
%TD*%
%TO.C,D40*%
G36*
X215552544Y20523937D02*
G01*
X215262238Y21688292D01*
X216135504Y21906021D01*
X216425810Y20741666D01*
X215552544Y20523937D01*
G37*
G36*
X218754520Y21322279D02*
G01*
X218464214Y22486634D01*
X219337480Y22704363D01*
X219627786Y21540008D01*
X218754520Y21322279D01*
G37*
%TD*%
%TO.C,D41*%
G36*
X206793801Y-22884409D02*
G01*
X206503495Y-21720054D01*
X207376761Y-21502325D01*
X207667067Y-22666680D01*
X206793801Y-22884409D01*
G37*
G36*
X209995777Y-22086067D02*
G01*
X209705471Y-20921712D01*
X210578737Y-20703983D01*
X210869043Y-21868338D01*
X209995777Y-22086067D01*
G37*
%TD*%
%TO.C,D42*%
G36*
X202197285Y-4448790D02*
G01*
X201906979Y-3284435D01*
X202780245Y-3066706D01*
X203070551Y-4231061D01*
X202197285Y-4448790D01*
G37*
G36*
X205399261Y-3650448D02*
G01*
X205108955Y-2486093D01*
X205982221Y-2268364D01*
X206272527Y-3432719D01*
X205399261Y-3650448D01*
G37*
%TD*%
%TO.C,D43*%
G36*
X197600769Y13986829D02*
G01*
X197310463Y15151184D01*
X198183729Y15368913D01*
X198474035Y14204558D01*
X197600769Y13986829D01*
G37*
G36*
X200802745Y14785171D02*
G01*
X200512439Y15949526D01*
X201385705Y16167255D01*
X201676011Y15002900D01*
X200802745Y14785171D01*
G37*
%TD*%
%TO.C,D44*%
G36*
X184729354Y-12926489D02*
G01*
X184439048Y-11762134D01*
X185312314Y-11544405D01*
X185602620Y-12708760D01*
X184729354Y-12926489D01*
G37*
G36*
X187931330Y-12128147D02*
G01*
X187641024Y-10963792D01*
X188514290Y-10746063D01*
X188804596Y-11910418D01*
X187931330Y-12128147D01*
G37*
%TD*%
%TO.C,D45*%
G36*
X180132838Y5509130D02*
G01*
X179842532Y6673485D01*
X180715798Y6891214D01*
X181006104Y5726859D01*
X180132838Y5509130D01*
G37*
G36*
X183334814Y6307472D02*
G01*
X183044508Y7471827D01*
X183917774Y7689556D01*
X184208080Y6525201D01*
X183334814Y6307472D01*
G37*
%TD*%
%TO.C,D46*%
G36*
X219633919Y-45448348D02*
G01*
X219343613Y-44283993D01*
X220216879Y-44066264D01*
X220507185Y-45230619D01*
X219633919Y-45448348D01*
G37*
G36*
X222835895Y-44650006D02*
G01*
X222545589Y-43485651D01*
X223418855Y-43267922D01*
X223709161Y-44432277D01*
X222835895Y-44650006D01*
G37*
%TD*%
%TO.C,D47*%
G36*
X192240966Y-43161997D02*
G01*
X191605063Y-42144339D01*
X192368306Y-41667411D01*
X193004209Y-42685069D01*
X192240966Y-43161997D01*
G37*
G36*
X195039524Y-41413263D02*
G01*
X194403621Y-40395605D01*
X195166864Y-39918677D01*
X195802767Y-40936335D01*
X195039524Y-41413263D01*
G37*
%TD*%
%TO.C,D48*%
G36*
X173197793Y-56434267D02*
G01*
X172458999Y-55488654D01*
X173168209Y-54934559D01*
X173907003Y-55880172D01*
X173197793Y-56434267D01*
G37*
G36*
X175798229Y-54402585D02*
G01*
X175059435Y-53456972D01*
X175768645Y-52902877D01*
X176507439Y-53848490D01*
X175798229Y-54402585D01*
G37*
%TD*%
%TO.C,D49*%
G36*
X202309432Y-59274911D02*
G01*
X201673529Y-58257253D01*
X202436772Y-57780325D01*
X203072675Y-58797983D01*
X202309432Y-59274911D01*
G37*
G36*
X205107990Y-57526177D02*
G01*
X204472087Y-56508519D01*
X205235330Y-56031591D01*
X205871233Y-57049249D01*
X205107990Y-57526177D01*
G37*
%TD*%
%TO.C,D50*%
G36*
X185079158Y-71464263D02*
G01*
X184340364Y-70518650D01*
X185049574Y-69964555D01*
X185788368Y-70910168D01*
X185079158Y-71464263D01*
G37*
G36*
X187679594Y-69432581D02*
G01*
X186940800Y-68486968D01*
X187650010Y-67932873D01*
X188388804Y-68878486D01*
X187679594Y-69432581D01*
G37*
%TD*%
M02*
