M48
; DRILL file {KiCad 5.1.12-1.fc35} date Mon 21 Feb 2022 05:57:24 PM PST
; FORMAT={-:-/ absolute / inch / decimal}
; #@! TF.CreationDate,2022-02-21T17:57:24-08:00
; #@! TF.GenerationSoftware,Kicad,Pcbnew,5.1.12-1.fc35
FMAT,2
INCH
T1C0.0390
T2C0.0390
T3C0.0430
T4C0.0512
T5C0.0590
T6C0.0472
T7C0.0670
T8C0.1570
%
G90
G05
T1
X7.4508Y1.6339
X7.6476Y1.6339
T2
X-0.2127Y-0.3423
X-0.0828Y0.3944
X0.0471Y1.131
X0.0828Y-0.3944
X0.2127Y0.3423
X0.3426Y1.079
X0.524Y-0.4722
X0.6539Y0.2645
X0.7838Y1.0012
X0.8194Y-0.5243
X0.9493Y0.2124
X1.0792Y0.9491
X1.3636Y-0.1643
X1.5445Y0.5616
X1.6546Y-0.2368
X1.7255Y1.2874
X1.8356Y0.489
X2.0166Y1.2148
X2.137Y-0.1542
X2.318Y0.5716
X2.4281Y-0.2268
X2.4989Y1.2974
X2.609Y0.499
X2.79Y1.2248
X2.8057Y-0.5644
X2.9866Y0.1614
X3.0069Y-1.7101
X3.0967Y-0.637
X3.1676Y0.8872
X3.2777Y0.0889
X3.298Y-1.7827
X3.4587Y0.8147
X3.5124Y-0.8218
X3.6934Y-0.0959
X3.7242Y-2.1903
X3.8035Y-0.8943
X3.8744Y0.6299
X3.9786Y-2.3493
X3.9845Y-0.1685
X4.1206Y-1.556
X4.1654Y0.5573
X4.375Y-1.7149
X4.3811Y-0.4297
X4.4186Y-2.6517
X4.5621Y0.2961
X4.655Y-2.8364
X4.6722Y-0.5023
X4.8532Y0.2235
X4.8863Y-2.06
X5.1227Y-2.2447
X6.7512Y-2.2447
X6.9876Y-2.06
X7.0208Y0.2235
X7.2018Y-0.5023
X7.219Y-2.8364
X7.3119Y0.2961
X7.4554Y-2.6517
X7.4929Y-0.4297
X7.4989Y-1.7149
X7.7085Y0.5573
X7.7533Y-1.556
X7.8895Y-0.1685
X7.8953Y-2.3493
X7.9996Y0.6299
X8.0705Y-0.8943
X8.1497Y-2.1903
X8.1806Y-0.0959
X8.3615Y-0.8218
X8.4153Y0.8147
X8.576Y-1.7827
X8.5962Y0.0889
X8.7064Y0.8872
X8.7772Y-0.637
X8.8671Y-1.7101
X8.8873Y0.1614
X9.0683Y-0.5644
X9.0839Y1.2248
X9.2649Y0.499
X9.375Y1.2974
X9.4459Y-0.2268
X9.556Y0.5716
X9.737Y-0.1542
X9.8574Y1.2148
X10.0383Y0.489
X10.1485Y1.2874
X10.2193Y-0.2368
X10.3294Y0.5616
X10.5104Y-0.1643
X10.7947Y0.9491
X10.9246Y0.2124
X11.0545Y-0.5243
X11.0902Y1.0012
X11.2201Y0.2645
X11.35Y-0.4722
X11.5314Y1.079
X11.6613Y0.3423
X11.7912Y-0.3944
X11.8268Y1.131
X11.9567Y0.3944
X12.0866Y-0.3423
T3
X5.637Y1.1915
X5.637Y1.0915
X5.637Y0.9915
X5.637Y0.8915
X5.637Y0.7915
X5.637Y0.6915
X5.637Y0.5915
X5.637Y0.4915
X5.637Y0.3915
X5.637Y0.2915
X5.637Y0.1915
X5.637Y0.0915
X6.237Y1.1915
X6.237Y1.0915
X6.237Y0.9915
X6.237Y0.8915
X6.237Y0.7915
X6.237Y0.6915
X6.237Y0.5915
X6.237Y0.4915
X6.237Y0.3915
X6.237Y0.2915
X6.237Y0.1915
X6.237Y0.0915
T4
X7.4114Y1.5358
X7.6874Y1.5358
T5
X-0.1304Y0.1245
X-0.0005Y0.8612
X0.1294Y1.5979
X0.1332Y0.1796
X0.2631Y0.9163
X0.393Y1.6529
X0.6063Y-0.0054
X0.7362Y0.7313
X0.8661Y1.468
X0.8699Y0.0497
X0.9998Y0.7864
X1.1297Y1.523
X1.4782Y0.2957
X1.6592Y1.0215
X1.745Y0.3322
X1.8402Y1.7473
X1.926Y1.058
X2.1069Y1.7839
X2.2517Y0.3057
X2.4326Y1.0315
X2.5184Y0.3423
X2.6136Y1.7573
X2.6994Y1.0681
X2.8804Y1.7939
X2.9203Y-0.1044
X3.1013Y0.6214
X3.1216Y-1.2502
X3.1871Y-0.0679
X3.2823Y1.3472
X3.3681Y0.6579
X3.3883Y-1.2136
X3.549Y1.3837
X3.6271Y-0.3618
X3.8081Y0.364
X3.8939Y-0.3253
X3.9754Y-1.7883
X3.989Y1.0898
X4.0748Y0.4005
X4.2404Y-1.836
X4.2558Y1.1264
X4.3718Y-1.154
X4.4958Y0.0302
X4.6368Y-1.2016
X4.6767Y0.756
X4.7104Y-2.2782
X4.7625Y0.0668
X4.9435Y0.7926
X4.969Y-2.3533
X5.1782Y-1.6864
X5.4367Y-1.7615
X6.4594Y-1.8711
X6.5948Y-1.6384
X6.9061Y0.6835
X6.9272Y-2.4629
X7.0626Y-2.2301
X7.0871Y-0.0423
X7.1245Y0.841
X7.2477Y-1.3129
X7.3055Y0.1152
X7.4068Y-1.0957
X7.5938Y1.0172
X7.6441Y-1.9473
X7.7748Y0.2914
X7.8032Y-1.73
X7.8122Y1.1747
X7.9558Y-0.4344
X7.9932Y0.4489
X8.1742Y-0.2769
X8.3006Y1.2746
X8.4613Y-1.3227
X8.4816Y0.5488
X8.519Y1.4321
X8.6625Y-0.177
X8.6797Y-1.1652
X8.7Y0.7063
X8.8809Y-0.0195
X8.9693Y1.6848
X9.1502Y0.959
X9.1877Y1.8423
X9.3312Y0.2331
X9.3686Y1.1165
X9.5496Y0.3907
X9.7427Y1.6747
X9.9237Y0.9489
X9.9611Y1.8322
X10.1046Y0.2231
X10.1421Y1.1064
X10.323Y0.3806
X10.7124Y1.4159
X10.8423Y0.6792
X10.9413Y1.5578
X10.9722Y-0.0575
X11.0712Y0.8211
X11.201Y0.0844
X11.4491Y1.5458
X11.579Y0.8091
X11.6779Y1.6877
X11.7089Y0.0724
X11.8078Y0.951
X11.9377Y0.2143
T6
X7.5492Y1.6815
T7
X-0.197Y0.0347
X-0.0671Y0.7714
X0.0628Y1.5081
X0.197Y-0.0347
X0.3269Y0.7019
X0.4568Y1.4386
X0.5397Y-0.0952
X0.6696Y0.6415
X0.7995Y1.3782
X0.9336Y-0.1646
X1.0635Y0.572
X1.1934Y1.3087
X1.4055Y0.2107
X1.5865Y0.9366
X1.7675Y1.6624
X1.7936Y0.114
X1.9746Y0.8398
X2.1556Y1.5656
X2.179Y0.2208
X2.3599Y0.9466
X2.5409Y1.6724
X2.5671Y0.124
X2.748Y0.8498
X2.8476Y-0.1894
X2.929Y1.5756
X3.0286Y0.5364
X3.0489Y-1.3351
X3.2096Y1.2622
X3.2357Y-0.2862
X3.4167Y0.4397
X3.437Y-1.4319
X3.5544Y-0.4467
X3.5977Y1.1655
X3.7354Y0.2791
X3.88Y-1.8466
X3.9163Y1.0049
X3.9425Y-0.5435
X4.1235Y0.1823
X4.2192Y-2.0586
X4.2764Y-1.2123
X4.3044Y0.9081
X4.4231Y-0.0547
X4.604Y0.6711
X4.6094Y-2.3262
X4.6156Y-1.4242
X4.8112Y-0.1515
X4.9246Y-2.5724
X4.9922Y0.5743
X5.0772Y-1.7344
X5.3924Y-1.9807
X6.4815Y-1.9807
X6.7968Y-1.7344
X6.8818Y0.5743
X6.9493Y-2.5724
X7.0628Y-0.1515
X7.2583Y-1.4242
X7.2645Y-2.3262
X7.2699Y0.6711
X7.4509Y-0.0547
X7.5695Y0.9081
X7.5975Y-1.2123
X7.6547Y-2.0586
X7.7505Y0.1823
X7.9315Y-0.5435
X7.9576Y1.0049
X7.9939Y-1.8466
X8.1386Y0.2791
X8.2763Y1.1655
X8.3196Y-0.4467
X8.437Y-1.4319
X8.4573Y0.4397
X8.6382Y-0.2862
X8.6644Y1.2622
X8.8251Y-1.3351
X8.8454Y0.5364
X8.945Y1.5756
X9.0263Y-0.1894
X9.1259Y0.8498
X9.3069Y0.124
X9.3331Y1.6724
X9.514Y0.9466
X9.695Y0.2208
X9.7184Y1.5656
X9.8993Y0.8398
X10.0803Y0.114
X10.1065Y1.6624
X10.2875Y0.9366
X10.4684Y0.2107
X10.6805Y1.3087
X10.8104Y0.572
X10.9403Y-0.1646
X11.0745Y1.3782
X11.2044Y0.6415
X11.3343Y-0.0952
X11.4172Y1.4386
X11.5471Y0.7019
X11.677Y-0.0347
X11.8111Y1.5081
X11.941Y0.7714
X12.0709Y0.0347
T8
X0.0Y0.0
X0.1299Y0.7367
X0.2598Y1.4733
X0.7367Y-0.1299
X0.8666Y0.6068
X0.9965Y1.3434
X1.5996Y0.1624
X1.7806Y0.8882
X1.9615Y1.614
X2.373Y0.1724
X2.554Y0.8982
X2.735Y1.624
X3.0417Y-0.2378
X3.2227Y0.488
X3.2429Y-1.3835
X3.4036Y1.2139
X3.7484Y-0.4951
X3.9294Y0.2307
X4.0496Y-1.9526
X4.1104Y0.9565
X4.446Y-1.3183
X4.6171Y-0.1031
X4.767Y-2.4493
X4.7981Y0.6227
X5.2348Y-1.8576
X6.6392Y-1.8576
X7.0759Y0.6227
X7.1069Y-2.4493
X7.2568Y-0.1031
X7.4279Y-1.3183
X7.7636Y0.9565
X7.8243Y-1.9526
X7.9445Y0.2307
X8.1255Y-0.4951
X8.4703Y1.2139
X8.631Y-1.3835
X8.6513Y0.488
X8.8323Y-0.2378
X9.139Y1.624
X9.32Y0.8982
X9.5009Y0.1724
X9.9124Y1.614
X10.0934Y0.8882
X10.2744Y0.1624
X10.8775Y1.3434
X11.0074Y0.6068
X11.1373Y-0.1299
X11.6142Y1.4733
X11.7441Y0.7367
X11.874Y0.0
T0
M30
