0
SECTION
2
HEADER
9
$INSUNITS
70
4
0
ENDSEC
0
SECTION
2
TABLES
0
TABLE
2
LTYPE
0
LTYPE
72
65
70
64
2
CONTINUOUS
3
______
73
0
40
0
0
ENDTAB
0
TABLE
2
LAYER
0
ENDTAB
0
ENDSEC
0
SECTION
2
ENTITIES
0
LINE
8
0
10
-13.0034875
20
-10.399967
11
23.2452529
21
-16.7915979
0
LINE
8
0
10
-14.2202269
20
-8.6622831
11
-3.8013362
21
50.4261821
0
ARC
8
0
10
-12.7430152
20
-8.9227553
40
1.5
50
170
51
260
0
LINE
8
0
10
-2.0636523
20
51.6429215
11
37.8403351
21
44.6067719
0
ARC
8
0
10
-2.3241245
20
50.1657098
40
1.5
50
80
51
170
0
LINE
8
0
10
23.2452529
20
-16.7915979
11
73.0291238
21
-29.2041111
0
LINE
8
0
10
42.1733318
20
55.7851241
11
58.1832113
21
51.7934129
0
ARC
8
0
10
41.810449
20
54.3296805
40
1.5
50
76
51
166
0
LINE
8
0
10
40.3550054
20
54.6925634
11
37.8403351
21
44.6067719
0
LINE
8
0
10
83.4109001
20
45.5034433
11
84.2576268
21
48.8994787
0
ARC
8
0
10
82.8021832
20
49.2623615
40
1.5
50
346
51
76
0
LINE
8
0
10
59.3928208
20
56.6448916
11
83.1650661
21
50.7178051
0
LINE
8
0
10
58.1832113
20
51.7934129
11
59.3928208
21
56.6448916
0
LINE
8
0
10
69.5212563
20
-43.2733991
11
73.0291238
21
-29.2041111
0
LINE
8
0
10
70.613817
20
-45.0917255
11
73.0240848
21
-45.6926728
0
ARC
8
0
10
70.9766999
20
-43.6362819
40
1.5
50
166
51
256
0
LINE
8
0
10
134.4229033
20
-64.9057393
11
150.7993154
21
-45.3890913
0
LINE
8
0
10
134.4229033
20
-64.9057393
11
134.3379143
21
-64.834425
0
LINE
8
0
10
73.0240848
20
-45.6926728
11
104.297407
21
-65.2344134
0
LINE
8
0
10
104.297407
20
-65.2344134
11
121.7289445
21
-79.8612101
0
LINE
8
0
10
121.7289445
20
-79.8612101
11
134.3379143
21
-64.834425
0
LINE
8
0
10
243.4154195
20
51.7934129
11
259.425299
21
55.7851241
0
LINE
8
0
10
218.1877307
20
45.5034433
11
163.2993154
21
31.8182237
0
LINE
8
0
10
138.2993154
20
31.8182237
11
83.4109001
21
45.5034433
0
LINE
8
0
10
278.3533779
20
-16.7915979
11
314.6021183
21
-10.399967
0
ARC
8
0
10
314.341646
20
-8.9227553
40
1.5
50
280
51
10
0
LINE
8
0
10
305.399967
20
50.4261821
11
315.8188577
21
-8.6622831
0
ARC
8
0
10
303.9227553
20
50.1657098
40
1.5
50
10
51
100
0
LINE
8
0
10
303.6622831
20
51.6429215
11
292.8293978
21
49.7327915
0
LINE
8
0
10
292.8293978
20
49.7327915
11
291.3521863
21
49.4723192
0
LINE
8
0
10
263.7582957
20
44.6067719
11
291.3521863
21
49.4723192
0
LINE
8
0
10
228.569507
20
-29.2041111
11
278.3533779
21
-16.7915979
0
LINE
8
0
10
263.7582957
20
44.6067719
11
261.2436254
21
54.6925634
0
ARC
8
0
10
259.7881818
20
54.3296805
40
1.5
50
14
51
104
0
LINE
8
0
10
218.4335647
20
50.7178051
11
242.20581
21
56.6448916
0
ARC
8
0
10
218.7964476
20
49.2623615
40
1.5
50
104
51
194
0
LINE
8
0
10
217.341004
20
48.8994787
11
218.1877307
21
45.5034433
0
LINE
8
0
10
242.20581
20
56.6448916
11
243.4154195
21
51.7934129
0
LINE
8
0
10
228.569507
20
-29.2041111
11
232.0773745
21
-43.2733991
0
LINE
8
0
10
228.574546
20
-45.6926728
11
230.9848138
21
-45.0917255
0
ARC
8
0
10
230.6219309
20
-43.6362819
40
1.5
50
284
51
14
0
LINE
8
0
10
167.2607165
20
-64.834425
11
167.1757275
21
-64.9057393
0
LINE
8
0
10
150.7993154
20
-45.3890913
11
167.1757275
21
-64.9057393
0
LINE
8
0
10
197.3012238
20
-65.2344134
11
228.574546
21
-45.6926728
0
LINE
8
0
10
179.8696863
20
-79.8612101
11
197.3012238
21
-65.2344134
0
LINE
8
0
10
167.2607165
20
-64.834425
11
179.8696863
21
-79.8612101
0
LINE
8
0
10
138.2993154
20
-5.7051485
11
163.2993154
21
-5.7051485
0
LINE
8
0
10
163.2993154
20
-5.7051485
11
163.2993154
21
31.8182237
0
LINE
8
0
10
138.2993154
20
31.8182237
11
138.2993154
21
-5.7051485
0
LINE
8
0
10
-8.1091915
20
-5.678117
11
5.678117
21
-8.1091915
0
LINE
8
0
10
5.678117
20
-8.1091915
11
8.1091915
21
5.678117
0
LINE
8
0
10
8.1091915
20
5.678117
11
-5.678117
21
8.1091915
0
LINE
8
0
10
-5.678117
20
8.1091915
11
-8.1091915
21
-5.678117
0
LINE
8
0
10
-4.8098761
20
13.0332303
11
8.9774324
21
10.6021558
0
LINE
8
0
10
8.9774324
20
10.6021558
11
11.4085069
21
24.3894643
0
LINE
8
0
10
11.4085069
20
24.3894643
11
-2.3788016
21
26.8205388
0
LINE
8
0
10
-2.3788016
20
26.8205388
11
-4.8098761
21
13.0332303
0
LINE
8
0
10
-1.5105607
20
31.7445776
11
12.2767478
21
29.3135031
0
LINE
8
0
10
12.2767478
20
29.3135031
11
14.7078223
21
43.1008116
0
LINE
8
0
10
14.7078223
20
43.1008116
11
0.9205138
21
45.5318861
0
LINE
8
0
10
0.9205138
20
45.5318861
11
-1.5105607
21
31.7445776
0
LINE
8
0
10
10.6021558
20
-8.9774324
11
24.3894643
21
-11.4085069
0
LINE
8
0
10
24.3894643
20
-11.4085069
11
26.8205388
21
2.3788016
0
LINE
8
0
10
26.8205388
20
2.3788016
11
13.0332303
21
4.8098761
0
LINE
8
0
10
13.0332303
20
4.8098761
11
10.6021558
21
-8.9774324
0
LINE
8
0
10
13.9014712
20
9.7339149
11
27.6887797
21
7.3028404
0
LINE
8
0
10
27.6887797
20
7.3028404
11
30.1198542
21
21.0901489
0
LINE
8
0
10
30.1198542
20
21.0901489
11
16.3325457
21
23.5212234
0
LINE
8
0
10
16.3325457
20
23.5212234
11
13.9014712
21
9.7339149
0
LINE
8
0
10
17.2007865
20
28.4452622
11
30.988095
21
26.0141877
0
LINE
8
0
10
30.988095
20
26.0141877
11
33.4191695
21
39.8014962
0
LINE
8
0
10
33.4191695
20
39.8014962
11
19.631861
21
42.2325707
0
LINE
8
0
10
19.631861
20
42.2325707
11
17.2007865
21
28.4452622
0
LINE
8
0
10
32.1440057
20
-0.9745677
11
45.7281459
21
-4.3614743
0
LINE
8
0
10
45.7281459
20
-4.3614743
11
49.1150525
21
9.2226659
0
LINE
8
0
10
49.1150525
20
9.2226659
11
35.5309123
21
12.6095725
0
LINE
8
0
10
35.5309123
20
12.6095725
11
32.1440057
21
-0.9745677
0
LINE
8
0
10
36.7405216
20
17.4610512
11
50.3246618
21
14.0741446
0
LINE
8
0
10
50.3246618
20
14.0741446
11
53.7115684
21
27.6582848
0
LINE
8
0
10
53.7115684
20
27.6582848
11
40.1274282
21
31.0451914
0
LINE
8
0
10
40.1274282
20
31.0451914
11
36.7405216
21
17.4610512
0
LINE
8
0
10
41.3370377
20
35.8966699
11
54.9211779
21
32.5097633
0
LINE
8
0
10
54.9211779
20
32.5097633
11
58.3080845
21
46.0939035
0
LINE
8
0
10
58.3080845
20
46.0939035
11
44.7239443
21
49.4808101
0
LINE
8
0
10
44.7239443
20
49.4808101
11
41.3370377
21
35.8966699
0
LINE
8
0
10
51.789234
20
-0.719605
11
65.3733742
21
-4.1065116
0
LINE
8
0
10
65.3733742
20
-4.1065116
11
68.7602808
21
9.4776286
0
LINE
8
0
10
68.7602808
20
9.4776286
11
55.1761406
21
12.8645352
0
LINE
8
0
10
55.1761406
20
12.8645352
11
51.789234
21
-0.719605
0
LINE
8
0
10
56.38575
20
17.7160137
11
69.9698902
21
14.3291071
0
LINE
8
0
10
69.9698902
20
14.3291071
11
73.3567968
21
27.9132473
0
LINE
8
0
10
73.3567968
20
27.9132473
11
59.7726566
21
31.3001539
0
LINE
8
0
10
59.7726566
20
31.3001539
11
56.38575
21
17.7160137
0
LINE
8
0
10
60.982266
20
36.1516326
11
74.5664062
21
32.764726
0
LINE
8
0
10
74.5664062
20
32.764726
11
77.9533128
21
46.3488662
0
LINE
8
0
10
77.9533128
20
46.3488662
11
64.3691726
21
49.7357728
0
LINE
8
0
10
64.3691726
20
49.7357728
11
60.982266
21
36.1516326
0
LINE
8
0
10
68.7733214
20
-11.1378955
11
82.3574616
21
-14.5248021
0
LINE
8
0
10
82.3574616
20
-14.5248021
11
85.7443682
21
-0.9406619
0
LINE
8
0
10
85.7443682
20
-0.9406619
11
72.160228
21
2.4462447
0
LINE
8
0
10
72.160228
20
2.4462447
11
68.7733214
21
-11.1378955
0
LINE
8
0
10
73.3698374
20
7.2977234
11
86.9539776
21
3.9108168
0
LINE
8
0
10
86.9539776
20
3.9108168
11
90.3408842
21
17.494957
0
LINE
8
0
10
90.3408842
20
17.494957
11
76.756744
21
20.8818636
0
LINE
8
0
10
76.756744
20
20.8818636
11
73.3698374
21
7.2977234
0
LINE
8
0
10
77.9663535
20
25.7333422
11
91.5504937
21
22.3464356
0
LINE
8
0
10
91.5504937
20
22.3464356
11
94.9374003
21
35.9305758
0
LINE
8
0
10
94.9374003
20
35.9305758
11
81.3532601
21
39.3174824
0
LINE
8
0
10
81.3532601
20
39.3174824
11
77.9663535
21
25.7333422
0
LINE
8
0
10
86.7250963
20
-17.675003
11
100.3092365
21
-21.0619096
0
LINE
8
0
10
100.3092365
20
-21.0619096
11
103.6961431
21
-7.4777694
0
LINE
8
0
10
103.6961431
20
-7.4777694
11
90.1120029
21
-4.0908628
0
LINE
8
0
10
90.1120029
20
-4.0908628
11
86.7250963
21
-17.675003
0
LINE
8
0
10
91.3216124
20
0.7606159
11
104.9057526
21
-2.6262907
0
LINE
8
0
10
104.9057526
20
-2.6262907
11
108.2926592
21
10.9578495
0
LINE
8
0
10
108.2926592
20
10.9578495
11
94.708519
21
14.3447561
0
LINE
8
0
10
94.708519
20
14.3447561
11
91.3216124
21
0.7606159
0
LINE
8
0
10
95.9181284
20
19.1962347
11
109.5022686
21
15.8093281
0
LINE
8
0
10
109.5022686
20
15.8093281
11
112.8891752
21
29.3934683
0
LINE
8
0
10
112.8891752
20
29.3934683
11
99.305035
21
32.7803749
0
LINE
8
0
10
99.305035
20
32.7803749
11
95.9181284
21
19.1962347
0
LINE
8
0
10
108.7895437
20
-7.717083
11
122.3736839
21
-11.1039896
0
LINE
8
0
10
122.3736839
20
-11.1039896
11
125.7605905
21
2.4801506
0
LINE
8
0
10
125.7605905
20
2.4801506
11
112.1764503
21
5.8670572
0
LINE
8
0
10
112.1764503
20
5.8670572
11
108.7895437
21
-7.717083
0
LINE
8
0
10
113.3860596
20
10.7185359
11
126.9701998
21
7.3316293
0
LINE
8
0
10
126.9701998
20
7.3316293
11
130.3571064
21
20.9157695
0
LINE
8
0
10
130.3571064
20
20.9157695
11
116.7729662
21
24.3026761
0
LINE
8
0
10
116.7729662
20
24.3026761
11
113.3860596
21
10.7185359
0
LINE
8
0
10
75.8255703
20
-40.7227866
11
89.4097105
21
-44.1096932
0
LINE
8
0
10
89.4097105
20
-44.1096932
11
92.7966171
21
-30.525553
0
LINE
8
0
10
92.7966171
20
-30.525553
11
79.2124769
21
-27.1386464
0
LINE
8
0
10
79.2124769
20
-27.1386464
11
75.8255703
21
-40.7227866
0
LINE
8
0
10
103.2831778
20
-35.7107818
11
115.1558511
21
-43.1296515
0
LINE
8
0
10
115.1558511
20
-43.1296515
11
122.5747208
21
-31.2569782
0
LINE
8
0
10
122.5747208
20
-31.2569782
11
110.7020475
21
-23.8381085
0
LINE
8
0
10
110.7020475
20
-23.8381085
11
103.2831778
21
-35.7107818
0
LINE
8
0
10
122.254324
20
-47.5153488
11
132.9789462
21
-56.5143754
0
LINE
8
0
10
132.9789462
20
-56.5143754
11
141.9779728
21
-45.7897532
0
LINE
8
0
10
141.9779728
20
-45.7897532
11
131.2533506
21
-36.7907266
0
LINE
8
0
10
131.2533506
20
-36.7907266
11
122.254324
21
-47.5153488
0
LINE
8
0
10
93.2147118
20
-51.8236956
11
105.0873851
21
-59.2425653
0
LINE
8
0
10
105.0873851
20
-59.2425653
11
112.5062548
21
-47.369892
0
LINE
8
0
10
112.5062548
20
-47.369892
11
100.6335815
21
-39.9510223
0
LINE
8
0
10
100.6335815
20
-39.9510223
11
93.2147118
21
-51.8236956
0
LINE
8
0
10
109.5603652
20
-62.4708196
11
120.2849874
21
-71.4698462
0
LINE
8
0
10
120.2849874
20
-71.4698462
11
129.284014
21
-60.745224
0
LINE
8
0
10
129.284014
20
-60.745224
11
118.5593918
21
-51.7461974
0
LINE
8
0
10
118.5593918
20
-51.7461974
11
109.5603652
21
-62.4708196
0
LINE
8
0
10
295.9205138
20
-8.1091915
11
309.7078223
21
-5.678117
0
LINE
8
0
10
309.7078223
20
-5.678117
11
307.2767478
21
8.1091915
0
LINE
8
0
10
307.2767478
20
8.1091915
11
293.4894393
21
5.678117
0
LINE
8
0
10
293.4894393
20
5.678117
11
295.9205138
21
-8.1091915
0
LINE
8
0
10
292.6211984
20
10.6021558
11
306.4085069
21
13.0332303
0
LINE
8
0
10
306.4085069
20
13.0332303
11
303.9774324
21
26.8205388
0
LINE
8
0
10
303.9774324
20
26.8205388
11
290.1901239
21
24.3894643
0
LINE
8
0
10
290.1901239
20
24.3894643
11
292.6211984
21
10.6021558
0
LINE
8
0
10
289.321883
20
29.3135031
11
303.1091915
21
31.7445776
0
LINE
8
0
10
303.1091915
20
31.7445776
11
300.678117
21
45.5318861
0
LINE
8
0
10
300.678117
20
45.5318861
11
286.8908085
21
43.1008116
0
LINE
8
0
10
286.8908085
20
43.1008116
11
289.321883
21
29.3135031
0
LINE
8
0
10
277.2091665
20
-11.4085069
11
290.996475
21
-8.9774324
0
LINE
8
0
10
290.996475
20
-8.9774324
11
288.5654005
21
4.8098761
0
LINE
8
0
10
288.5654005
20
4.8098761
11
274.778092
21
2.3788016
0
LINE
8
0
10
274.778092
20
2.3788016
11
277.2091665
21
-11.4085069
0
LINE
8
0
10
273.9098511
20
7.3028404
11
287.6971596
21
9.7339149
0
LINE
8
0
10
287.6971596
20
9.7339149
11
285.2660851
21
23.5212234
0
LINE
8
0
10
285.2660851
20
23.5212234
11
271.4787766
21
21.0901489
0
LINE
8
0
10
271.4787766
20
21.0901489
11
273.9098511
21
7.3028404
0
LINE
8
0
10
270.6105358
20
26.0141877
11
284.3978443
21
28.4452622
0
LINE
8
0
10
284.3978443
20
28.4452622
11
281.9667698
21
42.2325707
0
LINE
8
0
10
281.9667698
20
42.2325707
11
268.1794613
21
39.8014962
0
LINE
8
0
10
268.1794613
20
39.8014962
11
270.6105358
21
26.0141877
0
LINE
8
0
10
255.8704849
20
-4.3614743
11
269.4546251
21
-0.9745677
0
LINE
8
0
10
269.4546251
20
-0.9745677
11
266.0677185
21
12.6095725
0
LINE
8
0
10
266.0677185
20
12.6095725
11
252.4835783
21
9.2226659
0
LINE
8
0
10
252.4835783
20
9.2226659
11
255.8704849
21
-4.3614743
0
LINE
8
0
10
251.273969
20
14.0741446
11
264.8581092
21
17.4610512
0
LINE
8
0
10
264.8581092
20
17.4610512
11
261.4712026
21
31.0451914
0
LINE
8
0
10
261.4712026
20
31.0451914
11
247.8870624
21
27.6582848
0
LINE
8
0
10
247.8870624
20
27.6582848
11
251.273969
21
14.0741446
0
LINE
8
0
10
246.6774529
20
32.5097633
11
260.2615931
21
35.8966699
0
LINE
8
0
10
260.2615931
20
35.8966699
11
256.8746865
21
49.4808101
0
LINE
8
0
10
256.8746865
20
49.4808101
11
243.2905463
21
46.0939035
0
LINE
8
0
10
243.2905463
20
46.0939035
11
246.6774529
21
32.5097633
0
LINE
8
0
10
236.2252566
20
-4.1065116
11
249.8093968
21
-0.719605
0
LINE
8
0
10
249.8093968
20
-0.719605
11
246.4224902
21
12.8645352
0
LINE
8
0
10
246.4224902
20
12.8645352
11
232.83835
21
9.4776286
0
LINE
8
0
10
232.83835
20
9.4776286
11
236.2252566
21
-4.1065116
0
LINE
8
0
10
231.6287406
20
14.3291071
11
245.2128808
21
17.7160137
0
LINE
8
0
10
245.2128808
20
17.7160137
11
241.8259742
21
31.3001539
0
LINE
8
0
10
241.8259742
20
31.3001539
11
228.241834
21
27.9132473
0
LINE
8
0
10
228.241834
20
27.9132473
11
231.6287406
21
14.3291071
0
LINE
8
0
10
227.0322246
20
32.764726
11
240.6163648
21
36.1516326
0
LINE
8
0
10
240.6163648
20
36.1516326
11
237.2294582
21
49.7357728
0
LINE
8
0
10
237.2294582
20
49.7357728
11
223.645318
21
46.3488662
0
LINE
8
0
10
223.645318
20
46.3488662
11
227.0322246
21
32.764726
0
LINE
8
0
10
219.2411692
20
-14.5248021
11
232.8253094
21
-11.1378955
0
LINE
8
0
10
232.8253094
20
-11.1378955
11
229.4384028
21
2.4462447
0
LINE
8
0
10
229.4384028
20
2.4462447
11
215.8542626
21
-0.9406619
0
LINE
8
0
10
215.8542626
20
-0.9406619
11
219.2411692
21
-14.5248021
0
LINE
8
0
10
214.6446532
20
3.9108168
11
228.2287934
21
7.2977234
0
LINE
8
0
10
228.2287934
20
7.2977234
11
224.8418868
21
20.8818636
0
LINE
8
0
10
224.8418868
20
20.8818636
11
211.2577466
21
17.494957
0
LINE
8
0
10
211.2577466
20
17.494957
11
214.6446532
21
3.9108168
0
LINE
8
0
10
210.0481371
20
22.3464356
11
223.6322773
21
25.7333422
0
LINE
8
0
10
223.6322773
20
25.7333422
11
220.2453707
21
39.3174824
0
LINE
8
0
10
220.2453707
20
39.3174824
11
206.6612305
21
35.9305758
0
LINE
8
0
10
206.6612305
20
35.9305758
11
210.0481371
21
22.3464356
0
LINE
8
0
10
201.2893943
20
-21.0619096
11
214.8735345
21
-17.675003
0
LINE
8
0
10
214.8735345
20
-17.675003
11
211.4866279
21
-4.0908628
0
LINE
8
0
10
211.4866279
20
-4.0908628
11
197.9024877
21
-7.4777694
0
LINE
8
0
10
197.9024877
20
-7.4777694
11
201.2893943
21
-21.0619096
0
LINE
8
0
10
196.6928782
20
-2.6262907
11
210.2770184
21
0.7606159
0
LINE
8
0
10
210.2770184
20
0.7606159
11
206.8901118
21
14.3447561
0
LINE
8
0
10
206.8901118
20
14.3447561
11
193.3059716
21
10.9578495
0
LINE
8
0
10
193.3059716
20
10.9578495
11
196.6928782
21
-2.6262907
0
LINE
8
0
10
192.0963622
20
15.8093281
11
205.6805024
21
19.1962347
0
LINE
8
0
10
205.6805024
20
19.1962347
11
202.2935958
21
32.7803749
0
LINE
8
0
10
202.2935958
20
32.7803749
11
188.7094556
21
29.3934683
0
LINE
8
0
10
188.7094556
20
29.3934683
11
192.0963622
21
15.8093281
0
LINE
8
0
10
179.2249469
20
-11.1039896
11
192.8090871
21
-7.717083
0
LINE
8
0
10
192.8090871
20
-7.717083
11
189.4221805
21
5.8670572
0
LINE
8
0
10
189.4221805
20
5.8670572
11
175.8380403
21
2.4801506
0
LINE
8
0
10
175.8380403
20
2.4801506
11
179.2249469
21
-11.1039896
0
LINE
8
0
10
174.628431
20
7.3316293
11
188.2125712
21
10.7185359
0
LINE
8
0
10
188.2125712
20
10.7185359
11
184.8256646
21
24.3026761
0
LINE
8
0
10
184.8256646
20
24.3026761
11
171.2415244
21
20.9157695
0
LINE
8
0
10
171.2415244
20
20.9157695
11
174.628431
21
7.3316293
0
LINE
8
0
10
212.1889203
20
-44.1096932
11
225.7730605
21
-40.7227866
0
LINE
8
0
10
225.7730605
20
-40.7227866
11
222.3861539
21
-27.1386464
0
LINE
8
0
10
222.3861539
20
-27.1386464
11
208.8020137
21
-30.525553
0
LINE
8
0
10
208.8020137
20
-30.525553
11
212.1889203
21
-44.1096932
0
LINE
8
0
10
186.4427797
20
-43.1296515
11
198.315453
21
-35.7107818
0
LINE
8
0
10
198.315453
20
-35.7107818
11
190.8965833
21
-23.8381085
0
LINE
8
0
10
190.8965833
20
-23.8381085
11
179.02391
21
-31.2569782
0
LINE
8
0
10
179.02391
20
-31.2569782
11
186.4427797
21
-43.1296515
0
LINE
8
0
10
168.6196846
20
-56.5143754
11
179.3443068
21
-47.5153488
0
LINE
8
0
10
179.3443068
20
-47.5153488
11
170.3452802
21
-36.7907266
0
LINE
8
0
10
170.3452802
20
-36.7907266
11
159.620658
21
-45.7897532
0
LINE
8
0
10
159.620658
20
-45.7897532
11
168.6196846
21
-56.5143754
0
LINE
8
0
10
196.5112457
20
-59.2425653
11
208.383919
21
-51.8236956
0
LINE
8
0
10
208.383919
20
-51.8236956
11
200.9650493
21
-39.9510223
0
LINE
8
0
10
200.9650493
20
-39.9510223
11
189.092376
21
-47.369892
0
LINE
8
0
10
189.092376
20
-47.369892
11
196.5112457
21
-59.2425653
0
LINE
8
0
10
181.3136434
20
-71.4698462
11
192.0382656
21
-62.4708196
0
LINE
8
0
10
192.0382656
20
-62.4708196
11
183.039239
21
-51.7461974
0
LINE
8
0
10
183.039239
20
-51.7461974
11
172.3146168
21
-60.745224
0
LINE
8
0
10
172.3146168
20
-60.745224
11
181.3136434
21
-71.4698462
0
CIRCLE
8
0
10
13.8122429
20
26.5041873
40
1
0
CIRCLE
8
0
10
287.7863879
20
26.5041873
40
1
0
CIRCLE
8
0
10
10.5129275
20
7.79284
40
1
0
CIRCLE
8
0
10
291.0857033
20
7.79284
40
1
0
CIRCLE
8
0
10
56.7421124
20
29.4792194
40
1
0
CIRCLE
8
0
10
244.8565184
20
29.4792194
40
1
0
CIRCLE
8
0
10
52.1455964
20
11.0436006
40
1
0
CIRCLE
8
0
10
249.4530344
20
11.0436006
40
1
0
CIRCLE
8
0
10
93.3714282
20
19.3158916
40
1
0
CIRCLE
8
0
10
208.2272026
20
19.3158916
40
1
0
CIRCLE
8
0
10
88.7749122
20
0.8802728
40
1
0
CIRCLE
8
0
10
212.8237186
20
0.8802728
40
1
0
CIRCLE
8
0
10
115.9511732
20
-46.5745699
40
1
0
CIRCLE
8
0
10
185.6474576
20
-46.5745699
40
1
0
ENDSEC
0
EOF