0
SECTION
2
HEADER
9
$INSUNITS
70
4
0
ENDSEC
0
SECTION
2
TABLES
0
TABLE
2
LTYPE
0
LTYPE
72
65
70
64
2
CONTINUOUS
3
______
73
0
40
0
0
ENDTAB
0
TABLE
2
LAYER
0
ENDTAB
0
ENDSEC
0
SECTION
2
ENTITIES
0
LINE
8
0
10
-10.1012486
20
-13.2368718
11
26.5647719
21
-10.6729339
0
LINE
8
0
10
-15.8876178
20
48.0086825
11
-11.7022294
21
-11.8451605
0
ARC
8
0
10
-10.2058833
20
-11.7405258
40
1.5
50
184
51
274
0
LINE
8
0
10
-14.4959065
20
49.6096633
11
24.5295953
21
52.3385922
0
ARC
8
0
10
-14.3912718
20
48.1133172
40
1.5
50
94
51
184
0
LINE
8
0
10
26.6694066
20
-10.66928
11
76.4249606
21
-10.66928
0
LINE
8
0
10
27.4249606
20
64.3307199
11
42.4249606
21
64.3307199
0
ARC
8
0
10
27.4249606
20
62.8307199
40
1.5
50
90
51
180
0
LINE
8
0
10
25.9249606
20
62.8307199
11
25.9249606
21
53.8349383
0
LINE
8
0
10
69.9249606
20
64.83072
11
69.9249606
21
67.8307199
0
ARC
8
0
10
68.4249606
20
67.8307199
40
1.5
50
0
51
90
0
LINE
8
0
10
45.4249606
20
69.3307199
11
68.4249606
21
69.3307199
0
LINE
8
0
10
43.9249606
20
65.8307199
11
43.9249606
21
67.8307199
0
LINE
8
0
10
71.4249606
20
63.33072
11
146.4249607
21
63.33072
0
LINE
8
0
10
147.9249607
20
29.83072
11
147.9249607
21
61.83072
0
LINE
8
0
10
147.9249606
20
-2.5800077
11
147.9249606
21
29.83072
0
LINE
8
0
10
77.9249606
20
-25.1692801
11
77.9249606
21
-12.16928
0
LINE
8
0
10
79.4249606
20
-26.6692801
11
81.6714384
21
-26.6692801
0
ARC
8
0
10
79.4249606
20
-25.1692801
40
1.5
50
180
51
270
0
LINE
8
0
10
148.7674039
20
-3.9281988
11
155.7431756
21
-7.33051
0
LINE
8
0
10
146.132088
20
-30.4579179
11
156.43381
21
-9.3362578
0
LINE
8
0
10
146.132088
20
-30.4579179
11
146.0323711
21
-30.4092827
0
LINE
8
0
10
82.1349639
20
-26.7426953
11
116.881205
21
-38.0324334
0
LINE
8
0
10
117.0752362
20
-38.1108271
11
136.0850588
21
-47.3825372
0
LINE
8
0
10
138.0908066
20
-46.6919028
11
146.0323711
21
-30.4092827
0
ARC
8
0
10
26.6694066
20
-12.16928
40
1.5
50
90
51
94.0000013
0
ARC
8
0
10
76.4249606
20
-12.16928
40
1.5
50
0
51
90
0
ARC
8
0
10
81.6714384
20
-28.1692801
40
1.5
50
71.9999994
51
90
0
ARC
8
0
10
116.4176795
20
-39.4590182
40
1.5
50
64.0000012
51
71.9999994
0
ARC
8
0
10
136.7426155
20
-46.0343461
40
1.5
50
244.0000012
51
334.0000012
0
ARC
8
0
10
155.0856189
20
-8.6787011
40
1.5
50
334.0000012
51
64.0000012
0
ARC
8
0
10
149.4249606
20
-2.5800077
40
1.5
50
180
51
244.0000012
0
ARC
8
0
10
146.4249607
20
61.83072
40
1.5
50
0
51
90
0
ARC
8
0
10
71.4249606
20
64.83072
40
1.5
50
180
51
270
0
ARC
8
0
10
45.4249606
20
67.8307199
40
1.5
50
90
51
180
0
ARC
8
0
10
42.4249606
20
65.8307199
40
1.5
50
270
51
0
0
ARC
8
0
10
24.4249606
20
53.8349383
40
1.5
50
274.0000013
51
0
0
CIRCLE
8
0
10
6.990017
20
29.0583837
40
1
0
CIRCLE
8
0
10
8.31539
20
10.1046668
40
1
0
CIRCLE
8
0
10
47.9249606
20
42.3307199
40
1
0
CIRCLE
8
0
10
47.9249606
20
23.3307199
40
1
0
CIRCLE
8
0
10
85.9249607
20
41.33072
40
1
0
CIRCLE
8
0
10
85.9249607
20
22.33072
40
1
0
CIRCLE
8
0
10
123.7743361
20
-17.1399785
40
1
0
ENDSEC
0
EOF