0
SECTION
2
HEADER
9
$INSUNITS
70
4
0
ENDSEC
0
SECTION
2
TABLES
0
TABLE
2
LTYPE
0
LTYPE
72
65
70
64
2
CONTINUOUS
3
______
73
0
40
0
0
ENDTAB
0
TABLE
2
LAYER
0
ENDTAB
0
ENDSEC
0
SECTION
2
ENTITIES
0
LINE
8
0
10
-18.7957672
20
-14.4557648
11
22.1534748
21
-21.6762211
0
LINE
8
0
10
-20.0125065
20
-12.7180809
11
-13.4138757
21
24.7046137
0
ARC
8
0
10
-18.5352949
20
-12.9785532
40
1.5
50
170
51
260
0
LINE
8
0
10
-13.4138757
20
24.7046137
11
-13.3270517
21
25.1970176
0
LINE
8
0
10
-13.3270517
20
25.1970176
11
-7.857134
21
56.2184618
0
LINE
8
0
10
-6.1194501
20
57.4352011
11
32.7393134
21
50.5833527
0
ARC
8
0
10
-6.3799224
20
55.9579895
40
1.5
50
80
51
170
0
LINE
8
0
10
22.2558854
20
-21.6979891
11
65.5125921
21
-32.4830974
0
LINE
8
0
10
38.5314627
20
61.8462122
11
53.0858985
21
58.2173838
0
ARC
8
0
10
38.1685798
20
60.3907687
40
1.5
50
76
51
166
0
LINE
8
0
10
36.7131362
20
60.7536515
11
34.4552293
21
51.6976814
0
LINE
8
0
10
89.834871
20
50.600756
11
90.3187149
21
52.5413478
0
ARC
8
0
10
88.8632714
20
52.9042307
40
1.5
50
346
51
76
0
LINE
8
0
10
57.2063952
20
62.3430969
11
89.2261542
21
54.3596743
0
LINE
8
0
10
54.9042249
20
59.3099445
11
55.3880688
21
61.2505361
0
LINE
8
0
10
63.4601682
20
-46.9152682
11
66.6051528
21
-34.3014239
0
LINE
8
0
10
64.5527289
20
-48.7335947
11
70.8155569
21
-50.2950931
0
ARC
8
0
10
64.9156117
20
-47.2781511
40
1.5
50
166
51
256
0
LINE
8
0
10
135.0391874
20
-71.9498995
11
149.6502487
21
-54.5371147
0
LINE
8
0
10
135.0391874
20
-71.9498995
11
134.9541984
21
-71.8785853
0
LINE
8
0
10
71.247553
20
-50.4784646
11
101.2623517
21
-69.2337924
0
LINE
8
0
10
101.4316543
20
-69.3567979
11
121.1961619
21
-85.9411889
0
LINE
8
0
10
123.30941
20
-85.7563036
11
134.9541984
21
-71.8785853
0
LINE
8
0
10
248.5127323
20
58.2173838
11
263.0671681
21
61.8462122
0
LINE
8
0
10
210.6711991
20
48.7824295
11
151.1621983
21
33.9451685
0
LINE
8
0
10
150.4364325
20
33.9451685
11
90.9274317
21
48.7824295
0
LINE
8
0
10
279.445156
20
-21.6762211
11
320.394398
21
-14.4557648
0
ARC
8
0
10
320.1339257
20
-12.9785532
40
1.5
50
280
51
10
0
LINE
8
0
10
315.0125065
20
24.7046137
11
321.6111373
21
-12.7180809
0
LINE
8
0
10
314.9256825
20
25.1970176
11
315.0125065
21
24.7046137
0
LINE
8
0
10
309.4557648
20
56.2184618
11
314.9256825
21
25.1970176
0
ARC
8
0
10
307.9785532
20
55.9579895
40
1.5
50
10
51
100
0
LINE
8
0
10
268.8593174
20
50.5833527
11
307.7180809
21
57.4352011
0
LINE
8
0
10
236.0860387
20
-32.4830974
11
279.3427454
21
-21.6979891
0
LINE
8
0
10
267.1434015
20
51.6976814
11
264.8854946
21
60.7536515
0
ARC
8
0
10
263.430051
20
60.3907687
40
1.5
50
14
51
104
0
LINE
8
0
10
212.3724766
20
54.3596743
11
244.3922356
21
62.3430969
0
ARC
8
0
10
212.7353594
20
52.9042307
40
1.5
50
104
51
194
0
LINE
8
0
10
211.2799159
20
52.5413478
11
211.7637598
21
50.600756
0
LINE
8
0
10
246.210562
20
61.2505361
11
246.6944059
21
59.3099445
0
LINE
8
0
10
234.993478
20
-34.3014239
11
238.1384626
21
-46.9152682
0
LINE
8
0
10
230.7830739
20
-50.2950931
11
237.0459019
21
-48.7335947
0
ARC
8
0
10
236.6830191
20
-47.2781511
40
1.5
50
284
51
14
0
LINE
8
0
10
166.6444324
20
-71.8785853
11
166.5594434
21
-71.9498995
0
LINE
8
0
10
151.9483821
20
-54.5371147
11
166.5594434
21
-71.9498995
0
LINE
8
0
10
200.3362791
20
-69.2337924
11
230.3510778
21
-50.4784646
0
LINE
8
0
10
180.4024689
20
-85.9411889
11
200.1669765
21
-69.3567979
0
LINE
8
0
10
166.6444324
20
-71.8785853
11
178.2892208
21
-85.7563036
0
ARC
8
0
10
21.8930025
20
-23.1534327
40
1.5
50
75.9999994
51
79.9999992
0
ARC
8
0
10
65.1497093
20
-33.938541
40
1.5
50
345.9999994
51
75.9999994
0
ARC
8
0
10
70.4526741
20
-51.7505367
40
1.5
50
57.9999984
51
75.9999994
0
ARC
8
0
10
100.4674728
20
-70.5058645
40
1.5
50
49.9999988
51
57.9999984
0
ARC
8
0
10
122.1603433
20
-84.7921222
40
1.5
50
229.9999988
51
319.9999988
0
ARC
8
0
10
150.7993154
20
-55.5012962
40
1.5
50
40.0000012
51
139.9999988
0
ARC
8
0
10
179.4382875
20
-84.7921222
40
1.5
50
220.0000012
51
310.0000012
0
ARC
8
0
10
201.131158
20
-70.5058645
40
1.5
50
122.0000016
51
130.0000012
0
ARC
8
0
10
231.1459567
20
-51.7505367
40
1.5
50
104.0000006
51
122.0000016
0
ARC
8
0
10
236.4489215
20
-33.938541
40
1.5
50
104.0000006
51
194.0000006
0
ARC
8
0
10
279.7056283
20
-23.1534327
40
1.5
50
100.0000008
51
104.0000006
0
ARC
8
0
10
268.5988451
20
52.0605643
40
1.5
50
194.0000006
51
280.0000008
0
ARC
8
0
10
248.1498494
20
59.6728274
40
1.5
50
194.0000006
51
284.0000006
0
ARC
8
0
10
244.7551184
20
60.8876533
40
1.5
50
14.0000006
51
104.0000006
0
ARC
8
0
10
210.3083162
20
50.2378731
40
1.5
50
284.0000006
51
14.0000006
0
ARC
8
0
10
150.7993154
20
35.4006121
40
1.5
50
255.9999994
51
284.0000006
0
ARC
8
0
10
91.2903146
20
50.2378731
40
1.5
50
165.9999994
51
255.9999994
0
ARC
8
0
10
56.8435124
20
60.8876533
40
1.5
50
75.9999994
51
165.9999994
0
ARC
8
0
10
53.4487814
20
59.6728274
40
1.5
50
255.9999994
51
345.9999994
0
ARC
8
0
10
32.9997857
20
52.0605643
40
1.5
50
259.9999992
51
345.9999994
0
CIRCLE
8
0
10
-5.163183
20
54.2203056
40
1
0
CIRCLE
8
0
10
306.7618138
20
54.2203056
40
1
0
CIRCLE
8
0
10
-16.797611
20
-11.7618138
40
1
0
CIRCLE
8
0
10
318.3962418
20
-11.7618138
40
1
0
CIRCLE
8
0
10
39.2611406
20
58.5724422
40
1
0
CIRCLE
8
0
10
262.3374902
20
58.5724422
40
1
0
CIRCLE
8
0
10
30.299513
20
-21.0817341
40
1
0
CIRCLE
8
0
10
271.2991178
20
-21.0817341
40
1
0
CIRCLE
8
0
10
117.9760553
20
39.4619166
40
1
0
CIRCLE
8
0
10
183.6225755
20
39.4619166
40
1
0
CIRCLE
8
0
10
66.7339382
20
-46.1855903
40
1
0
CIRCLE
8
0
10
234.8646926
20
-46.1855903
40
1
0
CIRCLE
8
0
10
121.9754581
20
-82.6788742
40
1
0
CIRCLE
8
0
10
179.6231727
20
-82.6788742
40
1
0
CIRCLE
8
0
10
13.8122429
20
26.5041873
40
1
0
CIRCLE
8
0
10
287.7863879
20
26.5041873
40
1
0
CIRCLE
8
0
10
10.5129275
20
7.79284
40
1
0
CIRCLE
8
0
10
291.0857033
20
7.79284
40
1
0
CIRCLE
8
0
10
56.7421124
20
29.4792194
40
1
0
CIRCLE
8
0
10
244.8565184
20
29.4792194
40
1
0
CIRCLE
8
0
10
52.1455964
20
11.0436006
40
1
0
CIRCLE
8
0
10
249.4530344
20
11.0436006
40
1
0
CIRCLE
8
0
10
93.3714282
20
19.3158916
40
1
0
CIRCLE
8
0
10
208.2272026
20
19.3158916
40
1
0
CIRCLE
8
0
10
88.7749122
20
0.8802728
40
1
0
CIRCLE
8
0
10
212.8237186
20
0.8802728
40
1
0
CIRCLE
8
0
10
115.9511732
20
-46.5745699
40
1
0
CIRCLE
8
0
10
185.6474576
20
-46.5745699
40
1
0
ENDSEC
0
EOF