0
SECTION
2
HEADER
9
$INSUNITS
70
4
0
ENDSEC
0
SECTION
2
TABLES
0
TABLE
2
LTYPE
0
LTYPE
72
65
70
64
2
CONTINUOUS
3
______
73
0
40
0
0
ENDTAB
0
TABLE
2
LAYER
0
ENDTAB
0
ENDSEC
0
SECTION
2
ENTITIES
0
LINE
8
0
10
-18.7957672
20
-14.4557648
11
22.1534748
21
-21.6762211
0
LINE
8
0
10
-20.0125065
20
-12.7180809
11
-13.4138757
21
24.7046137
0
ARC
8
0
10
-18.5352949
20
-12.9785532
40
1.5
50
170
51
260
0
LINE
8
0
10
-13.4138757
20
24.7046137
11
-13.3270517
21
25.1970176
0
LINE
8
0
10
-13.3270517
20
25.1970176
11
-7.857134
21
56.2184618
0
LINE
8
0
10
-6.1194501
20
57.4352011
11
32.7393134
21
50.5833527
0
ARC
8
0
10
-6.3799224
20
55.9579895
40
1.5
50
80
51
170
0
LINE
8
0
10
22.2558854
20
-21.6979891
11
65.5125921
21
-32.4830974
0
LINE
8
0
10
38.5314627
20
61.8462122
11
53.0858985
21
58.2173838
0
ARC
8
0
10
38.1685798
20
60.3907687
40
1.5
50
76
51
166
0
LINE
8
0
10
36.7131362
20
60.7536515
11
34.4552293
21
51.6976814
0
LINE
8
0
10
89.834871
20
50.600756
11
90.3187149
21
52.5413478
0
ARC
8
0
10
88.8632714
20
52.9042307
40
1.5
50
346
51
76
0
LINE
8
0
10
57.2063952
20
62.3430969
11
89.2261542
21
54.3596743
0
LINE
8
0
10
54.9042249
20
59.3099445
11
55.3880688
21
61.2505361
0
LINE
8
0
10
63.4601682
20
-46.9152682
11
66.6051528
21
-34.3014239
0
LINE
8
0
10
64.5527289
20
-48.7335947
11
70.8155569
21
-50.2950931
0
ARC
8
0
10
64.9156117
20
-47.2781511
40
1.5
50
166
51
256
0
LINE
8
0
10
135.0391874
20
-71.9498995
11
149.6502487
21
-54.5371147
0
LINE
8
0
10
135.0391874
20
-71.9498995
11
134.9541984
21
-71.8785853
0
LINE
8
0
10
71.247553
20
-50.4784646
11
101.2623517
21
-69.2337924
0
LINE
8
0
10
101.4316543
20
-69.3567979
11
121.1961619
21
-85.9411889
0
LINE
8
0
10
123.30941
20
-85.7563036
11
134.9541984
21
-71.8785853
0
LINE
8
0
10
248.5127323
20
58.2173838
11
263.0671681
21
61.8462122
0
LINE
8
0
10
210.6711991
20
48.7824295
11
160.7993154
21
36.3479718
0
LINE
8
0
10
140.7993154
20
36.3479718
11
90.9274317
21
48.7824295
0
LINE
8
0
10
279.445156
20
-21.6762211
11
320.394398
21
-14.4557648
0
ARC
8
0
10
320.1339257
20
-12.9785532
40
1.5
50
280
51
10
0
LINE
8
0
10
315.0125065
20
24.7046137
11
321.6111373
21
-12.7180809
0
LINE
8
0
10
314.9256825
20
25.1970176
11
315.0125065
21
24.7046137
0
LINE
8
0
10
309.4557648
20
56.2184618
11
314.9256825
21
25.1970176
0
ARC
8
0
10
307.9785532
20
55.9579895
40
1.5
50
10
51
100
0
LINE
8
0
10
268.8593174
20
50.5833527
11
307.7180809
21
57.4352011
0
LINE
8
0
10
236.0860387
20
-32.4830974
11
279.3427454
21
-21.6979891
0
LINE
8
0
10
267.1434015
20
51.6976814
11
264.8854946
21
60.7536515
0
ARC
8
0
10
263.430051
20
60.3907687
40
1.5
50
14
51
104
0
LINE
8
0
10
212.3724766
20
54.3596743
11
244.3922356
21
62.3430969
0
ARC
8
0
10
212.7353594
20
52.9042307
40
1.5
50
104
51
194
0
LINE
8
0
10
211.2799159
20
52.5413478
11
211.7637598
21
50.600756
0
LINE
8
0
10
246.210562
20
61.2505361
11
246.6944059
21
59.3099445
0
LINE
8
0
10
234.993478
20
-34.3014239
11
238.1384626
21
-46.9152682
0
LINE
8
0
10
230.7830739
20
-50.2950931
11
237.0459019
21
-48.7335947
0
ARC
8
0
10
236.6830191
20
-47.2781511
40
1.5
50
284
51
14
0
LINE
8
0
10
166.6444324
20
-71.8785853
11
166.5594434
21
-71.9498995
0
LINE
8
0
10
151.9483821
20
-54.5371147
11
166.5594434
21
-71.9498995
0
LINE
8
0
10
200.3362791
20
-69.2337924
11
230.3510778
21
-50.4784646
0
LINE
8
0
10
180.4024689
20
-85.9411889
11
200.1669765
21
-69.3567979
0
LINE
8
0
10
166.6444324
20
-71.8785853
11
178.2892208
21
-85.7563036
0
ARC
8
0
10
21.8930025
20
-23.1534327
40
1.5
50
75.9999994
51
79.9999992
0
ARC
8
0
10
65.1497093
20
-33.938541
40
1.5
50
345.9999994
51
75.9999994
0
ARC
8
0
10
70.4526741
20
-51.7505367
40
1.5
50
57.9999984
51
75.9999994
0
ARC
8
0
10
100.4674728
20
-70.5058645
40
1.5
50
49.9999988
51
57.9999984
0
ARC
8
0
10
122.1603433
20
-84.7921222
40
1.5
50
229.9999988
51
319.9999988
0
ARC
8
0
10
150.7993154
20
-55.5012962
40
1.5
50
40.0000012
51
139.9999988
0
ARC
8
0
10
179.4382875
20
-84.7921222
40
1.5
50
220.0000012
51
310.0000012
0
ARC
8
0
10
201.131158
20
-70.5058645
40
1.5
50
122.0000016
51
130.0000012
0
ARC
8
0
10
231.1459567
20
-51.7505367
40
1.5
50
104.0000006
51
122.0000016
0
ARC
8
0
10
236.4489215
20
-33.938541
40
1.5
50
104.0000006
51
194.0000006
0
ARC
8
0
10
279.7056283
20
-23.1534327
40
1.5
50
100.0000008
51
104.0000006
0
ARC
8
0
10
268.5988451
20
52.0605643
40
1.5
50
194.0000006
51
280.0000008
0
ARC
8
0
10
248.1498494
20
59.6728274
40
1.5
50
194.0000006
51
284.0000006
0
ARC
8
0
10
244.7551184
20
60.8876533
40
1.5
50
14.0000006
51
104.0000006
0
ARC
8
0
10
210.3083162
20
50.2378731
40
1.5
50
284.0000006
51
14.0000006
0
ARC
8
0
10
91.2903146
20
50.2378731
40
1.5
50
165.9999994
51
255.9999994
0
ARC
8
0
10
56.8435124
20
60.8876533
40
1.5
50
75.9999994
51
165.9999994
0
ARC
8
0
10
53.4487814
20
59.6728274
40
1.5
50
255.9999994
51
345.9999994
0
ARC
8
0
10
32.9997857
20
52.0605643
40
1.5
50
259.9999992
51
345.9999994
0
LINE
8
0
10
-13.0034875
20
-10.399967
11
23.1936672
21
-16.782502
0
LINE
8
0
10
-14.2202269
20
-8.6622831
11
-3.8013362
21
50.4261821
0
ARC
8
0
10
-12.7430152
20
-8.9227553
40
1.5
50
170
51
260
0
LINE
8
0
10
-2.0636523
20
51.6429215
11
36.4628129
21
44.8496662
0
ARC
8
0
10
-2.3241245
20
50.1657098
40
1.5
50
80
51
170
0
LINE
8
0
10
23.2960778
20
-16.80427
11
71.5736802
21
-28.8412283
0
LINE
8
0
10
42.1733318
20
55.7851241
11
56.7277677
21
52.1562957
0
ARC
8
0
10
41.810449
20
54.3296805
40
1.5
50
76
51
166
0
LINE
8
0
10
40.3550054
20
54.6925634
11
38.1787288
21
45.9639949
0
LINE
8
0
10
83.7737829
20
46.9588869
11
84.2576268
21
48.8994787
0
ARC
8
0
10
82.8021832
20
49.2623615
40
1.5
50
346
51
76
0
LINE
8
0
10
60.8482644
20
56.2820087
11
83.1650661
21
50.7178051
0
LINE
8
0
10
58.5460941
20
53.2488564
11
59.029938
21
55.189448
0
LINE
8
0
10
69.5212563
20
-43.2733991
11
72.6662409
21
-30.6595547
0
LINE
8
0
10
70.613817
20
-45.0917255
11
72.7935653
21
-45.6351978
0
ARC
8
0
10
70.9766999
20
-43.6362819
40
1.5
50
166
51
256
0
LINE
8
0
10
134.4229033
20
-64.9057393
11
149.6502487
21
-46.7584956
0
LINE
8
0
10
134.4229033
20
-64.9057393
11
134.3379143
21
-64.834425
0
LINE
8
0
10
73.2255613
20
-45.8185693
11
104.2084548
21
-65.1788299
0
LINE
8
0
10
104.3777573
20
-65.3018353
11
120.5798778
21
-78.8970287
0
LINE
8
0
10
122.6931259
20
-78.7121434
11
134.3379143
21
-64.834425
0
LINE
8
0
10
244.8708631
20
52.1562957
11
259.425299
21
55.7851241
0
LINE
8
0
10
216.7322872
20
45.1405604
11
160.7993154
21
31.1949036
0
LINE
8
0
10
140.7993154
20
31.1949036
11
84.8663436
21
45.1405604
0
LINE
8
0
10
278.4049636
20
-16.782502
11
314.6021183
21
-10.399967
0
ARC
8
0
10
314.341646
20
-8.9227553
40
1.5
50
280
51
10
0
LINE
8
0
10
305.399967
20
50.4261821
11
315.8188577
21
-8.6622831
0
ARC
8
0
10
303.9227553
20
50.1657098
40
1.5
50
10
51
100
0
LINE
8
0
10
303.6622831
20
51.6429215
11
292.8293978
21
49.7327915
0
LINE
8
0
10
292.8293978
20
49.7327915
11
291.3521863
21
49.4723192
0
LINE
8
0
10
265.1358179
20
44.8496662
11
291.3521863
21
49.4723192
0
LINE
8
0
10
230.0249506
20
-28.8412283
11
278.302553
21
-16.80427
0
LINE
8
0
10
263.419902
20
45.9639949
11
261.2436254
21
54.6925634
0
ARC
8
0
10
259.7881818
20
54.3296805
40
1.5
50
14
51
104
0
LINE
8
0
10
218.4335647
20
50.7178051
11
240.7503664
21
56.2820087
0
ARC
8
0
10
218.7964476
20
49.2623615
40
1.5
50
104
51
194
0
LINE
8
0
10
217.341004
20
48.8994787
11
217.8248479
21
46.9588869
0
LINE
8
0
10
242.5686928
20
55.189448
11
243.0525367
21
53.2488564
0
LINE
8
0
10
228.9323899
20
-30.6595547
11
232.0773745
21
-43.2733991
0
LINE
8
0
10
228.8050655
20
-45.6351978
11
230.9848138
21
-45.0917255
0
ARC
8
0
10
230.6219309
20
-43.6362819
40
1.5
50
284
51
14
0
LINE
8
0
10
167.2607165
20
-64.834425
11
167.1757275
21
-64.9057393
0
LINE
8
0
10
151.9483821
20
-46.7584956
11
167.1757275
21
-64.9057393
0
LINE
8
0
10
197.390176
20
-65.1788299
11
228.3730695
21
-45.8185693
0
LINE
8
0
10
181.018753
20
-78.8970287
11
197.2208735
21
-65.3018353
0
LINE
8
0
10
167.2607165
20
-64.834425
11
178.9055049
21
-78.7121434
0
ARC
8
0
10
22.9331949
20
-18.2597136
40
1.5
50
75.9999994
51
79.9999992
0
ARC
8
0
10
71.2107973
20
-30.2966719
40
1.5
50
345.9999994
51
75.9999994
0
ARC
8
0
10
72.4306824
20
-47.0906414
40
1.5
50
57.9999984
51
75.9999994
0
ARC
8
0
10
103.4135759
20
-66.450902
40
1.5
50
49.9999988
51
57.9999984
0
ARC
8
0
10
121.5440592
20
-77.747962
40
1.5
50
229.9999988
51
319.9999988
0
ARC
8
0
10
150.7993154
20
-47.722677
40
1.5
50
40.0000012
51
139.9999988
0
ARC
8
0
10
180.0545716
20
-77.747962
40
1.5
50
220.0000012
51
310.0000012
0
ARC
8
0
10
198.1850549
20
-66.450902
40
1.5
50
122.0000016
51
130.0000012
0
ARC
8
0
10
229.1679484
20
-47.0906414
40
1.5
50
104.0000006
51
122.0000016
0
ARC
8
0
10
230.3878335
20
-30.2966719
40
1.5
50
104.0000006
51
194.0000006
0
ARC
8
0
10
278.6654359
20
-18.2597136
40
1.5
50
100.0000008
51
104.0000006
0
ARC
8
0
10
264.8753456
20
46.3268778
40
1.5
50
194.0000006
51
280.0000008
0
ARC
8
0
10
244.5079803
20
53.6117393
40
1.5
50
194.0000006
51
284.0000006
0
ARC
8
0
10
241.1132493
20
54.8265652
40
1.5
50
14.0000006
51
104.0000006
0
ARC
8
0
10
216.3694043
20
46.596004
40
1.5
50
284.0000006
51
14.0000006
0
ARC
8
0
10
85.2292265
20
46.596004
40
1.5
50
165.9999994
51
255.9999994
0
ARC
8
0
10
60.4853815
20
54.8265652
40
1.5
50
75.9999994
51
165.9999994
0
ARC
8
0
10
57.0906505
20
53.6117393
40
1.5
50
255.9999994
51
345.9999994
0
ARC
8
0
10
36.7232852
20
46.3268778
40
1.5
50
259.9999992
51
345.9999994
0
CIRCLE
8
0
10
-5.163183
20
54.2203056
40
1
0
CIRCLE
8
0
10
306.7618138
20
54.2203056
40
1
0
CIRCLE
8
0
10
-16.797611
20
-11.7618138
40
1
0
CIRCLE
8
0
10
318.3962418
20
-11.7618138
40
1
0
CIRCLE
8
0
10
39.2611406
20
58.5724422
40
1
0
CIRCLE
8
0
10
262.3374902
20
58.5724422
40
1
0
CIRCLE
8
0
10
30.299513
20
-21.0817341
40
1
0
CIRCLE
8
0
10
271.2991178
20
-21.0817341
40
1
0
CIRCLE
8
0
10
117.9760553
20
39.4619166
40
1
0
CIRCLE
8
0
10
183.6225755
20
39.4619166
40
1
0
CIRCLE
8
0
10
66.7339382
20
-46.1855903
40
1
0
CIRCLE
8
0
10
234.8646926
20
-46.1855903
40
1
0
CIRCLE
8
0
10
121.9754581
20
-82.6788742
40
1
0
CIRCLE
8
0
10
179.6231727
20
-82.6788742
40
1
0
LINE
8
0
10
160.7993154
20
31.1949036
11
160.7993154
21
36.3479718
0
LINE
8
0
10
140.7993154
20
36.3479718
11
140.7993154
21
31.1949036
0
ENDSEC
0
EOF