0
SECTION
2
HEADER
9
$INSUNITS
70
4
0
ENDSEC
0
SECTION
2
TABLES
0
TABLE
2
LTYPE
0
LTYPE
72
65
70
64
2
CONTINUOUS
3
______
73
0
40
0
0
ENDTAB
0
TABLE
2
LAYER
0
ENDTAB
0
ENDSEC
0
SECTION
2
ENTITIES
0
LINE
8
0
10
-14.7402865
20
-18.5734745
11
26.7393757
21
-15.6729339
0
LINE
8
0
10
-18.5734745
20
14.7402865
11
-18.5385962
21
14.2415045
0
LINE
8
0
10
-18.5385962
20
14.2415045
11
-16.3412673
21
-17.1817631
0
ARC
8
0
10
-14.8449212
20
-17.0771284
40
1.5
50
184
51
274
0
LINE
8
0
10
-18.9920133
20
20.7256708
11
-18.5734745
21
14.7402865
0
LINE
8
0
10
-18.9920133
20
20.7256708
11
-19.0268915
21
21.2244528
0
LINE
8
0
10
-21.2242205
20
52.6477204
11
-19.0268915
21
21.2244528
0
LINE
8
0
10
-19.8325091
20
54.2487012
11
19.5295953
21
57.0011677
0
ARC
8
0
10
-19.7278744
20
52.7523551
40
1.5
50
94
51
184
0
LINE
8
0
10
26.8440105
20
-15.66928
11
71.4249606
21
-15.6692801
0
LINE
8
0
10
22.4249606
20
69.3307199
11
37.4249606
21
69.3307199
0
ARC
8
0
10
22.4249606
20
67.8307199
40
1.5
50
90
51
180
0
LINE
8
0
10
20.9249606
20
67.8307199
11
20.9249606
21
58.4975138
0
LINE
8
0
10
74.9249606
20
69.83072
11
74.9249606
21
72.8307199
0
ARC
8
0
10
73.4249606
20
72.8307199
40
1.5
50
0
51
90
0
LINE
8
0
10
40.4249606
20
74.3307199
11
73.4249606
21
74.3307199
0
LINE
8
0
10
38.9249606
20
70.8307199
11
38.9249606
21
72.8307199
0
LINE
8
0
10
76.4249606
20
68.33072
11
126.4249606
21
68.33072
0
LINE
8
0
10
72.9249606
20
-30.1692801
11
72.9249606
21
-17.1692801
0
LINE
8
0
10
74.4249606
20
-31.6692801
11
80.8795162
21
-31.6692801
0
ARC
8
0
10
74.4249606
20
-30.1692801
40
1.5
50
180
51
270
0
LINE
8
0
10
147.9249606
20
2.045698
11
162.4290015
21
-5.0283955
0
LINE
8
0
10
148.4342025
20
-37.1437438
11
163.1196359
21
-7.0341433
0
LINE
8
0
10
148.4342025
20
-37.1437438
11
148.3344856
21
-37.0951086
0
LINE
8
0
10
81.3430417
20
-31.7426953
11
115.0035978
21
-42.6796729
0
LINE
8
0
10
115.1976289
20
-42.7580666
11
138.3871733
21
-54.0683631
0
LINE
8
0
10
140.3929211
20
-53.3777287
11
148.3344856
21
-37.0951086
0
ARC
8
0
10
26.8440105
20
-17.16928
40
1.5
50
90
51
94.0000013
0
ARC
8
0
10
71.4249606
20
-17.1692801
40
1.5
50
0
51
90
0
ARC
8
0
10
80.8795162
20
-33.1692801
40
1.5
50
71.9999994
51
90
0
ARC
8
0
10
114.5400722
20
-44.1062577
40
1.5
50
64.0000012
51
71.9999994
0
ARC
8
0
10
139.04473
20
-52.720172
40
1.5
50
244.0000012
51
334.0000012
0
ARC
8
0
10
161.7714448
20
-6.3765866
40
1.5
50
334.0000012
51
64.0000012
0
ARC
8
0
10
76.4249606
20
69.83072
40
1.5
50
180
51
270
0
ARC
8
0
10
40.4249606
20
72.8307199
40
1.5
50
90
51
180
0
ARC
8
0
10
37.4249606
20
70.8307199
40
1.5
50
270
51
0
0
ARC
8
0
10
19.4249606
20
58.4975138
40
1.5
50
274.0000013
51
0
0
LINE
8
0
10
-10.1012486
20
-13.2368718
11
26.5647719
21
-10.6729339
0
LINE
8
0
10
-15.8876178
20
48.0086825
11
-11.7022294
21
-11.8451605
0
ARC
8
0
10
-10.2058833
20
-11.7405258
40
1.5
50
184
51
274
0
LINE
8
0
10
-14.4959065
20
49.6096633
11
24.5295953
21
52.3385922
0
ARC
8
0
10
-14.3912718
20
48.1133172
40
1.5
50
94
51
184
0
LINE
8
0
10
26.6694066
20
-10.66928
11
76.4249606
21
-10.66928
0
LINE
8
0
10
27.4249606
20
64.3307199
11
42.4249606
21
64.3307199
0
ARC
8
0
10
27.4249606
20
62.8307199
40
1.5
50
90
51
180
0
LINE
8
0
10
25.9249606
20
62.8307199
11
25.9249606
21
53.8349383
0
LINE
8
0
10
69.9249606
20
64.83072
11
69.9249606
21
67.8307199
0
ARC
8
0
10
68.4249606
20
67.8307199
40
1.5
50
0
51
90
0
LINE
8
0
10
45.4249606
20
69.3307199
11
68.4249606
21
69.3307199
0
LINE
8
0
10
43.9249606
20
65.8307199
11
43.9249606
21
67.8307199
0
LINE
8
0
10
71.4249606
20
63.33072
11
126.4249606
21
63.33072
0
LINE
8
0
10
147.9249606
20
-2.5800077
11
147.9249606
21
2.045698
0
LINE
8
0
10
77.9249606
20
-25.1692801
11
77.9249606
21
-12.16928
0
LINE
8
0
10
79.4249606
20
-26.6692801
11
81.6714384
21
-26.6692801
0
ARC
8
0
10
79.4249606
20
-25.1692801
40
1.5
50
180
51
270
0
LINE
8
0
10
148.7674039
20
-3.9281988
11
155.7431756
21
-7.33051
0
LINE
8
0
10
146.132088
20
-30.4579179
11
156.43381
21
-9.3362578
0
LINE
8
0
10
146.132088
20
-30.4579179
11
146.0323711
21
-30.4092827
0
LINE
8
0
10
82.1349639
20
-26.7426953
11
116.881205
21
-38.0324334
0
LINE
8
0
10
117.0752362
20
-38.1108271
11
136.0850588
21
-47.3825372
0
LINE
8
0
10
138.0908066
20
-46.6919028
11
146.0323711
21
-30.4092827
0
ARC
8
0
10
26.6694066
20
-12.16928
40
1.5
50
90
51
94.0000013
0
ARC
8
0
10
76.4249606
20
-12.16928
40
1.5
50
0
51
90
0
ARC
8
0
10
81.6714384
20
-28.1692801
40
1.5
50
71.9999994
51
90
0
ARC
8
0
10
116.4176795
20
-39.4590182
40
1.5
50
64.0000012
51
71.9999994
0
ARC
8
0
10
136.7426155
20
-46.0343461
40
1.5
50
244.0000012
51
334.0000012
0
ARC
8
0
10
155.0856189
20
-8.6787011
40
1.5
50
334.0000012
51
64.0000012
0
ARC
8
0
10
149.4249606
20
-2.5800077
40
1.5
50
180
51
244.0000012
0
ARC
8
0
10
71.4249606
20
64.83072
40
1.5
50
180
51
270
0
ARC
8
0
10
45.4249606
20
67.8307199
40
1.5
50
90
51
180
0
ARC
8
0
10
42.4249606
20
65.8307199
40
1.5
50
270
51
0
0
ARC
8
0
10
24.4249606
20
53.8349383
40
1.5
50
274.0000013
51
0
0
LINE
8
0
10
126.4249606
20
68.33072
11
126.4249606
21
63.33072
0
CIRCLE
8
0
10
-18.1268936
20
51.3606438
40
1
0
CIRCLE
8
0
10
-13.4532099
20
-15.4761476
40
1
0
CIRCLE
8
0
10
23.9249606
20
66.3307199
40
1
0
CIRCLE
8
0
10
34.4996211
20
-13.1254009
40
1
0
CIRCLE
8
0
10
104.9249607
20
65.83072
40
1
0
CIRCLE
8
0
10
75.9249606
20
-28.6692801
40
1
0
CIRCLE
8
0
10
138.3540957
20
-50.7144242
40
1
0
CIRCLE
8
0
10
159.765697
20
-7.0672209
40
1
0
ENDSEC
0
EOF