0
SECTION
2
HEADER
9
$INSUNITS
70
4
0
ENDSEC
0
SECTION
2
TABLES
0
TABLE
2
LTYPE
0
LTYPE
72
65
70
64
2
CONTINUOUS
3
______
73
0
40
0
0
ENDTAB
0
TABLE
2
LAYER
0
ENDTAB
0
ENDSEC
0
SECTION
2
ENTITIES
0
LINE
8
0
10
-13.0034875
20
-10.399967
11
23.2452529
21
-16.7915979
0
LINE
8
0
10
-14.2202269
20
-8.6622831
11
-3.8013362
21
50.4261821
0
ARC
8
0
10
-12.7430152
20
-8.9227553
40
1.5
50
170
51
260
0
LINE
8
0
10
-2.0636523
20
51.6429215
11
37.8403351
21
44.6067719
0
ARC
8
0
10
-2.3241245
20
50.1657098
40
1.5
50
80
51
170
0
LINE
8
0
10
23.2452529
20
-16.7915979
11
73.0291238
21
-29.2041111
0
LINE
8
0
10
42.1733318
20
55.7851241
11
58.1832113
21
51.7934129
0
ARC
8
0
10
41.810449
20
54.3296805
40
1.5
50
76
51
166
0
LINE
8
0
10
40.3550054
20
54.6925634
11
37.8403351
21
44.6067719
0
LINE
8
0
10
83.4109001
20
45.5034433
11
84.2576268
21
48.8994787
0
ARC
8
0
10
82.8021832
20
49.2623615
40
1.5
50
346
51
76
0
LINE
8
0
10
59.3928208
20
56.6448916
11
83.1650661
21
50.7178051
0
LINE
8
0
10
58.1832113
20
51.7934129
11
59.3928208
21
56.6448916
0
LINE
8
0
10
69.5212563
20
-43.2733991
11
73.0291238
21
-29.2041111
0
LINE
8
0
10
70.613817
20
-45.0917255
11
73.0240848
21
-45.6926728
0
ARC
8
0
10
70.9766999
20
-43.6362819
40
1.5
50
166
51
256
0
LINE
8
0
10
134.4229033
20
-64.9057393
11
150.7993154
21
-45.3890913
0
LINE
8
0
10
134.4229033
20
-64.9057393
11
134.3379143
21
-64.834425
0
LINE
8
0
10
73.0240848
20
-45.6926728
11
104.297407
21
-65.2344134
0
LINE
8
0
10
104.297407
20
-65.2344134
11
121.7289445
21
-79.8612101
0
LINE
8
0
10
121.7289445
20
-79.8612101
11
134.3379143
21
-64.834425
0
LINE
8
0
10
243.4154195
20
51.7934129
11
259.425299
21
55.7851241
0
LINE
8
0
10
218.1877307
20
45.5034433
11
150.7993154
21
28.7016235
0
LINE
8
0
10
150.7993154
20
28.7016235
11
83.4109001
21
45.5034433
0
LINE
8
0
10
278.3533779
20
-16.7915979
11
314.6021183
21
-10.399967
0
ARC
8
0
10
314.341646
20
-8.9227553
40
1.5
50
280
51
10
0
LINE
8
0
10
305.399967
20
50.4261821
11
315.8188577
21
-8.6622831
0
ARC
8
0
10
303.9227553
20
50.1657098
40
1.5
50
10
51
100
0
LINE
8
0
10
303.6622831
20
51.6429215
11
292.8293978
21
49.7327915
0
LINE
8
0
10
292.8293978
20
49.7327915
11
291.3521863
21
49.4723192
0
LINE
8
0
10
263.7582957
20
44.6067719
11
291.3521863
21
49.4723192
0
LINE
8
0
10
228.569507
20
-29.2041111
11
278.3533779
21
-16.7915979
0
LINE
8
0
10
263.7582957
20
44.6067719
11
261.2436254
21
54.6925634
0
ARC
8
0
10
259.7881818
20
54.3296805
40
1.5
50
14
51
104
0
LINE
8
0
10
218.4335647
20
50.7178051
11
242.20581
21
56.6448916
0
ARC
8
0
10
218.7964476
20
49.2623615
40
1.5
50
104
51
194
0
LINE
8
0
10
217.341004
20
48.8994787
11
218.1877307
21
45.5034433
0
LINE
8
0
10
242.20581
20
56.6448916
11
243.4154195
21
51.7934129
0
LINE
8
0
10
228.569507
20
-29.2041111
11
232.0773745
21
-43.2733991
0
LINE
8
0
10
228.574546
20
-45.6926728
11
230.9848138
21
-45.0917255
0
ARC
8
0
10
230.6219309
20
-43.6362819
40
1.5
50
284
51
14
0
LINE
8
0
10
167.2607165
20
-64.834425
11
167.1757275
21
-64.9057393
0
LINE
8
0
10
150.7993154
20
-45.3890913
11
167.1757275
21
-64.9057393
0
LINE
8
0
10
197.3012238
20
-65.2344134
11
228.574546
21
-45.6926728
0
LINE
8
0
10
179.8696863
20
-79.8612101
11
197.3012238
21
-65.2344134
0
LINE
8
0
10
167.2607165
20
-64.834425
11
179.8696863
21
-79.8612101
0
CIRCLE
8
0
10
13.8122429
20
26.5041873
40
1
0
CIRCLE
8
0
10
287.7863879
20
26.5041873
40
1
0
CIRCLE
8
0
10
10.5129275
20
7.79284
40
1
0
CIRCLE
8
0
10
291.0857033
20
7.79284
40
1
0
CIRCLE
8
0
10
56.7421124
20
29.4792194
40
1
0
CIRCLE
8
0
10
244.8565184
20
29.4792194
40
1
0
CIRCLE
8
0
10
52.1455964
20
11.0436006
40
1
0
CIRCLE
8
0
10
249.4530344
20
11.0436006
40
1
0
CIRCLE
8
0
10
93.3714282
20
19.3158916
40
1
0
CIRCLE
8
0
10
208.2272026
20
19.3158916
40
1
0
CIRCLE
8
0
10
88.7749122
20
0.8802728
40
1
0
CIRCLE
8
0
10
212.8237186
20
0.8802728
40
1
0
CIRCLE
8
0
10
115.9511732
20
-46.5745699
40
1
0
CIRCLE
8
0
10
185.6474576
20
-46.5745699
40
1
0
ENDSEC
0
EOF