0
SECTION
2
HEADER
9
$INSUNITS
70
4
0
ENDSEC
0
SECTION
2
TABLES
0
TABLE
2
LTYPE
0
LTYPE
72
65
70
64
2
CONTINUOUS
3
______
73
0
40
0
0
ENDTAB
0
TABLE
2
LAYER
0
ENDTAB
0
ENDSEC
0
SECTION
2
ENTITIES
0
LINE
8
0
10
-14.7402865
20
-18.5734745
11
26.7393757
21
-15.6729339
0
LINE
8
0
10
-18.5734745
20
14.7402865
11
-18.5385962
21
14.2415045
0
LINE
8
0
10
-18.5385962
20
14.2415045
11
-16.3412673
21
-17.1817631
0
ARC
8
0
10
-14.8449212
20
-17.0771284
40
1.5
50
184
51
274
0
LINE
8
0
10
-18.9920133
20
20.7256708
11
-18.5734745
21
14.7402865
0
LINE
8
0
10
-18.9920133
20
20.7256708
11
-19.0268915
21
21.2244528
0
LINE
8
0
10
-21.2242205
20
52.6477204
11
-19.0268915
21
21.2244528
0
LINE
8
0
10
-19.8325091
20
54.2487012
11
19.5295953
21
57.0011677
0
ARC
8
0
10
-19.7278744
20
52.7523551
40
1.5
50
94
51
184
0
LINE
8
0
10
26.8440105
20
-15.66928
11
71.4249606
21
-15.6692801
0
LINE
8
0
10
22.4249606
20
69.3307199
11
37.4249606
21
69.3307199
0
ARC
8
0
10
22.4249606
20
67.8307199
40
1.5
50
90
51
180
0
LINE
8
0
10
20.9249606
20
67.8307199
11
20.9249606
21
58.4975138
0
LINE
8
0
10
74.9249606
20
69.83072
11
74.9249606
21
72.8307199
0
ARC
8
0
10
73.4249606
20
72.8307199
40
1.5
50
0
51
90
0
LINE
8
0
10
40.4249606
20
74.3307199
11
73.4249606
21
74.3307199
0
LINE
8
0
10
38.9249606
20
70.8307199
11
38.9249606
21
72.8307199
0
LINE
8
0
10
76.4249606
20
68.33072
11
126.4249606
21
68.33072
0
LINE
8
0
10
72.9249606
20
-30.1692801
11
72.9249606
21
-17.1692801
0
LINE
8
0
10
74.4249606
20
-31.6692801
11
80.8795162
21
-31.6692801
0
ARC
8
0
10
74.4249606
20
-30.1692801
40
1.5
50
180
51
270
0
LINE
8
0
10
127.196275
20
12.1557535
11
162.4290015
21
-5.0283955
0
LINE
8
0
10
148.4342025
20
-37.1437438
11
163.1196359
21
-7.0341433
0
LINE
8
0
10
148.4342025
20
-37.1437438
11
148.3344856
21
-37.0951086
0
LINE
8
0
10
81.3430417
20
-31.7426953
11
115.0035978
21
-42.6796729
0
LINE
8
0
10
115.1976289
20
-42.7580666
11
138.3871733
21
-54.0683631
0
LINE
8
0
10
140.3929211
20
-53.3777287
11
148.3344856
21
-37.0951086
0
ARC
8
0
10
26.8440105
20
-17.16928
40
1.5
50
90
51
94.0000013
0
ARC
8
0
10
71.4249606
20
-17.1692801
40
1.5
50
0
51
90
0
ARC
8
0
10
80.8795162
20
-33.1692801
40
1.5
50
71.9999994
51
90
0
ARC
8
0
10
114.5400722
20
-44.1062577
40
1.5
50
64.0000012
51
71.9999994
0
ARC
8
0
10
139.04473
20
-52.720172
40
1.5
50
244.0000012
51
334.0000012
0
ARC
8
0
10
161.7714448
20
-6.3765866
40
1.5
50
334.0000012
51
64.0000012
0
ARC
8
0
10
76.4249606
20
69.83072
40
1.5
50
180
51
270
0
ARC
8
0
10
40.4249606
20
72.8307199
40
1.5
50
90
51
180
0
ARC
8
0
10
37.4249606
20
70.8307199
40
1.5
50
270
51
0
0
ARC
8
0
10
19.4249606
20
58.4975138
40
1.5
50
274.0000013
51
0
0
LINE
8
0
10
126.4249606
20
68.33072
11
126.4249606
21
14.33072
0
ARC
8
0
10
127.9249606
20
14.33072
40
1.5
50
180
51
191.1408262
0
ARC
8
0
10
127.8538317
20
13.5039445
40
1.5
50
159.0248824
51
244
0
LINE
8
0
10
-6.494653
20
-7.4712437
11
7.4712437
21
-6.494653
0
LINE
8
0
10
7.4712437
20
-6.494653
11
6.494653
21
7.4712437
0
LINE
8
0
10
6.494653
20
7.4712437
11
-7.4712437
21
6.494653
0
LINE
8
0
10
-7.4712437
20
6.494653
11
-6.494653
21
-7.4712437
0
LINE
8
0
10
-7.820026
20
11.4824733
11
6.1458707
21
12.459064
0
LINE
8
0
10
6.1458707
20
12.459064
11
5.16928
21
26.4249607
0
LINE
8
0
10
5.16928
20
26.4249607
11
-8.7966167
21
25.44837
0
LINE
8
0
10
-8.7966167
20
25.44837
11
-7.820026
21
11.4824733
0
LINE
8
0
10
-9.145399
20
30.4361902
11
4.8204977
21
31.4127809
0
LINE
8
0
10
4.8204977
20
31.4127809
11
3.843907
21
45.3786776
0
LINE
8
0
10
3.843907
20
45.3786776
11
-10.1219897
21
44.4020869
0
LINE
8
0
10
-10.1219897
20
44.4020869
11
-9.145399
21
30.4361902
0
LINE
8
0
10
12.459064
20
-6.1458707
11
26.4249607
21
-5.16928
0
LINE
8
0
10
26.4249607
20
-5.16928
11
25.44837
21
8.7966167
0
LINE
8
0
10
25.44837
20
8.7966167
11
11.4824733
21
7.820026
0
LINE
8
0
10
11.4824733
20
7.820026
11
12.459064
21
-6.1458707
0
LINE
8
0
10
11.133691
20
12.8078463
11
25.0995877
21
13.784437
0
LINE
8
0
10
25.0995877
20
13.784437
11
24.122997
21
27.7503337
0
LINE
8
0
10
24.122997
20
27.7503337
11
10.1571003
21
26.773743
0
LINE
8
0
10
10.1571003
20
26.773743
11
11.133691
21
12.8078463
0
LINE
8
0
10
9.8083179
20
31.7615632
11
23.7742146
21
32.7381539
0
LINE
8
0
10
23.7742146
20
32.7381539
11
22.7976239
21
46.7040506
0
LINE
8
0
10
22.7976239
20
46.7040506
11
8.8317272
21
45.7274599
0
LINE
8
0
10
8.8317272
20
45.7274599
11
9.8083179
21
31.7615632
0
LINE
8
0
10
31.4249607
20
6.83072
11
45.4249607
21
6.83072
0
LINE
8
0
10
45.4249607
20
6.83072
11
45.4249607
21
20.83072
0
LINE
8
0
10
45.4249607
20
20.83072
11
31.4249607
21
20.83072
0
LINE
8
0
10
31.4249607
20
20.83072
11
31.4249607
21
6.83072
0
LINE
8
0
10
31.4249606
20
25.8307199
11
45.4249606
21
25.8307199
0
LINE
8
0
10
45.4249606
20
25.8307199
11
45.4249606
21
39.8307199
0
LINE
8
0
10
45.4249606
20
39.8307199
11
31.4249606
21
39.8307199
0
LINE
8
0
10
31.4249606
20
39.8307199
11
31.4249606
21
25.8307199
0
LINE
8
0
10
31.4249606
20
44.8307199
11
45.4249606
21
44.8307199
0
LINE
8
0
10
45.4249606
20
44.8307199
11
45.4249606
21
58.8307199
0
LINE
8
0
10
45.4249606
20
58.8307199
11
31.4249606
21
58.8307199
0
LINE
8
0
10
31.4249606
20
58.8307199
11
31.4249606
21
44.8307199
0
LINE
8
0
10
50.4249607
20
11.83072
11
64.4249607
21
11.83072
0
LINE
8
0
10
64.4249607
20
11.83072
11
64.4249607
21
25.83072
0
LINE
8
0
10
64.4249607
20
25.83072
11
50.4249607
21
25.83072
0
LINE
8
0
10
50.4249607
20
25.83072
11
50.4249607
21
11.83072
0
LINE
8
0
10
50.4249607
20
30.8307199
11
64.4249607
21
30.8307199
0
LINE
8
0
10
64.4249607
20
30.8307199
11
64.4249607
21
44.8307199
0
LINE
8
0
10
64.4249607
20
44.8307199
11
50.4249607
21
44.8307199
0
LINE
8
0
10
50.4249607
20
44.8307199
11
50.4249607
21
30.8307199
0
LINE
8
0
10
50.4249606
20
49.8307199
11
64.4249606
21
49.8307199
0
LINE
8
0
10
64.4249606
20
49.8307199
11
64.4249606
21
63.8307199
0
LINE
8
0
10
64.4249606
20
63.8307199
11
50.4249606
21
63.8307199
0
LINE
8
0
10
50.4249606
20
63.8307199
11
50.4249606
21
49.8307199
0
LINE
8
0
10
69.4249606
20
5.8307199
11
83.4249606
21
5.8307199
0
LINE
8
0
10
83.4249606
20
5.8307199
11
83.4249606
21
19.8307199
0
LINE
8
0
10
83.4249606
20
19.8307199
11
69.4249606
21
19.8307199
0
LINE
8
0
10
69.4249606
20
19.8307199
11
69.4249606
21
5.8307199
0
LINE
8
0
10
69.4249607
20
24.83072
11
83.4249607
21
24.83072
0
LINE
8
0
10
83.4249607
20
24.83072
11
83.4249607
21
38.83072
0
LINE
8
0
10
83.4249607
20
38.83072
11
69.4249607
21
38.83072
0
LINE
8
0
10
69.4249607
20
38.83072
11
69.4249607
21
24.83072
0
LINE
8
0
10
69.4249607
20
43.83072
11
83.4249607
21
43.83072
0
LINE
8
0
10
83.4249607
20
43.83072
11
83.4249607
21
57.83072
0
LINE
8
0
10
83.4249607
20
57.83072
11
69.4249607
21
57.83072
0
LINE
8
0
10
69.4249607
20
57.83072
11
69.4249607
21
43.83072
0
LINE
8
0
10
88.4249606
20
3.8307199
11
102.4249606
21
3.8307199
0
LINE
8
0
10
102.4249606
20
3.8307199
11
102.4249606
21
17.8307199
0
LINE
8
0
10
102.4249606
20
17.8307199
11
88.4249606
21
17.8307199
0
LINE
8
0
10
88.4249606
20
17.8307199
11
88.4249606
21
3.8307199
0
LINE
8
0
10
88.4249606
20
22.83072
11
102.4249606
21
22.83072
0
LINE
8
0
10
102.4249606
20
22.83072
11
102.4249606
21
36.83072
0
LINE
8
0
10
102.4249606
20
36.83072
11
88.4249606
21
36.83072
0
LINE
8
0
10
88.4249606
20
36.83072
11
88.4249606
21
22.83072
0
LINE
8
0
10
88.4249607
20
41.83072
11
102.4249607
21
41.83072
0
LINE
8
0
10
102.4249607
20
41.83072
11
102.4249607
21
55.83072
0
LINE
8
0
10
102.4249607
20
55.83072
11
88.4249607
21
55.83072
0
LINE
8
0
10
88.4249607
20
55.83072
11
88.4249607
21
41.83072
0
LINE
8
0
10
107.4249607
20
18.8307199
11
121.4249607
21
18.8307199
0
LINE
8
0
10
121.4249607
20
18.8307199
11
121.4249607
21
32.8307199
0
LINE
8
0
10
121.4249607
20
32.8307199
11
107.4249607
21
32.8307199
0
LINE
8
0
10
107.4249607
20
32.8307199
11
107.4249607
21
18.8307199
0
LINE
8
0
10
107.4249606
20
37.83072
11
121.4249606
21
37.83072
0
LINE
8
0
10
121.4249606
20
37.83072
11
121.4249606
21
51.83072
0
LINE
8
0
10
121.4249606
20
51.83072
11
107.4249606
21
51.83072
0
LINE
8
0
10
107.4249606
20
51.83072
11
107.4249606
21
37.83072
0
LINE
8
0
10
83.4249606
20
-21.1692801
11
97.4249606
21
-21.1692801
0
LINE
8
0
10
97.4249606
20
-21.1692801
11
97.4249606
21
-7.1692801
0
LINE
8
0
10
97.4249606
20
-7.1692801
11
83.4249606
21
-7.1692801
0
LINE
8
0
10
83.4249606
20
-7.1692801
11
83.4249606
21
-21.1692801
0
LINE
8
0
10
108.854446
20
-9.6635568
11
122.1692373
21
-13.9897947
0
LINE
8
0
10
122.1692373
20
-13.9897947
11
126.4954752
21
-0.6750034
0
LINE
8
0
10
126.4954752
20
-0.6750034
11
113.1806839
21
3.6512345
0
LINE
8
0
10
113.1806839
20
3.6512345
11
108.854446
21
-9.6635568
0
LINE
8
0
10
130.1178513
20
-16.5279421
11
142.700968
21
-22.6651382
0
LINE
8
0
10
142.700968
20
-22.6651382
11
148.8381641
21
-10.0820215
0
LINE
8
0
10
148.8381641
20
-10.0820215
11
136.2550474
21
-3.9448254
0
LINE
8
0
10
136.2550474
20
-3.9448254
11
130.1178513
21
-16.5279421
0
LINE
8
0
10
102.9831231
20
-27.7336307
11
116.2979144
21
-32.0598686
0
LINE
8
0
10
116.2979144
20
-32.0598686
11
120.6241523
21
-18.7450773
0
LINE
8
0
10
120.6241523
20
-18.7450773
11
107.309361
21
-14.4188394
0
LINE
8
0
10
107.309361
20
-14.4188394
11
102.9831231
21
-27.7336307
0
LINE
8
0
10
121.4190132
20
-34.1101181
11
134.0021299
21
-40.2473142
0
LINE
8
0
10
134.0021299
20
-40.2473142
11
140.139326
21
-27.6641975
0
LINE
8
0
10
140.139326
20
-27.6641975
11
127.5562093
21
-21.5270014
0
LINE
8
0
10
127.5562093
20
-21.5270014
11
121.4190132
21
-34.1101181
0
CIRCLE
8
0
10
-18.1268936
20
51.3606438
40
1
0
CIRCLE
8
0
10
-13.4532099
20
-15.4761476
40
1
0
CIRCLE
8
0
10
23.9249606
20
66.3307199
40
1
0
CIRCLE
8
0
10
34.4996211
20
-13.1254009
40
1
0
CIRCLE
8
0
10
104.9249607
20
65.83072
40
1
0
CIRCLE
8
0
10
75.9249606
20
-28.6692801
40
1
0
CIRCLE
8
0
10
138.3540957
20
-50.7144242
40
1
0
CIRCLE
8
0
10
159.765697
20
-7.0672209
40
1
0
CIRCLE
8
0
10
6.990017
20
29.0583837
40
1
0
CIRCLE
8
0
10
8.31539
20
10.1046668
40
1
0
CIRCLE
8
0
10
47.9249606
20
42.3307199
40
1
0
CIRCLE
8
0
10
47.9249606
20
23.3307199
40
1
0
CIRCLE
8
0
10
85.9249607
20
41.33072
40
1
0
CIRCLE
8
0
10
85.9249607
20
22.33072
40
1
0
CIRCLE
8
0
10
123.7743361
20
-17.1399785
40
1
0
ENDSEC
0
EOF