M48
; DRILL file {KiCad 5.1.12-1.fc35} date Sun 13 Mar 2022 06:27:37 PM PDT
; FORMAT={-:-/ absolute / inch / decimal}
; #@! TF.CreationDate,2022-03-13T18:27:37-07:00
; #@! TF.GenerationSoftware,Kicad,Pcbnew,5.1.12-1.fc35
FMAT,2
INCH
T1C0.0157
T2C0.0354
T3C0.0390
T4C0.0430
T5C0.0433
T6C0.0500
T7C0.0590
T8C0.0591
T9C0.0670
T10C0.1350
T11C0.1570
%
G90
G05
T1
X2.687Y0.0492
X3.7205Y-0.0689
X4.454Y0.3399
X4.5239Y0.3507
X5.1476Y2.1358
X5.6496Y1.063
X5.7549Y0.9941
T3
X-0.2279Y1.1089
X-0.1757Y0.3626
X-0.1235Y-0.3836
X0.0714Y1.1298
X0.1235Y0.3836
X0.1757Y-0.3626
X0.5183Y1.161
X0.5705Y0.4148
X0.6227Y-0.3314
X0.8176Y1.182
X0.8698Y0.4357
X0.9219Y-0.3105
X1.3628Y1.6666
X1.3628Y0.9185
X1.3628Y0.1705
X1.6628Y1.6666
X1.6628Y0.9185
X1.6628Y0.1705
X2.1108Y1.8634
X2.1108Y1.1154
X2.1108Y0.3674
X2.4108Y1.8634
X2.4108Y1.1154
X2.4108Y0.3674
X2.8589Y1.6272
X2.8589Y0.8792
X2.8589Y0.1311
X3.1589Y1.6272
X3.1589Y0.8792
X3.1589Y0.1311
X3.41Y-0.9319
X3.6069Y1.5485
X3.6069Y0.8004
X3.6069Y0.0524
X3.71Y-0.9319
X3.9069Y1.5485
X3.9069Y0.8004
X3.9069Y0.0524
X4.1435Y-1.2243
X4.3549Y1.391
X4.3549Y0.6429
X4.3746Y-0.5129
X4.4288Y-1.317
X4.6549Y1.391
X4.6549Y0.6429
X4.66Y-0.6056
X4.85Y-1.4864
X5.1196Y-1.6179
X5.1925Y-0.7942
X5.4621Y-0.9257
T4
X4.9726Y2.2658
X4.9726Y2.1658
X4.9726Y2.0658
X4.9726Y1.9658
X4.9726Y1.8658
X4.9726Y1.7658
X4.9726Y1.6658
X4.9726Y1.5658
X4.9726Y1.4658
X4.9726Y1.3658
X4.9726Y1.2658
X4.9726Y1.1658
X5.0711Y2.315
X5.0711Y2.215
X5.0711Y2.115
X5.0711Y2.015
X5.0711Y1.915
X5.0711Y1.815
X5.0711Y1.715
X5.0711Y1.615
X5.0711Y1.515
X5.0711Y1.415
X5.0711Y1.315
X5.0711Y1.215
X5.5726Y2.2658
X5.5726Y2.1658
X5.5726Y2.0658
X5.5726Y1.9658
X5.5726Y1.8658
X5.5726Y1.7658
X5.5726Y1.6658
X5.5726Y1.5658
X5.5726Y1.4658
X5.5726Y1.3658
X5.5726Y1.2658
X5.5726Y1.1658
X5.6711Y2.315
X5.6711Y2.215
X5.6711Y2.115
X5.6711Y2.015
X5.6711Y1.915
X5.6711Y1.815
X5.6711Y1.715
X5.6711Y1.615
X5.6711Y1.515
X5.6711Y1.415
X5.6711Y1.315
X5.6711Y1.215
T5
X5.4134Y0.5315
X5.4134Y0.3543
X5.6693Y0.5315
X5.6693Y0.3543
T6
X-0.3112Y1.6279
X-0.259Y0.8817
X-0.2068Y0.1355
X-0.1206Y1.7241
X-0.1206Y1.7241
X-0.0684Y0.9779
X-0.0684Y0.9779
X-0.0162Y0.2317
X-0.0162Y0.2317
X0.0816Y1.6554
X0.1338Y0.9092
X0.1859Y0.163
X0.435Y1.6801
X0.4872Y0.9339
X0.5394Y0.1877
X0.6256Y1.7763
X0.6256Y1.7763
X0.6778Y1.0301
X0.6778Y1.0301
X0.73Y0.2839
X0.73Y0.2839
X0.8278Y1.7076
X0.88Y0.9614
X0.9321Y0.2152
X1.3159Y2.1902
X1.3159Y1.4422
X1.3159Y0.6941
X1.5128Y2.2729
X1.5128Y2.2729
X1.5128Y1.5248
X1.5128Y1.5248
X1.5128Y0.7768
X1.5128Y0.7768
X1.7096Y2.1902
X1.7096Y1.4422
X1.7096Y0.6941
X2.064Y2.387
X2.064Y1.639
X2.064Y0.891
X2.2608Y2.4697
X2.2608Y2.4697
X2.2608Y1.7217
X2.2608Y1.7217
X2.2608Y0.9737
X2.2608Y0.9737
X2.4577Y2.387
X2.4577Y1.639
X2.4577Y0.891
X2.812Y2.1508
X2.812Y1.4028
X2.812Y0.6548
X3.0089Y2.2335
X3.0089Y2.2335
X3.0089Y1.4855
X3.0089Y1.4855
X3.0089Y0.7374
X3.0089Y0.7374
X3.2057Y2.1508
X3.2057Y1.4028
X3.2057Y0.6548
X3.3632Y-0.4082
X3.56Y2.0721
X3.56Y1.324
X3.56Y0.576
X3.56Y-0.3256
X3.56Y-0.3256
X3.7569Y2.1548
X3.7569Y2.1548
X3.7569Y1.4067
X3.7569Y1.4067
X3.7569Y0.6587
X3.7569Y0.6587
X3.7569Y-0.4082
X3.9537Y2.0721
X3.9537Y1.324
X3.9537Y0.576
X4.2607Y-0.7118
X4.3081Y1.9146
X4.3081Y1.1666
X4.4735Y-0.694
X4.4735Y-0.694
X4.4919Y-0.0004
X4.5049Y1.9973
X4.5049Y1.9973
X4.5049Y1.2492
X4.5049Y1.2492
X4.6352Y-0.8335
X4.7018Y1.9146
X4.7018Y1.1666
X4.7047Y0.0174
X4.7047Y0.0174
X4.8663Y-0.1221
X5.0374Y-0.9953
X5.2506Y-1.0073
X5.2506Y-1.0073
X5.3799Y-0.3031
X5.3913Y-1.1679
X5.5931Y-0.315
X5.5931Y-0.315
X5.7338Y-0.4756
T7
X-0.261Y1.5817
X-0.2181Y1.685
X-0.2088Y0.8355
X-0.1659Y0.9387
X-0.1566Y0.0893
X-0.1137Y0.1925
X-0.0186Y1.6989
X0.0336Y0.9527
X0.0383Y1.6026
X0.0858Y0.2065
X0.0905Y0.8564
X0.1427Y0.1102
X0.4852Y1.6339
X0.5281Y1.7371
X0.5374Y0.8877
X0.5803Y0.9909
X0.5896Y0.1415
X0.6325Y0.2447
X0.7277Y1.7511
X0.7798Y1.0049
X0.7845Y1.6548
X0.832Y0.2587
X0.8367Y0.9086
X0.8889Y0.1624
X1.3628Y2.1406
X1.3628Y1.3925
X1.3628Y0.6445
X1.4128Y2.2406
X1.4128Y1.4925
X1.4128Y0.7445
X1.6128Y2.2406
X1.6128Y1.4925
X1.6128Y0.7445
X1.6628Y2.1406
X1.6628Y1.3925
X1.6628Y0.6445
X2.1108Y2.3374
X2.1108Y1.5894
X2.1108Y0.8414
X2.1608Y2.4374
X2.1608Y1.6894
X2.1608Y0.9414
X2.3608Y2.4374
X2.3608Y1.6894
X2.3608Y0.9414
X2.4108Y2.3374
X2.4108Y1.5894
X2.4108Y0.8414
X2.8589Y2.1012
X2.8589Y1.3532
X2.8589Y0.6051
X2.9089Y2.2012
X2.9089Y1.4532
X2.9089Y0.7051
X3.1089Y2.2012
X3.1089Y1.4532
X3.1089Y0.7051
X3.1589Y2.1012
X3.1589Y1.3532
X3.1589Y0.6051
X3.41Y-0.4578
X3.46Y-0.3578
X3.6069Y2.0225
X3.6069Y1.2744
X3.6069Y0.5264
X3.6569Y2.1225
X3.6569Y1.3744
X3.6569Y0.6264
X3.66Y-0.3578
X3.71Y-0.4578
X3.8569Y2.1225
X3.8569Y1.3744
X3.8569Y0.6264
X3.9069Y2.0225
X3.9069Y1.2744
X3.9069Y0.5264
X4.29Y-0.7735
X4.3549Y1.865
X4.3549Y1.117
X4.3684Y-0.6938
X4.4049Y1.965
X4.4049Y1.217
X4.5211Y-0.0621
X4.5586Y-0.7556
X4.5753Y-0.8662
X4.5996Y0.0176
X4.6049Y1.965
X4.6049Y1.217
X4.6549Y1.865
X4.6549Y1.117
X4.7898Y-0.0442
X4.8064Y-0.1548
X5.0578Y-1.0604
X5.1466Y-0.9924
X5.3263Y-1.0801
X5.3274Y-1.1919
X5.4003Y-0.3682
X5.4891Y-0.3002
X5.6688Y-0.3879
X5.6699Y-0.4997
T8
X5.4655Y0.8319
X5.7411Y0.8319
T9
X-0.3204Y1.4773
X-0.3039Y1.4785
X-0.2682Y0.7311
X-0.2517Y0.7323
X-0.216Y-0.0151
X-0.1995Y-0.014
X0.0952Y1.5064
X0.1116Y1.5075
X0.1473Y0.7602
X0.1638Y0.7613
X0.1995Y0.014
X0.216Y0.0151
X0.4258Y1.5295
X0.4423Y1.5306
X0.478Y0.7833
X0.4945Y0.7844
X0.5302Y0.0371
X0.5467Y0.0382
X0.8414Y1.5585
X0.8579Y1.5597
X0.8935Y0.8123
X0.91Y0.8135
X0.9457Y0.0661
X0.9622Y0.0673
X1.2963Y2.0406
X1.2963Y1.2925
X1.2963Y0.5445
X1.3128Y2.0406
X1.3128Y1.2925
X1.3128Y0.5445
X1.7128Y2.0406
X1.7128Y1.2925
X1.7128Y0.5445
X1.7293Y2.0406
X1.7293Y1.2925
X1.7293Y0.5445
X2.0443Y2.2374
X2.0443Y1.4894
X2.0443Y0.7414
X2.0608Y2.2374
X2.0608Y1.4894
X2.0608Y0.7414
X2.4608Y2.2374
X2.4608Y1.4894
X2.4608Y0.7414
X2.4774Y2.2374
X2.4774Y1.4894
X2.4774Y0.7414
X2.7923Y2.0012
X2.7923Y1.2532
X2.7923Y0.5051
X2.8089Y2.0012
X2.8089Y1.2532
X2.8089Y0.5051
X3.2089Y2.0012
X3.2089Y1.2532
X3.2089Y0.5051
X3.2254Y2.0012
X3.2254Y1.2532
X3.2254Y0.5051
X3.3435Y-0.5578
X3.36Y-0.5578
X3.5404Y1.9225
X3.5404Y1.1744
X3.5404Y0.4264
X3.5569Y1.9225
X3.5569Y1.1744
X3.5569Y0.4264
X3.76Y-0.5578
X3.7766Y-0.5578
X3.9569Y1.9225
X3.9569Y1.1744
X3.9569Y0.4264
X3.9734Y1.9225
X3.9734Y1.1744
X3.9734Y0.4264
X4.1958Y-0.848
X4.2115Y-0.8531
X4.2884Y1.765
X4.2884Y1.017
X4.3049Y1.765
X4.3049Y1.017
X4.4269Y-0.1366
X4.4427Y-0.1417
X4.5919Y-0.9767
X4.6077Y-0.9818
X4.7049Y1.765
X4.7049Y1.017
X4.7215Y1.765
X4.7215Y1.017
X4.8231Y-0.2653
X4.8388Y-0.2704
X4.9542Y-1.1211
X4.969Y-1.1284
X5.2966Y-0.4289
X5.3115Y-0.4361
X5.3285Y-1.3037
X5.3434Y-1.311
X5.671Y-0.6115
X5.6859Y-0.6187
T10
X-0.1044Y1.4924
X-0.0522Y0.7462
X0.0Y0.0
X0.6418Y1.5446
X0.694Y0.7984
X0.7462Y0.0522
X1.5128Y2.0406
X1.5128Y1.2925
X1.5128Y0.5445
X2.2608Y2.2374
X2.2608Y1.4894
X2.2608Y0.7414
X3.0089Y2.0012
X3.0089Y1.2532
X3.0089Y0.5051
X3.56Y-0.5578
X3.7569Y1.9225
X3.7569Y1.1744
X3.7569Y0.4264
X4.4017Y-0.9149
X4.5049Y1.765
X4.5049Y1.017
X4.6329Y-0.2035
X5.1488Y-1.216
X5.4913Y-0.5238
T11
X-0.1044Y1.4924
X-0.0522Y0.7462
X0.0Y0.0
X0.6418Y1.5446
X0.694Y0.7984
X0.7462Y0.0522
X1.5128Y2.0406
X1.5128Y1.2925
X1.5128Y0.5445
X2.2608Y2.2374
X2.2608Y1.4894
X2.2608Y0.7414
X3.0089Y2.0012
X3.0089Y1.2532
X3.0089Y0.5051
X3.56Y-0.5578
X3.7569Y1.9225
X3.7569Y1.1744
X3.7569Y0.4264
X4.4017Y-0.9149
X4.5049Y1.765
X4.5049Y1.017
X4.6329Y-0.2035
X5.1488Y-1.216
X5.4913Y-0.5238
T2
G00X5.3711Y0.9225
M15
G01X5.3474Y0.9225
M16
G05
G00X5.3711Y0.7414
M15
G01X5.3474Y0.7414
M16
G05
G00X5.4144Y0.9225
M15
G01X5.3907Y0.9225
M16
G05
G00X5.4144Y0.7414
M15
G01X5.3907Y0.7414
M16
G05
G00X5.5718Y0.9225
M15
G01X5.5482Y0.9225
M16
G05
G00X5.5718Y0.7414
M15
G01X5.5482Y0.7414
M16
G05
G00X5.69Y0.9225
M15
G01X5.6663Y0.9225
M16
G05
G00X5.69Y0.7414
M15
G01X5.6663Y0.7414
M16
G05
T0
M30
