%TF.GenerationSoftware,KiCad,Pcbnew,5.1.12-1.fc35*%
%TF.CreationDate,2022-03-13T18:33:40-07:00*%
%TF.ProjectId,jackalope_split,6a61636b-616c-46f7-9065-5f73706c6974,v1.0.0*%
%TF.SameCoordinates,Original*%
%TF.FileFunction,Profile,NP*%
%FSLAX46Y46*%
G04 Gerber Fmt 4.6, Leading zero omitted, Abs format (unit mm)*
G04 Created by KiCad (PCBNEW 5.1.12-1.fc35) date 2022-03-13 18:33:40*
%MOMM*%
%LPD*%
G01*
G04 APERTURE LIST*
%TA.AperFunction,Profile*%
%ADD10C,0.150000*%
%TD*%
G04 APERTURE END LIST*
D10*
X-9869297Y-12970042D02*
X26556042Y-10422934D01*
X-15620788Y47776731D02*
X-11470278Y-11578330D01*
X-9869297Y-12970043D02*
G75*
G02*
X-11470278Y-11578330I-104634J1496347D01*
G01*
X-14229076Y49377711D02*
X24779595Y52105463D01*
X-15620788Y47776731D02*
G75*
G02*
X-14229076Y49377711I1496346J104634D01*
G01*
X26660676Y-10419280D02*
X76674961Y-10419280D01*
X27674961Y64080720D02*
X42674961Y64080720D01*
X26174961Y62580720D02*
G75*
G02*
X27674961Y64080720I1500000J0D01*
G01*
X26174961Y62580720D02*
X26174961Y53601810D01*
X69674961Y64580720D02*
X69674961Y67580720D01*
X68174961Y69080720D02*
G75*
G02*
X69674961Y67580720I0J-1500000D01*
G01*
X45674961Y69080720D02*
X68174961Y69080720D01*
X44174961Y65580720D02*
X44174961Y67580720D01*
X71174961Y63080720D02*
X146174961Y63080720D01*
X147674961Y29830720D02*
X147674961Y61580720D01*
X147674961Y-2736225D02*
X147674961Y29830720D01*
X78174961Y-24919280D02*
X78174961Y-11919280D01*
X79674961Y-26419280D02*
X82118071Y-26419280D01*
X79674961Y-26419280D02*
G75*
G02*
X78174961Y-24919280I0J1500000D01*
G01*
X148517404Y-4084416D02*
X155408884Y-7445616D01*
X146016982Y-30123627D02*
X156099519Y-9451363D01*
X146016982Y-30123627D02*
X145917265Y-30074991D01*
X82101889Y-26469083D02*
X116975085Y-37800071D01*
X82101889Y-26469083D02*
X82118071Y-26419280D01*
X117169117Y-37878465D02*
X135969953Y-47048246D01*
X137975701Y-46357611D02*
X145917265Y-30074991D01*
X26556041Y-10422934D02*
G75*
G02*
X26660676Y-10419280I104635J-1496346D01*
G01*
X76674961Y-10419280D02*
G75*
G02*
X78174961Y-11919280I0J-1500000D01*
G01*
X116975086Y-37800071D02*
G75*
G02*
X117169117Y-37878465I-463526J-1426585D01*
G01*
X137975701Y-46357612D02*
G75*
G02*
X135969953Y-47048246I-1348191J657557D01*
G01*
X155408884Y-7445616D02*
G75*
G02*
X156099519Y-9451363I-657556J-1348191D01*
G01*
X148517404Y-4084416D02*
G75*
G02*
X147674961Y-2736225I657557J1348191D01*
G01*
X146174961Y63080720D02*
G75*
G02*
X147674961Y61580720I0J-1500000D01*
G01*
X71174961Y63080720D02*
G75*
G02*
X69674961Y64580720I0J1500000D01*
G01*
X44174961Y67580720D02*
G75*
G02*
X45674961Y69080720I1500000J0D01*
G01*
X44174961Y65580720D02*
G75*
G02*
X42674961Y64080720I-1500000J0D01*
G01*
X26174962Y53601809D02*
G75*
G02*
X24779595Y52105463I-1500001J1D01*
G01*
X9240017Y29058384D02*
G75*
G03*
X9240017Y29058384I-2250000J0D01*
G01*
X10565390Y10104667D02*
G75*
G03*
X10565390Y10104667I-2250000J0D01*
G01*
X50174961Y42330720D02*
G75*
G03*
X50174961Y42330720I-2250000J0D01*
G01*
X50174961Y23330720D02*
G75*
G03*
X50174961Y23330720I-2250000J0D01*
G01*
X88174961Y41330720D02*
G75*
G03*
X88174961Y41330720I-2250000J0D01*
G01*
X88174961Y22330720D02*
G75*
G03*
X88174961Y22330720I-2250000J0D01*
G01*
X126024336Y-17139978D02*
G75*
G03*
X126024336Y-17139978I-2250000J0D01*
G01*
M02*
