%TF.GenerationSoftware,KiCad,Pcbnew,5.1.12-1.fc35*%
%TF.CreationDate,2022-03-13T18:33:40-07:00*%
%TF.ProjectId,jackalope_split,6a61636b-616c-46f7-9065-5f73706c6974,v1.0.0*%
%TF.SameCoordinates,Original*%
%TF.FileFunction,Soldermask,Bot*%
%TF.FilePolarity,Negative*%
%FSLAX46Y46*%
G04 Gerber Fmt 4.6, Leading zero omitted, Abs format (unit mm)*
G04 Created by KiCad (PCBNEW 5.1.12-1.fc35) date 2022-03-13 18:33:40*
%MOMM*%
%LPD*%
G01*
G04 APERTURE LIST*
%ADD10C,2.100000*%
%ADD11C,4.087800*%
%ADD12C,1.801800*%
%ADD13C,2.386000*%
%ADD14C,3.529000*%
%ADD15C,2.132000*%
%ADD16C,2.005000*%
%ADD17C,1.852600*%
%ADD18C,1.600000*%
%ADD19O,2.300000X1.700000*%
G04 APERTURE END LIST*
D10*
%TO.C,RESET*%
X144000000Y13500000D03*
X144000000Y9000000D03*
X137500000Y13500000D03*
X137500000Y9000000D03*
%TD*%
D11*
%TO.C,S1*%
X0Y0D03*
D12*
X5067625Y354363D03*
X-5067625Y-354363D03*
D13*
X2179450Y5244807D03*
X-3977900Y2268041D03*
X-2888176Y4890444D03*
X3623538Y2799585D03*
%TD*%
D14*
%TO.C,S2*%
X0Y0D03*
D12*
X5486602Y383661D03*
X-5486602Y-383661D03*
D15*
X4722746Y4139526D03*
X-411563Y5885628D03*
X-5252895Y3441961D03*
X-411563Y5885628D03*
%TD*%
%TO.C,D1*%
G36*
G01*
X1851740Y-9995178D02*
X1768032Y-8798101D01*
G75*
G02*
X1814422Y-8744735I49878J3488D01*
G01*
X2712230Y-8681954D01*
G75*
G02*
X2765596Y-8728344I3488J-49878D01*
G01*
X2849304Y-9925421D01*
G75*
G02*
X2802914Y-9978787I-49878J-3488D01*
G01*
X1905106Y-10041568D01*
G75*
G02*
X1851740Y-9995178I-3488J49878D01*
G01*
G37*
G36*
G01*
X-1440222Y-10225374D02*
X-1523930Y-9028297D01*
G75*
G02*
X-1477540Y-8974931I49878J3488D01*
G01*
X-579732Y-8912150D01*
G75*
G02*
X-526366Y-8958540I3488J-49878D01*
G01*
X-442658Y-10155617D01*
G75*
G02*
X-489048Y-10208983I-49878J-3488D01*
G01*
X-1386856Y-10271764D01*
G75*
G02*
X-1440222Y-10225374I-3488J49878D01*
G01*
G37*
D16*
X4463406Y-9211087D03*
G36*
G01*
X-4012731Y-10694967D02*
X-4136758Y-8921298D01*
G75*
G02*
X-4090368Y-8867932I49878J3488D01*
G01*
X-2316699Y-8743905D01*
G75*
G02*
X-2263333Y-8790295I3488J-49878D01*
G01*
X-2139306Y-10563964D01*
G75*
G02*
X-2185696Y-10617330I-49878J-3488D01*
G01*
X-3959365Y-10741357D01*
G75*
G02*
X-4012731Y-10694967I-3488J49878D01*
G01*
G37*
%TD*%
D11*
%TO.C,S3*%
X-1325373Y18953717D03*
D12*
X3742252Y19308080D03*
X-6392998Y18599354D03*
D13*
X854077Y24198524D03*
X-5303273Y21221758D03*
X-4213549Y23844161D03*
X2298165Y21753302D03*
%TD*%
D14*
%TO.C,S4*%
X-1325373Y18953717D03*
D12*
X4161229Y19337378D03*
X-6811975Y18570056D03*
D15*
X3397373Y23093243D03*
X-1736936Y24839345D03*
X-6578268Y22395678D03*
X-1736936Y24839345D03*
%TD*%
%TO.C,D2*%
G36*
G01*
X526366Y8958540D02*
X442658Y10155617D01*
G75*
G02*
X489048Y10208983I49878J3488D01*
G01*
X1386856Y10271764D01*
G75*
G02*
X1440222Y10225374I3488J-49878D01*
G01*
X1523930Y9028297D01*
G75*
G02*
X1477540Y8974931I-49878J-3488D01*
G01*
X579732Y8912150D01*
G75*
G02*
X526366Y8958540I-3488J49878D01*
G01*
G37*
G36*
G01*
X-2765596Y8728344D02*
X-2849304Y9925421D01*
G75*
G02*
X-2802914Y9978787I49878J3488D01*
G01*
X-1905106Y10041568D01*
G75*
G02*
X-1851740Y9995178I3488J-49878D01*
G01*
X-1768032Y8798101D01*
G75*
G02*
X-1814422Y8744735I-49878J-3488D01*
G01*
X-2712230Y8681954D01*
G75*
G02*
X-2765596Y8728344I-3488J49878D01*
G01*
G37*
D16*
X3138032Y9742631D03*
G36*
G01*
X-5338105Y8258751D02*
X-5462132Y10032420D01*
G75*
G02*
X-5415742Y10085786I49878J3488D01*
G01*
X-3642073Y10209813D01*
G75*
G02*
X-3588707Y10163423I3488J-49878D01*
G01*
X-3464680Y8389754D01*
G75*
G02*
X-3511070Y8336388I-49878J-3488D01*
G01*
X-5284739Y8212361D01*
G75*
G02*
X-5338105Y8258751I-3488J49878D01*
G01*
G37*
%TD*%
D11*
%TO.C,S5*%
X-2650746Y37907434D03*
D12*
X2416879Y38261797D03*
X-7718371Y37553071D03*
D13*
X-471296Y43152241D03*
X-6628646Y40175475D03*
X-5538922Y42797878D03*
X972792Y40707019D03*
%TD*%
D14*
%TO.C,S6*%
X-2650746Y37907434D03*
D12*
X2835856Y38291095D03*
X-8137348Y37523773D03*
D15*
X2072000Y42046960D03*
X-3062309Y43793062D03*
X-7903641Y41349395D03*
X-3062309Y43793062D03*
%TD*%
%TO.C,D3*%
G36*
G01*
X-799006Y27912256D02*
X-882714Y29109333D01*
G75*
G02*
X-836324Y29162699I49878J3488D01*
G01*
X61484Y29225480D01*
G75*
G02*
X114850Y29179090I3488J-49878D01*
G01*
X198558Y27982013D01*
G75*
G02*
X152168Y27928647I-49878J-3488D01*
G01*
X-745640Y27865866D01*
G75*
G02*
X-799006Y27912256I-3488J49878D01*
G01*
G37*
G36*
G01*
X-4090968Y27682060D02*
X-4174676Y28879137D01*
G75*
G02*
X-4128286Y28932503I49878J3488D01*
G01*
X-3230478Y28995284D01*
G75*
G02*
X-3177112Y28948894I3488J-49878D01*
G01*
X-3093404Y27751817D01*
G75*
G02*
X-3139794Y27698451I-49878J-3488D01*
G01*
X-4037602Y27635670D01*
G75*
G02*
X-4090968Y27682060I-3488J49878D01*
G01*
G37*
D16*
X1812660Y28696347D03*
G36*
G01*
X-6663477Y27212467D02*
X-6787504Y28986136D01*
G75*
G02*
X-6741114Y29039502I49878J3488D01*
G01*
X-4967445Y29163529D01*
G75*
G02*
X-4914079Y29117139I3488J-49878D01*
G01*
X-4790052Y27343470D01*
G75*
G02*
X-4836442Y27290104I-49878J-3488D01*
G01*
X-6610111Y27166077D01*
G75*
G02*
X-6663477Y27212467I-3488J49878D01*
G01*
G37*
%TD*%
D11*
%TO.C,S7*%
X18953717Y1325373D03*
D12*
X24021342Y1679736D03*
X13886092Y971010D03*
D13*
X21133167Y6570180D03*
X14975817Y3593414D03*
X16065541Y6215817D03*
X22577255Y4124958D03*
%TD*%
D14*
%TO.C,S8*%
X18953717Y1325373D03*
D12*
X24440319Y1709034D03*
X13467115Y941712D03*
D15*
X23676463Y5464899D03*
X18542154Y7211001D03*
X13700822Y4767334D03*
X18542154Y7211001D03*
%TD*%
%TO.C,D4*%
G36*
G01*
X20805457Y-8669805D02*
X20721749Y-7472728D01*
G75*
G02*
X20768139Y-7419362I49878J3488D01*
G01*
X21665947Y-7356581D01*
G75*
G02*
X21719313Y-7402971I3488J-49878D01*
G01*
X21803021Y-8600048D01*
G75*
G02*
X21756631Y-8653414I-49878J-3488D01*
G01*
X20858823Y-8716195D01*
G75*
G02*
X20805457Y-8669805I-3488J49878D01*
G01*
G37*
G36*
G01*
X17513495Y-8900001D02*
X17429787Y-7702924D01*
G75*
G02*
X17476177Y-7649558I49878J3488D01*
G01*
X18373985Y-7586777D01*
G75*
G02*
X18427351Y-7633167I3488J-49878D01*
G01*
X18511059Y-8830244D01*
G75*
G02*
X18464669Y-8883610I-49878J-3488D01*
G01*
X17566861Y-8946391D01*
G75*
G02*
X17513495Y-8900001I-3488J49878D01*
G01*
G37*
D16*
X23417123Y-7885714D03*
G36*
G01*
X14940986Y-9369594D02*
X14816959Y-7595925D01*
G75*
G02*
X14863349Y-7542559I49878J3488D01*
G01*
X16637018Y-7418532D01*
G75*
G02*
X16690384Y-7464922I3488J-49878D01*
G01*
X16814411Y-9238591D01*
G75*
G02*
X16768021Y-9291957I-49878J-3488D01*
G01*
X14994352Y-9415984D01*
G75*
G02*
X14940986Y-9369594I-3488J49878D01*
G01*
G37*
%TD*%
D11*
%TO.C,S9*%
X17628344Y20279090D03*
D12*
X22695969Y20633453D03*
X12560719Y19924727D03*
D13*
X19807794Y25523897D03*
X13650444Y22547131D03*
X14740168Y25169534D03*
X21251882Y23078675D03*
%TD*%
D14*
%TO.C,S10*%
X17628344Y20279090D03*
D12*
X23114946Y20662751D03*
X12141742Y19895429D03*
D15*
X22351090Y24418616D03*
X17216781Y26164718D03*
X12375449Y23721051D03*
X17216781Y26164718D03*
%TD*%
%TO.C,D5*%
G36*
G01*
X19480083Y10283913D02*
X19396375Y11480990D01*
G75*
G02*
X19442765Y11534356I49878J3488D01*
G01*
X20340573Y11597137D01*
G75*
G02*
X20393939Y11550747I3488J-49878D01*
G01*
X20477647Y10353670D01*
G75*
G02*
X20431257Y10300304I-49878J-3488D01*
G01*
X19533449Y10237523D01*
G75*
G02*
X19480083Y10283913I-3488J49878D01*
G01*
G37*
G36*
G01*
X16188121Y10053717D02*
X16104413Y11250794D01*
G75*
G02*
X16150803Y11304160I49878J3488D01*
G01*
X17048611Y11366941D01*
G75*
G02*
X17101977Y11320551I3488J-49878D01*
G01*
X17185685Y10123474D01*
G75*
G02*
X17139295Y10070108I-49878J-3488D01*
G01*
X16241487Y10007327D01*
G75*
G02*
X16188121Y10053717I-3488J49878D01*
G01*
G37*
D16*
X22091749Y11068004D03*
G36*
G01*
X13615612Y9584124D02*
X13491585Y11357793D01*
G75*
G02*
X13537975Y11411159I49878J3488D01*
G01*
X15311644Y11535186D01*
G75*
G02*
X15365010Y11488796I3488J-49878D01*
G01*
X15489037Y9715127D01*
G75*
G02*
X15442647Y9661761I-49878J-3488D01*
G01*
X13668978Y9537734D01*
G75*
G02*
X13615612Y9584124I-3488J49878D01*
G01*
G37*
%TD*%
D11*
%TO.C,S11*%
X16302971Y39232807D03*
D12*
X21370596Y39587170D03*
X11235346Y38878444D03*
D13*
X18482421Y44477614D03*
X12325071Y41500848D03*
X13414795Y44123251D03*
X19926509Y42032392D03*
%TD*%
D14*
%TO.C,S12*%
X16302971Y39232807D03*
D12*
X21789573Y39616468D03*
X10816369Y38849146D03*
D15*
X21025717Y43372333D03*
X15891408Y45118435D03*
X11050076Y42674768D03*
X15891408Y45118435D03*
%TD*%
%TO.C,D6*%
G36*
G01*
X18154710Y29237629D02*
X18071002Y30434706D01*
G75*
G02*
X18117392Y30488072I49878J3488D01*
G01*
X19015200Y30550853D01*
G75*
G02*
X19068566Y30504463I3488J-49878D01*
G01*
X19152274Y29307386D01*
G75*
G02*
X19105884Y29254020I-49878J-3488D01*
G01*
X18208076Y29191239D01*
G75*
G02*
X18154710Y29237629I-3488J49878D01*
G01*
G37*
G36*
G01*
X14862748Y29007433D02*
X14779040Y30204510D01*
G75*
G02*
X14825430Y30257876I49878J3488D01*
G01*
X15723238Y30320657D01*
G75*
G02*
X15776604Y30274267I3488J-49878D01*
G01*
X15860312Y29077190D01*
G75*
G02*
X15813922Y29023824I-49878J-3488D01*
G01*
X14916114Y28961043D01*
G75*
G02*
X14862748Y29007433I-3488J49878D01*
G01*
G37*
D16*
X20766376Y30021720D03*
G36*
G01*
X12290239Y28537840D02*
X12166212Y30311509D01*
G75*
G02*
X12212602Y30364875I49878J3488D01*
G01*
X13986271Y30488902D01*
G75*
G02*
X14039637Y30442512I3488J-49878D01*
G01*
X14163664Y28668843D01*
G75*
G02*
X14117274Y28615477I-49878J-3488D01*
G01*
X12343605Y28491450D01*
G75*
G02*
X12290239Y28537840I-3488J49878D01*
G01*
G37*
%TD*%
D11*
%TO.C,S13*%
X38424961Y13830720D03*
D12*
X43504961Y13830720D03*
X33344961Y13830720D03*
D13*
X40964961Y18910720D03*
X34614961Y16370720D03*
X35884961Y18910720D03*
X42234961Y16370720D03*
%TD*%
D14*
%TO.C,S14*%
X38424961Y13830720D03*
D12*
X43924961Y13830720D03*
X32924961Y13830720D03*
D15*
X43424961Y17630720D03*
X38424961Y19730720D03*
X33424961Y17630720D03*
X38424961Y19730720D03*
%TD*%
%TO.C,D7*%
G36*
G01*
X39574961Y3730720D02*
X39574961Y4930720D01*
G75*
G02*
X39624961Y4980720I50000J0D01*
G01*
X40524961Y4980720D01*
G75*
G02*
X40574961Y4930720I0J-50000D01*
G01*
X40574961Y3730720D01*
G75*
G02*
X40524961Y3680720I-50000J0D01*
G01*
X39624961Y3680720D01*
G75*
G02*
X39574961Y3730720I0J50000D01*
G01*
G37*
G36*
G01*
X36274961Y3730720D02*
X36274961Y4930720D01*
G75*
G02*
X36324961Y4980720I50000J0D01*
G01*
X37224961Y4980720D01*
G75*
G02*
X37274961Y4930720I0J-50000D01*
G01*
X37274961Y3730720D01*
G75*
G02*
X37224961Y3680720I-50000J0D01*
G01*
X36324961Y3680720D01*
G75*
G02*
X36274961Y3730720I0J50000D01*
G01*
G37*
D16*
X42234961Y4330720D03*
G36*
G01*
X33675961Y3441720D02*
X33675961Y5219720D01*
G75*
G02*
X33725961Y5269720I50000J0D01*
G01*
X35503961Y5269720D01*
G75*
G02*
X35553961Y5219720I0J-50000D01*
G01*
X35553961Y3441720D01*
G75*
G02*
X35503961Y3391720I-50000J0D01*
G01*
X33725961Y3391720D01*
G75*
G02*
X33675961Y3441720I0J50000D01*
G01*
G37*
%TD*%
D11*
%TO.C,S15*%
X38424961Y32830720D03*
D12*
X43504961Y32830720D03*
X33344961Y32830720D03*
D13*
X40964961Y37910720D03*
X34614961Y35370720D03*
X35884961Y37910720D03*
X42234961Y35370720D03*
%TD*%
D14*
%TO.C,S16*%
X38424961Y32830720D03*
D12*
X43924961Y32830720D03*
X32924961Y32830720D03*
D15*
X43424961Y36630720D03*
X38424961Y38730720D03*
X33424961Y36630720D03*
X38424961Y38730720D03*
%TD*%
%TO.C,D8*%
G36*
G01*
X39574961Y22730720D02*
X39574961Y23930720D01*
G75*
G02*
X39624961Y23980720I50000J0D01*
G01*
X40524961Y23980720D01*
G75*
G02*
X40574961Y23930720I0J-50000D01*
G01*
X40574961Y22730720D01*
G75*
G02*
X40524961Y22680720I-50000J0D01*
G01*
X39624961Y22680720D01*
G75*
G02*
X39574961Y22730720I0J50000D01*
G01*
G37*
G36*
G01*
X36274961Y22730720D02*
X36274961Y23930720D01*
G75*
G02*
X36324961Y23980720I50000J0D01*
G01*
X37224961Y23980720D01*
G75*
G02*
X37274961Y23930720I0J-50000D01*
G01*
X37274961Y22730720D01*
G75*
G02*
X37224961Y22680720I-50000J0D01*
G01*
X36324961Y22680720D01*
G75*
G02*
X36274961Y22730720I0J50000D01*
G01*
G37*
D16*
X42234961Y23330720D03*
G36*
G01*
X33675961Y22441720D02*
X33675961Y24219720D01*
G75*
G02*
X33725961Y24269720I50000J0D01*
G01*
X35503961Y24269720D01*
G75*
G02*
X35553961Y24219720I0J-50000D01*
G01*
X35553961Y22441720D01*
G75*
G02*
X35503961Y22391720I-50000J0D01*
G01*
X33725961Y22391720D01*
G75*
G02*
X33675961Y22441720I0J50000D01*
G01*
G37*
%TD*%
D11*
%TO.C,S17*%
X38424961Y51830720D03*
D12*
X43504961Y51830720D03*
X33344961Y51830720D03*
D13*
X40964961Y56910720D03*
X34614961Y54370720D03*
X35884961Y56910720D03*
X42234961Y54370720D03*
%TD*%
D14*
%TO.C,S18*%
X38424961Y51830720D03*
D12*
X43924961Y51830720D03*
X32924961Y51830720D03*
D15*
X43424961Y55630720D03*
X38424961Y57730720D03*
X33424961Y55630720D03*
X38424961Y57730720D03*
%TD*%
%TO.C,D9*%
G36*
G01*
X39574961Y41730720D02*
X39574961Y42930720D01*
G75*
G02*
X39624961Y42980720I50000J0D01*
G01*
X40524961Y42980720D01*
G75*
G02*
X40574961Y42930720I0J-50000D01*
G01*
X40574961Y41730720D01*
G75*
G02*
X40524961Y41680720I-50000J0D01*
G01*
X39624961Y41680720D01*
G75*
G02*
X39574961Y41730720I0J50000D01*
G01*
G37*
G36*
G01*
X36274961Y41730720D02*
X36274961Y42930720D01*
G75*
G02*
X36324961Y42980720I50000J0D01*
G01*
X37224961Y42980720D01*
G75*
G02*
X37274961Y42930720I0J-50000D01*
G01*
X37274961Y41730720D01*
G75*
G02*
X37224961Y41680720I-50000J0D01*
G01*
X36324961Y41680720D01*
G75*
G02*
X36274961Y41730720I0J50000D01*
G01*
G37*
D16*
X42234961Y42330720D03*
G36*
G01*
X33675961Y41441720D02*
X33675961Y43219720D01*
G75*
G02*
X33725961Y43269720I50000J0D01*
G01*
X35503961Y43269720D01*
G75*
G02*
X35553961Y43219720I0J-50000D01*
G01*
X35553961Y41441720D01*
G75*
G02*
X35503961Y41391720I-50000J0D01*
G01*
X33725961Y41391720D01*
G75*
G02*
X33675961Y41441720I0J50000D01*
G01*
G37*
%TD*%
D11*
%TO.C,S19*%
X57424961Y18830720D03*
D12*
X62504961Y18830720D03*
X52344961Y18830720D03*
D13*
X59964961Y23910720D03*
X53614961Y21370720D03*
X54884961Y23910720D03*
X61234961Y21370720D03*
%TD*%
D14*
%TO.C,S20*%
X57424961Y18830720D03*
D12*
X62924961Y18830720D03*
X51924961Y18830720D03*
D15*
X62424961Y22630720D03*
X57424961Y24730720D03*
X52424961Y22630720D03*
X57424961Y24730720D03*
%TD*%
%TO.C,D10*%
G36*
G01*
X58574961Y8730720D02*
X58574961Y9930720D01*
G75*
G02*
X58624961Y9980720I50000J0D01*
G01*
X59524961Y9980720D01*
G75*
G02*
X59574961Y9930720I0J-50000D01*
G01*
X59574961Y8730720D01*
G75*
G02*
X59524961Y8680720I-50000J0D01*
G01*
X58624961Y8680720D01*
G75*
G02*
X58574961Y8730720I0J50000D01*
G01*
G37*
G36*
G01*
X55274961Y8730720D02*
X55274961Y9930720D01*
G75*
G02*
X55324961Y9980720I50000J0D01*
G01*
X56224961Y9980720D01*
G75*
G02*
X56274961Y9930720I0J-50000D01*
G01*
X56274961Y8730720D01*
G75*
G02*
X56224961Y8680720I-50000J0D01*
G01*
X55324961Y8680720D01*
G75*
G02*
X55274961Y8730720I0J50000D01*
G01*
G37*
D16*
X61234961Y9330720D03*
G36*
G01*
X52675961Y8441720D02*
X52675961Y10219720D01*
G75*
G02*
X52725961Y10269720I50000J0D01*
G01*
X54503961Y10269720D01*
G75*
G02*
X54553961Y10219720I0J-50000D01*
G01*
X54553961Y8441720D01*
G75*
G02*
X54503961Y8391720I-50000J0D01*
G01*
X52725961Y8391720D01*
G75*
G02*
X52675961Y8441720I0J50000D01*
G01*
G37*
%TD*%
D11*
%TO.C,S21*%
X57424961Y37830720D03*
D12*
X62504961Y37830720D03*
X52344961Y37830720D03*
D13*
X59964961Y42910720D03*
X53614961Y40370720D03*
X54884961Y42910720D03*
X61234961Y40370720D03*
%TD*%
D14*
%TO.C,S22*%
X57424961Y37830720D03*
D12*
X62924961Y37830720D03*
X51924961Y37830720D03*
D15*
X62424961Y41630720D03*
X57424961Y43730720D03*
X52424961Y41630720D03*
X57424961Y43730720D03*
%TD*%
%TO.C,D11*%
G36*
G01*
X58574961Y27730720D02*
X58574961Y28930720D01*
G75*
G02*
X58624961Y28980720I50000J0D01*
G01*
X59524961Y28980720D01*
G75*
G02*
X59574961Y28930720I0J-50000D01*
G01*
X59574961Y27730720D01*
G75*
G02*
X59524961Y27680720I-50000J0D01*
G01*
X58624961Y27680720D01*
G75*
G02*
X58574961Y27730720I0J50000D01*
G01*
G37*
G36*
G01*
X55274961Y27730720D02*
X55274961Y28930720D01*
G75*
G02*
X55324961Y28980720I50000J0D01*
G01*
X56224961Y28980720D01*
G75*
G02*
X56274961Y28930720I0J-50000D01*
G01*
X56274961Y27730720D01*
G75*
G02*
X56224961Y27680720I-50000J0D01*
G01*
X55324961Y27680720D01*
G75*
G02*
X55274961Y27730720I0J50000D01*
G01*
G37*
D16*
X61234961Y28330720D03*
G36*
G01*
X52675961Y27441720D02*
X52675961Y29219720D01*
G75*
G02*
X52725961Y29269720I50000J0D01*
G01*
X54503961Y29269720D01*
G75*
G02*
X54553961Y29219720I0J-50000D01*
G01*
X54553961Y27441720D01*
G75*
G02*
X54503961Y27391720I-50000J0D01*
G01*
X52725961Y27391720D01*
G75*
G02*
X52675961Y27441720I0J50000D01*
G01*
G37*
%TD*%
D11*
%TO.C,S23*%
X57424961Y56830720D03*
D12*
X62504961Y56830720D03*
X52344961Y56830720D03*
D13*
X59964961Y61910720D03*
X53614961Y59370720D03*
X54884961Y61910720D03*
X61234961Y59370720D03*
%TD*%
D14*
%TO.C,S24*%
X57424961Y56830720D03*
D12*
X62924961Y56830720D03*
X51924961Y56830720D03*
D15*
X62424961Y60630720D03*
X57424961Y62730720D03*
X52424961Y60630720D03*
X57424961Y62730720D03*
%TD*%
%TO.C,D12*%
G36*
G01*
X58574961Y46730720D02*
X58574961Y47930720D01*
G75*
G02*
X58624961Y47980720I50000J0D01*
G01*
X59524961Y47980720D01*
G75*
G02*
X59574961Y47930720I0J-50000D01*
G01*
X59574961Y46730720D01*
G75*
G02*
X59524961Y46680720I-50000J0D01*
G01*
X58624961Y46680720D01*
G75*
G02*
X58574961Y46730720I0J50000D01*
G01*
G37*
G36*
G01*
X55274961Y46730720D02*
X55274961Y47930720D01*
G75*
G02*
X55324961Y47980720I50000J0D01*
G01*
X56224961Y47980720D01*
G75*
G02*
X56274961Y47930720I0J-50000D01*
G01*
X56274961Y46730720D01*
G75*
G02*
X56224961Y46680720I-50000J0D01*
G01*
X55324961Y46680720D01*
G75*
G02*
X55274961Y46730720I0J50000D01*
G01*
G37*
D16*
X61234961Y47330720D03*
G36*
G01*
X52675961Y46441720D02*
X52675961Y48219720D01*
G75*
G02*
X52725961Y48269720I50000J0D01*
G01*
X54503961Y48269720D01*
G75*
G02*
X54553961Y48219720I0J-50000D01*
G01*
X54553961Y46441720D01*
G75*
G02*
X54503961Y46391720I-50000J0D01*
G01*
X52725961Y46391720D01*
G75*
G02*
X52675961Y46441720I0J50000D01*
G01*
G37*
%TD*%
D11*
%TO.C,S25*%
X76424961Y12830720D03*
D12*
X81504961Y12830720D03*
X71344961Y12830720D03*
D13*
X78964961Y17910720D03*
X72614961Y15370720D03*
X73884961Y17910720D03*
X80234961Y15370720D03*
%TD*%
D14*
%TO.C,S26*%
X76424961Y12830720D03*
D12*
X81924961Y12830720D03*
X70924961Y12830720D03*
D15*
X81424961Y16630720D03*
X76424961Y18730720D03*
X71424961Y16630720D03*
X76424961Y18730720D03*
%TD*%
%TO.C,D13*%
G36*
G01*
X77574961Y2730720D02*
X77574961Y3930720D01*
G75*
G02*
X77624961Y3980720I50000J0D01*
G01*
X78524961Y3980720D01*
G75*
G02*
X78574961Y3930720I0J-50000D01*
G01*
X78574961Y2730720D01*
G75*
G02*
X78524961Y2680720I-50000J0D01*
G01*
X77624961Y2680720D01*
G75*
G02*
X77574961Y2730720I0J50000D01*
G01*
G37*
G36*
G01*
X74274961Y2730720D02*
X74274961Y3930720D01*
G75*
G02*
X74324961Y3980720I50000J0D01*
G01*
X75224961Y3980720D01*
G75*
G02*
X75274961Y3930720I0J-50000D01*
G01*
X75274961Y2730720D01*
G75*
G02*
X75224961Y2680720I-50000J0D01*
G01*
X74324961Y2680720D01*
G75*
G02*
X74274961Y2730720I0J50000D01*
G01*
G37*
D16*
X80234961Y3330720D03*
G36*
G01*
X71675961Y2441720D02*
X71675961Y4219720D01*
G75*
G02*
X71725961Y4269720I50000J0D01*
G01*
X73503961Y4269720D01*
G75*
G02*
X73553961Y4219720I0J-50000D01*
G01*
X73553961Y2441720D01*
G75*
G02*
X73503961Y2391720I-50000J0D01*
G01*
X71725961Y2391720D01*
G75*
G02*
X71675961Y2441720I0J50000D01*
G01*
G37*
%TD*%
D11*
%TO.C,S27*%
X76424961Y31830720D03*
D12*
X81504961Y31830720D03*
X71344961Y31830720D03*
D13*
X78964961Y36910720D03*
X72614961Y34370720D03*
X73884961Y36910720D03*
X80234961Y34370720D03*
%TD*%
D14*
%TO.C,S28*%
X76424961Y31830720D03*
D12*
X81924961Y31830720D03*
X70924961Y31830720D03*
D15*
X81424961Y35630720D03*
X76424961Y37730720D03*
X71424961Y35630720D03*
X76424961Y37730720D03*
%TD*%
%TO.C,D14*%
G36*
G01*
X77574961Y21730720D02*
X77574961Y22930720D01*
G75*
G02*
X77624961Y22980720I50000J0D01*
G01*
X78524961Y22980720D01*
G75*
G02*
X78574961Y22930720I0J-50000D01*
G01*
X78574961Y21730720D01*
G75*
G02*
X78524961Y21680720I-50000J0D01*
G01*
X77624961Y21680720D01*
G75*
G02*
X77574961Y21730720I0J50000D01*
G01*
G37*
G36*
G01*
X74274961Y21730720D02*
X74274961Y22930720D01*
G75*
G02*
X74324961Y22980720I50000J0D01*
G01*
X75224961Y22980720D01*
G75*
G02*
X75274961Y22930720I0J-50000D01*
G01*
X75274961Y21730720D01*
G75*
G02*
X75224961Y21680720I-50000J0D01*
G01*
X74324961Y21680720D01*
G75*
G02*
X74274961Y21730720I0J50000D01*
G01*
G37*
D16*
X80234961Y22330720D03*
G36*
G01*
X71675961Y21441720D02*
X71675961Y23219720D01*
G75*
G02*
X71725961Y23269720I50000J0D01*
G01*
X73503961Y23269720D01*
G75*
G02*
X73553961Y23219720I0J-50000D01*
G01*
X73553961Y21441720D01*
G75*
G02*
X73503961Y21391720I-50000J0D01*
G01*
X71725961Y21391720D01*
G75*
G02*
X71675961Y21441720I0J50000D01*
G01*
G37*
%TD*%
D11*
%TO.C,S29*%
X76424961Y50830720D03*
D12*
X81504961Y50830720D03*
X71344961Y50830720D03*
D13*
X78964961Y55910720D03*
X72614961Y53370720D03*
X73884961Y55910720D03*
X80234961Y53370720D03*
%TD*%
D14*
%TO.C,S30*%
X76424961Y50830720D03*
D12*
X81924961Y50830720D03*
X70924961Y50830720D03*
D15*
X81424961Y54630720D03*
X76424961Y56730720D03*
X71424961Y54630720D03*
X76424961Y56730720D03*
%TD*%
%TO.C,D15*%
G36*
G01*
X77574961Y40730720D02*
X77574961Y41930720D01*
G75*
G02*
X77624961Y41980720I50000J0D01*
G01*
X78524961Y41980720D01*
G75*
G02*
X78574961Y41930720I0J-50000D01*
G01*
X78574961Y40730720D01*
G75*
G02*
X78524961Y40680720I-50000J0D01*
G01*
X77624961Y40680720D01*
G75*
G02*
X77574961Y40730720I0J50000D01*
G01*
G37*
G36*
G01*
X74274961Y40730720D02*
X74274961Y41930720D01*
G75*
G02*
X74324961Y41980720I50000J0D01*
G01*
X75224961Y41980720D01*
G75*
G02*
X75274961Y41930720I0J-50000D01*
G01*
X75274961Y40730720D01*
G75*
G02*
X75224961Y40680720I-50000J0D01*
G01*
X74324961Y40680720D01*
G75*
G02*
X74274961Y40730720I0J50000D01*
G01*
G37*
D16*
X80234961Y41330720D03*
G36*
G01*
X71675961Y40441720D02*
X71675961Y42219720D01*
G75*
G02*
X71725961Y42269720I50000J0D01*
G01*
X73503961Y42269720D01*
G75*
G02*
X73553961Y42219720I0J-50000D01*
G01*
X73553961Y40441720D01*
G75*
G02*
X73503961Y40391720I-50000J0D01*
G01*
X71725961Y40391720D01*
G75*
G02*
X71675961Y40441720I0J50000D01*
G01*
G37*
%TD*%
D11*
%TO.C,S31*%
X95424961Y10830720D03*
D12*
X100504961Y10830720D03*
X90344961Y10830720D03*
D13*
X97964961Y15910720D03*
X91614961Y13370720D03*
X92884961Y15910720D03*
X99234961Y13370720D03*
%TD*%
D14*
%TO.C,S32*%
X95424961Y10830720D03*
D12*
X100924961Y10830720D03*
X89924961Y10830720D03*
D15*
X100424961Y14630720D03*
X95424961Y16730720D03*
X90424961Y14630720D03*
X95424961Y16730720D03*
%TD*%
%TO.C,D16*%
G36*
G01*
X96574961Y730720D02*
X96574961Y1930720D01*
G75*
G02*
X96624961Y1980720I50000J0D01*
G01*
X97524961Y1980720D01*
G75*
G02*
X97574961Y1930720I0J-50000D01*
G01*
X97574961Y730720D01*
G75*
G02*
X97524961Y680720I-50000J0D01*
G01*
X96624961Y680720D01*
G75*
G02*
X96574961Y730720I0J50000D01*
G01*
G37*
G36*
G01*
X93274961Y730720D02*
X93274961Y1930720D01*
G75*
G02*
X93324961Y1980720I50000J0D01*
G01*
X94224961Y1980720D01*
G75*
G02*
X94274961Y1930720I0J-50000D01*
G01*
X94274961Y730720D01*
G75*
G02*
X94224961Y680720I-50000J0D01*
G01*
X93324961Y680720D01*
G75*
G02*
X93274961Y730720I0J50000D01*
G01*
G37*
D16*
X99234961Y1330720D03*
G36*
G01*
X90675961Y441720D02*
X90675961Y2219720D01*
G75*
G02*
X90725961Y2269720I50000J0D01*
G01*
X92503961Y2269720D01*
G75*
G02*
X92553961Y2219720I0J-50000D01*
G01*
X92553961Y441720D01*
G75*
G02*
X92503961Y391720I-50000J0D01*
G01*
X90725961Y391720D01*
G75*
G02*
X90675961Y441720I0J50000D01*
G01*
G37*
%TD*%
D11*
%TO.C,S33*%
X95424961Y29830720D03*
D12*
X100504961Y29830720D03*
X90344961Y29830720D03*
D13*
X97964961Y34910720D03*
X91614961Y32370720D03*
X92884961Y34910720D03*
X99234961Y32370720D03*
%TD*%
D14*
%TO.C,S34*%
X95424961Y29830720D03*
D12*
X100924961Y29830720D03*
X89924961Y29830720D03*
D15*
X100424961Y33630720D03*
X95424961Y35730720D03*
X90424961Y33630720D03*
X95424961Y35730720D03*
%TD*%
%TO.C,D17*%
G36*
G01*
X96574961Y19730720D02*
X96574961Y20930720D01*
G75*
G02*
X96624961Y20980720I50000J0D01*
G01*
X97524961Y20980720D01*
G75*
G02*
X97574961Y20930720I0J-50000D01*
G01*
X97574961Y19730720D01*
G75*
G02*
X97524961Y19680720I-50000J0D01*
G01*
X96624961Y19680720D01*
G75*
G02*
X96574961Y19730720I0J50000D01*
G01*
G37*
G36*
G01*
X93274961Y19730720D02*
X93274961Y20930720D01*
G75*
G02*
X93324961Y20980720I50000J0D01*
G01*
X94224961Y20980720D01*
G75*
G02*
X94274961Y20930720I0J-50000D01*
G01*
X94274961Y19730720D01*
G75*
G02*
X94224961Y19680720I-50000J0D01*
G01*
X93324961Y19680720D01*
G75*
G02*
X93274961Y19730720I0J50000D01*
G01*
G37*
D16*
X99234961Y20330720D03*
G36*
G01*
X90675961Y19441720D02*
X90675961Y21219720D01*
G75*
G02*
X90725961Y21269720I50000J0D01*
G01*
X92503961Y21269720D01*
G75*
G02*
X92553961Y21219720I0J-50000D01*
G01*
X92553961Y19441720D01*
G75*
G02*
X92503961Y19391720I-50000J0D01*
G01*
X90725961Y19391720D01*
G75*
G02*
X90675961Y19441720I0J50000D01*
G01*
G37*
%TD*%
D11*
%TO.C,S35*%
X95424961Y48830720D03*
D12*
X100504961Y48830720D03*
X90344961Y48830720D03*
D13*
X97964961Y53910720D03*
X91614961Y51370720D03*
X92884961Y53910720D03*
X99234961Y51370720D03*
%TD*%
D14*
%TO.C,S36*%
X95424961Y48830720D03*
D12*
X100924961Y48830720D03*
X89924961Y48830720D03*
D15*
X100424961Y52630720D03*
X95424961Y54730720D03*
X90424961Y52630720D03*
X95424961Y54730720D03*
%TD*%
%TO.C,D18*%
G36*
G01*
X96574961Y38730720D02*
X96574961Y39930720D01*
G75*
G02*
X96624961Y39980720I50000J0D01*
G01*
X97524961Y39980720D01*
G75*
G02*
X97574961Y39930720I0J-50000D01*
G01*
X97574961Y38730720D01*
G75*
G02*
X97524961Y38680720I-50000J0D01*
G01*
X96624961Y38680720D01*
G75*
G02*
X96574961Y38730720I0J50000D01*
G01*
G37*
G36*
G01*
X93274961Y38730720D02*
X93274961Y39930720D01*
G75*
G02*
X93324961Y39980720I50000J0D01*
G01*
X94224961Y39980720D01*
G75*
G02*
X94274961Y39930720I0J-50000D01*
G01*
X94274961Y38730720D01*
G75*
G02*
X94224961Y38680720I-50000J0D01*
G01*
X93324961Y38680720D01*
G75*
G02*
X93274961Y38730720I0J50000D01*
G01*
G37*
D16*
X99234961Y39330720D03*
G36*
G01*
X90675961Y38441720D02*
X90675961Y40219720D01*
G75*
G02*
X90725961Y40269720I50000J0D01*
G01*
X92503961Y40269720D01*
G75*
G02*
X92553961Y40219720I0J-50000D01*
G01*
X92553961Y38441720D01*
G75*
G02*
X92503961Y38391720I-50000J0D01*
G01*
X90725961Y38391720D01*
G75*
G02*
X90675961Y38441720I0J50000D01*
G01*
G37*
%TD*%
D11*
%TO.C,S37*%
X114424961Y25830720D03*
D12*
X119504961Y25830720D03*
X109344961Y25830720D03*
D13*
X116964961Y30910720D03*
X110614961Y28370720D03*
X111884961Y30910720D03*
X118234961Y28370720D03*
%TD*%
D14*
%TO.C,S38*%
X114424961Y25830720D03*
D12*
X119924961Y25830720D03*
X108924961Y25830720D03*
D15*
X119424961Y29630720D03*
X114424961Y31730720D03*
X109424961Y29630720D03*
X114424961Y31730720D03*
%TD*%
%TO.C,D19*%
G36*
G01*
X115574961Y15730720D02*
X115574961Y16930720D01*
G75*
G02*
X115624961Y16980720I50000J0D01*
G01*
X116524961Y16980720D01*
G75*
G02*
X116574961Y16930720I0J-50000D01*
G01*
X116574961Y15730720D01*
G75*
G02*
X116524961Y15680720I-50000J0D01*
G01*
X115624961Y15680720D01*
G75*
G02*
X115574961Y15730720I0J50000D01*
G01*
G37*
G36*
G01*
X112274961Y15730720D02*
X112274961Y16930720D01*
G75*
G02*
X112324961Y16980720I50000J0D01*
G01*
X113224961Y16980720D01*
G75*
G02*
X113274961Y16930720I0J-50000D01*
G01*
X113274961Y15730720D01*
G75*
G02*
X113224961Y15680720I-50000J0D01*
G01*
X112324961Y15680720D01*
G75*
G02*
X112274961Y15730720I0J50000D01*
G01*
G37*
D16*
X118234961Y16330720D03*
G36*
G01*
X109675961Y15441720D02*
X109675961Y17219720D01*
G75*
G02*
X109725961Y17269720I50000J0D01*
G01*
X111503961Y17269720D01*
G75*
G02*
X111553961Y17219720I0J-50000D01*
G01*
X111553961Y15441720D01*
G75*
G02*
X111503961Y15391720I-50000J0D01*
G01*
X109725961Y15391720D01*
G75*
G02*
X109675961Y15441720I0J50000D01*
G01*
G37*
%TD*%
D11*
%TO.C,S39*%
X114424961Y44830720D03*
D12*
X119504961Y44830720D03*
X109344961Y44830720D03*
D13*
X116964961Y49910720D03*
X110614961Y47370720D03*
X111884961Y49910720D03*
X118234961Y47370720D03*
%TD*%
D14*
%TO.C,S40*%
X114424961Y44830720D03*
D12*
X119924961Y44830720D03*
X108924961Y44830720D03*
D15*
X119424961Y48630720D03*
X114424961Y50730720D03*
X109424961Y48630720D03*
X114424961Y50730720D03*
%TD*%
%TO.C,D20*%
G36*
G01*
X115574961Y34730720D02*
X115574961Y35930720D01*
G75*
G02*
X115624961Y35980720I50000J0D01*
G01*
X116524961Y35980720D01*
G75*
G02*
X116574961Y35930720I0J-50000D01*
G01*
X116574961Y34730720D01*
G75*
G02*
X116524961Y34680720I-50000J0D01*
G01*
X115624961Y34680720D01*
G75*
G02*
X115574961Y34730720I0J50000D01*
G01*
G37*
G36*
G01*
X112274961Y34730720D02*
X112274961Y35930720D01*
G75*
G02*
X112324961Y35980720I50000J0D01*
G01*
X113224961Y35980720D01*
G75*
G02*
X113274961Y35930720I0J-50000D01*
G01*
X113274961Y34730720D01*
G75*
G02*
X113224961Y34680720I-50000J0D01*
G01*
X112324961Y34680720D01*
G75*
G02*
X112274961Y34730720I0J50000D01*
G01*
G37*
D16*
X118234961Y35330720D03*
G36*
G01*
X109675961Y34441720D02*
X109675961Y36219720D01*
G75*
G02*
X109725961Y36269720I50000J0D01*
G01*
X111503961Y36269720D01*
G75*
G02*
X111553961Y36219720I0J-50000D01*
G01*
X111553961Y34441720D01*
G75*
G02*
X111503961Y34391720I-50000J0D01*
G01*
X109725961Y34391720D01*
G75*
G02*
X109675961Y34441720I0J50000D01*
G01*
G37*
%TD*%
D11*
%TO.C,S41*%
X90424961Y-14169280D03*
D12*
X95504961Y-14169280D03*
X85344961Y-14169280D03*
D13*
X92964961Y-9089280D03*
X86614961Y-11629280D03*
X87884961Y-9089280D03*
X94234961Y-11629280D03*
%TD*%
D14*
%TO.C,S42*%
X90424961Y-14169280D03*
D12*
X95924961Y-14169280D03*
X84924961Y-14169280D03*
D15*
X95424961Y-10369280D03*
X90424961Y-8269280D03*
X85424961Y-10369280D03*
X90424961Y-8269280D03*
%TD*%
%TO.C,D21*%
G36*
G01*
X91574961Y-24269280D02*
X91574961Y-23069280D01*
G75*
G02*
X91624961Y-23019280I50000J0D01*
G01*
X92524961Y-23019280D01*
G75*
G02*
X92574961Y-23069280I0J-50000D01*
G01*
X92574961Y-24269280D01*
G75*
G02*
X92524961Y-24319280I-50000J0D01*
G01*
X91624961Y-24319280D01*
G75*
G02*
X91574961Y-24269280I0J50000D01*
G01*
G37*
G36*
G01*
X88274961Y-24269280D02*
X88274961Y-23069280D01*
G75*
G02*
X88324961Y-23019280I50000J0D01*
G01*
X89224961Y-23019280D01*
G75*
G02*
X89274961Y-23069280I0J-50000D01*
G01*
X89274961Y-24269280D01*
G75*
G02*
X89224961Y-24319280I-50000J0D01*
G01*
X88324961Y-24319280D01*
G75*
G02*
X88274961Y-24269280I0J50000D01*
G01*
G37*
D16*
X94234961Y-23669280D03*
G36*
G01*
X85675961Y-24558280D02*
X85675961Y-22780280D01*
G75*
G02*
X85725961Y-22730280I50000J0D01*
G01*
X87503961Y-22730280D01*
G75*
G02*
X87553961Y-22780280I0J-50000D01*
G01*
X87553961Y-24558280D01*
G75*
G02*
X87503961Y-24608280I-50000J0D01*
G01*
X85725961Y-24608280D01*
G75*
G02*
X85675961Y-24558280I0J50000D01*
G01*
G37*
%TD*%
D11*
%TO.C,S43*%
X117674961Y-5169280D03*
D12*
X122506328Y-6739086D03*
X112843594Y-3599474D03*
D13*
X121660451Y-1122816D03*
X114836339Y-1576242D03*
X116829084Y446990D03*
X122083389Y-3930951D03*
%TD*%
D14*
%TO.C,S44*%
X117674961Y-5169280D03*
D12*
X122905772Y-6868873D03*
X112444150Y-3469687D03*
D15*
X123604508Y-3100350D03*
X119498161Y441953D03*
X114093943Y-10180D03*
X119498161Y441953D03*
%TD*%
%TO.C,D22*%
G36*
G01*
X115647603Y-15130320D02*
X116018424Y-13989052D01*
G75*
G02*
X116081428Y-13956950I47553J-15451D01*
G01*
X116937379Y-14235066D01*
G75*
G02*
X116969481Y-14298070I-15451J-47553D01*
G01*
X116598660Y-15439338D01*
G75*
G02*
X116535656Y-15471440I-47553J15451D01*
G01*
X115679705Y-15193324D01*
G75*
G02*
X115647603Y-15130320I15451J47553D01*
G01*
G37*
G36*
G01*
X112509117Y-14110564D02*
X112879938Y-12969296D01*
G75*
G02*
X112942942Y-12937194I47553J-15451D01*
G01*
X113798893Y-13215310D01*
G75*
G02*
X113830995Y-13278314I-15451J-47553D01*
G01*
X113460174Y-14419582D01*
G75*
G02*
X113397170Y-14451684I-47553J15451D01*
G01*
X112541219Y-14173568D01*
G75*
G02*
X112509117Y-14110564I15451J47553D01*
G01*
G37*
D16*
X118362824Y-15381672D03*
G36*
G01*
X109948016Y-13582284D02*
X110497448Y-11891306D01*
G75*
G02*
X110560452Y-11859204I47553J-15451D01*
G01*
X112251430Y-12408636D01*
G75*
G02*
X112283532Y-12471640I-15451J-47553D01*
G01*
X111734100Y-14162618D01*
G75*
G02*
X111671096Y-14194720I-47553J15451D01*
G01*
X109980118Y-13645288D01*
G75*
G02*
X109948016Y-13582284I15451J47553D01*
G01*
G37*
%TD*%
D11*
%TO.C,S45*%
X139478008Y-13304982D03*
D12*
X144043882Y-15531907D03*
X134912134Y-11078057D03*
D13*
X143987870Y-9852571D03*
X137167065Y-9351851D03*
X139421997Y-7625646D03*
X144015876Y-12692239D03*
%TD*%
D14*
%TO.C,S46*%
X139478008Y-13304982D03*
D12*
X144421375Y-15716023D03*
X134534641Y-10893941D03*
D15*
X145637789Y-12081420D03*
X142064398Y-8002097D03*
X136649848Y-7697709D03*
X142064398Y-8002097D03*
%TD*%
%TO.C,D23*%
G36*
G01*
X136084072Y-22886927D02*
X136610117Y-21808375D01*
G75*
G02*
X136676976Y-21785354I44940J-21919D01*
G01*
X137485891Y-22179888D01*
G75*
G02*
X137508912Y-22246747I-21919J-44940D01*
G01*
X136982867Y-23325299D01*
G75*
G02*
X136916008Y-23348320I-44940J21919D01*
G01*
X136107093Y-22953786D01*
G75*
G02*
X136084072Y-22886927I21919J44940D01*
G01*
G37*
G36*
G01*
X133118052Y-21440303D02*
X133644097Y-20361751D01*
G75*
G02*
X133710956Y-20338730I44940J-21919D01*
G01*
X134519871Y-20733264D01*
G75*
G02*
X134542892Y-20800123I-21919J-44940D01*
G01*
X134016847Y-21878675D01*
G75*
G02*
X133949988Y-21901696I-44940J21919D01*
G01*
X133141073Y-21507162D01*
G75*
G02*
X133118052Y-21440303I21919J44940D01*
G01*
G37*
D16*
X138737887Y-23513719D03*
G36*
G01*
X130655397Y-20560728D02*
X131434821Y-18962672D01*
G75*
G02*
X131501680Y-18939651I44940J-21919D01*
G01*
X133099736Y-19719075D01*
G75*
G02*
X133122757Y-19785934I-21919J-44940D01*
G01*
X132343333Y-21383990D01*
G75*
G02*
X132276474Y-21407011I-44940J21919D01*
G01*
X130678418Y-20627587D01*
G75*
G02*
X130655397Y-20560728I21919J44940D01*
G01*
G37*
%TD*%
D11*
%TO.C,S47*%
X111803638Y-23239354D03*
D12*
X116635005Y-24809160D03*
X106972271Y-21669548D03*
D13*
X115789128Y-19192890D03*
X108965016Y-19646316D03*
X110957761Y-17623084D03*
X116212066Y-22001025D03*
%TD*%
D14*
%TO.C,S48*%
X111803638Y-23239354D03*
D12*
X117034449Y-24938947D03*
X106572827Y-21539761D03*
D15*
X117733185Y-21170424D03*
X113626838Y-17628121D03*
X108222620Y-18080254D03*
X113626838Y-17628121D03*
%TD*%
%TO.C,D24*%
G36*
G01*
X109776280Y-33200394D02*
X110147101Y-32059126D01*
G75*
G02*
X110210105Y-32027024I47553J-15451D01*
G01*
X111066056Y-32305140D01*
G75*
G02*
X111098158Y-32368144I-15451J-47553D01*
G01*
X110727337Y-33509412D01*
G75*
G02*
X110664333Y-33541514I-47553J15451D01*
G01*
X109808382Y-33263398D01*
G75*
G02*
X109776280Y-33200394I15451J47553D01*
G01*
G37*
G36*
G01*
X106637794Y-32180638D02*
X107008615Y-31039370D01*
G75*
G02*
X107071619Y-31007268I47553J-15451D01*
G01*
X107927570Y-31285384D01*
G75*
G02*
X107959672Y-31348388I-15451J-47553D01*
G01*
X107588851Y-32489656D01*
G75*
G02*
X107525847Y-32521758I-47553J15451D01*
G01*
X106669896Y-32243642D01*
G75*
G02*
X106637794Y-32180638I15451J47553D01*
G01*
G37*
D16*
X112491501Y-33451746D03*
G36*
G01*
X104076693Y-31652358D02*
X104626125Y-29961380D01*
G75*
G02*
X104689129Y-29929278I47553J-15451D01*
G01*
X106380107Y-30478710D01*
G75*
G02*
X106412209Y-30541714I-15451J-47553D01*
G01*
X105862777Y-32232692D01*
G75*
G02*
X105799773Y-32264794I-47553J15451D01*
G01*
X104108795Y-31715362D01*
G75*
G02*
X104076693Y-31652358I15451J47553D01*
G01*
G37*
%TD*%
D11*
%TO.C,S49*%
X130779170Y-30887158D03*
D12*
X135345044Y-33114083D03*
X126213296Y-28660233D03*
D13*
X135289032Y-27434747D03*
X128468227Y-26934027D03*
X130723159Y-25207822D03*
X135317038Y-30274415D03*
%TD*%
D14*
%TO.C,S50*%
X130779170Y-30887158D03*
D12*
X135722537Y-33298199D03*
X125835803Y-28476117D03*
D15*
X136938951Y-29663596D03*
X133365560Y-25584273D03*
X127951010Y-25279885D03*
X133365560Y-25584273D03*
%TD*%
%TO.C,D25*%
G36*
G01*
X127385234Y-40469103D02*
X127911279Y-39390551D01*
G75*
G02*
X127978138Y-39367530I44940J-21919D01*
G01*
X128787053Y-39762064D01*
G75*
G02*
X128810074Y-39828923I-21919J-44940D01*
G01*
X128284029Y-40907475D01*
G75*
G02*
X128217170Y-40930496I-44940J21919D01*
G01*
X127408255Y-40535962D01*
G75*
G02*
X127385234Y-40469103I21919J44940D01*
G01*
G37*
G36*
G01*
X124419214Y-39022479D02*
X124945259Y-37943927D01*
G75*
G02*
X125012118Y-37920906I44940J-21919D01*
G01*
X125821033Y-38315440D01*
G75*
G02*
X125844054Y-38382299I-21919J-44940D01*
G01*
X125318009Y-39460851D01*
G75*
G02*
X125251150Y-39483872I-44940J21919D01*
G01*
X124442235Y-39089338D01*
G75*
G02*
X124419214Y-39022479I21919J44940D01*
G01*
G37*
D16*
X130039049Y-41095895D03*
G36*
G01*
X121956559Y-38142904D02*
X122735983Y-36544848D01*
G75*
G02*
X122802842Y-36521827I44940J-21919D01*
G01*
X124400898Y-37301251D01*
G75*
G02*
X124423919Y-37368110I-21919J-44940D01*
G01*
X123644495Y-38966166D01*
G75*
G02*
X123577636Y-38989187I-44940J21919D01*
G01*
X121979580Y-38209763D01*
G75*
G02*
X121956559Y-38142904I21919J44940D01*
G01*
G37*
%TD*%
%TO.C,MCU1*%
G36*
G01*
X140668661Y58477020D02*
X142421261Y58477020D01*
G75*
G02*
X142471261Y58427020I0J-50000D01*
G01*
X142471261Y56674420D01*
G75*
G02*
X142421261Y56624420I-50000J0D01*
G01*
X140668661Y56624420D01*
G75*
G02*
X140618661Y56674420I0J50000D01*
G01*
X140618661Y58427020D01*
G75*
G02*
X140668661Y58477020I50000J0D01*
G01*
G37*
D17*
X141544961Y55010720D03*
X141544961Y52470720D03*
X141544961Y49930720D03*
X141544961Y47390720D03*
X141544961Y44850720D03*
X141544961Y42310720D03*
X141544961Y39770720D03*
X141544961Y37230720D03*
X141544961Y34690720D03*
X141544961Y32150720D03*
X141544961Y29610720D03*
X126304961Y57550720D03*
X126304961Y55010720D03*
X126304961Y52470720D03*
X126304961Y49930720D03*
X126304961Y47390720D03*
X126304961Y44850720D03*
X126304961Y42310720D03*
X126304961Y39770720D03*
X126304961Y37230720D03*
X126304961Y34690720D03*
X126304961Y32150720D03*
X126304961Y29610720D03*
%TD*%
%TO.C,MCU2*%
G36*
G01*
X127928661Y59727020D02*
X129681261Y59727020D01*
G75*
G02*
X129731261Y59677020I0J-50000D01*
G01*
X129731261Y57924420D01*
G75*
G02*
X129681261Y57874420I-50000J0D01*
G01*
X127928661Y57874420D01*
G75*
G02*
X127878661Y57924420I0J50000D01*
G01*
X127878661Y59677020D01*
G75*
G02*
X127928661Y59727020I50000J0D01*
G01*
G37*
X128804961Y56260720D03*
X128804961Y53720720D03*
X128804961Y51180720D03*
X128804961Y48640720D03*
X128804961Y46100720D03*
X128804961Y43560720D03*
X128804961Y41020720D03*
X128804961Y38480720D03*
X128804961Y35940720D03*
X128804961Y33400720D03*
X128804961Y30860720D03*
X144044961Y58800720D03*
X144044961Y56260720D03*
X144044961Y53720720D03*
X144044961Y51180720D03*
X144044961Y48640720D03*
X144044961Y46100720D03*
X144044961Y43560720D03*
X144044961Y41020720D03*
X144044961Y38480720D03*
X144044961Y35940720D03*
X144044961Y33400720D03*
X144044961Y30860720D03*
%TD*%
D18*
%TO.C,REF\u002A\u002A*%
X138824961Y21130720D03*
X145824961Y21130720D03*
D19*
X136124961Y18830720D03*
X137224961Y23430720D03*
X141224961Y23430720D03*
X144224961Y23430720D03*
X136124961Y23430720D03*
X137224961Y18830720D03*
X141224961Y18830720D03*
X144224961Y18830720D03*
%TD*%
M02*
