%TF.GenerationSoftware,KiCad,Pcbnew,5.1.12-1.fc35*%
%TF.CreationDate,2022-03-13T18:33:39-07:00*%
%TF.ProjectId,jackalope_split,6a61636b-616c-46f7-9065-5f73706c6974,v1.0.0*%
%TF.SameCoordinates,Original*%
%TF.FileFunction,Legend,Bot*%
%TF.FilePolarity,Positive*%
%FSLAX46Y46*%
G04 Gerber Fmt 4.6, Leading zero omitted, Abs format (unit mm)*
G04 Created by KiCad (PCBNEW 5.1.12-1.fc35) date 2022-03-13 18:33:39*
%MOMM*%
%LPD*%
G01*
G04 APERTURE LIST*
%ADD10C,0.300000*%
%ADD11C,0.010000*%
%ADD12C,0.100000*%
%ADD13C,0.150000*%
G04 APERTURE END LIST*
D10*
X86678571Y-3678571D02*
X86678571Y-4750000D01*
X86750000Y-4964285D01*
X86892857Y-5107142D01*
X87107142Y-5178571D01*
X87250000Y-5178571D01*
X85321428Y-5178571D02*
X85321428Y-4392857D01*
X85392857Y-4250000D01*
X85535714Y-4178571D01*
X85821428Y-4178571D01*
X85964285Y-4250000D01*
X85321428Y-5107142D02*
X85464285Y-5178571D01*
X85821428Y-5178571D01*
X85964285Y-5107142D01*
X86035714Y-4964285D01*
X86035714Y-4821428D01*
X85964285Y-4678571D01*
X85821428Y-4607142D01*
X85464285Y-4607142D01*
X85321428Y-4535714D01*
X83964285Y-5107142D02*
X84107142Y-5178571D01*
X84392857Y-5178571D01*
X84535714Y-5107142D01*
X84607142Y-5035714D01*
X84678571Y-4892857D01*
X84678571Y-4464285D01*
X84607142Y-4321428D01*
X84535714Y-4250000D01*
X84392857Y-4178571D01*
X84107142Y-4178571D01*
X83964285Y-4250000D01*
X83321428Y-5178571D02*
X83321428Y-3678571D01*
X83178571Y-4607142D02*
X82750000Y-5178571D01*
X82750000Y-4178571D02*
X83321428Y-4750000D01*
X81464285Y-5178571D02*
X81464285Y-4392857D01*
X81535714Y-4250000D01*
X81678571Y-4178571D01*
X81964285Y-4178571D01*
X82107142Y-4250000D01*
X81464285Y-5107142D02*
X81607142Y-5178571D01*
X81964285Y-5178571D01*
X82107142Y-5107142D01*
X82178571Y-4964285D01*
X82178571Y-4821428D01*
X82107142Y-4678571D01*
X81964285Y-4607142D01*
X81607142Y-4607142D01*
X81464285Y-4535714D01*
X80535714Y-5178571D02*
X80678571Y-5107142D01*
X80750000Y-4964285D01*
X80750000Y-3678571D01*
X79750000Y-5178571D02*
X79892857Y-5107142D01*
X79964285Y-5035714D01*
X80035714Y-4892857D01*
X80035714Y-4464285D01*
X79964285Y-4321428D01*
X79892857Y-4250000D01*
X79750000Y-4178571D01*
X79535714Y-4178571D01*
X79392857Y-4250000D01*
X79321428Y-4321428D01*
X79250000Y-4464285D01*
X79250000Y-4892857D01*
X79321428Y-5035714D01*
X79392857Y-5107142D01*
X79535714Y-5178571D01*
X79750000Y-5178571D01*
X78607142Y-4178571D02*
X78607142Y-5678571D01*
X78607142Y-4250000D02*
X78464285Y-4178571D01*
X78178571Y-4178571D01*
X78035714Y-4250000D01*
X77964285Y-4321428D01*
X77892857Y-4464285D01*
X77892857Y-4892857D01*
X77964285Y-5035714D01*
X78035714Y-5107142D01*
X78178571Y-5178571D01*
X78464285Y-5178571D01*
X78607142Y-5107142D01*
X76678571Y-5107142D02*
X76821428Y-5178571D01*
X77107142Y-5178571D01*
X77250000Y-5107142D01*
X77321428Y-4964285D01*
X77321428Y-4392857D01*
X77250000Y-4250000D01*
X77107142Y-4178571D01*
X76821428Y-4178571D01*
X76678571Y-4250000D01*
X76607142Y-4392857D01*
X76607142Y-4535714D01*
X77321428Y-4678571D01*
X74821428Y-5178571D02*
X74821428Y-3678571D01*
X73964285Y-5178571D02*
X74607142Y-4321428D01*
X73964285Y-3678571D02*
X74821428Y-4535714D01*
X72750000Y-5107142D02*
X72892857Y-5178571D01*
X73178571Y-5178571D01*
X73321428Y-5107142D01*
X73392857Y-4964285D01*
X73392857Y-4392857D01*
X73321428Y-4250000D01*
X73178571Y-4178571D01*
X72892857Y-4178571D01*
X72750000Y-4250000D01*
X72678571Y-4392857D01*
X72678571Y-4535714D01*
X73392857Y-4678571D01*
X72178571Y-4178571D02*
X71821428Y-5178571D01*
X71464285Y-4178571D02*
X71821428Y-5178571D01*
X71964285Y-5535714D01*
X72035714Y-5607142D01*
X72178571Y-5678571D01*
X70892857Y-5178571D02*
X70892857Y-3678571D01*
X70892857Y-4250000D02*
X70750000Y-4178571D01*
X70464285Y-4178571D01*
X70321428Y-4250000D01*
X70250000Y-4321428D01*
X70178571Y-4464285D01*
X70178571Y-4892857D01*
X70250000Y-5035714D01*
X70321428Y-5107142D01*
X70464285Y-5178571D01*
X70750000Y-5178571D01*
X70892857Y-5107142D01*
X69321428Y-5178571D02*
X69464285Y-5107142D01*
X69535714Y-5035714D01*
X69607142Y-4892857D01*
X69607142Y-4464285D01*
X69535714Y-4321428D01*
X69464285Y-4250000D01*
X69321428Y-4178571D01*
X69107142Y-4178571D01*
X68964285Y-4250000D01*
X68892857Y-4321428D01*
X68821428Y-4464285D01*
X68821428Y-4892857D01*
X68892857Y-5035714D01*
X68964285Y-5107142D01*
X69107142Y-5178571D01*
X69321428Y-5178571D01*
X67535714Y-5178571D02*
X67535714Y-4392857D01*
X67607142Y-4250000D01*
X67750000Y-4178571D01*
X68035714Y-4178571D01*
X68178571Y-4250000D01*
X67535714Y-5107142D02*
X67678571Y-5178571D01*
X68035714Y-5178571D01*
X68178571Y-5107142D01*
X68250000Y-4964285D01*
X68250000Y-4821428D01*
X68178571Y-4678571D01*
X68035714Y-4607142D01*
X67678571Y-4607142D01*
X67535714Y-4535714D01*
X66821428Y-5178571D02*
X66821428Y-4178571D01*
X66821428Y-4464285D02*
X66750000Y-4321428D01*
X66678571Y-4250000D01*
X66535714Y-4178571D01*
X66392857Y-4178571D01*
X65250000Y-5178571D02*
X65250000Y-3678571D01*
X65250000Y-5107142D02*
X65392857Y-5178571D01*
X65678571Y-5178571D01*
X65821428Y-5107142D01*
X65892857Y-5035714D01*
X65964285Y-4892857D01*
X65964285Y-4464285D01*
X65892857Y-4321428D01*
X65821428Y-4250000D01*
X65678571Y-4178571D01*
X65392857Y-4178571D01*
X65250000Y-4250000D01*
X62964285Y-5750000D02*
X63035714Y-5678571D01*
X63178571Y-5464285D01*
X63250000Y-5321428D01*
X63321428Y-5107142D01*
X63392857Y-4750000D01*
X63392857Y-4464285D01*
X63321428Y-4107142D01*
X63250000Y-3892857D01*
X63178571Y-3750000D01*
X63035714Y-3535714D01*
X62964285Y-3464285D01*
X62464285Y-5107142D02*
X62321428Y-5178571D01*
X62035714Y-5178571D01*
X61892857Y-5107142D01*
X61821428Y-4964285D01*
X61821428Y-4892857D01*
X61892857Y-4750000D01*
X62035714Y-4678571D01*
X62250000Y-4678571D01*
X62392857Y-4607142D01*
X62464285Y-4464285D01*
X62464285Y-4392857D01*
X62392857Y-4250000D01*
X62250000Y-4178571D01*
X62035714Y-4178571D01*
X61892857Y-4250000D01*
X61178571Y-4178571D02*
X61178571Y-5678571D01*
X61178571Y-4250000D02*
X61035714Y-4178571D01*
X60750000Y-4178571D01*
X60607142Y-4250000D01*
X60535714Y-4321428D01*
X60464285Y-4464285D01*
X60464285Y-4892857D01*
X60535714Y-5035714D01*
X60607142Y-5107142D01*
X60750000Y-5178571D01*
X61035714Y-5178571D01*
X61178571Y-5107142D01*
X59607142Y-5178571D02*
X59750000Y-5107142D01*
X59821428Y-4964285D01*
X59821428Y-3678571D01*
X59035714Y-5178571D02*
X59035714Y-4178571D01*
X59035714Y-3678571D02*
X59107142Y-3750000D01*
X59035714Y-3821428D01*
X58964285Y-3750000D01*
X59035714Y-3678571D01*
X59035714Y-3821428D01*
X58535714Y-4178571D02*
X57964285Y-4178571D01*
X58321428Y-3678571D02*
X58321428Y-4964285D01*
X58250000Y-5107142D01*
X58107142Y-5178571D01*
X57964285Y-5178571D01*
X57607142Y-5750000D02*
X57535714Y-5678571D01*
X57392857Y-5464285D01*
X57321428Y-5321428D01*
X57250000Y-5107142D01*
X57178571Y-4750000D01*
X57178571Y-4464285D01*
X57250000Y-4107142D01*
X57321428Y-3892857D01*
X57392857Y-3750000D01*
X57535714Y-3535714D01*
X57607142Y-3464285D01*
X55464285Y-4178571D02*
X55107142Y-5178571D01*
X54750000Y-4178571D01*
X54250000Y-3821428D02*
X54178571Y-3750000D01*
X54035714Y-3678571D01*
X53678571Y-3678571D01*
X53535714Y-3750000D01*
X53464285Y-3821428D01*
X53392857Y-3964285D01*
X53392857Y-4107142D01*
X53464285Y-4321428D01*
X54321428Y-5178571D01*
X53392857Y-5178571D01*
X52750000Y-5035714D02*
X52678571Y-5107142D01*
X52750000Y-5178571D01*
X52821428Y-5107142D01*
X52750000Y-5035714D01*
X52750000Y-5178571D01*
X51750000Y-3678571D02*
X51607142Y-3678571D01*
X51464285Y-3750000D01*
X51392857Y-3821428D01*
X51321428Y-3964285D01*
X51250000Y-4250000D01*
X51250000Y-4607142D01*
X51321428Y-4892857D01*
X51392857Y-5035714D01*
X51464285Y-5107142D01*
X51607142Y-5178571D01*
X51750000Y-5178571D01*
X51892857Y-5107142D01*
X51964285Y-5035714D01*
X52035714Y-4892857D01*
X52107142Y-4607142D01*
X52107142Y-4250000D01*
X52035714Y-3964285D01*
X51964285Y-3821428D01*
X51892857Y-3750000D01*
X51750000Y-3678571D01*
X50607142Y-5035714D02*
X50535714Y-5107142D01*
X50607142Y-5178571D01*
X50678571Y-5107142D01*
X50607142Y-5035714D01*
X50607142Y-5178571D01*
X49107142Y-5178571D02*
X49964285Y-5178571D01*
X49535714Y-5178571D02*
X49535714Y-3678571D01*
X49678571Y-3892857D01*
X49821428Y-4035714D01*
X49964285Y-4107142D01*
X47321428Y-5178571D02*
X47321428Y-3678571D01*
X47321428Y-4250000D02*
X47178571Y-4178571D01*
X46892857Y-4178571D01*
X46750000Y-4250000D01*
X46678571Y-4321428D01*
X46607142Y-4464285D01*
X46607142Y-4892857D01*
X46678571Y-5035714D01*
X46750000Y-5107142D01*
X46892857Y-5178571D01*
X47178571Y-5178571D01*
X47321428Y-5107142D01*
X46107142Y-4178571D02*
X45750000Y-5178571D01*
X45392857Y-4178571D02*
X45750000Y-5178571D01*
X45892857Y-5535714D01*
X45964285Y-5607142D01*
X46107142Y-5678571D01*
X42750000Y-4464285D02*
X42821428Y-4392857D01*
X42964285Y-4321428D01*
X43107142Y-4321428D01*
X43250000Y-4392857D01*
X43321428Y-4464285D01*
X43392857Y-4607142D01*
X43392857Y-4750000D01*
X43321428Y-4892857D01*
X43250000Y-4964285D01*
X43107142Y-5035714D01*
X42964285Y-5035714D01*
X42821428Y-4964285D01*
X42750000Y-4892857D01*
X42750000Y-4321428D02*
X42750000Y-4892857D01*
X42678571Y-4964285D01*
X42607142Y-4964285D01*
X42464285Y-4892857D01*
X42392857Y-4750000D01*
X42392857Y-4392857D01*
X42535714Y-4178571D01*
X42750000Y-4035714D01*
X43035714Y-3964285D01*
X43321428Y-4035714D01*
X43535714Y-4178571D01*
X43678571Y-4392857D01*
X43750000Y-4678571D01*
X43678571Y-4964285D01*
X43535714Y-5178571D01*
X43321428Y-5321428D01*
X43035714Y-5392857D01*
X42750000Y-5321428D01*
X42535714Y-5178571D01*
X41750000Y-5178571D02*
X41750000Y-3678571D01*
X41750000Y-4392857D02*
X40892857Y-4392857D01*
X40892857Y-5178571D02*
X40892857Y-3678571D01*
X39678571Y-4392857D02*
X39464285Y-4464285D01*
X39392857Y-4535714D01*
X39321428Y-4678571D01*
X39321428Y-4892857D01*
X39392857Y-5035714D01*
X39464285Y-5107142D01*
X39607142Y-5178571D01*
X40178571Y-5178571D01*
X40178571Y-3678571D01*
X39678571Y-3678571D01*
X39535714Y-3750000D01*
X39464285Y-3821428D01*
X39392857Y-3964285D01*
X39392857Y-4107142D01*
X39464285Y-4250000D01*
X39535714Y-4321428D01*
X39678571Y-4392857D01*
X40178571Y-4392857D01*
X38178571Y-4392857D02*
X37964285Y-4464285D01*
X37892857Y-4535714D01*
X37821428Y-4678571D01*
X37821428Y-4892857D01*
X37892857Y-5035714D01*
X37964285Y-5107142D01*
X38107142Y-5178571D01*
X38678571Y-5178571D01*
X38678571Y-3678571D01*
X38178571Y-3678571D01*
X38035714Y-3750000D01*
X37964285Y-3821428D01*
X37892857Y-3964285D01*
X37892857Y-4107142D01*
X37964285Y-4250000D01*
X38035714Y-4321428D01*
X38178571Y-4392857D01*
X38678571Y-4392857D01*
X37178571Y-5178571D02*
X37178571Y-4178571D01*
X37178571Y-3678571D02*
X37250000Y-3750000D01*
X37178571Y-3821428D01*
X37107142Y-3750000D01*
X37178571Y-3678571D01*
X37178571Y-3821428D01*
X36535714Y-5107142D02*
X36392857Y-5178571D01*
X36107142Y-5178571D01*
X35964285Y-5107142D01*
X35892857Y-4964285D01*
X35892857Y-4892857D01*
X35964285Y-4750000D01*
X36107142Y-4678571D01*
X36321428Y-4678571D01*
X36464285Y-4607142D01*
X36535714Y-4464285D01*
X36535714Y-4392857D01*
X36464285Y-4250000D01*
X36321428Y-4178571D01*
X36107142Y-4178571D01*
X35964285Y-4250000D01*
X34678571Y-5107142D02*
X34821428Y-5178571D01*
X35107142Y-5178571D01*
X35250000Y-5107142D01*
X35321428Y-4964285D01*
X35321428Y-4392857D01*
X35250000Y-4250000D01*
X35107142Y-4178571D01*
X34821428Y-4178571D01*
X34678571Y-4250000D01*
X34607142Y-4392857D01*
X34607142Y-4535714D01*
X35321428Y-4678571D01*
X33964285Y-4178571D02*
X33964285Y-5178571D01*
X33964285Y-4321428D02*
X33892857Y-4250000D01*
X33750000Y-4178571D01*
X33535714Y-4178571D01*
X33392857Y-4250000D01*
X33321428Y-4392857D01*
X33321428Y-5178571D01*
X32607142Y-5178571D02*
X32607142Y-4178571D01*
X32607142Y-3678571D02*
X32678571Y-3750000D01*
X32607142Y-3821428D01*
X32535714Y-3750000D01*
X32607142Y-3678571D01*
X32607142Y-3821428D01*
X31321428Y-5107142D02*
X31464285Y-5178571D01*
X31750000Y-5178571D01*
X31892857Y-5107142D01*
X31964285Y-4964285D01*
X31964285Y-4392857D01*
X31892857Y-4250000D01*
X31750000Y-4178571D01*
X31464285Y-4178571D01*
X31321428Y-4250000D01*
X31250000Y-4392857D01*
X31250000Y-4535714D01*
X31964285Y-4678571D01*
X30607142Y-5178571D02*
X30607142Y-3678571D01*
X30464285Y-4607142D02*
X30035714Y-5178571D01*
X30035714Y-4178571D02*
X30607142Y-4750000D01*
X29464285Y-5107142D02*
X29321428Y-5178571D01*
X29035714Y-5178571D01*
X28892857Y-5107142D01*
X28821428Y-4964285D01*
X28821428Y-4892857D01*
X28892857Y-4750000D01*
X29035714Y-4678571D01*
X29250000Y-4678571D01*
X29392857Y-4607142D01*
X29464285Y-4464285D01*
X29464285Y-4392857D01*
X29392857Y-4250000D01*
X29250000Y-4178571D01*
X29035714Y-4178571D01*
X28892857Y-4250000D01*
D11*
%TO.C,G\u002A\u002A\u002A*%
G36*
X81495935Y46214625D02*
G01*
X81667282Y45924551D01*
X81852213Y45422856D01*
X82056506Y44694617D01*
X82220249Y44015462D01*
X82375726Y43347754D01*
X82522932Y42731598D01*
X82646910Y42228548D01*
X82732701Y41900156D01*
X82743328Y41863000D01*
X82835749Y41416460D01*
X82921800Y40739130D01*
X82999841Y39854174D01*
X83068232Y38784759D01*
X83125334Y37554050D01*
X83169506Y36185212D01*
X83181797Y35669101D01*
X83214638Y34494730D01*
X83260805Y33535897D01*
X83326007Y32754252D01*
X83415958Y32111447D01*
X83536368Y31569135D01*
X83692949Y31088965D01*
X83891414Y30632590D01*
X83949375Y30515481D01*
X84248325Y29980253D01*
X84514858Y29658939D01*
X84791771Y29522843D01*
X85121862Y29543270D01*
X85313493Y29600850D01*
X85714507Y29772925D01*
X86254722Y30046994D01*
X86839542Y30369500D01*
X87189000Y30369500D01*
X87252500Y30306000D01*
X87316000Y30369500D01*
X87252500Y30433000D01*
X87189000Y30369500D01*
X86839542Y30369500D01*
X86863114Y30382499D01*
X87056814Y30496500D01*
X87443000Y30496500D01*
X87506500Y30433000D01*
X87570000Y30496500D01*
X87506500Y30560000D01*
X87443000Y30496500D01*
X87056814Y30496500D01*
X87468655Y30738885D01*
X87493979Y30754923D01*
X87867364Y30754923D01*
X87897497Y30746166D01*
X88128621Y30852781D01*
X88165196Y30870449D01*
X88462361Y31040383D01*
X88532363Y31098364D01*
X91308082Y31098364D01*
X91432916Y31078027D01*
X91597637Y31101377D01*
X91599604Y31144730D01*
X91429628Y31175047D01*
X91356187Y31154756D01*
X91308082Y31098364D01*
X88532363Y31098364D01*
X88647864Y31194030D01*
X88656772Y31206768D01*
X88649062Y31271781D01*
X88490547Y31209563D01*
X88232842Y31046321D01*
X88014500Y30880658D01*
X87867364Y30754923D01*
X87493979Y30754923D01*
X88000320Y31075594D01*
X88387084Y31352070D01*
X88403302Y31365180D01*
X88741997Y31683832D01*
X88983945Y32034007D01*
X89152725Y32473848D01*
X89271914Y33061499D01*
X89349620Y33698714D01*
X89389883Y34289485D01*
X89414943Y35086334D01*
X89425645Y36041847D01*
X89422832Y37108608D01*
X89419466Y37354500D01*
X90491000Y37354500D01*
X90554500Y37291000D01*
X90618000Y37354500D01*
X90554500Y37418000D01*
X90491000Y37354500D01*
X89419466Y37354500D01*
X89407351Y38239202D01*
X89402714Y38434000D01*
X90364000Y38434000D01*
X90410467Y38329465D01*
X90448666Y38349334D01*
X90463866Y38500053D01*
X90448666Y38518667D01*
X90373165Y38501234D01*
X90364000Y38434000D01*
X89402714Y38434000D01*
X89391881Y38889084D01*
X90374026Y38889084D01*
X90397376Y38724363D01*
X90440729Y38722396D01*
X90471046Y38892372D01*
X90450755Y38965813D01*
X90394363Y39013918D01*
X90374026Y38889084D01*
X89391881Y38889084D01*
X89380046Y39386216D01*
X89349379Y40280203D01*
X90140835Y40280203D01*
X90167083Y39975558D01*
X90186200Y39843701D01*
X90249889Y39534373D01*
X90310796Y39377521D01*
X90330020Y39373688D01*
X90347491Y39524065D01*
X90320134Y39829679D01*
X90300500Y39958000D01*
X90234909Y40266648D01*
X90174551Y40423681D01*
X90156679Y40428013D01*
X90140835Y40280203D01*
X89349379Y40280203D01*
X89341762Y40502234D01*
X89293344Y41539842D01*
X89235636Y42451624D01*
X89187151Y43013496D01*
X89348000Y43013496D01*
X89440190Y42884169D01*
X89475000Y42879000D01*
X89598698Y42922331D01*
X89602000Y42935005D01*
X89513006Y43043434D01*
X89475000Y43069500D01*
X89357971Y43059431D01*
X89348000Y43013496D01*
X89187151Y43013496D01*
X89182738Y43064635D01*
X89246605Y43266140D01*
X89417360Y43368800D01*
X89591336Y43334442D01*
X89652590Y43237637D01*
X89713554Y43031698D01*
X89820902Y42668902D01*
X89924687Y42318073D01*
X90092889Y41718575D01*
X90266997Y41046530D01*
X90430320Y40372122D01*
X90566165Y39765537D01*
X90657838Y39296960D01*
X90682351Y39132500D01*
X90733445Y38611529D01*
X90787319Y37922099D01*
X90838618Y37149619D01*
X90881984Y36379500D01*
X90912062Y35697153D01*
X90922568Y35302199D01*
X90941419Y34841143D01*
X90978860Y34483200D01*
X91027057Y34301175D01*
X91030750Y34296782D01*
X91121094Y34135120D01*
X91088541Y34033257D01*
X90999000Y34052500D01*
X90890275Y34023710D01*
X90872000Y33932996D01*
X90926614Y33759068D01*
X90976303Y33735000D01*
X91037666Y33620372D01*
X91083402Y33325954D01*
X91098450Y33068250D01*
X91098449Y32702230D01*
X91068714Y32567225D01*
X91003891Y32641423D01*
X90997143Y32655500D01*
X90929954Y32756155D01*
X90919675Y32635269D01*
X90945812Y32401500D01*
X91018412Y31899070D01*
X91095306Y31590292D01*
X91212932Y31416863D01*
X91407729Y31320478D01*
X91662121Y31255364D01*
X92140490Y31166774D01*
X92417770Y31160192D01*
X92481240Y31224410D01*
X92318180Y31348218D01*
X91949009Y31508161D01*
X91446372Y31732256D01*
X91186799Y31940831D01*
X91146339Y32032964D01*
X91128652Y32197991D01*
X91201676Y32146700D01*
X91273339Y32057446D01*
X91471740Y31914233D01*
X91800808Y31768590D01*
X92173790Y31647946D01*
X92503934Y31579734D01*
X92704487Y31591386D01*
X92717214Y31600881D01*
X92801235Y31817541D01*
X92853566Y32232833D01*
X92873120Y32793239D01*
X92858812Y33445242D01*
X92815468Y34052500D01*
X93412000Y34052500D01*
X93475500Y33989000D01*
X93539000Y34052500D01*
X93475500Y34116000D01*
X93412000Y34052500D01*
X92815468Y34052500D01*
X92809556Y34135323D01*
X92775008Y34449639D01*
X92704612Y35059505D01*
X92680334Y35373300D01*
X92904000Y35373300D01*
X92963790Y35085620D01*
X93103167Y34842456D01*
X93249319Y34751000D01*
X93253268Y34857608D01*
X93207522Y35100250D01*
X93103687Y35421788D01*
X92998897Y35576637D01*
X92923344Y35537638D01*
X92904000Y35373300D01*
X92680334Y35373300D01*
X92673258Y35464754D01*
X92681377Y35711817D01*
X92729404Y35847126D01*
X92788539Y35901172D01*
X92964783Y35944354D01*
X93119341Y35819316D01*
X93267435Y35500595D01*
X93424292Y34962727D01*
X93476246Y34751000D01*
X93626008Y34111318D01*
X93726535Y33643592D01*
X93791035Y33273574D01*
X93832716Y32927016D01*
X93860318Y32592000D01*
X93881857Y32262849D01*
X93876219Y32172998D01*
X93836893Y32308588D01*
X93800647Y32465000D01*
X93699436Y32909500D01*
X93682718Y32429171D01*
X93617435Y31964486D01*
X93483244Y31511512D01*
X93480014Y31503716D01*
X93392580Y31241435D01*
X93404056Y31134726D01*
X93430120Y31142700D01*
X93512729Y31127084D01*
X93483939Y30967593D01*
X93460320Y30708763D01*
X93573463Y30603844D01*
X93773737Y30634197D01*
X94011507Y30781187D01*
X94237143Y31026176D01*
X94385551Y31306146D01*
X94457311Y31563202D01*
X94419212Y31632553D01*
X94405092Y31625343D01*
X94318899Y31654546D01*
X94321999Y31781752D01*
X94453364Y32004707D01*
X94660278Y32049057D01*
X94840582Y31905493D01*
X94871907Y31831867D01*
X94914497Y31332918D01*
X94782881Y30772728D01*
X94504195Y30244901D01*
X94360127Y30066530D01*
X93939400Y29607500D01*
X91929450Y29601203D01*
X91146278Y29595276D01*
X90567026Y29579535D01*
X90141655Y29548565D01*
X89820121Y29496949D01*
X89552385Y29419271D01*
X89303651Y29317022D01*
X88715396Y29002269D01*
X88040382Y28563068D01*
X87366724Y28059186D01*
X87018068Y27766773D01*
X86774263Y27513575D01*
X86425160Y27101551D01*
X86009440Y26581127D01*
X85565784Y26002728D01*
X85132872Y25416781D01*
X84749384Y24873711D01*
X84454553Y24424841D01*
X83815501Y23487236D01*
X82976431Y22417279D01*
X81947035Y21225925D01*
X80737007Y19924128D01*
X79356042Y18522843D01*
X78450769Y17640148D01*
X77254530Y16487829D01*
X76229028Y15495555D01*
X75360198Y14649118D01*
X74633977Y13934307D01*
X74036300Y13336915D01*
X73553102Y12842732D01*
X73170321Y12437548D01*
X72873892Y12107155D01*
X72649750Y11837344D01*
X72483831Y11613904D01*
X72478794Y11606585D01*
X72262415Y11267151D01*
X72167886Y11004115D01*
X72211096Y10761559D01*
X72407937Y10483566D01*
X72774301Y10114216D01*
X72949882Y9948931D01*
X73377512Y9586471D01*
X73713096Y9398251D01*
X73975559Y9351000D01*
X74333976Y9435341D01*
X74653591Y9644243D01*
X74847199Y9911524D01*
X74870000Y10029817D01*
X74957034Y10237578D01*
X75121352Y10428104D01*
X75309475Y10580203D01*
X75402205Y10556247D01*
X75460605Y10426507D01*
X75491877Y10103922D01*
X75428184Y9641198D01*
X75291147Y9123860D01*
X75102383Y8637434D01*
X74931022Y8331425D01*
X74544485Y7889149D01*
X74112053Y7652059D01*
X73579409Y7602409D01*
X72991998Y7697932D01*
X72670893Y7822729D01*
X72245530Y8050605D01*
X71848998Y8304612D01*
X71464826Y8566480D01*
X71228383Y8695997D01*
X71082410Y8710795D01*
X70969646Y8628503D01*
X70933000Y8586653D01*
X70775580Y8457458D01*
X70545247Y8410217D01*
X70163574Y8432568D01*
X70044000Y8446514D01*
X69627039Y8519581D01*
X69305421Y8650778D01*
X69131524Y8779500D01*
X70679000Y8779500D01*
X70742500Y8716000D01*
X70806000Y8779500D01*
X70742500Y8843000D01*
X70679000Y8779500D01*
X69131524Y8779500D01*
X68981070Y8890868D01*
X68887126Y8977496D01*
X69536000Y8977496D01*
X69628190Y8848169D01*
X69663000Y8843000D01*
X69786698Y8886331D01*
X69790000Y8899005D01*
X69701006Y9007434D01*
X69663000Y9033500D01*
X70552000Y9033500D01*
X70615500Y8970000D01*
X70679000Y9033500D01*
X70615500Y9097000D01*
X70552000Y9033500D01*
X69663000Y9033500D01*
X69545971Y9023431D01*
X69536000Y8977496D01*
X68887126Y8977496D01*
X68719529Y9132040D01*
X68665410Y9181667D01*
X73007333Y9181667D01*
X73024766Y9106166D01*
X73092000Y9097000D01*
X73196535Y9143468D01*
X73176666Y9181667D01*
X73025947Y9196867D01*
X73007333Y9181667D01*
X68665410Y9181667D01*
X68390621Y9433644D01*
X68128529Y9649079D01*
X67989669Y9731996D01*
X67989279Y9732000D01*
X67923810Y9844679D01*
X67887559Y10125965D01*
X67885000Y10237073D01*
X67916763Y10532764D01*
X68301651Y10532764D01*
X68322771Y10224028D01*
X68426348Y9884260D01*
X68574262Y9605247D01*
X68728391Y9478779D01*
X68739712Y9478000D01*
X68724898Y9568647D01*
X68600703Y9787061D01*
X68598106Y9791032D01*
X68477204Y10070189D01*
X68775765Y10070189D01*
X68842965Y9827054D01*
X68965728Y9704618D01*
X69149123Y9636743D01*
X69273840Y9660766D01*
X69282000Y9689667D01*
X69202769Y9799546D01*
X69028000Y9986000D01*
X68834989Y10135382D01*
X68775765Y10070189D01*
X68477204Y10070189D01*
X68442556Y10150189D01*
X68372675Y10521282D01*
X68352350Y10938500D01*
X68301651Y10532764D01*
X67916763Y10532764D01*
X67925819Y10617066D01*
X68079517Y10856953D01*
X68202844Y10950405D01*
X68387691Y11112035D01*
X68456147Y11181245D01*
X69295066Y11181245D01*
X69376103Y10917138D01*
X69449428Y10779645D01*
X69465686Y10811500D01*
X69663000Y10811500D01*
X69726500Y10748000D01*
X69790000Y10811500D01*
X69726500Y10875000D01*
X69663000Y10811500D01*
X69465686Y10811500D01*
X69494152Y10867272D01*
X69515444Y10997024D01*
X69633314Y11309262D01*
X69770591Y11475338D01*
X69880792Y11574626D01*
X69799173Y11560697D01*
X69631250Y11491679D01*
X69362840Y11348162D01*
X69295066Y11181245D01*
X68456147Y11181245D01*
X68703586Y11431405D01*
X68937361Y11681019D01*
X70443041Y11681019D01*
X70459148Y11453186D01*
X70501807Y11330617D01*
X70616485Y11188505D01*
X70711412Y11242765D01*
X71249184Y11242765D01*
X71263464Y11134260D01*
X71314000Y11065500D01*
X71546834Y10905382D01*
X71678800Y10879040D01*
X71800938Y10905316D01*
X71720852Y11005455D01*
X71638976Y11069540D01*
X71390048Y11221387D01*
X71249184Y11242765D01*
X70711412Y11242765D01*
X70726651Y11251475D01*
X70780193Y11475111D01*
X70779167Y11510000D01*
X70953052Y11510000D01*
X70973010Y11329707D01*
X71017109Y11351250D01*
X71033883Y11611264D01*
X71017109Y11668750D01*
X70970755Y11684705D01*
X70953052Y11510000D01*
X70779167Y11510000D01*
X70777529Y11565629D01*
X70701930Y11781390D01*
X70588972Y11799748D01*
X70443041Y11681019D01*
X68937361Y11681019D01*
X69116978Y11872804D01*
X69344044Y12123834D01*
X69536000Y12123834D01*
X69632217Y12020032D01*
X69655504Y12018000D01*
X69830061Y12108986D01*
X69840418Y12123834D01*
X69801566Y12216602D01*
X69720913Y12229667D01*
X69555363Y12170841D01*
X69536000Y12123834D01*
X69344044Y12123834D01*
X69594318Y12400519D01*
X69600377Y12407405D01*
X69950927Y12407405D01*
X69979939Y12399000D01*
X70117532Y12339397D01*
X70107500Y12272000D01*
X70068434Y12153031D01*
X70081953Y12145000D01*
X70169566Y12244633D01*
X70350294Y12506794D01*
X70541968Y12806968D01*
X70884433Y12806968D01*
X70936985Y12780000D01*
X71046141Y12882926D01*
X71060000Y12970500D01*
X71032828Y13139945D01*
X71010087Y13161000D01*
X70928197Y13061692D01*
X70887073Y12970500D01*
X70884433Y12806968D01*
X70541968Y12806968D01*
X70586289Y12876377D01*
X70604344Y12905566D01*
X70863385Y13303721D01*
X71039518Y13508992D01*
X71167121Y13553794D01*
X71244066Y13508816D01*
X71355276Y13322731D01*
X71344547Y13236628D01*
X71361351Y13184661D01*
X71427544Y13216184D01*
X71511616Y13355825D01*
X71443925Y13474976D01*
X71388677Y13634671D01*
X71509308Y13716772D01*
X71526939Y13733345D01*
X72423808Y13733345D01*
X72440861Y13671909D01*
X72616255Y13740545D01*
X72781776Y13849117D01*
X72946778Y14008258D01*
X72964800Y14092185D01*
X72834099Y14066269D01*
X72606896Y13916280D01*
X72601680Y13912068D01*
X72423808Y13733345D01*
X71526939Y13733345D01*
X71643079Y13842514D01*
X71632054Y13922104D01*
X71640103Y13986500D01*
X72076000Y13986500D01*
X72139500Y13923000D01*
X72203000Y13986500D01*
X72139500Y14050000D01*
X72076000Y13986500D01*
X71640103Y13986500D01*
X71646733Y14039529D01*
X71697274Y14050000D01*
X71829240Y14113500D01*
X72457000Y14113500D01*
X72520500Y14050000D01*
X72584000Y14113500D01*
X72520500Y14177000D01*
X72457000Y14113500D01*
X71829240Y14113500D01*
X71870376Y14133294D01*
X72129242Y14341705D01*
X72222153Y14430616D01*
X72425945Y14658688D01*
X72434936Y14738503D01*
X72371134Y14723107D01*
X72354170Y14768285D01*
X72490981Y14959793D01*
X72623985Y15113023D01*
X73012072Y15113023D01*
X73108910Y15159563D01*
X73206877Y15245530D01*
X73449823Y15425695D01*
X73541104Y15420886D01*
X73453396Y15253891D01*
X73346000Y15129500D01*
X73179625Y14921264D01*
X73152245Y14815367D01*
X73166312Y14812000D01*
X73316479Y14907622D01*
X73469662Y15097750D01*
X73609252Y15339961D01*
X73658962Y15468575D01*
X73737664Y15613733D01*
X73922892Y15851808D01*
X73941007Y15872811D01*
X74117722Y16088020D01*
X74129448Y16170057D01*
X73981595Y16174115D01*
X73970459Y16173287D01*
X73707452Y16061449D01*
X73402839Y15813926D01*
X73142927Y15514472D01*
X73014024Y15246843D01*
X73013726Y15244861D01*
X73012072Y15113023D01*
X72623985Y15113023D01*
X72755527Y15264567D01*
X73013410Y15538612D01*
X73454057Y15968987D01*
X73788418Y16245812D01*
X75124000Y16245812D01*
X75200614Y16245458D01*
X75241049Y16272500D01*
X75505000Y16272500D01*
X75568500Y16209000D01*
X75632000Y16272500D01*
X75568500Y16336000D01*
X75505000Y16272500D01*
X75241049Y16272500D01*
X75381875Y16366680D01*
X75420141Y16399500D01*
X76140000Y16399500D01*
X76203500Y16336000D01*
X76267000Y16399500D01*
X76203500Y16463000D01*
X76140000Y16399500D01*
X75420141Y16399500D01*
X75594907Y16549391D01*
X75766835Y16733502D01*
X75819951Y16819655D01*
X75797576Y16880990D01*
X75632809Y16769991D01*
X75513115Y16661276D01*
X75273965Y16423086D01*
X75136773Y16268877D01*
X75124000Y16245812D01*
X73788418Y16245812D01*
X73799829Y16255259D01*
X74022573Y16375091D01*
X74065890Y16373719D01*
X74285256Y16399348D01*
X74493730Y16530781D01*
X74684791Y16651826D01*
X74740898Y16593493D01*
X74638841Y16404503D01*
X74584250Y16340754D01*
X74577355Y16285935D01*
X74746928Y16351711D01*
X74857052Y16410604D01*
X75130619Y16595375D01*
X75272817Y16751896D01*
X75278851Y16780500D01*
X75348442Y16965749D01*
X75399498Y17034500D01*
X76013000Y17034500D01*
X76076500Y16971000D01*
X76140000Y17034500D01*
X76076500Y17098000D01*
X76013000Y17034500D01*
X75399498Y17034500D01*
X75470233Y17129750D01*
X75601555Y17296404D01*
X75548034Y17348598D01*
X75453688Y17352000D01*
X75307543Y17295020D01*
X75314500Y17225000D01*
X75348688Y17106204D01*
X75332382Y17098000D01*
X75177088Y17058707D01*
X75039137Y17010722D01*
X74883485Y16967584D01*
X74909033Y17054424D01*
X74993156Y17169472D01*
X75064003Y17284363D01*
X74964258Y17220492D01*
X74843808Y17116445D01*
X74585493Y16939773D01*
X74388384Y16895073D01*
X74368606Y16903418D01*
X74217117Y16856913D01*
X73921676Y16646222D01*
X73508247Y16295956D01*
X73002791Y15830729D01*
X72431271Y15275154D01*
X71819648Y14653842D01*
X71193886Y13991408D01*
X70579945Y13312464D01*
X70575694Y13307646D01*
X70188835Y12847355D01*
X69979238Y12545229D01*
X69950927Y12407405D01*
X69600377Y12407405D01*
X70025113Y12890082D01*
X70520810Y13445510D01*
X71087617Y14055785D01*
X71696399Y14692078D01*
X72318026Y15325561D01*
X72923363Y15927408D01*
X73483279Y16468790D01*
X73968641Y16920879D01*
X74350316Y17254847D01*
X74599173Y17441867D01*
X74651321Y17467903D01*
X74715764Y17438147D01*
X74616000Y17277403D01*
X74493219Y17112248D01*
X74538944Y17125358D01*
X74646351Y17207640D01*
X74797625Y17381145D01*
X74808088Y17476429D01*
X74875316Y17591419D01*
X75046355Y17778330D01*
X75384404Y17778330D01*
X75384925Y17771122D01*
X75494761Y17697671D01*
X75521233Y17702428D01*
X75661602Y17633054D01*
X75712621Y17543678D01*
X75828108Y17365840D01*
X75923391Y17427681D01*
X75967844Y17670065D01*
X76026415Y18050500D01*
X76648000Y18050500D01*
X76711500Y17987000D01*
X76719769Y17995269D01*
X77060137Y17995269D01*
X77077509Y17987000D01*
X77193407Y18076406D01*
X77219500Y18114000D01*
X77251862Y18232732D01*
X77234490Y18241000D01*
X77118592Y18151595D01*
X77092500Y18114000D01*
X77060137Y17995269D01*
X76719769Y17995269D01*
X76775000Y18050500D01*
X76711500Y18114000D01*
X76648000Y18050500D01*
X76026415Y18050500D01*
X76034667Y18104096D01*
X76177636Y18308504D01*
X76367978Y18312759D01*
X76622319Y18354032D01*
X76885002Y18558500D01*
X77156000Y18558500D01*
X77219500Y18495000D01*
X77283000Y18558500D01*
X77219500Y18622000D01*
X77156000Y18558500D01*
X76885002Y18558500D01*
X76963309Y18619452D01*
X77028517Y18685003D01*
X77247213Y18937624D01*
X77336549Y19098864D01*
X77312860Y19130000D01*
X77127336Y19044605D01*
X76908288Y18853493D01*
X76705992Y18679755D01*
X76579368Y18648310D01*
X76578880Y18648787D01*
X76631283Y18758347D01*
X76839261Y18972403D01*
X77117119Y19211044D01*
X77219309Y19294233D01*
X77714782Y19294233D01*
X77759899Y19257000D01*
X77939286Y19344556D01*
X78045000Y19447500D01*
X78121217Y19600768D01*
X78076100Y19638000D01*
X77896713Y19550445D01*
X77791000Y19447500D01*
X77714782Y19294233D01*
X77219309Y19294233D01*
X77469912Y19498237D01*
X77757507Y19738667D01*
X77889754Y19854854D01*
X78117982Y19954191D01*
X78226329Y19941446D01*
X78437678Y19970142D01*
X78497487Y20031925D01*
X78514569Y20133952D01*
X78365370Y20101175D01*
X78211465Y20061308D01*
X78261999Y20164082D01*
X78295426Y20205195D01*
X78471656Y20334928D01*
X78559786Y20332306D01*
X78721578Y20363851D01*
X78968672Y20536733D01*
X79235507Y20787948D01*
X79405392Y20992830D01*
X80609805Y20992830D01*
X80610664Y20910086D01*
X80632949Y20908000D01*
X80738961Y20994789D01*
X80855199Y21130250D01*
X80965035Y21280681D01*
X80899268Y21249145D01*
X80807250Y21178200D01*
X80609805Y20992830D01*
X79405392Y20992830D01*
X79456521Y21054491D01*
X79566152Y21273358D01*
X79569000Y21302157D01*
X79646153Y21509590D01*
X79820468Y21537689D01*
X79866980Y21511250D01*
X79992071Y21550935D01*
X80170769Y21705309D01*
X80253596Y21812856D01*
X80744998Y21812856D01*
X80838032Y21873725D01*
X80854759Y21890134D01*
X80955074Y22056646D01*
X80941472Y22117861D01*
X80847000Y22079749D01*
X80783665Y21961228D01*
X80744998Y21812856D01*
X80253596Y21812856D01*
X80307816Y21883258D01*
X80331000Y21955101D01*
X80254525Y21993811D01*
X80140500Y21924000D01*
X79978182Y21813462D01*
X79980829Y21884395D01*
X80144916Y22128203D01*
X80313894Y22346976D01*
X80541425Y22604088D01*
X80704930Y22735751D01*
X80744539Y22738127D01*
X80770466Y22749500D01*
X81220000Y22749500D01*
X81283500Y22686000D01*
X81347000Y22749500D01*
X81283500Y22813000D01*
X81220000Y22749500D01*
X80770466Y22749500D01*
X80852395Y22785438D01*
X81034497Y22987014D01*
X81079368Y23047857D01*
X81129608Y23130500D01*
X81474000Y23130500D01*
X81537500Y23067000D01*
X81601000Y23130500D01*
X81537500Y23194000D01*
X81474000Y23130500D01*
X81129608Y23130500D01*
X81236590Y23306480D01*
X81241241Y23408886D01*
X81125217Y23373463D01*
X80920414Y23218603D01*
X80658727Y22962695D01*
X80394500Y22652986D01*
X80013472Y22187329D01*
X79587855Y21696826D01*
X79350729Y21437840D01*
X79078707Y21126762D01*
X78907314Y20884975D01*
X78873081Y20776824D01*
X78833503Y20635720D01*
X78710351Y20509640D01*
X78562811Y20401393D01*
X78588514Y20460525D01*
X78680000Y20579403D01*
X78792681Y20753838D01*
X78732446Y20763667D01*
X78512440Y20617196D01*
X78145806Y20322730D01*
X77793027Y20019000D01*
X77034130Y19350471D01*
X76447081Y18829431D01*
X76011732Y18437072D01*
X75707937Y18154589D01*
X75515549Y17963176D01*
X75414420Y17844025D01*
X75384404Y17778330D01*
X75046355Y17778330D01*
X75101158Y17838218D01*
X75451967Y18182650D01*
X75894098Y18590537D01*
X75984237Y18671131D01*
X76809185Y19406554D01*
X77473882Y20003773D01*
X78008894Y20492231D01*
X78444786Y20901371D01*
X78812123Y21260634D01*
X79141473Y21599464D01*
X79463399Y21947302D01*
X79808468Y22333590D01*
X79932052Y22473866D01*
X80362668Y22970498D01*
X80735503Y23412679D01*
X81634292Y23412679D01*
X81657660Y23332066D01*
X81783283Y23201719D01*
X81846689Y23317532D01*
X81855000Y23473400D01*
X81823885Y23657650D01*
X81716613Y23614394D01*
X81713665Y23611466D01*
X81634292Y23412679D01*
X80735503Y23412679D01*
X80745537Y23424579D01*
X81041475Y23788786D01*
X81160960Y23948505D01*
X81601000Y23948505D01*
X81641812Y23833113D01*
X81697061Y23892500D01*
X81855000Y23892500D01*
X81918500Y23829000D01*
X81982000Y23892500D01*
X81918500Y23956000D01*
X81855000Y23892500D01*
X81697061Y23892500D01*
X81735464Y23933779D01*
X81776457Y24026097D01*
X81785333Y24157196D01*
X81726545Y24145601D01*
X81605513Y23983000D01*
X81601000Y23948505D01*
X81160960Y23948505D01*
X81211300Y24015795D01*
X81220000Y24029389D01*
X81338439Y24167667D01*
X82024333Y24167667D01*
X82041766Y24092166D01*
X82109000Y24083000D01*
X82213535Y24129468D01*
X82193666Y24167667D01*
X82042947Y24182867D01*
X82024333Y24167667D01*
X81338439Y24167667D01*
X81389226Y24226961D01*
X82618825Y24226961D01*
X82682211Y24239765D01*
X82733832Y24269955D01*
X82858513Y24306846D01*
X82833068Y24167334D01*
X82789260Y23980775D01*
X82854477Y23993434D01*
X82991103Y24197132D01*
X82993875Y24202293D01*
X83052918Y24442335D01*
X82952115Y24527584D01*
X82760419Y24413547D01*
X82726639Y24374723D01*
X82618825Y24226961D01*
X81389226Y24226961D01*
X81412453Y24254078D01*
X81576745Y24336774D01*
X81683207Y24405968D01*
X81666717Y24460413D01*
X81670601Y24648325D01*
X81673401Y24654500D01*
X82060000Y24654500D01*
X82339278Y24897139D01*
X82585354Y25067487D01*
X82681804Y25046640D01*
X82612751Y24859335D01*
X82482560Y24673889D01*
X82339565Y24451478D01*
X82330483Y24340007D01*
X82345134Y24337000D01*
X82497153Y24431316D01*
X82703758Y24662767D01*
X82736143Y24706967D01*
X82780841Y24803670D01*
X83008344Y24803670D01*
X83024715Y24740647D01*
X83120037Y24857882D01*
X83149758Y24908500D01*
X83295066Y25135880D01*
X83371079Y25226000D01*
X83530278Y25409079D01*
X83678008Y25653865D01*
X83689477Y25681084D01*
X84024026Y25681084D01*
X84047376Y25516363D01*
X84090729Y25514396D01*
X84121046Y25684372D01*
X84100755Y25757813D01*
X84044363Y25805918D01*
X84024026Y25681084D01*
X83689477Y25681084D01*
X83771077Y25874728D01*
X83766293Y25986034D01*
X83755432Y25988000D01*
X83677483Y26065914D01*
X83697780Y26117072D01*
X83857111Y26181964D01*
X83927525Y26156193D01*
X83981296Y26161744D01*
X83901850Y26282747D01*
X83878287Y26305500D01*
X84268000Y26305500D01*
X84331500Y26242000D01*
X84395000Y26305500D01*
X84331500Y26369000D01*
X84268000Y26305500D01*
X83878287Y26305500D01*
X83763719Y26416124D01*
X83630891Y26384125D01*
X83449426Y26211876D01*
X83274772Y25956975D01*
X83277173Y25782864D01*
X83296669Y25578396D01*
X83193070Y25279570D01*
X83190629Y25274864D01*
X83065467Y24998044D01*
X83008344Y24803670D01*
X82780841Y24803670D01*
X82933300Y25133506D01*
X82983777Y25500717D01*
X82998916Y25882600D01*
X83055763Y26189084D01*
X83075842Y26399459D01*
X82941936Y26453667D01*
X82800685Y26381239D01*
X82819265Y26204930D01*
X82837997Y26031941D01*
X82757606Y26043092D01*
X82643464Y26018820D01*
X82617000Y25875755D01*
X82555348Y25609648D01*
X82401299Y25253599D01*
X82338500Y25138010D01*
X82060000Y24654500D01*
X81673401Y24654500D01*
X81772559Y24873163D01*
X81909356Y25143982D01*
X82083455Y25559824D01*
X82234214Y25966408D01*
X82375520Y26470600D01*
X84014000Y26470600D01*
X84067792Y26397790D01*
X84203780Y26511519D01*
X84383883Y26774607D01*
X84451841Y26898059D01*
X84485088Y26940500D01*
X84903000Y26940500D01*
X84966500Y26877000D01*
X85030000Y26940500D01*
X84966500Y27004000D01*
X84903000Y26940500D01*
X84485088Y26940500D01*
X84616477Y27108222D01*
X84754632Y27162750D01*
X84889248Y27162194D01*
X84830936Y27272890D01*
X84661608Y27437090D01*
X84455739Y27573323D01*
X84329589Y27508655D01*
X84324485Y27500651D01*
X84301311Y27405248D01*
X84375377Y27436373D01*
X84504271Y27463215D01*
X84492403Y27323849D01*
X84344074Y27060567D01*
X84335983Y27048942D01*
X84223768Y26822493D01*
X84230150Y26703183D01*
X84213258Y26629294D01*
X84162166Y26623000D01*
X84023391Y26523864D01*
X84014000Y26470600D01*
X82375520Y26470600D01*
X82397542Y26549173D01*
X82429770Y26877000D01*
X82998000Y26877000D01*
X83044467Y26772465D01*
X83082666Y26792334D01*
X83097866Y26943053D01*
X83082666Y26961667D01*
X83007165Y26944234D01*
X82998000Y26877000D01*
X82429770Y26877000D01*
X82451329Y27096293D01*
X82387235Y27663651D01*
X82196920Y28307135D01*
X81872043Y29082630D01*
X81721282Y29403341D01*
X81342724Y30142597D01*
X82002471Y30142597D01*
X82033372Y30071623D01*
X82161248Y29935283D01*
X82234763Y29963251D01*
X82236000Y29981005D01*
X82145794Y30088424D01*
X82089377Y30127628D01*
X82002471Y30142597D01*
X81342724Y30142597D01*
X81212354Y30397186D01*
X80741025Y31170412D01*
X80672224Y31258500D01*
X83208146Y31258500D01*
X83334234Y30875274D01*
X83477196Y30591750D01*
X83586394Y30384375D01*
X83582304Y30306000D01*
X83572555Y30222764D01*
X83688272Y30013968D01*
X83882952Y29740983D01*
X84110091Y29465179D01*
X84323186Y29247925D01*
X84452683Y29157365D01*
X84687205Y29065164D01*
X84767519Y29059161D01*
X84776000Y29132885D01*
X84674566Y29253958D01*
X84500359Y29355135D01*
X84364345Y29480500D01*
X85919000Y29480500D01*
X85982500Y29417000D01*
X86046000Y29480500D01*
X85982500Y29544000D01*
X85919000Y29480500D01*
X84364345Y29480500D01*
X84311715Y29529009D01*
X84057056Y29886049D01*
X83770759Y30376104D01*
X83674415Y30560000D01*
X83453173Y30974294D01*
X83291530Y31238184D01*
X83208639Y31322978D01*
X83208146Y31258500D01*
X80672224Y31258500D01*
X80288325Y31750017D01*
X79835287Y32163002D01*
X79731540Y32235607D01*
X78791759Y32842703D01*
X77874596Y33404997D01*
X77039992Y33886777D01*
X76347893Y34252328D01*
X76340315Y34256051D01*
X76200083Y34333597D01*
X77303471Y34333597D01*
X77334372Y34262623D01*
X77462248Y34126283D01*
X77535763Y34154251D01*
X77537000Y34172005D01*
X77446794Y34279424D01*
X77390377Y34318628D01*
X77303471Y34333597D01*
X76200083Y34333597D01*
X75840185Y34532614D01*
X75371135Y34844446D01*
X75033999Y35124454D01*
X75031802Y35126696D01*
X74782006Y35391817D01*
X74695425Y35535885D01*
X74754843Y35616622D01*
X74871174Y35665289D01*
X75195576Y35682158D01*
X75691381Y35571522D01*
X75862187Y35516098D01*
X76192908Y35388547D01*
X76353454Y35297387D01*
X76314259Y35263254D01*
X76019599Y35308840D01*
X75645698Y35426410D01*
X75584009Y35451205D01*
X75257482Y35573568D01*
X75145867Y35565102D01*
X75238157Y35411066D01*
X75409750Y35217825D01*
X75731690Y34977897D01*
X76213650Y34739982D01*
X76764265Y34542464D01*
X77292173Y34423732D01*
X77303315Y34422233D01*
X77594597Y34382128D01*
X77747815Y34358773D01*
X78019362Y34346244D01*
X78081544Y34422618D01*
X77918000Y34560500D01*
X77704700Y34697829D01*
X77691454Y34742740D01*
X77844231Y34701415D01*
X78129003Y34580035D01*
X78316366Y34488141D01*
X78606481Y34318798D01*
X78755631Y34188590D01*
X78758876Y34152543D01*
X78616824Y34161560D01*
X78492569Y34240453D01*
X78332233Y34326718D01*
X78299000Y34258551D01*
X78378849Y34122882D01*
X78414110Y34116000D01*
X78476894Y34013970D01*
X78457604Y33842141D01*
X78441260Y33651752D01*
X78535066Y33660417D01*
X78626079Y33815247D01*
X78607930Y33875866D01*
X78650918Y33944408D01*
X78891608Y33920319D01*
X79120173Y33882759D01*
X79132252Y33929066D01*
X79061000Y33990708D01*
X78946526Y34095718D01*
X79052790Y34080437D01*
X79103137Y34064481D01*
X79361814Y33999974D01*
X79459882Y33989000D01*
X79537028Y33920402D01*
X79525690Y33893750D01*
X79608261Y33849963D01*
X79862683Y33820307D01*
X80207079Y33807132D01*
X80559574Y33812789D01*
X80838291Y33839627D01*
X80902500Y33854232D01*
X81109530Y33878827D01*
X81124750Y33877040D01*
X81223332Y33962857D01*
X81236208Y34020750D01*
X81269938Y34276497D01*
X81294374Y34433500D01*
X81362651Y34983785D01*
X81422725Y35730339D01*
X81442869Y36084500D01*
X82871000Y36084500D01*
X82934500Y36021000D01*
X82998000Y36084500D01*
X82934500Y36148000D01*
X82871000Y36084500D01*
X81442869Y36084500D01*
X81460928Y36402000D01*
X82871000Y36402000D01*
X82917467Y36297465D01*
X82955666Y36317334D01*
X82970866Y36468053D01*
X82955666Y36486667D01*
X82880165Y36469234D01*
X82871000Y36402000D01*
X81460928Y36402000D01*
X81473630Y36625294D01*
X81477921Y36730084D01*
X81738026Y36730084D01*
X81761376Y36565363D01*
X81804729Y36563396D01*
X81835046Y36733372D01*
X81814755Y36806813D01*
X81768232Y36846500D01*
X82871000Y36846500D01*
X82934500Y36783000D01*
X82998000Y36846500D01*
X82934500Y36910000D01*
X82871000Y36846500D01*
X81768232Y36846500D01*
X81758363Y36854918D01*
X81738026Y36730084D01*
X81477921Y36730084D01*
X81514398Y37620784D01*
X81544061Y38668939D01*
X81551805Y39132500D01*
X82744000Y39132500D01*
X82807500Y39069000D01*
X82871000Y39132500D01*
X82807500Y39196000D01*
X82744000Y39132500D01*
X81551805Y39132500D01*
X81561653Y39721893D01*
X81566207Y40731778D01*
X81556754Y41650726D01*
X81532328Y42430869D01*
X81491961Y43024340D01*
X81471454Y43196500D01*
X81369329Y43962119D01*
X81357006Y44085500D01*
X81855000Y44085500D01*
X81918500Y44022000D01*
X81982000Y44085500D01*
X81918500Y44149000D01*
X81855000Y44085500D01*
X81357006Y44085500D01*
X81317895Y44477084D01*
X81738026Y44477084D01*
X81761376Y44312363D01*
X81804729Y44310396D01*
X81835046Y44480372D01*
X81814755Y44553813D01*
X81758363Y44601918D01*
X81738026Y44477084D01*
X81317895Y44477084D01*
X81313757Y44518507D01*
X81302455Y44905696D01*
X81333139Y45163716D01*
X81355162Y45235764D01*
X81430525Y45391271D01*
X81502297Y45337383D01*
X81579613Y45165000D01*
X81679248Y44966797D01*
X81714468Y44986500D01*
X81685258Y45196317D01*
X81591604Y45568455D01*
X81579857Y45609500D01*
X81484714Y45916076D01*
X81424200Y46001854D01*
X81367280Y45891401D01*
X81339224Y45800000D01*
X81275143Y45607047D01*
X81245967Y45634013D01*
X81232659Y45895250D01*
X81254234Y46175985D01*
X81323765Y46306777D01*
X81332393Y46308000D01*
X81495935Y46214625D01*
G37*
X81495935Y46214625D02*
X81667282Y45924551D01*
X81852213Y45422856D01*
X82056506Y44694617D01*
X82220249Y44015462D01*
X82375726Y43347754D01*
X82522932Y42731598D01*
X82646910Y42228548D01*
X82732701Y41900156D01*
X82743328Y41863000D01*
X82835749Y41416460D01*
X82921800Y40739130D01*
X82999841Y39854174D01*
X83068232Y38784759D01*
X83125334Y37554050D01*
X83169506Y36185212D01*
X83181797Y35669101D01*
X83214638Y34494730D01*
X83260805Y33535897D01*
X83326007Y32754252D01*
X83415958Y32111447D01*
X83536368Y31569135D01*
X83692949Y31088965D01*
X83891414Y30632590D01*
X83949375Y30515481D01*
X84248325Y29980253D01*
X84514858Y29658939D01*
X84791771Y29522843D01*
X85121862Y29543270D01*
X85313493Y29600850D01*
X85714507Y29772925D01*
X86254722Y30046994D01*
X86839542Y30369500D01*
X87189000Y30369500D01*
X87252500Y30306000D01*
X87316000Y30369500D01*
X87252500Y30433000D01*
X87189000Y30369500D01*
X86839542Y30369500D01*
X86863114Y30382499D01*
X87056814Y30496500D01*
X87443000Y30496500D01*
X87506500Y30433000D01*
X87570000Y30496500D01*
X87506500Y30560000D01*
X87443000Y30496500D01*
X87056814Y30496500D01*
X87468655Y30738885D01*
X87493979Y30754923D01*
X87867364Y30754923D01*
X87897497Y30746166D01*
X88128621Y30852781D01*
X88165196Y30870449D01*
X88462361Y31040383D01*
X88532363Y31098364D01*
X91308082Y31098364D01*
X91432916Y31078027D01*
X91597637Y31101377D01*
X91599604Y31144730D01*
X91429628Y31175047D01*
X91356187Y31154756D01*
X91308082Y31098364D01*
X88532363Y31098364D01*
X88647864Y31194030D01*
X88656772Y31206768D01*
X88649062Y31271781D01*
X88490547Y31209563D01*
X88232842Y31046321D01*
X88014500Y30880658D01*
X87867364Y30754923D01*
X87493979Y30754923D01*
X88000320Y31075594D01*
X88387084Y31352070D01*
X88403302Y31365180D01*
X88741997Y31683832D01*
X88983945Y32034007D01*
X89152725Y32473848D01*
X89271914Y33061499D01*
X89349620Y33698714D01*
X89389883Y34289485D01*
X89414943Y35086334D01*
X89425645Y36041847D01*
X89422832Y37108608D01*
X89419466Y37354500D01*
X90491000Y37354500D01*
X90554500Y37291000D01*
X90618000Y37354500D01*
X90554500Y37418000D01*
X90491000Y37354500D01*
X89419466Y37354500D01*
X89407351Y38239202D01*
X89402714Y38434000D01*
X90364000Y38434000D01*
X90410467Y38329465D01*
X90448666Y38349334D01*
X90463866Y38500053D01*
X90448666Y38518667D01*
X90373165Y38501234D01*
X90364000Y38434000D01*
X89402714Y38434000D01*
X89391881Y38889084D01*
X90374026Y38889084D01*
X90397376Y38724363D01*
X90440729Y38722396D01*
X90471046Y38892372D01*
X90450755Y38965813D01*
X90394363Y39013918D01*
X90374026Y38889084D01*
X89391881Y38889084D01*
X89380046Y39386216D01*
X89349379Y40280203D01*
X90140835Y40280203D01*
X90167083Y39975558D01*
X90186200Y39843701D01*
X90249889Y39534373D01*
X90310796Y39377521D01*
X90330020Y39373688D01*
X90347491Y39524065D01*
X90320134Y39829679D01*
X90300500Y39958000D01*
X90234909Y40266648D01*
X90174551Y40423681D01*
X90156679Y40428013D01*
X90140835Y40280203D01*
X89349379Y40280203D01*
X89341762Y40502234D01*
X89293344Y41539842D01*
X89235636Y42451624D01*
X89187151Y43013496D01*
X89348000Y43013496D01*
X89440190Y42884169D01*
X89475000Y42879000D01*
X89598698Y42922331D01*
X89602000Y42935005D01*
X89513006Y43043434D01*
X89475000Y43069500D01*
X89357971Y43059431D01*
X89348000Y43013496D01*
X89187151Y43013496D01*
X89182738Y43064635D01*
X89246605Y43266140D01*
X89417360Y43368800D01*
X89591336Y43334442D01*
X89652590Y43237637D01*
X89713554Y43031698D01*
X89820902Y42668902D01*
X89924687Y42318073D01*
X90092889Y41718575D01*
X90266997Y41046530D01*
X90430320Y40372122D01*
X90566165Y39765537D01*
X90657838Y39296960D01*
X90682351Y39132500D01*
X90733445Y38611529D01*
X90787319Y37922099D01*
X90838618Y37149619D01*
X90881984Y36379500D01*
X90912062Y35697153D01*
X90922568Y35302199D01*
X90941419Y34841143D01*
X90978860Y34483200D01*
X91027057Y34301175D01*
X91030750Y34296782D01*
X91121094Y34135120D01*
X91088541Y34033257D01*
X90999000Y34052500D01*
X90890275Y34023710D01*
X90872000Y33932996D01*
X90926614Y33759068D01*
X90976303Y33735000D01*
X91037666Y33620372D01*
X91083402Y33325954D01*
X91098450Y33068250D01*
X91098449Y32702230D01*
X91068714Y32567225D01*
X91003891Y32641423D01*
X90997143Y32655500D01*
X90929954Y32756155D01*
X90919675Y32635269D01*
X90945812Y32401500D01*
X91018412Y31899070D01*
X91095306Y31590292D01*
X91212932Y31416863D01*
X91407729Y31320478D01*
X91662121Y31255364D01*
X92140490Y31166774D01*
X92417770Y31160192D01*
X92481240Y31224410D01*
X92318180Y31348218D01*
X91949009Y31508161D01*
X91446372Y31732256D01*
X91186799Y31940831D01*
X91146339Y32032964D01*
X91128652Y32197991D01*
X91201676Y32146700D01*
X91273339Y32057446D01*
X91471740Y31914233D01*
X91800808Y31768590D01*
X92173790Y31647946D01*
X92503934Y31579734D01*
X92704487Y31591386D01*
X92717214Y31600881D01*
X92801235Y31817541D01*
X92853566Y32232833D01*
X92873120Y32793239D01*
X92858812Y33445242D01*
X92815468Y34052500D01*
X93412000Y34052500D01*
X93475500Y33989000D01*
X93539000Y34052500D01*
X93475500Y34116000D01*
X93412000Y34052500D01*
X92815468Y34052500D01*
X92809556Y34135323D01*
X92775008Y34449639D01*
X92704612Y35059505D01*
X92680334Y35373300D01*
X92904000Y35373300D01*
X92963790Y35085620D01*
X93103167Y34842456D01*
X93249319Y34751000D01*
X93253268Y34857608D01*
X93207522Y35100250D01*
X93103687Y35421788D01*
X92998897Y35576637D01*
X92923344Y35537638D01*
X92904000Y35373300D01*
X92680334Y35373300D01*
X92673258Y35464754D01*
X92681377Y35711817D01*
X92729404Y35847126D01*
X92788539Y35901172D01*
X92964783Y35944354D01*
X93119341Y35819316D01*
X93267435Y35500595D01*
X93424292Y34962727D01*
X93476246Y34751000D01*
X93626008Y34111318D01*
X93726535Y33643592D01*
X93791035Y33273574D01*
X93832716Y32927016D01*
X93860318Y32592000D01*
X93881857Y32262849D01*
X93876219Y32172998D01*
X93836893Y32308588D01*
X93800647Y32465000D01*
X93699436Y32909500D01*
X93682718Y32429171D01*
X93617435Y31964486D01*
X93483244Y31511512D01*
X93480014Y31503716D01*
X93392580Y31241435D01*
X93404056Y31134726D01*
X93430120Y31142700D01*
X93512729Y31127084D01*
X93483939Y30967593D01*
X93460320Y30708763D01*
X93573463Y30603844D01*
X93773737Y30634197D01*
X94011507Y30781187D01*
X94237143Y31026176D01*
X94385551Y31306146D01*
X94457311Y31563202D01*
X94419212Y31632553D01*
X94405092Y31625343D01*
X94318899Y31654546D01*
X94321999Y31781752D01*
X94453364Y32004707D01*
X94660278Y32049057D01*
X94840582Y31905493D01*
X94871907Y31831867D01*
X94914497Y31332918D01*
X94782881Y30772728D01*
X94504195Y30244901D01*
X94360127Y30066530D01*
X93939400Y29607500D01*
X91929450Y29601203D01*
X91146278Y29595276D01*
X90567026Y29579535D01*
X90141655Y29548565D01*
X89820121Y29496949D01*
X89552385Y29419271D01*
X89303651Y29317022D01*
X88715396Y29002269D01*
X88040382Y28563068D01*
X87366724Y28059186D01*
X87018068Y27766773D01*
X86774263Y27513575D01*
X86425160Y27101551D01*
X86009440Y26581127D01*
X85565784Y26002728D01*
X85132872Y25416781D01*
X84749384Y24873711D01*
X84454553Y24424841D01*
X83815501Y23487236D01*
X82976431Y22417279D01*
X81947035Y21225925D01*
X80737007Y19924128D01*
X79356042Y18522843D01*
X78450769Y17640148D01*
X77254530Y16487829D01*
X76229028Y15495555D01*
X75360198Y14649118D01*
X74633977Y13934307D01*
X74036300Y13336915D01*
X73553102Y12842732D01*
X73170321Y12437548D01*
X72873892Y12107155D01*
X72649750Y11837344D01*
X72483831Y11613904D01*
X72478794Y11606585D01*
X72262415Y11267151D01*
X72167886Y11004115D01*
X72211096Y10761559D01*
X72407937Y10483566D01*
X72774301Y10114216D01*
X72949882Y9948931D01*
X73377512Y9586471D01*
X73713096Y9398251D01*
X73975559Y9351000D01*
X74333976Y9435341D01*
X74653591Y9644243D01*
X74847199Y9911524D01*
X74870000Y10029817D01*
X74957034Y10237578D01*
X75121352Y10428104D01*
X75309475Y10580203D01*
X75402205Y10556247D01*
X75460605Y10426507D01*
X75491877Y10103922D01*
X75428184Y9641198D01*
X75291147Y9123860D01*
X75102383Y8637434D01*
X74931022Y8331425D01*
X74544485Y7889149D01*
X74112053Y7652059D01*
X73579409Y7602409D01*
X72991998Y7697932D01*
X72670893Y7822729D01*
X72245530Y8050605D01*
X71848998Y8304612D01*
X71464826Y8566480D01*
X71228383Y8695997D01*
X71082410Y8710795D01*
X70969646Y8628503D01*
X70933000Y8586653D01*
X70775580Y8457458D01*
X70545247Y8410217D01*
X70163574Y8432568D01*
X70044000Y8446514D01*
X69627039Y8519581D01*
X69305421Y8650778D01*
X69131524Y8779500D01*
X70679000Y8779500D01*
X70742500Y8716000D01*
X70806000Y8779500D01*
X70742500Y8843000D01*
X70679000Y8779500D01*
X69131524Y8779500D01*
X68981070Y8890868D01*
X68887126Y8977496D01*
X69536000Y8977496D01*
X69628190Y8848169D01*
X69663000Y8843000D01*
X69786698Y8886331D01*
X69790000Y8899005D01*
X69701006Y9007434D01*
X69663000Y9033500D01*
X70552000Y9033500D01*
X70615500Y8970000D01*
X70679000Y9033500D01*
X70615500Y9097000D01*
X70552000Y9033500D01*
X69663000Y9033500D01*
X69545971Y9023431D01*
X69536000Y8977496D01*
X68887126Y8977496D01*
X68719529Y9132040D01*
X68665410Y9181667D01*
X73007333Y9181667D01*
X73024766Y9106166D01*
X73092000Y9097000D01*
X73196535Y9143468D01*
X73176666Y9181667D01*
X73025947Y9196867D01*
X73007333Y9181667D01*
X68665410Y9181667D01*
X68390621Y9433644D01*
X68128529Y9649079D01*
X67989669Y9731996D01*
X67989279Y9732000D01*
X67923810Y9844679D01*
X67887559Y10125965D01*
X67885000Y10237073D01*
X67916763Y10532764D01*
X68301651Y10532764D01*
X68322771Y10224028D01*
X68426348Y9884260D01*
X68574262Y9605247D01*
X68728391Y9478779D01*
X68739712Y9478000D01*
X68724898Y9568647D01*
X68600703Y9787061D01*
X68598106Y9791032D01*
X68477204Y10070189D01*
X68775765Y10070189D01*
X68842965Y9827054D01*
X68965728Y9704618D01*
X69149123Y9636743D01*
X69273840Y9660766D01*
X69282000Y9689667D01*
X69202769Y9799546D01*
X69028000Y9986000D01*
X68834989Y10135382D01*
X68775765Y10070189D01*
X68477204Y10070189D01*
X68442556Y10150189D01*
X68372675Y10521282D01*
X68352350Y10938500D01*
X68301651Y10532764D01*
X67916763Y10532764D01*
X67925819Y10617066D01*
X68079517Y10856953D01*
X68202844Y10950405D01*
X68387691Y11112035D01*
X68456147Y11181245D01*
X69295066Y11181245D01*
X69376103Y10917138D01*
X69449428Y10779645D01*
X69465686Y10811500D01*
X69663000Y10811500D01*
X69726500Y10748000D01*
X69790000Y10811500D01*
X69726500Y10875000D01*
X69663000Y10811500D01*
X69465686Y10811500D01*
X69494152Y10867272D01*
X69515444Y10997024D01*
X69633314Y11309262D01*
X69770591Y11475338D01*
X69880792Y11574626D01*
X69799173Y11560697D01*
X69631250Y11491679D01*
X69362840Y11348162D01*
X69295066Y11181245D01*
X68456147Y11181245D01*
X68703586Y11431405D01*
X68937361Y11681019D01*
X70443041Y11681019D01*
X70459148Y11453186D01*
X70501807Y11330617D01*
X70616485Y11188505D01*
X70711412Y11242765D01*
X71249184Y11242765D01*
X71263464Y11134260D01*
X71314000Y11065500D01*
X71546834Y10905382D01*
X71678800Y10879040D01*
X71800938Y10905316D01*
X71720852Y11005455D01*
X71638976Y11069540D01*
X71390048Y11221387D01*
X71249184Y11242765D01*
X70711412Y11242765D01*
X70726651Y11251475D01*
X70780193Y11475111D01*
X70779167Y11510000D01*
X70953052Y11510000D01*
X70973010Y11329707D01*
X71017109Y11351250D01*
X71033883Y11611264D01*
X71017109Y11668750D01*
X70970755Y11684705D01*
X70953052Y11510000D01*
X70779167Y11510000D01*
X70777529Y11565629D01*
X70701930Y11781390D01*
X70588972Y11799748D01*
X70443041Y11681019D01*
X68937361Y11681019D01*
X69116978Y11872804D01*
X69344044Y12123834D01*
X69536000Y12123834D01*
X69632217Y12020032D01*
X69655504Y12018000D01*
X69830061Y12108986D01*
X69840418Y12123834D01*
X69801566Y12216602D01*
X69720913Y12229667D01*
X69555363Y12170841D01*
X69536000Y12123834D01*
X69344044Y12123834D01*
X69594318Y12400519D01*
X69600377Y12407405D01*
X69950927Y12407405D01*
X69979939Y12399000D01*
X70117532Y12339397D01*
X70107500Y12272000D01*
X70068434Y12153031D01*
X70081953Y12145000D01*
X70169566Y12244633D01*
X70350294Y12506794D01*
X70541968Y12806968D01*
X70884433Y12806968D01*
X70936985Y12780000D01*
X71046141Y12882926D01*
X71060000Y12970500D01*
X71032828Y13139945D01*
X71010087Y13161000D01*
X70928197Y13061692D01*
X70887073Y12970500D01*
X70884433Y12806968D01*
X70541968Y12806968D01*
X70586289Y12876377D01*
X70604344Y12905566D01*
X70863385Y13303721D01*
X71039518Y13508992D01*
X71167121Y13553794D01*
X71244066Y13508816D01*
X71355276Y13322731D01*
X71344547Y13236628D01*
X71361351Y13184661D01*
X71427544Y13216184D01*
X71511616Y13355825D01*
X71443925Y13474976D01*
X71388677Y13634671D01*
X71509308Y13716772D01*
X71526939Y13733345D01*
X72423808Y13733345D01*
X72440861Y13671909D01*
X72616255Y13740545D01*
X72781776Y13849117D01*
X72946778Y14008258D01*
X72964800Y14092185D01*
X72834099Y14066269D01*
X72606896Y13916280D01*
X72601680Y13912068D01*
X72423808Y13733345D01*
X71526939Y13733345D01*
X71643079Y13842514D01*
X71632054Y13922104D01*
X71640103Y13986500D01*
X72076000Y13986500D01*
X72139500Y13923000D01*
X72203000Y13986500D01*
X72139500Y14050000D01*
X72076000Y13986500D01*
X71640103Y13986500D01*
X71646733Y14039529D01*
X71697274Y14050000D01*
X71829240Y14113500D01*
X72457000Y14113500D01*
X72520500Y14050000D01*
X72584000Y14113500D01*
X72520500Y14177000D01*
X72457000Y14113500D01*
X71829240Y14113500D01*
X71870376Y14133294D01*
X72129242Y14341705D01*
X72222153Y14430616D01*
X72425945Y14658688D01*
X72434936Y14738503D01*
X72371134Y14723107D01*
X72354170Y14768285D01*
X72490981Y14959793D01*
X72623985Y15113023D01*
X73012072Y15113023D01*
X73108910Y15159563D01*
X73206877Y15245530D01*
X73449823Y15425695D01*
X73541104Y15420886D01*
X73453396Y15253891D01*
X73346000Y15129500D01*
X73179625Y14921264D01*
X73152245Y14815367D01*
X73166312Y14812000D01*
X73316479Y14907622D01*
X73469662Y15097750D01*
X73609252Y15339961D01*
X73658962Y15468575D01*
X73737664Y15613733D01*
X73922892Y15851808D01*
X73941007Y15872811D01*
X74117722Y16088020D01*
X74129448Y16170057D01*
X73981595Y16174115D01*
X73970459Y16173287D01*
X73707452Y16061449D01*
X73402839Y15813926D01*
X73142927Y15514472D01*
X73014024Y15246843D01*
X73013726Y15244861D01*
X73012072Y15113023D01*
X72623985Y15113023D01*
X72755527Y15264567D01*
X73013410Y15538612D01*
X73454057Y15968987D01*
X73788418Y16245812D01*
X75124000Y16245812D01*
X75200614Y16245458D01*
X75241049Y16272500D01*
X75505000Y16272500D01*
X75568500Y16209000D01*
X75632000Y16272500D01*
X75568500Y16336000D01*
X75505000Y16272500D01*
X75241049Y16272500D01*
X75381875Y16366680D01*
X75420141Y16399500D01*
X76140000Y16399500D01*
X76203500Y16336000D01*
X76267000Y16399500D01*
X76203500Y16463000D01*
X76140000Y16399500D01*
X75420141Y16399500D01*
X75594907Y16549391D01*
X75766835Y16733502D01*
X75819951Y16819655D01*
X75797576Y16880990D01*
X75632809Y16769991D01*
X75513115Y16661276D01*
X75273965Y16423086D01*
X75136773Y16268877D01*
X75124000Y16245812D01*
X73788418Y16245812D01*
X73799829Y16255259D01*
X74022573Y16375091D01*
X74065890Y16373719D01*
X74285256Y16399348D01*
X74493730Y16530781D01*
X74684791Y16651826D01*
X74740898Y16593493D01*
X74638841Y16404503D01*
X74584250Y16340754D01*
X74577355Y16285935D01*
X74746928Y16351711D01*
X74857052Y16410604D01*
X75130619Y16595375D01*
X75272817Y16751896D01*
X75278851Y16780500D01*
X75348442Y16965749D01*
X75399498Y17034500D01*
X76013000Y17034500D01*
X76076500Y16971000D01*
X76140000Y17034500D01*
X76076500Y17098000D01*
X76013000Y17034500D01*
X75399498Y17034500D01*
X75470233Y17129750D01*
X75601555Y17296404D01*
X75548034Y17348598D01*
X75453688Y17352000D01*
X75307543Y17295020D01*
X75314500Y17225000D01*
X75348688Y17106204D01*
X75332382Y17098000D01*
X75177088Y17058707D01*
X75039137Y17010722D01*
X74883485Y16967584D01*
X74909033Y17054424D01*
X74993156Y17169472D01*
X75064003Y17284363D01*
X74964258Y17220492D01*
X74843808Y17116445D01*
X74585493Y16939773D01*
X74388384Y16895073D01*
X74368606Y16903418D01*
X74217117Y16856913D01*
X73921676Y16646222D01*
X73508247Y16295956D01*
X73002791Y15830729D01*
X72431271Y15275154D01*
X71819648Y14653842D01*
X71193886Y13991408D01*
X70579945Y13312464D01*
X70575694Y13307646D01*
X70188835Y12847355D01*
X69979238Y12545229D01*
X69950927Y12407405D01*
X69600377Y12407405D01*
X70025113Y12890082D01*
X70520810Y13445510D01*
X71087617Y14055785D01*
X71696399Y14692078D01*
X72318026Y15325561D01*
X72923363Y15927408D01*
X73483279Y16468790D01*
X73968641Y16920879D01*
X74350316Y17254847D01*
X74599173Y17441867D01*
X74651321Y17467903D01*
X74715764Y17438147D01*
X74616000Y17277403D01*
X74493219Y17112248D01*
X74538944Y17125358D01*
X74646351Y17207640D01*
X74797625Y17381145D01*
X74808088Y17476429D01*
X74875316Y17591419D01*
X75046355Y17778330D01*
X75384404Y17778330D01*
X75384925Y17771122D01*
X75494761Y17697671D01*
X75521233Y17702428D01*
X75661602Y17633054D01*
X75712621Y17543678D01*
X75828108Y17365840D01*
X75923391Y17427681D01*
X75967844Y17670065D01*
X76026415Y18050500D01*
X76648000Y18050500D01*
X76711500Y17987000D01*
X76719769Y17995269D01*
X77060137Y17995269D01*
X77077509Y17987000D01*
X77193407Y18076406D01*
X77219500Y18114000D01*
X77251862Y18232732D01*
X77234490Y18241000D01*
X77118592Y18151595D01*
X77092500Y18114000D01*
X77060137Y17995269D01*
X76719769Y17995269D01*
X76775000Y18050500D01*
X76711500Y18114000D01*
X76648000Y18050500D01*
X76026415Y18050500D01*
X76034667Y18104096D01*
X76177636Y18308504D01*
X76367978Y18312759D01*
X76622319Y18354032D01*
X76885002Y18558500D01*
X77156000Y18558500D01*
X77219500Y18495000D01*
X77283000Y18558500D01*
X77219500Y18622000D01*
X77156000Y18558500D01*
X76885002Y18558500D01*
X76963309Y18619452D01*
X77028517Y18685003D01*
X77247213Y18937624D01*
X77336549Y19098864D01*
X77312860Y19130000D01*
X77127336Y19044605D01*
X76908288Y18853493D01*
X76705992Y18679755D01*
X76579368Y18648310D01*
X76578880Y18648787D01*
X76631283Y18758347D01*
X76839261Y18972403D01*
X77117119Y19211044D01*
X77219309Y19294233D01*
X77714782Y19294233D01*
X77759899Y19257000D01*
X77939286Y19344556D01*
X78045000Y19447500D01*
X78121217Y19600768D01*
X78076100Y19638000D01*
X77896713Y19550445D01*
X77791000Y19447500D01*
X77714782Y19294233D01*
X77219309Y19294233D01*
X77469912Y19498237D01*
X77757507Y19738667D01*
X77889754Y19854854D01*
X78117982Y19954191D01*
X78226329Y19941446D01*
X78437678Y19970142D01*
X78497487Y20031925D01*
X78514569Y20133952D01*
X78365370Y20101175D01*
X78211465Y20061308D01*
X78261999Y20164082D01*
X78295426Y20205195D01*
X78471656Y20334928D01*
X78559786Y20332306D01*
X78721578Y20363851D01*
X78968672Y20536733D01*
X79235507Y20787948D01*
X79405392Y20992830D01*
X80609805Y20992830D01*
X80610664Y20910086D01*
X80632949Y20908000D01*
X80738961Y20994789D01*
X80855199Y21130250D01*
X80965035Y21280681D01*
X80899268Y21249145D01*
X80807250Y21178200D01*
X80609805Y20992830D01*
X79405392Y20992830D01*
X79456521Y21054491D01*
X79566152Y21273358D01*
X79569000Y21302157D01*
X79646153Y21509590D01*
X79820468Y21537689D01*
X79866980Y21511250D01*
X79992071Y21550935D01*
X80170769Y21705309D01*
X80253596Y21812856D01*
X80744998Y21812856D01*
X80838032Y21873725D01*
X80854759Y21890134D01*
X80955074Y22056646D01*
X80941472Y22117861D01*
X80847000Y22079749D01*
X80783665Y21961228D01*
X80744998Y21812856D01*
X80253596Y21812856D01*
X80307816Y21883258D01*
X80331000Y21955101D01*
X80254525Y21993811D01*
X80140500Y21924000D01*
X79978182Y21813462D01*
X79980829Y21884395D01*
X80144916Y22128203D01*
X80313894Y22346976D01*
X80541425Y22604088D01*
X80704930Y22735751D01*
X80744539Y22738127D01*
X80770466Y22749500D01*
X81220000Y22749500D01*
X81283500Y22686000D01*
X81347000Y22749500D01*
X81283500Y22813000D01*
X81220000Y22749500D01*
X80770466Y22749500D01*
X80852395Y22785438D01*
X81034497Y22987014D01*
X81079368Y23047857D01*
X81129608Y23130500D01*
X81474000Y23130500D01*
X81537500Y23067000D01*
X81601000Y23130500D01*
X81537500Y23194000D01*
X81474000Y23130500D01*
X81129608Y23130500D01*
X81236590Y23306480D01*
X81241241Y23408886D01*
X81125217Y23373463D01*
X80920414Y23218603D01*
X80658727Y22962695D01*
X80394500Y22652986D01*
X80013472Y22187329D01*
X79587855Y21696826D01*
X79350729Y21437840D01*
X79078707Y21126762D01*
X78907314Y20884975D01*
X78873081Y20776824D01*
X78833503Y20635720D01*
X78710351Y20509640D01*
X78562811Y20401393D01*
X78588514Y20460525D01*
X78680000Y20579403D01*
X78792681Y20753838D01*
X78732446Y20763667D01*
X78512440Y20617196D01*
X78145806Y20322730D01*
X77793027Y20019000D01*
X77034130Y19350471D01*
X76447081Y18829431D01*
X76011732Y18437072D01*
X75707937Y18154589D01*
X75515549Y17963176D01*
X75414420Y17844025D01*
X75384404Y17778330D01*
X75046355Y17778330D01*
X75101158Y17838218D01*
X75451967Y18182650D01*
X75894098Y18590537D01*
X75984237Y18671131D01*
X76809185Y19406554D01*
X77473882Y20003773D01*
X78008894Y20492231D01*
X78444786Y20901371D01*
X78812123Y21260634D01*
X79141473Y21599464D01*
X79463399Y21947302D01*
X79808468Y22333590D01*
X79932052Y22473866D01*
X80362668Y22970498D01*
X80735503Y23412679D01*
X81634292Y23412679D01*
X81657660Y23332066D01*
X81783283Y23201719D01*
X81846689Y23317532D01*
X81855000Y23473400D01*
X81823885Y23657650D01*
X81716613Y23614394D01*
X81713665Y23611466D01*
X81634292Y23412679D01*
X80735503Y23412679D01*
X80745537Y23424579D01*
X81041475Y23788786D01*
X81160960Y23948505D01*
X81601000Y23948505D01*
X81641812Y23833113D01*
X81697061Y23892500D01*
X81855000Y23892500D01*
X81918500Y23829000D01*
X81982000Y23892500D01*
X81918500Y23956000D01*
X81855000Y23892500D01*
X81697061Y23892500D01*
X81735464Y23933779D01*
X81776457Y24026097D01*
X81785333Y24157196D01*
X81726545Y24145601D01*
X81605513Y23983000D01*
X81601000Y23948505D01*
X81160960Y23948505D01*
X81211300Y24015795D01*
X81220000Y24029389D01*
X81338439Y24167667D01*
X82024333Y24167667D01*
X82041766Y24092166D01*
X82109000Y24083000D01*
X82213535Y24129468D01*
X82193666Y24167667D01*
X82042947Y24182867D01*
X82024333Y24167667D01*
X81338439Y24167667D01*
X81389226Y24226961D01*
X82618825Y24226961D01*
X82682211Y24239765D01*
X82733832Y24269955D01*
X82858513Y24306846D01*
X82833068Y24167334D01*
X82789260Y23980775D01*
X82854477Y23993434D01*
X82991103Y24197132D01*
X82993875Y24202293D01*
X83052918Y24442335D01*
X82952115Y24527584D01*
X82760419Y24413547D01*
X82726639Y24374723D01*
X82618825Y24226961D01*
X81389226Y24226961D01*
X81412453Y24254078D01*
X81576745Y24336774D01*
X81683207Y24405968D01*
X81666717Y24460413D01*
X81670601Y24648325D01*
X81673401Y24654500D01*
X82060000Y24654500D01*
X82339278Y24897139D01*
X82585354Y25067487D01*
X82681804Y25046640D01*
X82612751Y24859335D01*
X82482560Y24673889D01*
X82339565Y24451478D01*
X82330483Y24340007D01*
X82345134Y24337000D01*
X82497153Y24431316D01*
X82703758Y24662767D01*
X82736143Y24706967D01*
X82780841Y24803670D01*
X83008344Y24803670D01*
X83024715Y24740647D01*
X83120037Y24857882D01*
X83149758Y24908500D01*
X83295066Y25135880D01*
X83371079Y25226000D01*
X83530278Y25409079D01*
X83678008Y25653865D01*
X83689477Y25681084D01*
X84024026Y25681084D01*
X84047376Y25516363D01*
X84090729Y25514396D01*
X84121046Y25684372D01*
X84100755Y25757813D01*
X84044363Y25805918D01*
X84024026Y25681084D01*
X83689477Y25681084D01*
X83771077Y25874728D01*
X83766293Y25986034D01*
X83755432Y25988000D01*
X83677483Y26065914D01*
X83697780Y26117072D01*
X83857111Y26181964D01*
X83927525Y26156193D01*
X83981296Y26161744D01*
X83901850Y26282747D01*
X83878287Y26305500D01*
X84268000Y26305500D01*
X84331500Y26242000D01*
X84395000Y26305500D01*
X84331500Y26369000D01*
X84268000Y26305500D01*
X83878287Y26305500D01*
X83763719Y26416124D01*
X83630891Y26384125D01*
X83449426Y26211876D01*
X83274772Y25956975D01*
X83277173Y25782864D01*
X83296669Y25578396D01*
X83193070Y25279570D01*
X83190629Y25274864D01*
X83065467Y24998044D01*
X83008344Y24803670D01*
X82780841Y24803670D01*
X82933300Y25133506D01*
X82983777Y25500717D01*
X82998916Y25882600D01*
X83055763Y26189084D01*
X83075842Y26399459D01*
X82941936Y26453667D01*
X82800685Y26381239D01*
X82819265Y26204930D01*
X82837997Y26031941D01*
X82757606Y26043092D01*
X82643464Y26018820D01*
X82617000Y25875755D01*
X82555348Y25609648D01*
X82401299Y25253599D01*
X82338500Y25138010D01*
X82060000Y24654500D01*
X81673401Y24654500D01*
X81772559Y24873163D01*
X81909356Y25143982D01*
X82083455Y25559824D01*
X82234214Y25966408D01*
X82375520Y26470600D01*
X84014000Y26470600D01*
X84067792Y26397790D01*
X84203780Y26511519D01*
X84383883Y26774607D01*
X84451841Y26898059D01*
X84485088Y26940500D01*
X84903000Y26940500D01*
X84966500Y26877000D01*
X85030000Y26940500D01*
X84966500Y27004000D01*
X84903000Y26940500D01*
X84485088Y26940500D01*
X84616477Y27108222D01*
X84754632Y27162750D01*
X84889248Y27162194D01*
X84830936Y27272890D01*
X84661608Y27437090D01*
X84455739Y27573323D01*
X84329589Y27508655D01*
X84324485Y27500651D01*
X84301311Y27405248D01*
X84375377Y27436373D01*
X84504271Y27463215D01*
X84492403Y27323849D01*
X84344074Y27060567D01*
X84335983Y27048942D01*
X84223768Y26822493D01*
X84230150Y26703183D01*
X84213258Y26629294D01*
X84162166Y26623000D01*
X84023391Y26523864D01*
X84014000Y26470600D01*
X82375520Y26470600D01*
X82397542Y26549173D01*
X82429770Y26877000D01*
X82998000Y26877000D01*
X83044467Y26772465D01*
X83082666Y26792334D01*
X83097866Y26943053D01*
X83082666Y26961667D01*
X83007165Y26944234D01*
X82998000Y26877000D01*
X82429770Y26877000D01*
X82451329Y27096293D01*
X82387235Y27663651D01*
X82196920Y28307135D01*
X81872043Y29082630D01*
X81721282Y29403341D01*
X81342724Y30142597D01*
X82002471Y30142597D01*
X82033372Y30071623D01*
X82161248Y29935283D01*
X82234763Y29963251D01*
X82236000Y29981005D01*
X82145794Y30088424D01*
X82089377Y30127628D01*
X82002471Y30142597D01*
X81342724Y30142597D01*
X81212354Y30397186D01*
X80741025Y31170412D01*
X80672224Y31258500D01*
X83208146Y31258500D01*
X83334234Y30875274D01*
X83477196Y30591750D01*
X83586394Y30384375D01*
X83582304Y30306000D01*
X83572555Y30222764D01*
X83688272Y30013968D01*
X83882952Y29740983D01*
X84110091Y29465179D01*
X84323186Y29247925D01*
X84452683Y29157365D01*
X84687205Y29065164D01*
X84767519Y29059161D01*
X84776000Y29132885D01*
X84674566Y29253958D01*
X84500359Y29355135D01*
X84364345Y29480500D01*
X85919000Y29480500D01*
X85982500Y29417000D01*
X86046000Y29480500D01*
X85982500Y29544000D01*
X85919000Y29480500D01*
X84364345Y29480500D01*
X84311715Y29529009D01*
X84057056Y29886049D01*
X83770759Y30376104D01*
X83674415Y30560000D01*
X83453173Y30974294D01*
X83291530Y31238184D01*
X83208639Y31322978D01*
X83208146Y31258500D01*
X80672224Y31258500D01*
X80288325Y31750017D01*
X79835287Y32163002D01*
X79731540Y32235607D01*
X78791759Y32842703D01*
X77874596Y33404997D01*
X77039992Y33886777D01*
X76347893Y34252328D01*
X76340315Y34256051D01*
X76200083Y34333597D01*
X77303471Y34333597D01*
X77334372Y34262623D01*
X77462248Y34126283D01*
X77535763Y34154251D01*
X77537000Y34172005D01*
X77446794Y34279424D01*
X77390377Y34318628D01*
X77303471Y34333597D01*
X76200083Y34333597D01*
X75840185Y34532614D01*
X75371135Y34844446D01*
X75033999Y35124454D01*
X75031802Y35126696D01*
X74782006Y35391817D01*
X74695425Y35535885D01*
X74754843Y35616622D01*
X74871174Y35665289D01*
X75195576Y35682158D01*
X75691381Y35571522D01*
X75862187Y35516098D01*
X76192908Y35388547D01*
X76353454Y35297387D01*
X76314259Y35263254D01*
X76019599Y35308840D01*
X75645698Y35426410D01*
X75584009Y35451205D01*
X75257482Y35573568D01*
X75145867Y35565102D01*
X75238157Y35411066D01*
X75409750Y35217825D01*
X75731690Y34977897D01*
X76213650Y34739982D01*
X76764265Y34542464D01*
X77292173Y34423732D01*
X77303315Y34422233D01*
X77594597Y34382128D01*
X77747815Y34358773D01*
X78019362Y34346244D01*
X78081544Y34422618D01*
X77918000Y34560500D01*
X77704700Y34697829D01*
X77691454Y34742740D01*
X77844231Y34701415D01*
X78129003Y34580035D01*
X78316366Y34488141D01*
X78606481Y34318798D01*
X78755631Y34188590D01*
X78758876Y34152543D01*
X78616824Y34161560D01*
X78492569Y34240453D01*
X78332233Y34326718D01*
X78299000Y34258551D01*
X78378849Y34122882D01*
X78414110Y34116000D01*
X78476894Y34013970D01*
X78457604Y33842141D01*
X78441260Y33651752D01*
X78535066Y33660417D01*
X78626079Y33815247D01*
X78607930Y33875866D01*
X78650918Y33944408D01*
X78891608Y33920319D01*
X79120173Y33882759D01*
X79132252Y33929066D01*
X79061000Y33990708D01*
X78946526Y34095718D01*
X79052790Y34080437D01*
X79103137Y34064481D01*
X79361814Y33999974D01*
X79459882Y33989000D01*
X79537028Y33920402D01*
X79525690Y33893750D01*
X79608261Y33849963D01*
X79862683Y33820307D01*
X80207079Y33807132D01*
X80559574Y33812789D01*
X80838291Y33839627D01*
X80902500Y33854232D01*
X81109530Y33878827D01*
X81124750Y33877040D01*
X81223332Y33962857D01*
X81236208Y34020750D01*
X81269938Y34276497D01*
X81294374Y34433500D01*
X81362651Y34983785D01*
X81422725Y35730339D01*
X81442869Y36084500D01*
X82871000Y36084500D01*
X82934500Y36021000D01*
X82998000Y36084500D01*
X82934500Y36148000D01*
X82871000Y36084500D01*
X81442869Y36084500D01*
X81460928Y36402000D01*
X82871000Y36402000D01*
X82917467Y36297465D01*
X82955666Y36317334D01*
X82970866Y36468053D01*
X82955666Y36486667D01*
X82880165Y36469234D01*
X82871000Y36402000D01*
X81460928Y36402000D01*
X81473630Y36625294D01*
X81477921Y36730084D01*
X81738026Y36730084D01*
X81761376Y36565363D01*
X81804729Y36563396D01*
X81835046Y36733372D01*
X81814755Y36806813D01*
X81768232Y36846500D01*
X82871000Y36846500D01*
X82934500Y36783000D01*
X82998000Y36846500D01*
X82934500Y36910000D01*
X82871000Y36846500D01*
X81768232Y36846500D01*
X81758363Y36854918D01*
X81738026Y36730084D01*
X81477921Y36730084D01*
X81514398Y37620784D01*
X81544061Y38668939D01*
X81551805Y39132500D01*
X82744000Y39132500D01*
X82807500Y39069000D01*
X82871000Y39132500D01*
X82807500Y39196000D01*
X82744000Y39132500D01*
X81551805Y39132500D01*
X81561653Y39721893D01*
X81566207Y40731778D01*
X81556754Y41650726D01*
X81532328Y42430869D01*
X81491961Y43024340D01*
X81471454Y43196500D01*
X81369329Y43962119D01*
X81357006Y44085500D01*
X81855000Y44085500D01*
X81918500Y44022000D01*
X81982000Y44085500D01*
X81918500Y44149000D01*
X81855000Y44085500D01*
X81357006Y44085500D01*
X81317895Y44477084D01*
X81738026Y44477084D01*
X81761376Y44312363D01*
X81804729Y44310396D01*
X81835046Y44480372D01*
X81814755Y44553813D01*
X81758363Y44601918D01*
X81738026Y44477084D01*
X81317895Y44477084D01*
X81313757Y44518507D01*
X81302455Y44905696D01*
X81333139Y45163716D01*
X81355162Y45235764D01*
X81430525Y45391271D01*
X81502297Y45337383D01*
X81579613Y45165000D01*
X81679248Y44966797D01*
X81714468Y44986500D01*
X81685258Y45196317D01*
X81591604Y45568455D01*
X81579857Y45609500D01*
X81484714Y45916076D01*
X81424200Y46001854D01*
X81367280Y45891401D01*
X81339224Y45800000D01*
X81275143Y45607047D01*
X81245967Y45634013D01*
X81232659Y45895250D01*
X81254234Y46175985D01*
X81323765Y46306777D01*
X81332393Y46308000D01*
X81495935Y46214625D01*
G36*
X46359557Y46513320D02*
G01*
X46415776Y46469253D01*
X46449253Y46367290D01*
X46460149Y46174158D01*
X46448625Y45856583D01*
X46414841Y45381291D01*
X46358959Y44715009D01*
X46292878Y43958500D01*
X46248708Y43314596D01*
X46208843Y42460395D01*
X46174481Y41439585D01*
X46146819Y40295851D01*
X46127057Y39072878D01*
X46116391Y37814352D01*
X46115244Y37481500D01*
X46113447Y36265429D01*
X46115066Y35277097D01*
X46121174Y34490255D01*
X46132847Y33878656D01*
X46151158Y33416048D01*
X46177182Y33076184D01*
X46211995Y32832813D01*
X46256669Y32659687D01*
X46312280Y32530556D01*
X46318376Y32519251D01*
X46522754Y32201817D01*
X46722812Y31970974D01*
X46729727Y31965111D01*
X46864620Y31789968D01*
X46865831Y31701918D01*
X46903854Y31588212D01*
X47078498Y31503463D01*
X47273167Y31496555D01*
X47313685Y31514160D01*
X47464080Y31487542D01*
X47512347Y31431450D01*
X47529449Y31342378D01*
X47457622Y31373373D01*
X47327224Y31376435D01*
X47311000Y31321513D01*
X47413218Y31221703D01*
X47548710Y31218768D01*
X47788275Y31167527D01*
X48168127Y30984065D01*
X48634195Y30699685D01*
X49132407Y30345694D01*
X49343000Y30179918D01*
X49533156Y30013111D01*
X49527244Y29968597D01*
X49406500Y29997197D01*
X49231400Y30042285D01*
X49258608Y29988862D01*
X49397228Y29873180D01*
X49554827Y29696944D01*
X49565072Y29596740D01*
X49438431Y29624018D01*
X49260369Y29785928D01*
X49032324Y29987428D01*
X48849702Y30047725D01*
X48771831Y29959810D01*
X48797068Y29840667D01*
X48817992Y29696810D01*
X48697832Y29732298D01*
X48586960Y29777891D01*
X48655460Y29685021D01*
X48866207Y29565831D01*
X49203634Y29469144D01*
X49261114Y29458883D01*
X49576640Y29434851D01*
X49668860Y29467205D01*
X50208919Y29467205D01*
X50288485Y29417643D01*
X50310682Y29417000D01*
X50452937Y29455850D01*
X50441433Y29503900D01*
X50469333Y29636882D01*
X50638987Y29875321D01*
X50762680Y30011900D01*
X50975559Y30256862D01*
X51060258Y30408712D01*
X51040168Y30433000D01*
X50891932Y30341393D01*
X50656452Y30107226D01*
X50501270Y29925000D01*
X50274990Y29623375D01*
X50208919Y29467205D01*
X49668860Y29467205D01*
X49814076Y29518151D01*
X50080397Y29751894D01*
X50139153Y29812743D01*
X50849756Y30623500D01*
X51121000Y30623500D01*
X51184500Y30560000D01*
X51248000Y30623500D01*
X51184500Y30687000D01*
X51121000Y30623500D01*
X50849756Y30623500D01*
X51016723Y30814000D01*
X51375000Y30814000D01*
X51421467Y30709465D01*
X51459666Y30729334D01*
X51474866Y30880053D01*
X51459666Y30898667D01*
X51384165Y30881234D01*
X51375000Y30814000D01*
X51016723Y30814000D01*
X51033310Y30832924D01*
X51712095Y31802606D01*
X51726058Y31830000D01*
X52137000Y31830000D01*
X52180330Y31706302D01*
X52193004Y31703000D01*
X52301433Y31791994D01*
X52327500Y31830000D01*
X52317430Y31947029D01*
X52271495Y31957000D01*
X52142168Y31864810D01*
X52137000Y31830000D01*
X51726058Y31830000D01*
X52146834Y32655500D01*
X53661000Y32655500D01*
X53724500Y32592000D01*
X53788000Y32655500D01*
X53724500Y32719000D01*
X53661000Y32655500D01*
X52146834Y32655500D01*
X52198962Y32757766D01*
X52284216Y32988856D01*
X53947998Y32988856D01*
X54041032Y33049725D01*
X54057759Y33066134D01*
X54158074Y33232646D01*
X54144472Y33293861D01*
X54050000Y33255749D01*
X53986665Y33137228D01*
X53947998Y32988856D01*
X52284216Y32988856D01*
X52381166Y33251646D01*
X52411653Y33417500D01*
X54677000Y33417500D01*
X54740500Y33354000D01*
X54804000Y33417500D01*
X54740500Y33481000D01*
X54677000Y33417500D01*
X52411653Y33417500D01*
X52413028Y33424977D01*
X54424944Y33424977D01*
X54483687Y33418306D01*
X54603116Y33551777D01*
X54719523Y33761958D01*
X54723210Y33858123D01*
X54622678Y33823070D01*
X54500434Y33654477D01*
X54427385Y33455315D01*
X54424944Y33424977D01*
X52413028Y33424977D01*
X52435000Y33544500D01*
X54169000Y33544500D01*
X54232500Y33481000D01*
X54296000Y33544500D01*
X54232500Y33608000D01*
X54169000Y33544500D01*
X52435000Y33544500D01*
X52437172Y33556313D01*
X52471123Y33925500D01*
X54296000Y33925500D01*
X54359500Y33862000D01*
X54423000Y33925500D01*
X54359500Y33989000D01*
X54296000Y33925500D01*
X52471123Y33925500D01*
X52485835Y34085468D01*
X52493142Y34219117D01*
X54743239Y34219117D01*
X54758176Y34149461D01*
X54792483Y34125806D01*
X55003733Y34070137D01*
X55220336Y34100743D01*
X55312000Y34193088D01*
X55202159Y34228734D01*
X54962750Y34241056D01*
X54743239Y34219117D01*
X52493142Y34219117D01*
X52504863Y34433500D01*
X53280000Y34433500D01*
X53343500Y34370000D01*
X53375250Y34401750D01*
X54179026Y34401750D01*
X54211340Y34280917D01*
X54253373Y34339042D01*
X54388682Y34435158D01*
X54453469Y34414669D01*
X54528692Y34410625D01*
X54498627Y34477378D01*
X54331428Y34617670D01*
X54201951Y34544749D01*
X54179026Y34401750D01*
X53375250Y34401750D01*
X53407000Y34433500D01*
X53343500Y34497000D01*
X53280000Y34433500D01*
X52504863Y34433500D01*
X52525429Y34809661D01*
X52554227Y35699442D01*
X52564585Y36275000D01*
X53153000Y36275000D01*
X53199467Y36170465D01*
X53237666Y36190334D01*
X53252866Y36341053D01*
X53237666Y36359667D01*
X53162165Y36342234D01*
X53153000Y36275000D01*
X52564585Y36275000D01*
X52567315Y36426646D01*
X52568165Y36465500D01*
X53407000Y36465500D01*
X53470500Y36402000D01*
X53534000Y36465500D01*
X53470500Y36529000D01*
X53407000Y36465500D01*
X52568165Y36465500D01*
X52576732Y36857084D01*
X52782026Y36857084D01*
X52805376Y36692363D01*
X52848729Y36690396D01*
X52871848Y36820018D01*
X53331665Y36820018D01*
X53348923Y36774225D01*
X53471524Y36661614D01*
X53531515Y36789875D01*
X53534000Y36853996D01*
X53471515Y36984800D01*
X53404928Y36972220D01*
X53331665Y36820018D01*
X52871848Y36820018D01*
X52879046Y36860372D01*
X52858755Y36933813D01*
X52802363Y36981918D01*
X52782026Y36857084D01*
X52576732Y36857084D01*
X52595101Y37696679D01*
X52611677Y38028830D01*
X52772000Y38028830D01*
X52819546Y37760334D01*
X52928419Y37701633D01*
X53047964Y37834540D01*
X53127529Y38140865D01*
X53129227Y38157106D01*
X53132645Y38428446D01*
X53050343Y38503266D01*
X52970477Y38482988D01*
X52817928Y38301793D01*
X52772000Y38028830D01*
X52611677Y38028830D01*
X52649378Y38784251D01*
X52677530Y39090167D01*
X52899000Y39090167D01*
X52934660Y38813652D01*
X53021220Y38688620D01*
X53028419Y38688000D01*
X53099795Y38794390D01*
X53074053Y39037250D01*
X52984698Y39352852D01*
X52927529Y39417084D01*
X52901200Y39230353D01*
X52899000Y39090167D01*
X52677530Y39090167D01*
X52739202Y39760300D01*
X52749361Y39831000D01*
X52899000Y39831000D01*
X52945467Y39726465D01*
X52983666Y39746334D01*
X52998866Y39897053D01*
X52983666Y39915667D01*
X52908165Y39898234D01*
X52899000Y39831000D01*
X52749361Y39831000D01*
X52849737Y40529500D01*
X53026000Y40529500D01*
X53089500Y40466000D01*
X53153000Y40529500D01*
X53089500Y40593000D01*
X53026000Y40529500D01*
X52849737Y40529500D01*
X52873631Y40695766D01*
X52890716Y40783500D01*
X53407000Y40783500D01*
X53470500Y40720000D01*
X53534000Y40783500D01*
X53470500Y40847000D01*
X53407000Y40783500D01*
X52890716Y40783500D01*
X52940182Y41037500D01*
X53153000Y41037500D01*
X53216500Y40974000D01*
X53280000Y41037500D01*
X53216500Y41101000D01*
X53153000Y41037500D01*
X52940182Y41037500D01*
X53002014Y41355000D01*
X53153000Y41355000D01*
X53199467Y41250465D01*
X53237666Y41270334D01*
X53252866Y41421053D01*
X53237666Y41439667D01*
X53162165Y41422234D01*
X53153000Y41355000D01*
X53002014Y41355000D01*
X53061721Y41661588D01*
X53112013Y41875569D01*
X53277801Y41875569D01*
X53371876Y41914659D01*
X53446721Y41973801D01*
X53622987Y42220457D01*
X53661000Y42386551D01*
X53604728Y42584325D01*
X53534000Y42625000D01*
X53419608Y42522898D01*
X53407000Y42444888D01*
X53363646Y42173855D01*
X53319721Y42032138D01*
X53277801Y41875569D01*
X53112013Y41875569D01*
X53312527Y42728705D01*
X53431584Y43196500D01*
X53434281Y43207084D01*
X53662927Y43207084D01*
X53679600Y42941824D01*
X53725862Y42918805D01*
X53790000Y43129648D01*
X53825655Y43323500D01*
X53887551Y43711596D01*
X53957830Y44158573D01*
X53966234Y44212500D01*
X54045284Y44720500D01*
X53855070Y44149000D01*
X53737046Y43715833D01*
X53669183Y43314995D01*
X53662927Y43207084D01*
X53434281Y43207084D01*
X53601364Y43862637D01*
X53762543Y44512338D01*
X53895637Y45066069D01*
X53974149Y45411247D01*
X54003808Y45514250D01*
X54170944Y45514250D01*
X54190996Y45328679D01*
X54265699Y45374303D01*
X54296000Y45419000D01*
X54403606Y45631791D01*
X54421055Y45704750D01*
X54325711Y45797341D01*
X54296000Y45800000D01*
X54197630Y45692438D01*
X54170944Y45514250D01*
X54003808Y45514250D01*
X54110616Y45885176D01*
X54254627Y46125527D01*
X54392851Y46151863D01*
X54511955Y45983746D01*
X54598608Y45640739D01*
X54639479Y45142405D01*
X54621235Y44508306D01*
X54617980Y44466500D01*
X54565261Y43893650D01*
X54490061Y43179265D01*
X54404303Y42433471D01*
X54352552Y42015246D01*
X54199609Y40355894D01*
X54181763Y38845296D01*
X54298644Y37509453D01*
X54426501Y36831483D01*
X54648082Y35983253D01*
X54862487Y35376800D01*
X55074897Y35000201D01*
X55290493Y34841536D01*
X55291312Y34841337D01*
X55424521Y34788992D01*
X55329838Y34716772D01*
X55261884Y34686520D01*
X55001676Y34672571D01*
X54868327Y34791892D01*
X54711894Y34926315D01*
X54632692Y34918360D01*
X54551747Y34762496D01*
X54595482Y34667608D01*
X54677000Y34687500D01*
X54793747Y34671174D01*
X54804000Y34620333D01*
X54909898Y34533839D01*
X55236467Y34540610D01*
X55343750Y34555125D01*
X55667684Y34597244D01*
X55776924Y34582285D01*
X55707064Y34496433D01*
X55638771Y34440600D01*
X55476832Y34270908D01*
X55459633Y34180034D01*
X55580482Y34213941D01*
X55762812Y34376975D01*
X55818896Y34454667D01*
X56116333Y34454667D01*
X56133766Y34379166D01*
X56201000Y34370000D01*
X56305535Y34416468D01*
X56285666Y34454667D01*
X56134947Y34469867D01*
X56116333Y34454667D01*
X55818896Y34454667D01*
X55913218Y34585326D01*
X55877070Y34711032D01*
X55830429Y34744555D01*
X55734083Y34908204D01*
X55817021Y35073617D01*
X55986245Y35130056D01*
X56036325Y35080474D01*
X55947000Y35005000D01*
X55827050Y34906286D01*
X55939054Y34880385D01*
X55968166Y34879945D01*
X56178376Y34802395D01*
X56228931Y34730707D01*
X56328005Y34647265D01*
X56525264Y34726845D01*
X56699317Y34836858D01*
X56653234Y34870274D01*
X56525976Y34874139D01*
X56355545Y34887415D01*
X56384317Y34957895D01*
X56399841Y34970737D01*
X56836000Y34970737D01*
X56932571Y34951147D01*
X57166866Y35038669D01*
X57185250Y35047814D01*
X57476326Y35157995D01*
X57676723Y35173001D01*
X57851320Y35217547D01*
X58137535Y35383551D01*
X58462901Y35617459D01*
X58754952Y35865719D01*
X58941220Y36074776D01*
X58967380Y36126804D01*
X58953166Y36215052D01*
X58783724Y36167897D01*
X58628101Y36091792D01*
X58362882Y35909471D01*
X58235072Y35732849D01*
X58233000Y35714007D01*
X58123950Y35562022D01*
X57883750Y35456164D01*
X57464023Y35330077D01*
X57105401Y35179872D01*
X56878919Y35038459D01*
X56836000Y34970737D01*
X56399841Y34970737D01*
X56525976Y35075076D01*
X56689702Y35215561D01*
X56637420Y35231949D01*
X56470845Y35188470D01*
X56263312Y35162923D01*
X56246719Y35230230D01*
X56420450Y35348441D01*
X56639779Y35415990D01*
X56849499Y35425261D01*
X56888161Y35367654D01*
X56874504Y35262495D01*
X56999908Y35278362D01*
X57193338Y35393534D01*
X57307302Y35495810D01*
X57529747Y35674735D01*
X57881884Y35905714D01*
X58291273Y36147348D01*
X58685475Y36358236D01*
X58992047Y36496977D01*
X59115135Y36529000D01*
X59226230Y36423451D01*
X59249000Y36291175D01*
X59149287Y36056307D01*
X58885160Y35738015D01*
X58509131Y35385003D01*
X58073716Y35045977D01*
X57631429Y34769638D01*
X57578875Y34742234D01*
X56593075Y34115172D01*
X55663577Y33277378D01*
X54858271Y32300041D01*
X54431759Y31709436D01*
X53934057Y31035275D01*
X53451103Y30393567D01*
X53293899Y30188294D01*
X52684104Y29294328D01*
X52302302Y28487244D01*
X52142827Y27754333D01*
X52137000Y27593266D01*
X52202874Y27123893D01*
X52386194Y26488511D01*
X52665505Y25733765D01*
X53019352Y24906302D01*
X53426281Y24052767D01*
X53864836Y23219808D01*
X54313563Y22454071D01*
X54751007Y21802201D01*
X54877488Y21634980D01*
X55177099Y21229114D01*
X55392494Y20892489D01*
X55491718Y20677210D01*
X55490763Y20635010D01*
X55487239Y20430829D01*
X55597787Y20135505D01*
X55770262Y19846540D01*
X55952524Y19661435D01*
X56023953Y19638000D01*
X56150740Y19574892D01*
X56137500Y19511000D01*
X56136544Y19393496D01*
X56174302Y19384000D01*
X56343783Y19295406D01*
X56601166Y19070141D01*
X56891581Y18768980D01*
X57160158Y18452700D01*
X57352026Y18182076D01*
X57412316Y18017885D01*
X57411098Y18014083D01*
X57403867Y17897502D01*
X57440755Y17904808D01*
X57602153Y17887456D01*
X57887785Y17772601D01*
X57979050Y17726228D01*
X58230338Y17578782D01*
X58327420Y17492803D01*
X58314226Y17484324D01*
X58336712Y17407127D01*
X58511401Y17214448D01*
X58692640Y17045029D01*
X58988729Y16811180D01*
X59215782Y16684996D01*
X59291103Y16679522D01*
X59264806Y16790467D01*
X59081955Y17006349D01*
X58863795Y17208743D01*
X58392558Y17627735D01*
X57879199Y18109979D01*
X57353961Y18623929D01*
X56847086Y19138036D01*
X56388819Y19620752D01*
X56009401Y20040529D01*
X55739077Y20365821D01*
X55608088Y20565078D01*
X55604907Y20608242D01*
X55712012Y20547747D01*
X55954430Y20334802D01*
X56295278Y20003678D01*
X56665488Y19622657D01*
X57648483Y18613923D01*
X58719596Y17562364D01*
X59786458Y16557409D01*
X60467471Y15941768D01*
X61312095Y15146661D01*
X62089828Y14306578D01*
X62847314Y13365771D01*
X63631196Y12268496D01*
X63989592Y11732250D01*
X64284893Y11317785D01*
X64515858Y11089636D01*
X64728847Y11005510D01*
X64790019Y11002000D01*
X64998065Y10976400D01*
X65078541Y10850746D01*
X65074983Y10551759D01*
X65072972Y10525750D01*
X64915395Y9868615D01*
X64556527Y9361922D01*
X63994078Y9003839D01*
X63225758Y8792537D01*
X62849956Y8747841D01*
X62410038Y8721326D01*
X62152288Y8743319D01*
X62007105Y8828749D01*
X61929206Y8945324D01*
X61817320Y9284446D01*
X61816931Y9287864D01*
X63186000Y9287864D01*
X63297149Y9268145D01*
X63567840Y9266013D01*
X63598750Y9266909D01*
X63958939Y9348410D01*
X64178939Y9508200D01*
X64355719Y9659312D01*
X64464689Y9663130D01*
X64561049Y9703101D01*
X64583000Y9826105D01*
X64655959Y10104289D01*
X64726863Y10206064D01*
X64821270Y10431434D01*
X64714695Y10636068D01*
X64454191Y10744499D01*
X64388990Y10748000D01*
X64170446Y10708123D01*
X64138500Y10621000D01*
X64118614Y10505428D01*
X64061328Y10494000D01*
X63969593Y10444125D01*
X63990778Y10408888D01*
X63989171Y10255423D01*
X63867275Y10003120D01*
X63862765Y9996138D01*
X63727962Y9780265D01*
X63734882Y9744978D01*
X63862319Y9842801D01*
X64032068Y9933403D01*
X64075000Y9880509D01*
X63970846Y9743473D01*
X63712415Y9574201D01*
X63630500Y9532988D01*
X63347544Y9390843D01*
X63194732Y9298748D01*
X63186000Y9287864D01*
X61816931Y9287864D01*
X61789000Y9533151D01*
X61737982Y9772182D01*
X61569352Y9846938D01*
X61259746Y9755948D01*
X60785799Y9497738D01*
X60735079Y9466735D01*
X60308699Y9235965D01*
X59898302Y9064551D01*
X59692941Y9008808D01*
X59175124Y9044823D01*
X58674759Y9289677D01*
X58240246Y9700103D01*
X58009505Y10083927D01*
X59203468Y10083927D01*
X59345605Y9992047D01*
X59482491Y10025780D01*
X59503000Y10082885D01*
X59604571Y10203546D01*
X59780534Y10305135D01*
X60017163Y10462185D01*
X60106678Y10583435D01*
X60040269Y10621908D01*
X59811688Y10541595D01*
X59649117Y10459111D01*
X59360638Y10275351D01*
X59209335Y10127256D01*
X59203468Y10083927D01*
X58009505Y10083927D01*
X57919987Y10232834D01*
X57778165Y10720506D01*
X57754009Y11094200D01*
X57818485Y11248599D01*
X57946995Y11172113D01*
X58106000Y10875000D01*
X58263641Y10611997D01*
X58430392Y10494430D01*
X58438907Y10494000D01*
X58599266Y10562697D01*
X58550569Y10751937D01*
X58455250Y10875226D01*
X58364171Y10987446D01*
X58447913Y10937863D01*
X58521617Y10882695D01*
X58682375Y10635520D01*
X58671809Y10476070D01*
X58636741Y10283402D01*
X58658412Y10240000D01*
X58846033Y10290973D01*
X59145356Y10416614D01*
X59473109Y10576008D01*
X59746018Y10728238D01*
X59880809Y10832390D01*
X59884000Y10842184D01*
X59962810Y10990818D01*
X60120422Y11192500D01*
X63694000Y11192500D01*
X63757500Y11129000D01*
X63821000Y11192500D01*
X63757500Y11256000D01*
X63694000Y11192500D01*
X60120422Y11192500D01*
X60161569Y11245151D01*
X60269505Y11367468D01*
X60337592Y11458390D01*
X60773000Y11458390D01*
X60866348Y11333595D01*
X61027000Y11346202D01*
X61232883Y11446725D01*
X61281000Y11524813D01*
X61174501Y11616004D01*
X61027000Y11637000D01*
X60821040Y11562604D01*
X60773000Y11458390D01*
X60337592Y11458390D01*
X60527116Y11711475D01*
X60529395Y11721667D01*
X61831333Y11721667D01*
X61848766Y11646166D01*
X61916000Y11637000D01*
X61932863Y11644496D01*
X62297000Y11644496D01*
X62389190Y11515169D01*
X62424000Y11510000D01*
X62547698Y11553331D01*
X62551000Y11566005D01*
X62462006Y11674434D01*
X62424000Y11700500D01*
X62306971Y11690431D01*
X62297000Y11644496D01*
X61932863Y11644496D01*
X62020535Y11683468D01*
X62000666Y11721667D01*
X61849947Y11736867D01*
X61831333Y11721667D01*
X60529395Y11721667D01*
X60557800Y11848667D01*
X61196333Y11848667D01*
X61213766Y11773166D01*
X61281000Y11764000D01*
X61385535Y11810468D01*
X61365666Y11848667D01*
X61214947Y11863867D01*
X61196333Y11848667D01*
X60557800Y11848667D01*
X60575712Y11928756D01*
X61614295Y11928756D01*
X61789000Y11911053D01*
X61969293Y11931011D01*
X61947750Y11975110D01*
X61687736Y11991884D01*
X61630250Y11975110D01*
X61614295Y11928756D01*
X60575712Y11928756D01*
X60587458Y11981270D01*
X60572337Y12050019D01*
X60467606Y12193341D01*
X60210578Y12484592D01*
X60205931Y12489597D01*
X61682471Y12489597D01*
X61713372Y12418623D01*
X61841248Y12282283D01*
X61914763Y12310251D01*
X61916000Y12328005D01*
X61825794Y12435424D01*
X61769377Y12474628D01*
X61682471Y12489597D01*
X60205931Y12489597D01*
X59830416Y12893976D01*
X59446192Y13297313D01*
X61027000Y13297313D01*
X61131613Y13170245D01*
X61249250Y13121545D01*
X61461927Y13064824D01*
X61518800Y13048733D01*
X61513293Y13062225D01*
X61728917Y13062225D01*
X61738581Y13012834D01*
X61842737Y12908718D01*
X61852500Y12907000D01*
X61953898Y12993850D01*
X61966418Y13012834D01*
X61928580Y13106356D01*
X61852500Y13118667D01*
X61728917Y13062225D01*
X61513293Y13062225D01*
X61491261Y13116194D01*
X61408000Y13224500D01*
X61254247Y13351500D01*
X61535000Y13351500D01*
X61598500Y13288000D01*
X61662000Y13351500D01*
X61598500Y13415000D01*
X61535000Y13351500D01*
X61254247Y13351500D01*
X61209008Y13388867D01*
X61060937Y13391022D01*
X61027000Y13297313D01*
X59446192Y13297313D01*
X59356285Y13391692D01*
X59138880Y13616084D01*
X60783026Y13616084D01*
X60806376Y13451363D01*
X60849729Y13449396D01*
X60880046Y13619372D01*
X60859755Y13692813D01*
X60813232Y13732500D01*
X61154000Y13732500D01*
X61217500Y13669000D01*
X61281000Y13732500D01*
X61217500Y13796000D01*
X61154000Y13732500D01*
X60813232Y13732500D01*
X60803363Y13740918D01*
X60783026Y13616084D01*
X59138880Y13616084D01*
X58817351Y13947944D01*
X58514730Y14256051D01*
X60392000Y14256051D01*
X60487072Y14077903D01*
X60582500Y14050000D01*
X60751950Y14076107D01*
X60773000Y14097950D01*
X60688839Y14207525D01*
X60582500Y14304000D01*
X60432275Y14392546D01*
X60392177Y14275872D01*
X60392000Y14256051D01*
X58514730Y14256051D01*
X58242777Y14532933D01*
X57661729Y15116861D01*
X57103370Y15669929D01*
X56596867Y16162339D01*
X56171382Y16564293D01*
X56010500Y16710967D01*
X55782252Y16947200D01*
X55447716Y17332208D01*
X55052161Y17810938D01*
X54640856Y18328339D01*
X54363886Y18691807D01*
X55720472Y18691807D01*
X55767052Y18573720D01*
X55952014Y18324346D01*
X56236962Y17994786D01*
X56276493Y17951800D01*
X56857673Y17320569D01*
X57283834Y16848607D01*
X57575510Y16511614D01*
X57753236Y16285292D01*
X57837547Y16145342D01*
X57852000Y16087533D01*
X57952884Y15965812D01*
X58018616Y15955000D01*
X58197690Y15860765D01*
X58424855Y15628573D01*
X58466918Y15574000D01*
X58699338Y15313446D01*
X58890529Y15190081D01*
X58990249Y15232567D01*
X58995000Y15272747D01*
X58911061Y15389940D01*
X58683541Y15646435D01*
X58348884Y16002350D01*
X58010750Y16349873D01*
X57524467Y16850339D01*
X57276535Y17111892D01*
X57604988Y17111892D01*
X57686489Y16948752D01*
X57856947Y16740948D01*
X58073683Y16552691D01*
X58250147Y16465868D01*
X58326505Y16498862D01*
X58284372Y16609623D01*
X58269231Y16696388D01*
X58342449Y16664348D01*
X58427932Y16501472D01*
X58405949Y16434602D01*
X58400468Y16355859D01*
X58452987Y16378480D01*
X58624221Y16357500D01*
X58758360Y16239352D01*
X58867156Y16090112D01*
X58800797Y16122215D01*
X58709250Y16192801D01*
X58516465Y16319148D01*
X58479437Y16282019D01*
X58583022Y16105841D01*
X58812072Y15815041D01*
X59151443Y15434048D01*
X59234367Y15345861D01*
X59657902Y14909728D01*
X59931451Y14655704D01*
X60070089Y14572839D01*
X60088893Y14650186D01*
X60056926Y14748500D01*
X59932267Y14916558D01*
X59870412Y14939000D01*
X59768801Y15041622D01*
X59757000Y15123190D01*
X59746979Y15144971D01*
X59966714Y15144971D01*
X60070541Y14994404D01*
X60221911Y14862129D01*
X60561172Y14618308D01*
X60741233Y14572219D01*
X60773000Y14645065D01*
X60678944Y14839213D01*
X60460615Y15051547D01*
X60213770Y15204716D01*
X60049642Y15229388D01*
X59966714Y15144971D01*
X59746979Y15144971D01*
X59658052Y15338239D01*
X59560313Y15417450D01*
X59400366Y15617423D01*
X59326772Y15873203D01*
X59322148Y15891500D01*
X59503000Y15891500D01*
X59566500Y15828000D01*
X59630000Y15891500D01*
X59566500Y15955000D01*
X59503000Y15891500D01*
X59322148Y15891500D01*
X59268522Y16103664D01*
X59167044Y16322333D01*
X59130579Y16371738D01*
X59447982Y16371738D01*
X59511223Y16262592D01*
X59679516Y16140050D01*
X59753936Y16143607D01*
X59877026Y16086407D01*
X60108854Y15888486D01*
X60396671Y15605181D01*
X60687729Y15291826D01*
X60929277Y15003758D01*
X61068567Y14796312D01*
X61083826Y14748500D01*
X61190104Y14628258D01*
X61237747Y14621500D01*
X61404483Y14528526D01*
X61628150Y14299033D01*
X61674351Y14240500D01*
X61963708Y13859500D01*
X61622354Y14167388D01*
X61392043Y14337885D01*
X61284591Y14334663D01*
X61281000Y14310588D01*
X61244715Y14210032D01*
X61097378Y14298335D01*
X61087592Y14306413D01*
X60949906Y14399075D01*
X60959220Y14298734D01*
X60974180Y14258464D01*
X61153124Y14084291D01*
X61302082Y14050000D01*
X61472210Y13996240D01*
X61459372Y13903378D01*
X61444325Y13815290D01*
X61500987Y13838480D01*
X61674576Y13829834D01*
X61823305Y13673082D01*
X61868690Y13468392D01*
X61843810Y13400941D01*
X61823208Y13308338D01*
X61897274Y13339927D01*
X62059194Y13323925D01*
X62120984Y13232550D01*
X62279231Y13058793D01*
X62374087Y13034000D01*
X62533714Y12934255D01*
X62551000Y12859051D01*
X62640561Y12635417D01*
X62737439Y12529370D01*
X62888605Y12361931D01*
X62912900Y12291570D01*
X62948675Y12061486D01*
X63058203Y12018000D01*
X63136073Y12122331D01*
X63131140Y12303750D01*
X63084991Y12565723D01*
X63068437Y12676430D01*
X62973192Y12881438D01*
X62736583Y13215525D01*
X62390201Y13645038D01*
X61965639Y14136323D01*
X61494488Y14655727D01*
X61008341Y15169597D01*
X60538790Y15644280D01*
X60117426Y16046123D01*
X59775842Y16341471D01*
X59545631Y16496672D01*
X59472104Y16507406D01*
X59447982Y16371738D01*
X59130579Y16371738D01*
X59063791Y16462224D01*
X59000213Y16456350D01*
X58995000Y16409350D01*
X58917355Y16389545D01*
X58805898Y16461840D01*
X58677212Y16635825D01*
X58679524Y16720276D01*
X58622688Y16784071D01*
X58428779Y16787361D01*
X58099086Y16845899D01*
X57856653Y16993923D01*
X57661694Y17139942D01*
X57604988Y17111892D01*
X57276535Y17111892D01*
X57229511Y17161500D01*
X57979000Y17161500D01*
X58042500Y17098000D01*
X58106000Y17161500D01*
X58042500Y17225000D01*
X57979000Y17161500D01*
X57229511Y17161500D01*
X57027429Y17374683D01*
X56723585Y17703639D01*
X57364355Y17703639D01*
X57441206Y17605678D01*
X57527023Y17538461D01*
X57750210Y17381782D01*
X57816664Y17387893D01*
X57770926Y17542500D01*
X57596620Y17708062D01*
X57489162Y17728961D01*
X57364355Y17703639D01*
X56723585Y17703639D01*
X56594213Y17843703D01*
X56406979Y18053022D01*
X56248780Y18224067D01*
X56963000Y18224067D01*
X57010178Y18008015D01*
X57109615Y17910307D01*
X57196891Y17990175D01*
X57162138Y18199109D01*
X57104287Y18277513D01*
X56987308Y18338955D01*
X56963000Y18224067D01*
X56248780Y18224067D01*
X56100863Y18383995D01*
X56050584Y18431500D01*
X56328000Y18431500D01*
X56391500Y18368000D01*
X56455000Y18431500D01*
X56582000Y18431500D01*
X56645500Y18368000D01*
X56709000Y18431500D01*
X56645500Y18495000D01*
X56582000Y18431500D01*
X56455000Y18431500D01*
X56391500Y18495000D01*
X56328000Y18431500D01*
X56050584Y18431500D01*
X55859426Y18612110D01*
X55728258Y18694946D01*
X55720472Y18691807D01*
X54363886Y18691807D01*
X54259070Y18829356D01*
X54177992Y18939500D01*
X53900847Y19315031D01*
X53876534Y19347597D01*
X55078471Y19347597D01*
X55109372Y19276623D01*
X55237248Y19140283D01*
X55310763Y19168251D01*
X55312000Y19186005D01*
X55221794Y19293424D01*
X55165377Y19332628D01*
X55078471Y19347597D01*
X53876534Y19347597D01*
X53552225Y19781984D01*
X53257787Y20172848D01*
X52996346Y20535637D01*
X52866250Y20725023D01*
X54084596Y20725023D01*
X54118200Y20603200D01*
X54214878Y20453454D01*
X54263878Y20452546D01*
X54264883Y20463045D01*
X54804000Y20463045D01*
X54885668Y20314023D01*
X55100750Y20040718D01*
X55404365Y19699750D01*
X55434409Y19667774D01*
X55780379Y19264241D01*
X55969271Y18960185D01*
X55992322Y18810925D01*
X55990631Y18647840D01*
X56154639Y18654058D01*
X56317808Y18740014D01*
X56366399Y18834022D01*
X56289540Y19004328D01*
X56066438Y19281565D01*
X55676298Y19696365D01*
X55651058Y19722265D01*
X55290681Y20079431D01*
X55006544Y20337868D01*
X54836120Y20464804D01*
X54804000Y20463045D01*
X54264883Y20463045D01*
X54278803Y20608378D01*
X54245200Y20730200D01*
X54148521Y20879947D01*
X54099521Y20880855D01*
X54084596Y20725023D01*
X52866250Y20725023D01*
X52638526Y21056527D01*
X52568006Y21162000D01*
X53788000Y21162000D01*
X53834467Y21057465D01*
X53872666Y21077334D01*
X53887866Y21228053D01*
X53872666Y21246667D01*
X53797165Y21229234D01*
X53788000Y21162000D01*
X52568006Y21162000D01*
X52222765Y21678353D01*
X51787503Y22343951D01*
X51565500Y22689514D01*
X51203196Y23257500D01*
X52772000Y23257500D01*
X52835500Y23194000D01*
X52899000Y23257500D01*
X52835500Y23321000D01*
X52772000Y23257500D01*
X51203196Y23257500D01*
X50811191Y23872047D01*
X50472249Y24400500D01*
X52772000Y24400500D01*
X52835500Y24337000D01*
X52899000Y24400500D01*
X52835500Y24464000D01*
X52772000Y24400500D01*
X50472249Y24400500D01*
X50174716Y24864391D01*
X49635520Y25689353D01*
X49173052Y26369738D01*
X48766760Y26928349D01*
X48396092Y27387993D01*
X48040495Y27771473D01*
X47679417Y28101596D01*
X47292306Y28401164D01*
X47056021Y28560153D01*
X50266579Y28560153D01*
X50322575Y28346245D01*
X50423792Y28274000D01*
X50519617Y28383815D01*
X50555331Y28639019D01*
X50507039Y28902241D01*
X50393708Y28943879D01*
X50288492Y28799403D01*
X50266579Y28560153D01*
X47056021Y28560153D01*
X46858609Y28692985D01*
X46357775Y28999861D01*
X46212853Y29084752D01*
X49132154Y29084752D01*
X49152500Y29036000D01*
X49320738Y28913742D01*
X49357990Y28909000D01*
X49426845Y28987249D01*
X49406500Y29036000D01*
X49238261Y29158259D01*
X49201009Y29163000D01*
X49132154Y29084752D01*
X46212853Y29084752D01*
X45970867Y29226500D01*
X49851000Y29226500D01*
X49914500Y29163000D01*
X49978000Y29226500D01*
X50232000Y29226500D01*
X50295500Y29163000D01*
X50359000Y29226500D01*
X50295500Y29290000D01*
X50232000Y29226500D01*
X49978000Y29226500D01*
X49914500Y29290000D01*
X49851000Y29226500D01*
X45970867Y29226500D01*
X45769252Y29344599D01*
X45346512Y29590147D01*
X44663109Y29945816D01*
X44533463Y29988500D01*
X47692000Y29988500D01*
X47755500Y29925000D01*
X47819000Y29988500D01*
X47755500Y30052000D01*
X47692000Y29988500D01*
X44533463Y29988500D01*
X44064931Y30142757D01*
X43479990Y30185118D01*
X42836303Y30077048D01*
X42061882Y29822693D01*
X41963360Y29785089D01*
X41281987Y29560353D01*
X40645448Y29419888D01*
X40104656Y29369717D01*
X39710525Y29415861D01*
X39556975Y29500484D01*
X39384769Y29825082D01*
X39378733Y29861500D01*
X40453000Y29861500D01*
X40516500Y29798000D01*
X40580000Y29861500D01*
X40516500Y29925000D01*
X40453000Y29861500D01*
X39378733Y29861500D01*
X39300192Y30335325D01*
X39302690Y30498845D01*
X40375694Y30498845D01*
X40458138Y30277115D01*
X40596730Y30179000D01*
X40657192Y30227752D01*
X47227154Y30227752D01*
X47247500Y30179000D01*
X47415738Y30056742D01*
X47452990Y30052000D01*
X47521845Y30130249D01*
X47501500Y30179000D01*
X47333261Y30301259D01*
X47296009Y30306000D01*
X47227154Y30227752D01*
X40657192Y30227752D01*
X40726012Y30283242D01*
X40771480Y30369500D01*
X47565000Y30369500D01*
X47628500Y30306000D01*
X47692000Y30369500D01*
X47628500Y30433000D01*
X47565000Y30369500D01*
X40771480Y30369500D01*
X40822548Y30466381D01*
X40827946Y30496500D01*
X46930000Y30496500D01*
X46993500Y30433000D01*
X47057000Y30496500D01*
X46993500Y30560000D01*
X46930000Y30496500D01*
X40827946Y30496500D01*
X40854501Y30644667D01*
X41892333Y30644667D01*
X41909766Y30569166D01*
X41977000Y30560000D01*
X42081535Y30606468D01*
X42072676Y30623500D01*
X46041000Y30623500D01*
X46104500Y30560000D01*
X46168000Y30623500D01*
X46104500Y30687000D01*
X46041000Y30623500D01*
X42072676Y30623500D01*
X42061666Y30644667D01*
X41910947Y30659867D01*
X41892333Y30644667D01*
X40854501Y30644667D01*
X40868902Y30725012D01*
X40874828Y30877500D01*
X44644000Y30877500D01*
X44707500Y30814000D01*
X44739525Y30846025D01*
X47661519Y30846025D01*
X47829055Y30700644D01*
X48148141Y30525740D01*
X48587067Y30323026D01*
X48886994Y30217826D01*
X49022885Y30213868D01*
X48969705Y30314879D01*
X48843388Y30422242D01*
X48316558Y30788358D01*
X47937924Y30960758D01*
X47697897Y30944646D01*
X47661519Y30846025D01*
X44739525Y30846025D01*
X44771000Y30877500D01*
X44707500Y30941000D01*
X44644000Y30877500D01*
X40874828Y30877500D01*
X40883734Y31106664D01*
X40873914Y31406667D01*
X43670333Y31406667D01*
X43687766Y31331166D01*
X43755000Y31322000D01*
X43859535Y31368468D01*
X43839666Y31406667D01*
X43688947Y31421867D01*
X43670333Y31406667D01*
X40873914Y31406667D01*
X40870252Y31518538D01*
X40831665Y31867830D01*
X40817056Y31914667D01*
X43035333Y31914667D01*
X43052766Y31839166D01*
X43120000Y31830000D01*
X43224535Y31876468D01*
X43204666Y31914667D01*
X43053947Y31929867D01*
X43035333Y31914667D01*
X40817056Y31914667D01*
X40781088Y32029975D01*
X42376335Y32029975D01*
X42406281Y31963706D01*
X42477504Y31957000D01*
X42649719Y32049238D01*
X42674600Y32082546D01*
X42654159Y32154714D01*
X42555096Y32132458D01*
X42376335Y32029975D01*
X40781088Y32029975D01*
X40771179Y32061740D01*
X40767253Y32066080D01*
X40649419Y32071751D01*
X40558435Y31857018D01*
X40507251Y31455098D01*
X40504212Y31391264D01*
X40473724Y31021611D01*
X40423671Y30758294D01*
X40403669Y30709927D01*
X40375694Y30498845D01*
X39302690Y30498845D01*
X39308638Y30888084D01*
X39447026Y30888084D01*
X39470376Y30723363D01*
X39513729Y30721396D01*
X39544046Y30891372D01*
X39523755Y30964813D01*
X39467363Y31012918D01*
X39447026Y30888084D01*
X39308638Y30888084D01*
X39309983Y30976083D01*
X39342102Y31258500D01*
X39437000Y31258500D01*
X39500500Y31195000D01*
X39564000Y31258500D01*
X39500500Y31322000D01*
X39437000Y31258500D01*
X39342102Y31258500D01*
X39474394Y31979094D01*
X39633634Y32459589D01*
X39817774Y32694676D01*
X39905979Y32719000D01*
X40018192Y32690638D01*
X39939140Y32569168D01*
X39890571Y32519429D01*
X39730582Y32315993D01*
X39690999Y32212316D01*
X39649464Y32008734D01*
X39613912Y31903888D01*
X39613051Y31734470D01*
X39674992Y31703000D01*
X39805641Y31810906D01*
X39892848Y32020501D01*
X39997676Y32285076D01*
X40101732Y32312715D01*
X40181821Y32119490D01*
X40213604Y31798250D01*
X40228209Y31258500D01*
X40333285Y31766500D01*
X40391392Y32175594D01*
X40432256Y32704353D01*
X40444841Y33100000D01*
X40470853Y33764424D01*
X40533458Y34474971D01*
X40533608Y34476145D01*
X40797176Y34476145D01*
X40800144Y34114522D01*
X40841523Y33839314D01*
X40912305Y33735000D01*
X40935406Y33850609D01*
X40947456Y34152128D01*
X40946395Y34528750D01*
X40935794Y34938029D01*
X40918964Y35113320D01*
X40888944Y35074637D01*
X40838771Y34841991D01*
X40838293Y34839520D01*
X40797176Y34476145D01*
X40533608Y34476145D01*
X40624223Y35181965D01*
X40690903Y35576500D01*
X40834000Y35576500D01*
X40897500Y35513000D01*
X40961000Y35576500D01*
X40897500Y35640000D01*
X40834000Y35576500D01*
X40690903Y35576500D01*
X40734716Y35835733D01*
X40747598Y35894000D01*
X40961000Y35894000D01*
X41007467Y35789465D01*
X41045666Y35809334D01*
X41060866Y35960053D01*
X41045666Y35978667D01*
X40970165Y35961234D01*
X40961000Y35894000D01*
X40747598Y35894000D01*
X40824113Y36240086D01*
X40974983Y36240086D01*
X41063076Y36198632D01*
X41088000Y36211500D01*
X41189454Y36388402D01*
X41213055Y36568246D01*
X41192865Y36749417D01*
X41116806Y36698728D01*
X41088000Y36656000D01*
X40983291Y36419992D01*
X40974983Y36240086D01*
X40824113Y36240086D01*
X40856506Y36386599D01*
X40981159Y36784890D01*
X41100243Y36980929D01*
X41104056Y36983424D01*
X41255442Y36960291D01*
X41377345Y36687740D01*
X41469189Y36168704D01*
X41530397Y35406116D01*
X41555612Y34687500D01*
X41573755Y34019517D01*
X41597292Y33425178D01*
X41623507Y32959569D01*
X41649689Y32677772D01*
X41656491Y32639955D01*
X41825140Y32402269D01*
X42148328Y32294880D01*
X42566456Y32311482D01*
X43019927Y32445767D01*
X43449140Y32691426D01*
X43630927Y32848928D01*
X43810539Y33004709D01*
X43876603Y32973956D01*
X43882000Y32900069D01*
X43772623Y32727989D01*
X43493252Y32541990D01*
X43375291Y32487319D01*
X43067067Y32331946D01*
X42893940Y32197812D01*
X42879587Y32119368D01*
X43047686Y32131062D01*
X43151750Y32162073D01*
X43472568Y32241033D01*
X43650425Y32261345D01*
X43801448Y32311237D01*
X43801680Y32365215D01*
X43845933Y32451476D01*
X43935585Y32465000D01*
X44104841Y32574085D01*
X44218501Y32812993D01*
X44345208Y33136928D01*
X44480038Y33335182D01*
X44590559Y33574528D01*
X44638039Y33947833D01*
X44637446Y34034939D01*
X44635570Y34306500D01*
X44771000Y34306500D01*
X44834500Y34243000D01*
X44898000Y34306500D01*
X44834500Y34370000D01*
X44771000Y34306500D01*
X44635570Y34306500D01*
X44635096Y34375077D01*
X44641605Y34893813D01*
X44655677Y35515947D01*
X44672415Y36064032D01*
X44687320Y36783232D01*
X44686402Y37528858D01*
X44670546Y38197000D01*
X44651185Y38560866D01*
X44628125Y39049469D01*
X44639879Y39370845D01*
X44684599Y39485612D01*
X44694403Y39482349D01*
X44749012Y39553009D01*
X44749886Y39577000D01*
X44898000Y39577000D01*
X44944467Y39472465D01*
X44982666Y39492334D01*
X44997866Y39643053D01*
X44982666Y39661667D01*
X44907165Y39644234D01*
X44898000Y39577000D01*
X44749886Y39577000D01*
X44759025Y39827618D01*
X44737996Y40114080D01*
X44703742Y40508219D01*
X44863379Y40508219D01*
X44869945Y40259656D01*
X44929007Y40044138D01*
X45001055Y40056335D01*
X45049707Y40133661D01*
X45111377Y40369183D01*
X45087878Y40467006D01*
X44948201Y40595452D01*
X44863379Y40508219D01*
X44703742Y40508219D01*
X44703392Y40512238D01*
X44716827Y40713137D01*
X44794697Y40771540D01*
X44928080Y40748932D01*
X45090097Y40728644D01*
X45150856Y40822832D01*
X45135127Y41090776D01*
X45119969Y41208147D01*
X45113591Y41291500D01*
X45279000Y41291500D01*
X45342500Y41228000D01*
X45406000Y41291500D01*
X45342500Y41355000D01*
X45279000Y41291500D01*
X45113591Y41291500D01*
X45096365Y41516623D01*
X45120039Y41673838D01*
X45142914Y41678116D01*
X45241619Y41718939D01*
X45256479Y41773337D01*
X45312996Y42277993D01*
X45319860Y42584914D01*
X45273962Y42746063D01*
X45194748Y42805890D01*
X45056014Y42764636D01*
X45025000Y42599848D01*
X44996649Y42416883D01*
X44949414Y42404253D01*
X44921632Y42568313D01*
X44957867Y42862097D01*
X44961473Y42878879D01*
X45072362Y43164402D01*
X45227558Y43209447D01*
X45382749Y43237480D01*
X45389341Y43260000D01*
X45533000Y43260000D01*
X45579467Y43155465D01*
X45617666Y43175334D01*
X45632866Y43326053D01*
X45617666Y43344667D01*
X45542165Y43327234D01*
X45533000Y43260000D01*
X45389341Y43260000D01*
X45406000Y43316903D01*
X45320119Y43507296D01*
X45264740Y43539920D01*
X45216855Y43680587D01*
X45231932Y43842084D01*
X45416026Y43842084D01*
X45439376Y43677363D01*
X45482729Y43675396D01*
X45513046Y43845372D01*
X45492755Y43918813D01*
X45436363Y43966918D01*
X45416026Y43842084D01*
X45231932Y43842084D01*
X45247450Y44008292D01*
X45250328Y44022000D01*
X45660000Y44022000D01*
X45706467Y43917465D01*
X45744666Y43937334D01*
X45759866Y44088053D01*
X45744666Y44106667D01*
X45669165Y44089234D01*
X45660000Y44022000D01*
X45250328Y44022000D01*
X45290336Y44212500D01*
X45406000Y44212500D01*
X45469500Y44149000D01*
X45533000Y44212500D01*
X45469500Y44276000D01*
X45406000Y44212500D01*
X45290336Y44212500D01*
X45330343Y44403000D01*
X45660000Y44403000D01*
X45706467Y44298465D01*
X45744666Y44318334D01*
X45759866Y44469053D01*
X45744666Y44487667D01*
X45669165Y44470234D01*
X45660000Y44403000D01*
X45330343Y44403000D01*
X45344954Y44472568D01*
X45497796Y45022953D01*
X45575846Y45255597D01*
X45807471Y45255597D01*
X45838372Y45184623D01*
X45966248Y45048283D01*
X46039763Y45076251D01*
X46041000Y45094005D01*
X45950794Y45201424D01*
X45894377Y45240628D01*
X45807471Y45255597D01*
X45575846Y45255597D01*
X45694405Y45608982D01*
X45806171Y45901253D01*
X45857568Y46010390D01*
X46090958Y46010390D01*
X46113924Y45884737D01*
X46215833Y45693136D01*
X46276875Y45750943D01*
X46295000Y46015900D01*
X46264227Y46242427D01*
X46167935Y46231661D01*
X46163836Y46227637D01*
X46090958Y46010390D01*
X45857568Y46010390D01*
X46004097Y46321525D01*
X46176692Y46515669D01*
X46280436Y46532765D01*
X46359557Y46513320D01*
G37*
X46359557Y46513320D02*
X46415776Y46469253D01*
X46449253Y46367290D01*
X46460149Y46174158D01*
X46448625Y45856583D01*
X46414841Y45381291D01*
X46358959Y44715009D01*
X46292878Y43958500D01*
X46248708Y43314596D01*
X46208843Y42460395D01*
X46174481Y41439585D01*
X46146819Y40295851D01*
X46127057Y39072878D01*
X46116391Y37814352D01*
X46115244Y37481500D01*
X46113447Y36265429D01*
X46115066Y35277097D01*
X46121174Y34490255D01*
X46132847Y33878656D01*
X46151158Y33416048D01*
X46177182Y33076184D01*
X46211995Y32832813D01*
X46256669Y32659687D01*
X46312280Y32530556D01*
X46318376Y32519251D01*
X46522754Y32201817D01*
X46722812Y31970974D01*
X46729727Y31965111D01*
X46864620Y31789968D01*
X46865831Y31701918D01*
X46903854Y31588212D01*
X47078498Y31503463D01*
X47273167Y31496555D01*
X47313685Y31514160D01*
X47464080Y31487542D01*
X47512347Y31431450D01*
X47529449Y31342378D01*
X47457622Y31373373D01*
X47327224Y31376435D01*
X47311000Y31321513D01*
X47413218Y31221703D01*
X47548710Y31218768D01*
X47788275Y31167527D01*
X48168127Y30984065D01*
X48634195Y30699685D01*
X49132407Y30345694D01*
X49343000Y30179918D01*
X49533156Y30013111D01*
X49527244Y29968597D01*
X49406500Y29997197D01*
X49231400Y30042285D01*
X49258608Y29988862D01*
X49397228Y29873180D01*
X49554827Y29696944D01*
X49565072Y29596740D01*
X49438431Y29624018D01*
X49260369Y29785928D01*
X49032324Y29987428D01*
X48849702Y30047725D01*
X48771831Y29959810D01*
X48797068Y29840667D01*
X48817992Y29696810D01*
X48697832Y29732298D01*
X48586960Y29777891D01*
X48655460Y29685021D01*
X48866207Y29565831D01*
X49203634Y29469144D01*
X49261114Y29458883D01*
X49576640Y29434851D01*
X49668860Y29467205D01*
X50208919Y29467205D01*
X50288485Y29417643D01*
X50310682Y29417000D01*
X50452937Y29455850D01*
X50441433Y29503900D01*
X50469333Y29636882D01*
X50638987Y29875321D01*
X50762680Y30011900D01*
X50975559Y30256862D01*
X51060258Y30408712D01*
X51040168Y30433000D01*
X50891932Y30341393D01*
X50656452Y30107226D01*
X50501270Y29925000D01*
X50274990Y29623375D01*
X50208919Y29467205D01*
X49668860Y29467205D01*
X49814076Y29518151D01*
X50080397Y29751894D01*
X50139153Y29812743D01*
X50849756Y30623500D01*
X51121000Y30623500D01*
X51184500Y30560000D01*
X51248000Y30623500D01*
X51184500Y30687000D01*
X51121000Y30623500D01*
X50849756Y30623500D01*
X51016723Y30814000D01*
X51375000Y30814000D01*
X51421467Y30709465D01*
X51459666Y30729334D01*
X51474866Y30880053D01*
X51459666Y30898667D01*
X51384165Y30881234D01*
X51375000Y30814000D01*
X51016723Y30814000D01*
X51033310Y30832924D01*
X51712095Y31802606D01*
X51726058Y31830000D01*
X52137000Y31830000D01*
X52180330Y31706302D01*
X52193004Y31703000D01*
X52301433Y31791994D01*
X52327500Y31830000D01*
X52317430Y31947029D01*
X52271495Y31957000D01*
X52142168Y31864810D01*
X52137000Y31830000D01*
X51726058Y31830000D01*
X52146834Y32655500D01*
X53661000Y32655500D01*
X53724500Y32592000D01*
X53788000Y32655500D01*
X53724500Y32719000D01*
X53661000Y32655500D01*
X52146834Y32655500D01*
X52198962Y32757766D01*
X52284216Y32988856D01*
X53947998Y32988856D01*
X54041032Y33049725D01*
X54057759Y33066134D01*
X54158074Y33232646D01*
X54144472Y33293861D01*
X54050000Y33255749D01*
X53986665Y33137228D01*
X53947998Y32988856D01*
X52284216Y32988856D01*
X52381166Y33251646D01*
X52411653Y33417500D01*
X54677000Y33417500D01*
X54740500Y33354000D01*
X54804000Y33417500D01*
X54740500Y33481000D01*
X54677000Y33417500D01*
X52411653Y33417500D01*
X52413028Y33424977D01*
X54424944Y33424977D01*
X54483687Y33418306D01*
X54603116Y33551777D01*
X54719523Y33761958D01*
X54723210Y33858123D01*
X54622678Y33823070D01*
X54500434Y33654477D01*
X54427385Y33455315D01*
X54424944Y33424977D01*
X52413028Y33424977D01*
X52435000Y33544500D01*
X54169000Y33544500D01*
X54232500Y33481000D01*
X54296000Y33544500D01*
X54232500Y33608000D01*
X54169000Y33544500D01*
X52435000Y33544500D01*
X52437172Y33556313D01*
X52471123Y33925500D01*
X54296000Y33925500D01*
X54359500Y33862000D01*
X54423000Y33925500D01*
X54359500Y33989000D01*
X54296000Y33925500D01*
X52471123Y33925500D01*
X52485835Y34085468D01*
X52493142Y34219117D01*
X54743239Y34219117D01*
X54758176Y34149461D01*
X54792483Y34125806D01*
X55003733Y34070137D01*
X55220336Y34100743D01*
X55312000Y34193088D01*
X55202159Y34228734D01*
X54962750Y34241056D01*
X54743239Y34219117D01*
X52493142Y34219117D01*
X52504863Y34433500D01*
X53280000Y34433500D01*
X53343500Y34370000D01*
X53375250Y34401750D01*
X54179026Y34401750D01*
X54211340Y34280917D01*
X54253373Y34339042D01*
X54388682Y34435158D01*
X54453469Y34414669D01*
X54528692Y34410625D01*
X54498627Y34477378D01*
X54331428Y34617670D01*
X54201951Y34544749D01*
X54179026Y34401750D01*
X53375250Y34401750D01*
X53407000Y34433500D01*
X53343500Y34497000D01*
X53280000Y34433500D01*
X52504863Y34433500D01*
X52525429Y34809661D01*
X52554227Y35699442D01*
X52564585Y36275000D01*
X53153000Y36275000D01*
X53199467Y36170465D01*
X53237666Y36190334D01*
X53252866Y36341053D01*
X53237666Y36359667D01*
X53162165Y36342234D01*
X53153000Y36275000D01*
X52564585Y36275000D01*
X52567315Y36426646D01*
X52568165Y36465500D01*
X53407000Y36465500D01*
X53470500Y36402000D01*
X53534000Y36465500D01*
X53470500Y36529000D01*
X53407000Y36465500D01*
X52568165Y36465500D01*
X52576732Y36857084D01*
X52782026Y36857084D01*
X52805376Y36692363D01*
X52848729Y36690396D01*
X52871848Y36820018D01*
X53331665Y36820018D01*
X53348923Y36774225D01*
X53471524Y36661614D01*
X53531515Y36789875D01*
X53534000Y36853996D01*
X53471515Y36984800D01*
X53404928Y36972220D01*
X53331665Y36820018D01*
X52871848Y36820018D01*
X52879046Y36860372D01*
X52858755Y36933813D01*
X52802363Y36981918D01*
X52782026Y36857084D01*
X52576732Y36857084D01*
X52595101Y37696679D01*
X52611677Y38028830D01*
X52772000Y38028830D01*
X52819546Y37760334D01*
X52928419Y37701633D01*
X53047964Y37834540D01*
X53127529Y38140865D01*
X53129227Y38157106D01*
X53132645Y38428446D01*
X53050343Y38503266D01*
X52970477Y38482988D01*
X52817928Y38301793D01*
X52772000Y38028830D01*
X52611677Y38028830D01*
X52649378Y38784251D01*
X52677530Y39090167D01*
X52899000Y39090167D01*
X52934660Y38813652D01*
X53021220Y38688620D01*
X53028419Y38688000D01*
X53099795Y38794390D01*
X53074053Y39037250D01*
X52984698Y39352852D01*
X52927529Y39417084D01*
X52901200Y39230353D01*
X52899000Y39090167D01*
X52677530Y39090167D01*
X52739202Y39760300D01*
X52749361Y39831000D01*
X52899000Y39831000D01*
X52945467Y39726465D01*
X52983666Y39746334D01*
X52998866Y39897053D01*
X52983666Y39915667D01*
X52908165Y39898234D01*
X52899000Y39831000D01*
X52749361Y39831000D01*
X52849737Y40529500D01*
X53026000Y40529500D01*
X53089500Y40466000D01*
X53153000Y40529500D01*
X53089500Y40593000D01*
X53026000Y40529500D01*
X52849737Y40529500D01*
X52873631Y40695766D01*
X52890716Y40783500D01*
X53407000Y40783500D01*
X53470500Y40720000D01*
X53534000Y40783500D01*
X53470500Y40847000D01*
X53407000Y40783500D01*
X52890716Y40783500D01*
X52940182Y41037500D01*
X53153000Y41037500D01*
X53216500Y40974000D01*
X53280000Y41037500D01*
X53216500Y41101000D01*
X53153000Y41037500D01*
X52940182Y41037500D01*
X53002014Y41355000D01*
X53153000Y41355000D01*
X53199467Y41250465D01*
X53237666Y41270334D01*
X53252866Y41421053D01*
X53237666Y41439667D01*
X53162165Y41422234D01*
X53153000Y41355000D01*
X53002014Y41355000D01*
X53061721Y41661588D01*
X53112013Y41875569D01*
X53277801Y41875569D01*
X53371876Y41914659D01*
X53446721Y41973801D01*
X53622987Y42220457D01*
X53661000Y42386551D01*
X53604728Y42584325D01*
X53534000Y42625000D01*
X53419608Y42522898D01*
X53407000Y42444888D01*
X53363646Y42173855D01*
X53319721Y42032138D01*
X53277801Y41875569D01*
X53112013Y41875569D01*
X53312527Y42728705D01*
X53431584Y43196500D01*
X53434281Y43207084D01*
X53662927Y43207084D01*
X53679600Y42941824D01*
X53725862Y42918805D01*
X53790000Y43129648D01*
X53825655Y43323500D01*
X53887551Y43711596D01*
X53957830Y44158573D01*
X53966234Y44212500D01*
X54045284Y44720500D01*
X53855070Y44149000D01*
X53737046Y43715833D01*
X53669183Y43314995D01*
X53662927Y43207084D01*
X53434281Y43207084D01*
X53601364Y43862637D01*
X53762543Y44512338D01*
X53895637Y45066069D01*
X53974149Y45411247D01*
X54003808Y45514250D01*
X54170944Y45514250D01*
X54190996Y45328679D01*
X54265699Y45374303D01*
X54296000Y45419000D01*
X54403606Y45631791D01*
X54421055Y45704750D01*
X54325711Y45797341D01*
X54296000Y45800000D01*
X54197630Y45692438D01*
X54170944Y45514250D01*
X54003808Y45514250D01*
X54110616Y45885176D01*
X54254627Y46125527D01*
X54392851Y46151863D01*
X54511955Y45983746D01*
X54598608Y45640739D01*
X54639479Y45142405D01*
X54621235Y44508306D01*
X54617980Y44466500D01*
X54565261Y43893650D01*
X54490061Y43179265D01*
X54404303Y42433471D01*
X54352552Y42015246D01*
X54199609Y40355894D01*
X54181763Y38845296D01*
X54298644Y37509453D01*
X54426501Y36831483D01*
X54648082Y35983253D01*
X54862487Y35376800D01*
X55074897Y35000201D01*
X55290493Y34841536D01*
X55291312Y34841337D01*
X55424521Y34788992D01*
X55329838Y34716772D01*
X55261884Y34686520D01*
X55001676Y34672571D01*
X54868327Y34791892D01*
X54711894Y34926315D01*
X54632692Y34918360D01*
X54551747Y34762496D01*
X54595482Y34667608D01*
X54677000Y34687500D01*
X54793747Y34671174D01*
X54804000Y34620333D01*
X54909898Y34533839D01*
X55236467Y34540610D01*
X55343750Y34555125D01*
X55667684Y34597244D01*
X55776924Y34582285D01*
X55707064Y34496433D01*
X55638771Y34440600D01*
X55476832Y34270908D01*
X55459633Y34180034D01*
X55580482Y34213941D01*
X55762812Y34376975D01*
X55818896Y34454667D01*
X56116333Y34454667D01*
X56133766Y34379166D01*
X56201000Y34370000D01*
X56305535Y34416468D01*
X56285666Y34454667D01*
X56134947Y34469867D01*
X56116333Y34454667D01*
X55818896Y34454667D01*
X55913218Y34585326D01*
X55877070Y34711032D01*
X55830429Y34744555D01*
X55734083Y34908204D01*
X55817021Y35073617D01*
X55986245Y35130056D01*
X56036325Y35080474D01*
X55947000Y35005000D01*
X55827050Y34906286D01*
X55939054Y34880385D01*
X55968166Y34879945D01*
X56178376Y34802395D01*
X56228931Y34730707D01*
X56328005Y34647265D01*
X56525264Y34726845D01*
X56699317Y34836858D01*
X56653234Y34870274D01*
X56525976Y34874139D01*
X56355545Y34887415D01*
X56384317Y34957895D01*
X56399841Y34970737D01*
X56836000Y34970737D01*
X56932571Y34951147D01*
X57166866Y35038669D01*
X57185250Y35047814D01*
X57476326Y35157995D01*
X57676723Y35173001D01*
X57851320Y35217547D01*
X58137535Y35383551D01*
X58462901Y35617459D01*
X58754952Y35865719D01*
X58941220Y36074776D01*
X58967380Y36126804D01*
X58953166Y36215052D01*
X58783724Y36167897D01*
X58628101Y36091792D01*
X58362882Y35909471D01*
X58235072Y35732849D01*
X58233000Y35714007D01*
X58123950Y35562022D01*
X57883750Y35456164D01*
X57464023Y35330077D01*
X57105401Y35179872D01*
X56878919Y35038459D01*
X56836000Y34970737D01*
X56399841Y34970737D01*
X56525976Y35075076D01*
X56689702Y35215561D01*
X56637420Y35231949D01*
X56470845Y35188470D01*
X56263312Y35162923D01*
X56246719Y35230230D01*
X56420450Y35348441D01*
X56639779Y35415990D01*
X56849499Y35425261D01*
X56888161Y35367654D01*
X56874504Y35262495D01*
X56999908Y35278362D01*
X57193338Y35393534D01*
X57307302Y35495810D01*
X57529747Y35674735D01*
X57881884Y35905714D01*
X58291273Y36147348D01*
X58685475Y36358236D01*
X58992047Y36496977D01*
X59115135Y36529000D01*
X59226230Y36423451D01*
X59249000Y36291175D01*
X59149287Y36056307D01*
X58885160Y35738015D01*
X58509131Y35385003D01*
X58073716Y35045977D01*
X57631429Y34769638D01*
X57578875Y34742234D01*
X56593075Y34115172D01*
X55663577Y33277378D01*
X54858271Y32300041D01*
X54431759Y31709436D01*
X53934057Y31035275D01*
X53451103Y30393567D01*
X53293899Y30188294D01*
X52684104Y29294328D01*
X52302302Y28487244D01*
X52142827Y27754333D01*
X52137000Y27593266D01*
X52202874Y27123893D01*
X52386194Y26488511D01*
X52665505Y25733765D01*
X53019352Y24906302D01*
X53426281Y24052767D01*
X53864836Y23219808D01*
X54313563Y22454071D01*
X54751007Y21802201D01*
X54877488Y21634980D01*
X55177099Y21229114D01*
X55392494Y20892489D01*
X55491718Y20677210D01*
X55490763Y20635010D01*
X55487239Y20430829D01*
X55597787Y20135505D01*
X55770262Y19846540D01*
X55952524Y19661435D01*
X56023953Y19638000D01*
X56150740Y19574892D01*
X56137500Y19511000D01*
X56136544Y19393496D01*
X56174302Y19384000D01*
X56343783Y19295406D01*
X56601166Y19070141D01*
X56891581Y18768980D01*
X57160158Y18452700D01*
X57352026Y18182076D01*
X57412316Y18017885D01*
X57411098Y18014083D01*
X57403867Y17897502D01*
X57440755Y17904808D01*
X57602153Y17887456D01*
X57887785Y17772601D01*
X57979050Y17726228D01*
X58230338Y17578782D01*
X58327420Y17492803D01*
X58314226Y17484324D01*
X58336712Y17407127D01*
X58511401Y17214448D01*
X58692640Y17045029D01*
X58988729Y16811180D01*
X59215782Y16684996D01*
X59291103Y16679522D01*
X59264806Y16790467D01*
X59081955Y17006349D01*
X58863795Y17208743D01*
X58392558Y17627735D01*
X57879199Y18109979D01*
X57353961Y18623929D01*
X56847086Y19138036D01*
X56388819Y19620752D01*
X56009401Y20040529D01*
X55739077Y20365821D01*
X55608088Y20565078D01*
X55604907Y20608242D01*
X55712012Y20547747D01*
X55954430Y20334802D01*
X56295278Y20003678D01*
X56665488Y19622657D01*
X57648483Y18613923D01*
X58719596Y17562364D01*
X59786458Y16557409D01*
X60467471Y15941768D01*
X61312095Y15146661D01*
X62089828Y14306578D01*
X62847314Y13365771D01*
X63631196Y12268496D01*
X63989592Y11732250D01*
X64284893Y11317785D01*
X64515858Y11089636D01*
X64728847Y11005510D01*
X64790019Y11002000D01*
X64998065Y10976400D01*
X65078541Y10850746D01*
X65074983Y10551759D01*
X65072972Y10525750D01*
X64915395Y9868615D01*
X64556527Y9361922D01*
X63994078Y9003839D01*
X63225758Y8792537D01*
X62849956Y8747841D01*
X62410038Y8721326D01*
X62152288Y8743319D01*
X62007105Y8828749D01*
X61929206Y8945324D01*
X61817320Y9284446D01*
X61816931Y9287864D01*
X63186000Y9287864D01*
X63297149Y9268145D01*
X63567840Y9266013D01*
X63598750Y9266909D01*
X63958939Y9348410D01*
X64178939Y9508200D01*
X64355719Y9659312D01*
X64464689Y9663130D01*
X64561049Y9703101D01*
X64583000Y9826105D01*
X64655959Y10104289D01*
X64726863Y10206064D01*
X64821270Y10431434D01*
X64714695Y10636068D01*
X64454191Y10744499D01*
X64388990Y10748000D01*
X64170446Y10708123D01*
X64138500Y10621000D01*
X64118614Y10505428D01*
X64061328Y10494000D01*
X63969593Y10444125D01*
X63990778Y10408888D01*
X63989171Y10255423D01*
X63867275Y10003120D01*
X63862765Y9996138D01*
X63727962Y9780265D01*
X63734882Y9744978D01*
X63862319Y9842801D01*
X64032068Y9933403D01*
X64075000Y9880509D01*
X63970846Y9743473D01*
X63712415Y9574201D01*
X63630500Y9532988D01*
X63347544Y9390843D01*
X63194732Y9298748D01*
X63186000Y9287864D01*
X61816931Y9287864D01*
X61789000Y9533151D01*
X61737982Y9772182D01*
X61569352Y9846938D01*
X61259746Y9755948D01*
X60785799Y9497738D01*
X60735079Y9466735D01*
X60308699Y9235965D01*
X59898302Y9064551D01*
X59692941Y9008808D01*
X59175124Y9044823D01*
X58674759Y9289677D01*
X58240246Y9700103D01*
X58009505Y10083927D01*
X59203468Y10083927D01*
X59345605Y9992047D01*
X59482491Y10025780D01*
X59503000Y10082885D01*
X59604571Y10203546D01*
X59780534Y10305135D01*
X60017163Y10462185D01*
X60106678Y10583435D01*
X60040269Y10621908D01*
X59811688Y10541595D01*
X59649117Y10459111D01*
X59360638Y10275351D01*
X59209335Y10127256D01*
X59203468Y10083927D01*
X58009505Y10083927D01*
X57919987Y10232834D01*
X57778165Y10720506D01*
X57754009Y11094200D01*
X57818485Y11248599D01*
X57946995Y11172113D01*
X58106000Y10875000D01*
X58263641Y10611997D01*
X58430392Y10494430D01*
X58438907Y10494000D01*
X58599266Y10562697D01*
X58550569Y10751937D01*
X58455250Y10875226D01*
X58364171Y10987446D01*
X58447913Y10937863D01*
X58521617Y10882695D01*
X58682375Y10635520D01*
X58671809Y10476070D01*
X58636741Y10283402D01*
X58658412Y10240000D01*
X58846033Y10290973D01*
X59145356Y10416614D01*
X59473109Y10576008D01*
X59746018Y10728238D01*
X59880809Y10832390D01*
X59884000Y10842184D01*
X59962810Y10990818D01*
X60120422Y11192500D01*
X63694000Y11192500D01*
X63757500Y11129000D01*
X63821000Y11192500D01*
X63757500Y11256000D01*
X63694000Y11192500D01*
X60120422Y11192500D01*
X60161569Y11245151D01*
X60269505Y11367468D01*
X60337592Y11458390D01*
X60773000Y11458390D01*
X60866348Y11333595D01*
X61027000Y11346202D01*
X61232883Y11446725D01*
X61281000Y11524813D01*
X61174501Y11616004D01*
X61027000Y11637000D01*
X60821040Y11562604D01*
X60773000Y11458390D01*
X60337592Y11458390D01*
X60527116Y11711475D01*
X60529395Y11721667D01*
X61831333Y11721667D01*
X61848766Y11646166D01*
X61916000Y11637000D01*
X61932863Y11644496D01*
X62297000Y11644496D01*
X62389190Y11515169D01*
X62424000Y11510000D01*
X62547698Y11553331D01*
X62551000Y11566005D01*
X62462006Y11674434D01*
X62424000Y11700500D01*
X62306971Y11690431D01*
X62297000Y11644496D01*
X61932863Y11644496D01*
X62020535Y11683468D01*
X62000666Y11721667D01*
X61849947Y11736867D01*
X61831333Y11721667D01*
X60529395Y11721667D01*
X60557800Y11848667D01*
X61196333Y11848667D01*
X61213766Y11773166D01*
X61281000Y11764000D01*
X61385535Y11810468D01*
X61365666Y11848667D01*
X61214947Y11863867D01*
X61196333Y11848667D01*
X60557800Y11848667D01*
X60575712Y11928756D01*
X61614295Y11928756D01*
X61789000Y11911053D01*
X61969293Y11931011D01*
X61947750Y11975110D01*
X61687736Y11991884D01*
X61630250Y11975110D01*
X61614295Y11928756D01*
X60575712Y11928756D01*
X60587458Y11981270D01*
X60572337Y12050019D01*
X60467606Y12193341D01*
X60210578Y12484592D01*
X60205931Y12489597D01*
X61682471Y12489597D01*
X61713372Y12418623D01*
X61841248Y12282283D01*
X61914763Y12310251D01*
X61916000Y12328005D01*
X61825794Y12435424D01*
X61769377Y12474628D01*
X61682471Y12489597D01*
X60205931Y12489597D01*
X59830416Y12893976D01*
X59446192Y13297313D01*
X61027000Y13297313D01*
X61131613Y13170245D01*
X61249250Y13121545D01*
X61461927Y13064824D01*
X61518800Y13048733D01*
X61513293Y13062225D01*
X61728917Y13062225D01*
X61738581Y13012834D01*
X61842737Y12908718D01*
X61852500Y12907000D01*
X61953898Y12993850D01*
X61966418Y13012834D01*
X61928580Y13106356D01*
X61852500Y13118667D01*
X61728917Y13062225D01*
X61513293Y13062225D01*
X61491261Y13116194D01*
X61408000Y13224500D01*
X61254247Y13351500D01*
X61535000Y13351500D01*
X61598500Y13288000D01*
X61662000Y13351500D01*
X61598500Y13415000D01*
X61535000Y13351500D01*
X61254247Y13351500D01*
X61209008Y13388867D01*
X61060937Y13391022D01*
X61027000Y13297313D01*
X59446192Y13297313D01*
X59356285Y13391692D01*
X59138880Y13616084D01*
X60783026Y13616084D01*
X60806376Y13451363D01*
X60849729Y13449396D01*
X60880046Y13619372D01*
X60859755Y13692813D01*
X60813232Y13732500D01*
X61154000Y13732500D01*
X61217500Y13669000D01*
X61281000Y13732500D01*
X61217500Y13796000D01*
X61154000Y13732500D01*
X60813232Y13732500D01*
X60803363Y13740918D01*
X60783026Y13616084D01*
X59138880Y13616084D01*
X58817351Y13947944D01*
X58514730Y14256051D01*
X60392000Y14256051D01*
X60487072Y14077903D01*
X60582500Y14050000D01*
X60751950Y14076107D01*
X60773000Y14097950D01*
X60688839Y14207525D01*
X60582500Y14304000D01*
X60432275Y14392546D01*
X60392177Y14275872D01*
X60392000Y14256051D01*
X58514730Y14256051D01*
X58242777Y14532933D01*
X57661729Y15116861D01*
X57103370Y15669929D01*
X56596867Y16162339D01*
X56171382Y16564293D01*
X56010500Y16710967D01*
X55782252Y16947200D01*
X55447716Y17332208D01*
X55052161Y17810938D01*
X54640856Y18328339D01*
X54363886Y18691807D01*
X55720472Y18691807D01*
X55767052Y18573720D01*
X55952014Y18324346D01*
X56236962Y17994786D01*
X56276493Y17951800D01*
X56857673Y17320569D01*
X57283834Y16848607D01*
X57575510Y16511614D01*
X57753236Y16285292D01*
X57837547Y16145342D01*
X57852000Y16087533D01*
X57952884Y15965812D01*
X58018616Y15955000D01*
X58197690Y15860765D01*
X58424855Y15628573D01*
X58466918Y15574000D01*
X58699338Y15313446D01*
X58890529Y15190081D01*
X58990249Y15232567D01*
X58995000Y15272747D01*
X58911061Y15389940D01*
X58683541Y15646435D01*
X58348884Y16002350D01*
X58010750Y16349873D01*
X57524467Y16850339D01*
X57276535Y17111892D01*
X57604988Y17111892D01*
X57686489Y16948752D01*
X57856947Y16740948D01*
X58073683Y16552691D01*
X58250147Y16465868D01*
X58326505Y16498862D01*
X58284372Y16609623D01*
X58269231Y16696388D01*
X58342449Y16664348D01*
X58427932Y16501472D01*
X58405949Y16434602D01*
X58400468Y16355859D01*
X58452987Y16378480D01*
X58624221Y16357500D01*
X58758360Y16239352D01*
X58867156Y16090112D01*
X58800797Y16122215D01*
X58709250Y16192801D01*
X58516465Y16319148D01*
X58479437Y16282019D01*
X58583022Y16105841D01*
X58812072Y15815041D01*
X59151443Y15434048D01*
X59234367Y15345861D01*
X59657902Y14909728D01*
X59931451Y14655704D01*
X60070089Y14572839D01*
X60088893Y14650186D01*
X60056926Y14748500D01*
X59932267Y14916558D01*
X59870412Y14939000D01*
X59768801Y15041622D01*
X59757000Y15123190D01*
X59746979Y15144971D01*
X59966714Y15144971D01*
X60070541Y14994404D01*
X60221911Y14862129D01*
X60561172Y14618308D01*
X60741233Y14572219D01*
X60773000Y14645065D01*
X60678944Y14839213D01*
X60460615Y15051547D01*
X60213770Y15204716D01*
X60049642Y15229388D01*
X59966714Y15144971D01*
X59746979Y15144971D01*
X59658052Y15338239D01*
X59560313Y15417450D01*
X59400366Y15617423D01*
X59326772Y15873203D01*
X59322148Y15891500D01*
X59503000Y15891500D01*
X59566500Y15828000D01*
X59630000Y15891500D01*
X59566500Y15955000D01*
X59503000Y15891500D01*
X59322148Y15891500D01*
X59268522Y16103664D01*
X59167044Y16322333D01*
X59130579Y16371738D01*
X59447982Y16371738D01*
X59511223Y16262592D01*
X59679516Y16140050D01*
X59753936Y16143607D01*
X59877026Y16086407D01*
X60108854Y15888486D01*
X60396671Y15605181D01*
X60687729Y15291826D01*
X60929277Y15003758D01*
X61068567Y14796312D01*
X61083826Y14748500D01*
X61190104Y14628258D01*
X61237747Y14621500D01*
X61404483Y14528526D01*
X61628150Y14299033D01*
X61674351Y14240500D01*
X61963708Y13859500D01*
X61622354Y14167388D01*
X61392043Y14337885D01*
X61284591Y14334663D01*
X61281000Y14310588D01*
X61244715Y14210032D01*
X61097378Y14298335D01*
X61087592Y14306413D01*
X60949906Y14399075D01*
X60959220Y14298734D01*
X60974180Y14258464D01*
X61153124Y14084291D01*
X61302082Y14050000D01*
X61472210Y13996240D01*
X61459372Y13903378D01*
X61444325Y13815290D01*
X61500987Y13838480D01*
X61674576Y13829834D01*
X61823305Y13673082D01*
X61868690Y13468392D01*
X61843810Y13400941D01*
X61823208Y13308338D01*
X61897274Y13339927D01*
X62059194Y13323925D01*
X62120984Y13232550D01*
X62279231Y13058793D01*
X62374087Y13034000D01*
X62533714Y12934255D01*
X62551000Y12859051D01*
X62640561Y12635417D01*
X62737439Y12529370D01*
X62888605Y12361931D01*
X62912900Y12291570D01*
X62948675Y12061486D01*
X63058203Y12018000D01*
X63136073Y12122331D01*
X63131140Y12303750D01*
X63084991Y12565723D01*
X63068437Y12676430D01*
X62973192Y12881438D01*
X62736583Y13215525D01*
X62390201Y13645038D01*
X61965639Y14136323D01*
X61494488Y14655727D01*
X61008341Y15169597D01*
X60538790Y15644280D01*
X60117426Y16046123D01*
X59775842Y16341471D01*
X59545631Y16496672D01*
X59472104Y16507406D01*
X59447982Y16371738D01*
X59130579Y16371738D01*
X59063791Y16462224D01*
X59000213Y16456350D01*
X58995000Y16409350D01*
X58917355Y16389545D01*
X58805898Y16461840D01*
X58677212Y16635825D01*
X58679524Y16720276D01*
X58622688Y16784071D01*
X58428779Y16787361D01*
X58099086Y16845899D01*
X57856653Y16993923D01*
X57661694Y17139942D01*
X57604988Y17111892D01*
X57276535Y17111892D01*
X57229511Y17161500D01*
X57979000Y17161500D01*
X58042500Y17098000D01*
X58106000Y17161500D01*
X58042500Y17225000D01*
X57979000Y17161500D01*
X57229511Y17161500D01*
X57027429Y17374683D01*
X56723585Y17703639D01*
X57364355Y17703639D01*
X57441206Y17605678D01*
X57527023Y17538461D01*
X57750210Y17381782D01*
X57816664Y17387893D01*
X57770926Y17542500D01*
X57596620Y17708062D01*
X57489162Y17728961D01*
X57364355Y17703639D01*
X56723585Y17703639D01*
X56594213Y17843703D01*
X56406979Y18053022D01*
X56248780Y18224067D01*
X56963000Y18224067D01*
X57010178Y18008015D01*
X57109615Y17910307D01*
X57196891Y17990175D01*
X57162138Y18199109D01*
X57104287Y18277513D01*
X56987308Y18338955D01*
X56963000Y18224067D01*
X56248780Y18224067D01*
X56100863Y18383995D01*
X56050584Y18431500D01*
X56328000Y18431500D01*
X56391500Y18368000D01*
X56455000Y18431500D01*
X56582000Y18431500D01*
X56645500Y18368000D01*
X56709000Y18431500D01*
X56645500Y18495000D01*
X56582000Y18431500D01*
X56455000Y18431500D01*
X56391500Y18495000D01*
X56328000Y18431500D01*
X56050584Y18431500D01*
X55859426Y18612110D01*
X55728258Y18694946D01*
X55720472Y18691807D01*
X54363886Y18691807D01*
X54259070Y18829356D01*
X54177992Y18939500D01*
X53900847Y19315031D01*
X53876534Y19347597D01*
X55078471Y19347597D01*
X55109372Y19276623D01*
X55237248Y19140283D01*
X55310763Y19168251D01*
X55312000Y19186005D01*
X55221794Y19293424D01*
X55165377Y19332628D01*
X55078471Y19347597D01*
X53876534Y19347597D01*
X53552225Y19781984D01*
X53257787Y20172848D01*
X52996346Y20535637D01*
X52866250Y20725023D01*
X54084596Y20725023D01*
X54118200Y20603200D01*
X54214878Y20453454D01*
X54263878Y20452546D01*
X54264883Y20463045D01*
X54804000Y20463045D01*
X54885668Y20314023D01*
X55100750Y20040718D01*
X55404365Y19699750D01*
X55434409Y19667774D01*
X55780379Y19264241D01*
X55969271Y18960185D01*
X55992322Y18810925D01*
X55990631Y18647840D01*
X56154639Y18654058D01*
X56317808Y18740014D01*
X56366399Y18834022D01*
X56289540Y19004328D01*
X56066438Y19281565D01*
X55676298Y19696365D01*
X55651058Y19722265D01*
X55290681Y20079431D01*
X55006544Y20337868D01*
X54836120Y20464804D01*
X54804000Y20463045D01*
X54264883Y20463045D01*
X54278803Y20608378D01*
X54245200Y20730200D01*
X54148521Y20879947D01*
X54099521Y20880855D01*
X54084596Y20725023D01*
X52866250Y20725023D01*
X52638526Y21056527D01*
X52568006Y21162000D01*
X53788000Y21162000D01*
X53834467Y21057465D01*
X53872666Y21077334D01*
X53887866Y21228053D01*
X53872666Y21246667D01*
X53797165Y21229234D01*
X53788000Y21162000D01*
X52568006Y21162000D01*
X52222765Y21678353D01*
X51787503Y22343951D01*
X51565500Y22689514D01*
X51203196Y23257500D01*
X52772000Y23257500D01*
X52835500Y23194000D01*
X52899000Y23257500D01*
X52835500Y23321000D01*
X52772000Y23257500D01*
X51203196Y23257500D01*
X50811191Y23872047D01*
X50472249Y24400500D01*
X52772000Y24400500D01*
X52835500Y24337000D01*
X52899000Y24400500D01*
X52835500Y24464000D01*
X52772000Y24400500D01*
X50472249Y24400500D01*
X50174716Y24864391D01*
X49635520Y25689353D01*
X49173052Y26369738D01*
X48766760Y26928349D01*
X48396092Y27387993D01*
X48040495Y27771473D01*
X47679417Y28101596D01*
X47292306Y28401164D01*
X47056021Y28560153D01*
X50266579Y28560153D01*
X50322575Y28346245D01*
X50423792Y28274000D01*
X50519617Y28383815D01*
X50555331Y28639019D01*
X50507039Y28902241D01*
X50393708Y28943879D01*
X50288492Y28799403D01*
X50266579Y28560153D01*
X47056021Y28560153D01*
X46858609Y28692985D01*
X46357775Y28999861D01*
X46212853Y29084752D01*
X49132154Y29084752D01*
X49152500Y29036000D01*
X49320738Y28913742D01*
X49357990Y28909000D01*
X49426845Y28987249D01*
X49406500Y29036000D01*
X49238261Y29158259D01*
X49201009Y29163000D01*
X49132154Y29084752D01*
X46212853Y29084752D01*
X45970867Y29226500D01*
X49851000Y29226500D01*
X49914500Y29163000D01*
X49978000Y29226500D01*
X50232000Y29226500D01*
X50295500Y29163000D01*
X50359000Y29226500D01*
X50295500Y29290000D01*
X50232000Y29226500D01*
X49978000Y29226500D01*
X49914500Y29290000D01*
X49851000Y29226500D01*
X45970867Y29226500D01*
X45769252Y29344599D01*
X45346512Y29590147D01*
X44663109Y29945816D01*
X44533463Y29988500D01*
X47692000Y29988500D01*
X47755500Y29925000D01*
X47819000Y29988500D01*
X47755500Y30052000D01*
X47692000Y29988500D01*
X44533463Y29988500D01*
X44064931Y30142757D01*
X43479990Y30185118D01*
X42836303Y30077048D01*
X42061882Y29822693D01*
X41963360Y29785089D01*
X41281987Y29560353D01*
X40645448Y29419888D01*
X40104656Y29369717D01*
X39710525Y29415861D01*
X39556975Y29500484D01*
X39384769Y29825082D01*
X39378733Y29861500D01*
X40453000Y29861500D01*
X40516500Y29798000D01*
X40580000Y29861500D01*
X40516500Y29925000D01*
X40453000Y29861500D01*
X39378733Y29861500D01*
X39300192Y30335325D01*
X39302690Y30498845D01*
X40375694Y30498845D01*
X40458138Y30277115D01*
X40596730Y30179000D01*
X40657192Y30227752D01*
X47227154Y30227752D01*
X47247500Y30179000D01*
X47415738Y30056742D01*
X47452990Y30052000D01*
X47521845Y30130249D01*
X47501500Y30179000D01*
X47333261Y30301259D01*
X47296009Y30306000D01*
X47227154Y30227752D01*
X40657192Y30227752D01*
X40726012Y30283242D01*
X40771480Y30369500D01*
X47565000Y30369500D01*
X47628500Y30306000D01*
X47692000Y30369500D01*
X47628500Y30433000D01*
X47565000Y30369500D01*
X40771480Y30369500D01*
X40822548Y30466381D01*
X40827946Y30496500D01*
X46930000Y30496500D01*
X46993500Y30433000D01*
X47057000Y30496500D01*
X46993500Y30560000D01*
X46930000Y30496500D01*
X40827946Y30496500D01*
X40854501Y30644667D01*
X41892333Y30644667D01*
X41909766Y30569166D01*
X41977000Y30560000D01*
X42081535Y30606468D01*
X42072676Y30623500D01*
X46041000Y30623500D01*
X46104500Y30560000D01*
X46168000Y30623500D01*
X46104500Y30687000D01*
X46041000Y30623500D01*
X42072676Y30623500D01*
X42061666Y30644667D01*
X41910947Y30659867D01*
X41892333Y30644667D01*
X40854501Y30644667D01*
X40868902Y30725012D01*
X40874828Y30877500D01*
X44644000Y30877500D01*
X44707500Y30814000D01*
X44739525Y30846025D01*
X47661519Y30846025D01*
X47829055Y30700644D01*
X48148141Y30525740D01*
X48587067Y30323026D01*
X48886994Y30217826D01*
X49022885Y30213868D01*
X48969705Y30314879D01*
X48843388Y30422242D01*
X48316558Y30788358D01*
X47937924Y30960758D01*
X47697897Y30944646D01*
X47661519Y30846025D01*
X44739525Y30846025D01*
X44771000Y30877500D01*
X44707500Y30941000D01*
X44644000Y30877500D01*
X40874828Y30877500D01*
X40883734Y31106664D01*
X40873914Y31406667D01*
X43670333Y31406667D01*
X43687766Y31331166D01*
X43755000Y31322000D01*
X43859535Y31368468D01*
X43839666Y31406667D01*
X43688947Y31421867D01*
X43670333Y31406667D01*
X40873914Y31406667D01*
X40870252Y31518538D01*
X40831665Y31867830D01*
X40817056Y31914667D01*
X43035333Y31914667D01*
X43052766Y31839166D01*
X43120000Y31830000D01*
X43224535Y31876468D01*
X43204666Y31914667D01*
X43053947Y31929867D01*
X43035333Y31914667D01*
X40817056Y31914667D01*
X40781088Y32029975D01*
X42376335Y32029975D01*
X42406281Y31963706D01*
X42477504Y31957000D01*
X42649719Y32049238D01*
X42674600Y32082546D01*
X42654159Y32154714D01*
X42555096Y32132458D01*
X42376335Y32029975D01*
X40781088Y32029975D01*
X40771179Y32061740D01*
X40767253Y32066080D01*
X40649419Y32071751D01*
X40558435Y31857018D01*
X40507251Y31455098D01*
X40504212Y31391264D01*
X40473724Y31021611D01*
X40423671Y30758294D01*
X40403669Y30709927D01*
X40375694Y30498845D01*
X39302690Y30498845D01*
X39308638Y30888084D01*
X39447026Y30888084D01*
X39470376Y30723363D01*
X39513729Y30721396D01*
X39544046Y30891372D01*
X39523755Y30964813D01*
X39467363Y31012918D01*
X39447026Y30888084D01*
X39308638Y30888084D01*
X39309983Y30976083D01*
X39342102Y31258500D01*
X39437000Y31258500D01*
X39500500Y31195000D01*
X39564000Y31258500D01*
X39500500Y31322000D01*
X39437000Y31258500D01*
X39342102Y31258500D01*
X39474394Y31979094D01*
X39633634Y32459589D01*
X39817774Y32694676D01*
X39905979Y32719000D01*
X40018192Y32690638D01*
X39939140Y32569168D01*
X39890571Y32519429D01*
X39730582Y32315993D01*
X39690999Y32212316D01*
X39649464Y32008734D01*
X39613912Y31903888D01*
X39613051Y31734470D01*
X39674992Y31703000D01*
X39805641Y31810906D01*
X39892848Y32020501D01*
X39997676Y32285076D01*
X40101732Y32312715D01*
X40181821Y32119490D01*
X40213604Y31798250D01*
X40228209Y31258500D01*
X40333285Y31766500D01*
X40391392Y32175594D01*
X40432256Y32704353D01*
X40444841Y33100000D01*
X40470853Y33764424D01*
X40533458Y34474971D01*
X40533608Y34476145D01*
X40797176Y34476145D01*
X40800144Y34114522D01*
X40841523Y33839314D01*
X40912305Y33735000D01*
X40935406Y33850609D01*
X40947456Y34152128D01*
X40946395Y34528750D01*
X40935794Y34938029D01*
X40918964Y35113320D01*
X40888944Y35074637D01*
X40838771Y34841991D01*
X40838293Y34839520D01*
X40797176Y34476145D01*
X40533608Y34476145D01*
X40624223Y35181965D01*
X40690903Y35576500D01*
X40834000Y35576500D01*
X40897500Y35513000D01*
X40961000Y35576500D01*
X40897500Y35640000D01*
X40834000Y35576500D01*
X40690903Y35576500D01*
X40734716Y35835733D01*
X40747598Y35894000D01*
X40961000Y35894000D01*
X41007467Y35789465D01*
X41045666Y35809334D01*
X41060866Y35960053D01*
X41045666Y35978667D01*
X40970165Y35961234D01*
X40961000Y35894000D01*
X40747598Y35894000D01*
X40824113Y36240086D01*
X40974983Y36240086D01*
X41063076Y36198632D01*
X41088000Y36211500D01*
X41189454Y36388402D01*
X41213055Y36568246D01*
X41192865Y36749417D01*
X41116806Y36698728D01*
X41088000Y36656000D01*
X40983291Y36419992D01*
X40974983Y36240086D01*
X40824113Y36240086D01*
X40856506Y36386599D01*
X40981159Y36784890D01*
X41100243Y36980929D01*
X41104056Y36983424D01*
X41255442Y36960291D01*
X41377345Y36687740D01*
X41469189Y36168704D01*
X41530397Y35406116D01*
X41555612Y34687500D01*
X41573755Y34019517D01*
X41597292Y33425178D01*
X41623507Y32959569D01*
X41649689Y32677772D01*
X41656491Y32639955D01*
X41825140Y32402269D01*
X42148328Y32294880D01*
X42566456Y32311482D01*
X43019927Y32445767D01*
X43449140Y32691426D01*
X43630927Y32848928D01*
X43810539Y33004709D01*
X43876603Y32973956D01*
X43882000Y32900069D01*
X43772623Y32727989D01*
X43493252Y32541990D01*
X43375291Y32487319D01*
X43067067Y32331946D01*
X42893940Y32197812D01*
X42879587Y32119368D01*
X43047686Y32131062D01*
X43151750Y32162073D01*
X43472568Y32241033D01*
X43650425Y32261345D01*
X43801448Y32311237D01*
X43801680Y32365215D01*
X43845933Y32451476D01*
X43935585Y32465000D01*
X44104841Y32574085D01*
X44218501Y32812993D01*
X44345208Y33136928D01*
X44480038Y33335182D01*
X44590559Y33574528D01*
X44638039Y33947833D01*
X44637446Y34034939D01*
X44635570Y34306500D01*
X44771000Y34306500D01*
X44834500Y34243000D01*
X44898000Y34306500D01*
X44834500Y34370000D01*
X44771000Y34306500D01*
X44635570Y34306500D01*
X44635096Y34375077D01*
X44641605Y34893813D01*
X44655677Y35515947D01*
X44672415Y36064032D01*
X44687320Y36783232D01*
X44686402Y37528858D01*
X44670546Y38197000D01*
X44651185Y38560866D01*
X44628125Y39049469D01*
X44639879Y39370845D01*
X44684599Y39485612D01*
X44694403Y39482349D01*
X44749012Y39553009D01*
X44749886Y39577000D01*
X44898000Y39577000D01*
X44944467Y39472465D01*
X44982666Y39492334D01*
X44997866Y39643053D01*
X44982666Y39661667D01*
X44907165Y39644234D01*
X44898000Y39577000D01*
X44749886Y39577000D01*
X44759025Y39827618D01*
X44737996Y40114080D01*
X44703742Y40508219D01*
X44863379Y40508219D01*
X44869945Y40259656D01*
X44929007Y40044138D01*
X45001055Y40056335D01*
X45049707Y40133661D01*
X45111377Y40369183D01*
X45087878Y40467006D01*
X44948201Y40595452D01*
X44863379Y40508219D01*
X44703742Y40508219D01*
X44703392Y40512238D01*
X44716827Y40713137D01*
X44794697Y40771540D01*
X44928080Y40748932D01*
X45090097Y40728644D01*
X45150856Y40822832D01*
X45135127Y41090776D01*
X45119969Y41208147D01*
X45113591Y41291500D01*
X45279000Y41291500D01*
X45342500Y41228000D01*
X45406000Y41291500D01*
X45342500Y41355000D01*
X45279000Y41291500D01*
X45113591Y41291500D01*
X45096365Y41516623D01*
X45120039Y41673838D01*
X45142914Y41678116D01*
X45241619Y41718939D01*
X45256479Y41773337D01*
X45312996Y42277993D01*
X45319860Y42584914D01*
X45273962Y42746063D01*
X45194748Y42805890D01*
X45056014Y42764636D01*
X45025000Y42599848D01*
X44996649Y42416883D01*
X44949414Y42404253D01*
X44921632Y42568313D01*
X44957867Y42862097D01*
X44961473Y42878879D01*
X45072362Y43164402D01*
X45227558Y43209447D01*
X45382749Y43237480D01*
X45389341Y43260000D01*
X45533000Y43260000D01*
X45579467Y43155465D01*
X45617666Y43175334D01*
X45632866Y43326053D01*
X45617666Y43344667D01*
X45542165Y43327234D01*
X45533000Y43260000D01*
X45389341Y43260000D01*
X45406000Y43316903D01*
X45320119Y43507296D01*
X45264740Y43539920D01*
X45216855Y43680587D01*
X45231932Y43842084D01*
X45416026Y43842084D01*
X45439376Y43677363D01*
X45482729Y43675396D01*
X45513046Y43845372D01*
X45492755Y43918813D01*
X45436363Y43966918D01*
X45416026Y43842084D01*
X45231932Y43842084D01*
X45247450Y44008292D01*
X45250328Y44022000D01*
X45660000Y44022000D01*
X45706467Y43917465D01*
X45744666Y43937334D01*
X45759866Y44088053D01*
X45744666Y44106667D01*
X45669165Y44089234D01*
X45660000Y44022000D01*
X45250328Y44022000D01*
X45290336Y44212500D01*
X45406000Y44212500D01*
X45469500Y44149000D01*
X45533000Y44212500D01*
X45469500Y44276000D01*
X45406000Y44212500D01*
X45290336Y44212500D01*
X45330343Y44403000D01*
X45660000Y44403000D01*
X45706467Y44298465D01*
X45744666Y44318334D01*
X45759866Y44469053D01*
X45744666Y44487667D01*
X45669165Y44470234D01*
X45660000Y44403000D01*
X45330343Y44403000D01*
X45344954Y44472568D01*
X45497796Y45022953D01*
X45575846Y45255597D01*
X45807471Y45255597D01*
X45838372Y45184623D01*
X45966248Y45048283D01*
X46039763Y45076251D01*
X46041000Y45094005D01*
X45950794Y45201424D01*
X45894377Y45240628D01*
X45807471Y45255597D01*
X45575846Y45255597D01*
X45694405Y45608982D01*
X45806171Y45901253D01*
X45857568Y46010390D01*
X46090958Y46010390D01*
X46113924Y45884737D01*
X46215833Y45693136D01*
X46276875Y45750943D01*
X46295000Y46015900D01*
X46264227Y46242427D01*
X46167935Y46231661D01*
X46163836Y46227637D01*
X46090958Y46010390D01*
X45857568Y46010390D01*
X46004097Y46321525D01*
X46176692Y46515669D01*
X46280436Y46532765D01*
X46359557Y46513320D01*
G36*
X58229131Y11417575D02*
G01*
X58276824Y11324978D01*
X58309321Y11146028D01*
X58224008Y11180760D01*
X58164277Y11264450D01*
X58125240Y11430669D01*
X58141093Y11460427D01*
X58229131Y11417575D01*
G37*
X58229131Y11417575D02*
X58276824Y11324978D01*
X58309321Y11146028D01*
X58224008Y11180760D01*
X58164277Y11264450D01*
X58125240Y11430669D01*
X58141093Y11460427D01*
X58229131Y11417575D01*
G36*
X57682666Y11594667D02*
G01*
X57697866Y11443948D01*
X57682666Y11425334D01*
X57607165Y11442767D01*
X57598000Y11510000D01*
X57644467Y11614536D01*
X57682666Y11594667D01*
G37*
X57682666Y11594667D02*
X57697866Y11443948D01*
X57682666Y11425334D01*
X57607165Y11442767D01*
X57598000Y11510000D01*
X57644467Y11614536D01*
X57682666Y11594667D01*
G36*
X58106000Y11700500D02*
G01*
X58042500Y11637000D01*
X57979000Y11700500D01*
X58042500Y11764000D01*
X58106000Y11700500D01*
G37*
X58106000Y11700500D02*
X58042500Y11637000D01*
X57979000Y11700500D01*
X58042500Y11764000D01*
X58106000Y11700500D01*
G36*
X58010534Y12112196D02*
G01*
X58030352Y12067360D01*
X58039538Y11921103D01*
X57925145Y11933226D01*
X57731474Y11915791D01*
X57679731Y11852116D01*
X57629978Y11835852D01*
X57608026Y11986250D01*
X57678510Y12215192D01*
X57845760Y12263527D01*
X58010534Y12112196D01*
G37*
X58010534Y12112196D02*
X58030352Y12067360D01*
X58039538Y11921103D01*
X57925145Y11933226D01*
X57731474Y11915791D01*
X57679731Y11852116D01*
X57629978Y11835852D01*
X57608026Y11986250D01*
X57678510Y12215192D01*
X57845760Y12263527D01*
X58010534Y12112196D01*
G36*
X94047000Y31512500D02*
G01*
X93983500Y31449000D01*
X93920000Y31512500D01*
X93983500Y31576000D01*
X94047000Y31512500D01*
G37*
X94047000Y31512500D02*
X93983500Y31449000D01*
X93920000Y31512500D01*
X93983500Y31576000D01*
X94047000Y31512500D01*
G36*
X44277290Y35779146D02*
G01*
X44262630Y35476804D01*
X44223230Y35050305D01*
X44166757Y34562978D01*
X44100881Y34078154D01*
X44033268Y33659164D01*
X43971588Y33369338D01*
X43944304Y33290500D01*
X43921594Y33335611D01*
X43925859Y33578924D01*
X43952468Y33925500D01*
X44032016Y34720126D01*
X44099292Y35287702D01*
X44158420Y35654651D01*
X44213520Y35847393D01*
X44259541Y35894000D01*
X44277290Y35779146D01*
G37*
X44277290Y35779146D02*
X44262630Y35476804D01*
X44223230Y35050305D01*
X44166757Y34562978D01*
X44100881Y34078154D01*
X44033268Y33659164D01*
X43971588Y33369338D01*
X43944304Y33290500D01*
X43921594Y33335611D01*
X43925859Y33578924D01*
X43952468Y33925500D01*
X44032016Y34720126D01*
X44099292Y35287702D01*
X44158420Y35654651D01*
X44213520Y35847393D01*
X44259541Y35894000D01*
X44277290Y35779146D01*
G36*
X76644579Y34908132D02*
G01*
X76648000Y34878000D01*
X76544626Y34766544D01*
X76450004Y34751000D01*
X76318552Y34812569D01*
X76330500Y34878000D01*
X76492864Y35000156D01*
X76528495Y35005000D01*
X76644579Y34908132D01*
G37*
X76644579Y34908132D02*
X76648000Y34878000D01*
X76544626Y34766544D01*
X76450004Y34751000D01*
X76318552Y34812569D01*
X76330500Y34878000D01*
X76492864Y35000156D01*
X76528495Y35005000D01*
X76644579Y34908132D01*
G36*
X44350544Y37894250D02*
G01*
X44370295Y37572150D01*
X44350544Y37449750D01*
X44313733Y37410225D01*
X44293692Y37585833D01*
X44292464Y37672000D01*
X44305705Y37903054D01*
X44338671Y37930284D01*
X44350544Y37894250D01*
G37*
X44350544Y37894250D02*
X44370295Y37572150D01*
X44350544Y37449750D01*
X44313733Y37410225D01*
X44293692Y37585833D01*
X44292464Y37672000D01*
X44305705Y37903054D01*
X44338671Y37930284D01*
X44350544Y37894250D01*
G36*
X44390000Y38243500D02*
G01*
X44326500Y38180000D01*
X44263000Y38243500D01*
X44326500Y38307000D01*
X44390000Y38243500D01*
G37*
X44390000Y38243500D02*
X44326500Y38180000D01*
X44263000Y38243500D01*
X44326500Y38307000D01*
X44390000Y38243500D01*
G36*
X44471725Y38929669D02*
G01*
X44478009Y38907833D01*
X44496602Y38631188D01*
X44473303Y38526833D01*
X44431611Y38522612D01*
X44414584Y38721425D01*
X44414758Y38751500D01*
X44433071Y38948472D01*
X44471725Y38929669D01*
G37*
X44471725Y38929669D02*
X44478009Y38907833D01*
X44496602Y38631188D01*
X44473303Y38526833D01*
X44431611Y38522612D01*
X44414584Y38721425D01*
X44414758Y38751500D01*
X44433071Y38948472D01*
X44471725Y38929669D01*
G36*
X44601666Y39915667D02*
G01*
X44616866Y39764948D01*
X44601666Y39746334D01*
X44526165Y39763767D01*
X44517000Y39831000D01*
X44563467Y39935536D01*
X44601666Y39915667D01*
G37*
X44601666Y39915667D02*
X44616866Y39764948D01*
X44601666Y39746334D01*
X44526165Y39763767D01*
X44517000Y39831000D01*
X44563467Y39935536D01*
X44601666Y39915667D01*
G36*
X44982109Y41259750D02*
G01*
X44998883Y40999737D01*
X44982109Y40942250D01*
X44935755Y40926296D01*
X44918052Y41101000D01*
X44938010Y41281294D01*
X44982109Y41259750D01*
G37*
X44982109Y41259750D02*
X44998883Y40999737D01*
X44982109Y40942250D01*
X44935755Y40926296D01*
X44918052Y41101000D01*
X44938010Y41281294D01*
X44982109Y41259750D01*
G36*
X44771000Y41037500D02*
G01*
X44707500Y40974000D01*
X44644000Y41037500D01*
X44707500Y41101000D01*
X44771000Y41037500D01*
G37*
X44771000Y41037500D02*
X44707500Y40974000D01*
X44644000Y41037500D01*
X44707500Y41101000D01*
X44771000Y41037500D01*
G36*
X44940090Y42117085D02*
G01*
X44928348Y41922657D01*
X44856553Y41663976D01*
X44796984Y41634499D01*
X44771036Y41843357D01*
X44771000Y41855505D01*
X44820498Y42092595D01*
X44879653Y42169162D01*
X44940090Y42117085D01*
G37*
X44940090Y42117085D02*
X44928348Y41922657D01*
X44856553Y41663976D01*
X44796984Y41634499D01*
X44771036Y41843357D01*
X44771000Y41855505D01*
X44820498Y42092595D01*
X44879653Y42169162D01*
X44940090Y42117085D01*
G36*
X74322144Y16777269D02*
G01*
X74251199Y16685250D01*
X74065829Y16487806D01*
X73983085Y16488665D01*
X73981000Y16510950D01*
X74067788Y16616962D01*
X74203250Y16733200D01*
X74353680Y16843036D01*
X74322144Y16777269D01*
G37*
X74322144Y16777269D02*
X74251199Y16685250D01*
X74065829Y16487806D01*
X73983085Y16488665D01*
X73981000Y16510950D01*
X74067788Y16616962D01*
X74203250Y16733200D01*
X74353680Y16843036D01*
X74322144Y16777269D01*
G36*
X73674832Y15875258D02*
G01*
X73511604Y15679177D01*
X73473000Y15637500D01*
X73255713Y15423902D01*
X73118901Y15321532D01*
X73111224Y15320000D01*
X73144167Y15399743D01*
X73307395Y15595824D01*
X73346000Y15637500D01*
X73563286Y15851099D01*
X73700098Y15953469D01*
X73707775Y15955000D01*
X73674832Y15875258D01*
G37*
X73674832Y15875258D02*
X73511604Y15679177D01*
X73473000Y15637500D01*
X73255713Y15423902D01*
X73118901Y15321532D01*
X73111224Y15320000D01*
X73144167Y15399743D01*
X73307395Y15595824D01*
X73346000Y15637500D01*
X73563286Y15851099D01*
X73700098Y15953469D01*
X73707775Y15955000D01*
X73674832Y15875258D01*
G36*
X75842199Y17925984D02*
G01*
X75830461Y17889128D01*
X75646320Y17801444D01*
X75553186Y17781187D01*
X75421800Y17794017D01*
X75433538Y17830873D01*
X75617679Y17918557D01*
X75710813Y17938814D01*
X75842199Y17925984D01*
G37*
X75842199Y17925984D02*
X75830461Y17889128D01*
X75646320Y17801444D01*
X75553186Y17781187D01*
X75421800Y17794017D01*
X75433538Y17830873D01*
X75617679Y17918557D01*
X75710813Y17938814D01*
X75842199Y17925984D01*
G36*
X80839000Y22876500D02*
G01*
X80775500Y22813000D01*
X80712000Y22876500D01*
X80775500Y22940000D01*
X80839000Y22876500D01*
G37*
X80839000Y22876500D02*
X80775500Y22813000D01*
X80712000Y22876500D01*
X80775500Y22940000D01*
X80839000Y22876500D01*
G36*
X82998000Y24400500D02*
G01*
X82934500Y24337000D01*
X82871000Y24400500D01*
X82934500Y24464000D01*
X82998000Y24400500D01*
G37*
X82998000Y24400500D02*
X82934500Y24337000D01*
X82871000Y24400500D01*
X82934500Y24464000D01*
X82998000Y24400500D01*
G36*
X64581055Y10335250D02*
G01*
X64484209Y10146984D01*
X64371333Y10113000D01*
X64246610Y10155518D01*
X64274605Y10208250D01*
X64460611Y10400170D01*
X64484327Y10430500D01*
X64562899Y10442935D01*
X64581055Y10335250D01*
G37*
X64581055Y10335250D02*
X64484209Y10146984D01*
X64371333Y10113000D01*
X64246610Y10155518D01*
X64274605Y10208250D01*
X64460611Y10400170D01*
X64484327Y10430500D01*
X64562899Y10442935D01*
X64581055Y10335250D01*
G36*
X62805000Y12970500D02*
G01*
X62741500Y12907000D01*
X62678000Y12970500D01*
X62741500Y13034000D01*
X62805000Y12970500D01*
G37*
X62805000Y12970500D02*
X62741500Y12907000D01*
X62678000Y12970500D01*
X62741500Y13034000D01*
X62805000Y12970500D01*
G36*
X61281000Y14748500D02*
G01*
X61217500Y14685000D01*
X61154000Y14748500D01*
X61217500Y14812000D01*
X61281000Y14748500D01*
G37*
X61281000Y14748500D02*
X61217500Y14685000D01*
X61154000Y14748500D01*
X61217500Y14812000D01*
X61281000Y14748500D01*
G36*
X59102377Y15903628D02*
G01*
X59238717Y15775752D01*
X59210749Y15702237D01*
X59192995Y15701000D01*
X59085576Y15791206D01*
X59046372Y15847623D01*
X59031403Y15934529D01*
X59102377Y15903628D01*
G37*
X59102377Y15903628D02*
X59238717Y15775752D01*
X59210749Y15702237D01*
X59192995Y15701000D01*
X59085576Y15791206D01*
X59046372Y15847623D01*
X59031403Y15934529D01*
X59102377Y15903628D01*
G36*
X59102377Y16284628D02*
G01*
X59237647Y16166571D01*
X59249000Y16138005D01*
X59188728Y16085807D01*
X59063245Y16202770D01*
X59046372Y16228623D01*
X59031403Y16315529D01*
X59102377Y16284628D01*
G37*
X59102377Y16284628D02*
X59237647Y16166571D01*
X59249000Y16138005D01*
X59188728Y16085807D01*
X59063245Y16202770D01*
X59046372Y16228623D01*
X59031403Y16315529D01*
X59102377Y16284628D01*
D12*
%TO.C,D1*%
X-85486Y-9529176D02*
X313540Y-9501274D01*
X313540Y-9501274D02*
X275174Y-8952614D01*
X313540Y-9501274D02*
X351906Y-10049934D01*
X313540Y-9501274D02*
X884175Y-9060394D01*
X884175Y-9060394D02*
X939981Y-9858446D01*
X939981Y-9858446D02*
X313540Y-9501274D01*
X912078Y-9459420D02*
X1410860Y-9424542D01*
%TO.C,D2*%
X-1410860Y9424542D02*
X-1011834Y9452444D01*
X-1011834Y9452444D02*
X-1050200Y10001104D01*
X-1011834Y9452444D02*
X-973468Y8903784D01*
X-1011834Y9452444D02*
X-441199Y9893324D01*
X-441199Y9893324D02*
X-385393Y9095272D01*
X-385393Y9095272D02*
X-1011834Y9452444D01*
X-413296Y9494298D02*
X85486Y9529176D01*
%TO.C,D3*%
X-2736232Y28378258D02*
X-2337206Y28406160D01*
X-2337206Y28406160D02*
X-2375572Y28954820D01*
X-2337206Y28406160D02*
X-2298840Y27857500D01*
X-2337206Y28406160D02*
X-1766571Y28847040D01*
X-1766571Y28847040D02*
X-1710765Y28048988D01*
X-1710765Y28048988D02*
X-2337206Y28406160D01*
X-1738668Y28448014D02*
X-1239886Y28482892D01*
%TO.C,D4*%
X18868231Y-8203803D02*
X19267257Y-8175901D01*
X19267257Y-8175901D02*
X19228891Y-7627241D01*
X19267257Y-8175901D02*
X19305623Y-8724561D01*
X19267257Y-8175901D02*
X19837892Y-7735021D01*
X19837892Y-7735021D02*
X19893698Y-8533073D01*
X19893698Y-8533073D02*
X19267257Y-8175901D01*
X19865795Y-8134047D02*
X20364577Y-8099169D01*
%TO.C,D5*%
X17542857Y10749915D02*
X17941883Y10777817D01*
X17941883Y10777817D02*
X17903517Y11326477D01*
X17941883Y10777817D02*
X17980249Y10229157D01*
X17941883Y10777817D02*
X18512518Y11218697D01*
X18512518Y11218697D02*
X18568324Y10420645D01*
X18568324Y10420645D02*
X17941883Y10777817D01*
X18540421Y10819671D02*
X19039203Y10854549D01*
%TO.C,D6*%
X16217484Y29703631D02*
X16616510Y29731533D01*
X16616510Y29731533D02*
X16578144Y30280193D01*
X16616510Y29731533D02*
X16654876Y29182873D01*
X16616510Y29731533D02*
X17187145Y30172413D01*
X17187145Y30172413D02*
X17242951Y29374361D01*
X17242951Y29374361D02*
X16616510Y29731533D01*
X17215048Y29773387D02*
X17713830Y29808265D01*
%TO.C,D7*%
X37674961Y4330720D02*
X38074961Y4330720D01*
X38074961Y4330720D02*
X38074961Y4880720D01*
X38074961Y4330720D02*
X38074961Y3780720D01*
X38074961Y4330720D02*
X38674961Y4730720D01*
X38674961Y4730720D02*
X38674961Y3930720D01*
X38674961Y3930720D02*
X38074961Y4330720D01*
X38674961Y4330720D02*
X39174961Y4330720D01*
%TO.C,D8*%
X37674961Y23330720D02*
X38074961Y23330720D01*
X38074961Y23330720D02*
X38074961Y23880720D01*
X38074961Y23330720D02*
X38074961Y22780720D01*
X38074961Y23330720D02*
X38674961Y23730720D01*
X38674961Y23730720D02*
X38674961Y22930720D01*
X38674961Y22930720D02*
X38074961Y23330720D01*
X38674961Y23330720D02*
X39174961Y23330720D01*
%TO.C,D9*%
X37674961Y42330720D02*
X38074961Y42330720D01*
X38074961Y42330720D02*
X38074961Y42880720D01*
X38074961Y42330720D02*
X38074961Y41780720D01*
X38074961Y42330720D02*
X38674961Y42730720D01*
X38674961Y42730720D02*
X38674961Y41930720D01*
X38674961Y41930720D02*
X38074961Y42330720D01*
X38674961Y42330720D02*
X39174961Y42330720D01*
%TO.C,D10*%
X56674961Y9330720D02*
X57074961Y9330720D01*
X57074961Y9330720D02*
X57074961Y9880720D01*
X57074961Y9330720D02*
X57074961Y8780720D01*
X57074961Y9330720D02*
X57674961Y9730720D01*
X57674961Y9730720D02*
X57674961Y8930720D01*
X57674961Y8930720D02*
X57074961Y9330720D01*
X57674961Y9330720D02*
X58174961Y9330720D01*
%TO.C,D11*%
X56674961Y28330720D02*
X57074961Y28330720D01*
X57074961Y28330720D02*
X57074961Y28880720D01*
X57074961Y28330720D02*
X57074961Y27780720D01*
X57074961Y28330720D02*
X57674961Y28730720D01*
X57674961Y28730720D02*
X57674961Y27930720D01*
X57674961Y27930720D02*
X57074961Y28330720D01*
X57674961Y28330720D02*
X58174961Y28330720D01*
%TO.C,D12*%
X56674961Y47330720D02*
X57074961Y47330720D01*
X57074961Y47330720D02*
X57074961Y47880720D01*
X57074961Y47330720D02*
X57074961Y46780720D01*
X57074961Y47330720D02*
X57674961Y47730720D01*
X57674961Y47730720D02*
X57674961Y46930720D01*
X57674961Y46930720D02*
X57074961Y47330720D01*
X57674961Y47330720D02*
X58174961Y47330720D01*
%TO.C,D13*%
X75674961Y3330720D02*
X76074961Y3330720D01*
X76074961Y3330720D02*
X76074961Y3880720D01*
X76074961Y3330720D02*
X76074961Y2780720D01*
X76074961Y3330720D02*
X76674961Y3730720D01*
X76674961Y3730720D02*
X76674961Y2930720D01*
X76674961Y2930720D02*
X76074961Y3330720D01*
X76674961Y3330720D02*
X77174961Y3330720D01*
%TO.C,D14*%
X75674961Y22330720D02*
X76074961Y22330720D01*
X76074961Y22330720D02*
X76074961Y22880720D01*
X76074961Y22330720D02*
X76074961Y21780720D01*
X76074961Y22330720D02*
X76674961Y22730720D01*
X76674961Y22730720D02*
X76674961Y21930720D01*
X76674961Y21930720D02*
X76074961Y22330720D01*
X76674961Y22330720D02*
X77174961Y22330720D01*
%TO.C,D15*%
X75674961Y41330720D02*
X76074961Y41330720D01*
X76074961Y41330720D02*
X76074961Y41880720D01*
X76074961Y41330720D02*
X76074961Y40780720D01*
X76074961Y41330720D02*
X76674961Y41730720D01*
X76674961Y41730720D02*
X76674961Y40930720D01*
X76674961Y40930720D02*
X76074961Y41330720D01*
X76674961Y41330720D02*
X77174961Y41330720D01*
%TO.C,D16*%
X94674961Y1330720D02*
X95074961Y1330720D01*
X95074961Y1330720D02*
X95074961Y1880720D01*
X95074961Y1330720D02*
X95074961Y780720D01*
X95074961Y1330720D02*
X95674961Y1730720D01*
X95674961Y1730720D02*
X95674961Y930720D01*
X95674961Y930720D02*
X95074961Y1330720D01*
X95674961Y1330720D02*
X96174961Y1330720D01*
%TO.C,D17*%
X94674961Y20330720D02*
X95074961Y20330720D01*
X95074961Y20330720D02*
X95074961Y20880720D01*
X95074961Y20330720D02*
X95074961Y19780720D01*
X95074961Y20330720D02*
X95674961Y20730720D01*
X95674961Y20730720D02*
X95674961Y19930720D01*
X95674961Y19930720D02*
X95074961Y20330720D01*
X95674961Y20330720D02*
X96174961Y20330720D01*
%TO.C,D18*%
X94674961Y39330720D02*
X95074961Y39330720D01*
X95074961Y39330720D02*
X95074961Y39880720D01*
X95074961Y39330720D02*
X95074961Y38780720D01*
X95074961Y39330720D02*
X95674961Y39730720D01*
X95674961Y39730720D02*
X95674961Y38930720D01*
X95674961Y38930720D02*
X95074961Y39330720D01*
X95674961Y39330720D02*
X96174961Y39330720D01*
%TO.C,D19*%
X113674961Y16330720D02*
X114074961Y16330720D01*
X114074961Y16330720D02*
X114074961Y16880720D01*
X114074961Y16330720D02*
X114074961Y15780720D01*
X114074961Y16330720D02*
X114674961Y16730720D01*
X114674961Y16730720D02*
X114674961Y15930720D01*
X114674961Y15930720D02*
X114074961Y16330720D01*
X114674961Y16330720D02*
X115174961Y16330720D01*
%TO.C,D20*%
X113674961Y35330720D02*
X114074961Y35330720D01*
X114074961Y35330720D02*
X114074961Y35880720D01*
X114074961Y35330720D02*
X114074961Y34780720D01*
X114074961Y35330720D02*
X114674961Y35730720D01*
X114674961Y35730720D02*
X114674961Y34930720D01*
X114674961Y34930720D02*
X114074961Y35330720D01*
X114674961Y35330720D02*
X115174961Y35330720D01*
%TO.C,D21*%
X89674961Y-23669280D02*
X90074961Y-23669280D01*
X90074961Y-23669280D02*
X90074961Y-23119280D01*
X90074961Y-23669280D02*
X90074961Y-24219280D01*
X90074961Y-23669280D02*
X90674961Y-23269280D01*
X90674961Y-23269280D02*
X90674961Y-24069280D01*
X90674961Y-24069280D02*
X90074961Y-23669280D01*
X90674961Y-23669280D02*
X91174961Y-23669280D01*
%TO.C,D22*%
X114026007Y-13972554D02*
X114406429Y-14096161D01*
X114406429Y-14096161D02*
X114576389Y-13573080D01*
X114406429Y-14096161D02*
X114236470Y-14619242D01*
X114406429Y-14096161D02*
X115100670Y-13901149D01*
X115100670Y-13901149D02*
X114853456Y-14661994D01*
X114853456Y-14661994D02*
X114406429Y-14096161D01*
X114977063Y-14281571D02*
X115452591Y-14436080D01*
%TO.C,D23*%
X134639386Y-21514747D02*
X134998904Y-21690095D01*
X134998904Y-21690095D02*
X135240008Y-21195758D01*
X134998904Y-21690095D02*
X134757800Y-22184432D01*
X134998904Y-21690095D02*
X135713529Y-21593600D01*
X135713529Y-21593600D02*
X135362832Y-22312635D01*
X135362832Y-22312635D02*
X134998904Y-21690095D01*
X135538181Y-21953118D02*
X135987578Y-22172303D01*
%TO.C,D24*%
X108154684Y-32042628D02*
X108535106Y-32166235D01*
X108535106Y-32166235D02*
X108705066Y-31643154D01*
X108535106Y-32166235D02*
X108365147Y-32689316D01*
X108535106Y-32166235D02*
X109229347Y-31971223D01*
X109229347Y-31971223D02*
X108982133Y-32732068D01*
X108982133Y-32732068D02*
X108535106Y-32166235D01*
X109105740Y-32351645D02*
X109581268Y-32506154D01*
%TO.C,D25*%
X125940548Y-39096923D02*
X126300066Y-39272271D01*
X126300066Y-39272271D02*
X126541170Y-38777934D01*
X126300066Y-39272271D02*
X126058962Y-39766608D01*
X126300066Y-39272271D02*
X127014691Y-39175776D01*
X127014691Y-39175776D02*
X126663994Y-39894811D01*
X126663994Y-39894811D02*
X126300066Y-39272271D01*
X126839343Y-39535294D02*
X127288740Y-39754479D01*
D13*
%TO.C,MCU2*%
X130074961Y57530720D02*
X127534961Y57530720D01*
X130074961Y60070720D02*
X127534961Y60070720D01*
X130074961Y60070720D02*
X130074961Y57530720D01*
X127534961Y62610720D02*
X145314961Y62610720D01*
X127534961Y29590720D02*
X127534961Y62610720D01*
X145314961Y29590720D02*
X127534961Y29590720D01*
X145314961Y62610720D02*
X145314961Y29590720D01*
X132177341Y58438815D02*
X132444008Y58819767D01*
X132634484Y58438815D02*
X132634484Y59238815D01*
X132329722Y59238815D01*
X132253532Y59200720D01*
X132215437Y59162624D01*
X132177341Y59086434D01*
X132177341Y58972148D01*
X132215437Y58895958D01*
X132253532Y58857862D01*
X132329722Y58819767D01*
X132634484Y58819767D01*
X131872580Y58667386D02*
X131491627Y58667386D01*
X131948770Y58438815D02*
X131682103Y59238815D01*
X131415437Y58438815D01*
X131224961Y59238815D02*
X131034484Y58438815D01*
X130882103Y59010243D01*
X130729722Y58438815D01*
X130539246Y59238815D01*
X132234484Y56660720D02*
X132310675Y56698815D01*
X132424961Y56698815D01*
X132539246Y56660720D01*
X132615437Y56584529D01*
X132653532Y56508339D01*
X132691627Y56355958D01*
X132691627Y56241672D01*
X132653532Y56089291D01*
X132615437Y56013100D01*
X132539246Y55936910D01*
X132424961Y55898815D01*
X132348770Y55898815D01*
X132234484Y55936910D01*
X132196389Y55975005D01*
X132196389Y56241672D01*
X132348770Y56241672D01*
X131853532Y55898815D02*
X131853532Y56698815D01*
X131396389Y55898815D01*
X131396389Y56698815D01*
X131015437Y55898815D02*
X131015437Y56698815D01*
X130824961Y56698815D01*
X130710675Y56660720D01*
X130634484Y56584529D01*
X130596389Y56508339D01*
X130558294Y56355958D01*
X130558294Y56241672D01*
X130596389Y56089291D01*
X130634484Y56013100D01*
X130710675Y55936910D01*
X130824961Y55898815D01*
X131015437Y55898815D01*
X132063056Y53358815D02*
X132329722Y53739767D01*
X132520199Y53358815D02*
X132520199Y54158815D01*
X132215437Y54158815D01*
X132139246Y54120720D01*
X132101151Y54082624D01*
X132063056Y54006434D01*
X132063056Y53892148D01*
X132101151Y53815958D01*
X132139246Y53777862D01*
X132215437Y53739767D01*
X132520199Y53739767D01*
X131758294Y53396910D02*
X131644008Y53358815D01*
X131453532Y53358815D01*
X131377341Y53396910D01*
X131339246Y53435005D01*
X131301151Y53511196D01*
X131301151Y53587386D01*
X131339246Y53663577D01*
X131377341Y53701672D01*
X131453532Y53739767D01*
X131605913Y53777862D01*
X131682103Y53815958D01*
X131720199Y53854053D01*
X131758294Y53930243D01*
X131758294Y54006434D01*
X131720199Y54082624D01*
X131682103Y54120720D01*
X131605913Y54158815D01*
X131415437Y54158815D01*
X131301151Y54120720D01*
X131072580Y54158815D02*
X130615437Y54158815D01*
X130844008Y53358815D02*
X130844008Y54158815D01*
X132691627Y51618815D02*
X132424961Y50818815D01*
X132158294Y51618815D01*
X131434484Y50895005D02*
X131472580Y50856910D01*
X131586865Y50818815D01*
X131663056Y50818815D01*
X131777341Y50856910D01*
X131853532Y50933100D01*
X131891627Y51009291D01*
X131929722Y51161672D01*
X131929722Y51275958D01*
X131891627Y51428339D01*
X131853532Y51504529D01*
X131777341Y51580720D01*
X131663056Y51618815D01*
X131586865Y51618815D01*
X131472580Y51580720D01*
X131434484Y51542624D01*
X130634484Y50895005D02*
X130672580Y50856910D01*
X130786865Y50818815D01*
X130863056Y50818815D01*
X130977341Y50856910D01*
X131053532Y50933100D01*
X131091627Y51009291D01*
X131129722Y51161672D01*
X131129722Y51275958D01*
X131091627Y51428339D01*
X131053532Y51504529D01*
X130977341Y51580720D01*
X130863056Y51618815D01*
X130786865Y51618815D01*
X130672580Y51580720D01*
X130634484Y51542624D01*
X132596389Y48278815D02*
X132596389Y49078815D01*
X132291627Y49078815D01*
X132215437Y49040720D01*
X132177341Y49002624D01*
X132139246Y48926434D01*
X132139246Y48812148D01*
X132177341Y48735958D01*
X132215437Y48697862D01*
X132291627Y48659767D01*
X132596389Y48659767D01*
X131834484Y49002624D02*
X131796389Y49040720D01*
X131720199Y49078815D01*
X131529722Y49078815D01*
X131453532Y49040720D01*
X131415437Y49002624D01*
X131377341Y48926434D01*
X131377341Y48850243D01*
X131415437Y48735958D01*
X131872580Y48278815D01*
X131377341Y48278815D01*
X130615437Y48278815D02*
X131072580Y48278815D01*
X130844008Y48278815D02*
X130844008Y49078815D01*
X130920199Y48964529D01*
X130996389Y48888339D01*
X131072580Y48850243D01*
X132596389Y45738815D02*
X132596389Y46538815D01*
X132291627Y46538815D01*
X132215437Y46500720D01*
X132177341Y46462624D01*
X132139246Y46386434D01*
X132139246Y46272148D01*
X132177341Y46195958D01*
X132215437Y46157862D01*
X132291627Y46119767D01*
X132596389Y46119767D01*
X131834484Y46462624D02*
X131796389Y46500720D01*
X131720199Y46538815D01*
X131529722Y46538815D01*
X131453532Y46500720D01*
X131415437Y46462624D01*
X131377341Y46386434D01*
X131377341Y46310243D01*
X131415437Y46195958D01*
X131872580Y45738815D01*
X131377341Y45738815D01*
X130882103Y46538815D02*
X130805913Y46538815D01*
X130729722Y46500720D01*
X130691627Y46462624D01*
X130653532Y46386434D01*
X130615437Y46234053D01*
X130615437Y46043577D01*
X130653532Y45891196D01*
X130691627Y45815005D01*
X130729722Y45776910D01*
X130805913Y45738815D01*
X130882103Y45738815D01*
X130958294Y45776910D01*
X130996389Y45815005D01*
X131034484Y45891196D01*
X131072580Y46043577D01*
X131072580Y46234053D01*
X131034484Y46386434D01*
X130996389Y46462624D01*
X130958294Y46500720D01*
X130882103Y46538815D01*
X132596389Y43198815D02*
X132596389Y43998815D01*
X132291627Y43998815D01*
X132215437Y43960720D01*
X132177341Y43922624D01*
X132139246Y43846434D01*
X132139246Y43732148D01*
X132177341Y43655958D01*
X132215437Y43617862D01*
X132291627Y43579767D01*
X132596389Y43579767D01*
X131377341Y43198815D02*
X131834484Y43198815D01*
X131605913Y43198815D02*
X131605913Y43998815D01*
X131682103Y43884529D01*
X131758294Y43808339D01*
X131834484Y43770243D01*
X130996389Y43198815D02*
X130844008Y43198815D01*
X130767818Y43236910D01*
X130729722Y43275005D01*
X130653532Y43389291D01*
X130615437Y43541672D01*
X130615437Y43846434D01*
X130653532Y43922624D01*
X130691627Y43960720D01*
X130767818Y43998815D01*
X130920199Y43998815D01*
X130996389Y43960720D01*
X131034484Y43922624D01*
X131072580Y43846434D01*
X131072580Y43655958D01*
X131034484Y43579767D01*
X130996389Y43541672D01*
X130920199Y43503577D01*
X130767818Y43503577D01*
X130691627Y43541672D01*
X130653532Y43579767D01*
X130615437Y43655958D01*
X132596389Y40658815D02*
X132596389Y41458815D01*
X132291627Y41458815D01*
X132215437Y41420720D01*
X132177341Y41382624D01*
X132139246Y41306434D01*
X132139246Y41192148D01*
X132177341Y41115958D01*
X132215437Y41077862D01*
X132291627Y41039767D01*
X132596389Y41039767D01*
X131377341Y40658815D02*
X131834484Y40658815D01*
X131605913Y40658815D02*
X131605913Y41458815D01*
X131682103Y41344529D01*
X131758294Y41268339D01*
X131834484Y41230243D01*
X130920199Y41115958D02*
X130996389Y41154053D01*
X131034484Y41192148D01*
X131072580Y41268339D01*
X131072580Y41306434D01*
X131034484Y41382624D01*
X130996389Y41420720D01*
X130920199Y41458815D01*
X130767818Y41458815D01*
X130691627Y41420720D01*
X130653532Y41382624D01*
X130615437Y41306434D01*
X130615437Y41268339D01*
X130653532Y41192148D01*
X130691627Y41154053D01*
X130767818Y41115958D01*
X130920199Y41115958D01*
X130996389Y41077862D01*
X131034484Y41039767D01*
X131072580Y40963577D01*
X131072580Y40811196D01*
X131034484Y40735005D01*
X130996389Y40696910D01*
X130920199Y40658815D01*
X130767818Y40658815D01*
X130691627Y40696910D01*
X130653532Y40735005D01*
X130615437Y40811196D01*
X130615437Y40963577D01*
X130653532Y41039767D01*
X130691627Y41077862D01*
X130767818Y41115958D01*
X132596389Y38118815D02*
X132596389Y38918815D01*
X132291627Y38918815D01*
X132215437Y38880720D01*
X132177341Y38842624D01*
X132139246Y38766434D01*
X132139246Y38652148D01*
X132177341Y38575958D01*
X132215437Y38537862D01*
X132291627Y38499767D01*
X132596389Y38499767D01*
X131377341Y38118815D02*
X131834484Y38118815D01*
X131605913Y38118815D02*
X131605913Y38918815D01*
X131682103Y38804529D01*
X131758294Y38728339D01*
X131834484Y38690243D01*
X130653532Y38918815D02*
X131034484Y38918815D01*
X131072580Y38537862D01*
X131034484Y38575958D01*
X130958294Y38614053D01*
X130767818Y38614053D01*
X130691627Y38575958D01*
X130653532Y38537862D01*
X130615437Y38461672D01*
X130615437Y38271196D01*
X130653532Y38195005D01*
X130691627Y38156910D01*
X130767818Y38118815D01*
X130958294Y38118815D01*
X131034484Y38156910D01*
X131072580Y38195005D01*
X132596389Y35578815D02*
X132596389Y36378815D01*
X132291627Y36378815D01*
X132215437Y36340720D01*
X132177341Y36302624D01*
X132139246Y36226434D01*
X132139246Y36112148D01*
X132177341Y36035958D01*
X132215437Y35997862D01*
X132291627Y35959767D01*
X132596389Y35959767D01*
X131377341Y35578815D02*
X131834484Y35578815D01*
X131605913Y35578815D02*
X131605913Y36378815D01*
X131682103Y36264529D01*
X131758294Y36188339D01*
X131834484Y36150243D01*
X130691627Y36112148D02*
X130691627Y35578815D01*
X130882103Y36416910D02*
X131072580Y35845481D01*
X130577341Y35845481D01*
X132596389Y33038815D02*
X132596389Y33838815D01*
X132291627Y33838815D01*
X132215437Y33800720D01*
X132177341Y33762624D01*
X132139246Y33686434D01*
X132139246Y33572148D01*
X132177341Y33495958D01*
X132215437Y33457862D01*
X132291627Y33419767D01*
X132596389Y33419767D01*
X131377341Y33038815D02*
X131834484Y33038815D01*
X131605913Y33038815D02*
X131605913Y33838815D01*
X131682103Y33724529D01*
X131758294Y33648339D01*
X131834484Y33610243D01*
X130691627Y33838815D02*
X130844008Y33838815D01*
X130920199Y33800720D01*
X130958294Y33762624D01*
X131034484Y33648339D01*
X131072580Y33495958D01*
X131072580Y33191196D01*
X131034484Y33115005D01*
X130996389Y33076910D01*
X130920199Y33038815D01*
X130767818Y33038815D01*
X130691627Y33076910D01*
X130653532Y33115005D01*
X130615437Y33191196D01*
X130615437Y33381672D01*
X130653532Y33457862D01*
X130691627Y33495958D01*
X130767818Y33534053D01*
X130920199Y33534053D01*
X130996389Y33495958D01*
X131034484Y33457862D01*
X131072580Y33381672D01*
X132596389Y30498815D02*
X132596389Y31298815D01*
X132291627Y31298815D01*
X132215437Y31260720D01*
X132177341Y31222624D01*
X132139246Y31146434D01*
X132139246Y31032148D01*
X132177341Y30955958D01*
X132215437Y30917862D01*
X132291627Y30879767D01*
X132596389Y30879767D01*
X131377341Y30498815D02*
X131834484Y30498815D01*
X131605913Y30498815D02*
X131605913Y31298815D01*
X131682103Y31184529D01*
X131758294Y31108339D01*
X131834484Y31070243D01*
X130882103Y31298815D02*
X130805913Y31298815D01*
X130729722Y31260720D01*
X130691627Y31222624D01*
X130653532Y31146434D01*
X130615437Y30994053D01*
X130615437Y30803577D01*
X130653532Y30651196D01*
X130691627Y30575005D01*
X130729722Y30536910D01*
X130805913Y30498815D01*
X130882103Y30498815D01*
X130958294Y30536910D01*
X130996389Y30575005D01*
X131034484Y30651196D01*
X131072580Y30803577D01*
X131072580Y30994053D01*
X131034484Y31146434D01*
X130996389Y31222624D01*
X130958294Y31260720D01*
X130882103Y31298815D01*
X142196389Y58438815D02*
X142196389Y59238815D01*
X141891627Y59238815D01*
X141815437Y59200720D01*
X141777341Y59162624D01*
X141739246Y59086434D01*
X141739246Y58972148D01*
X141777341Y58895958D01*
X141815437Y58857862D01*
X141891627Y58819767D01*
X142196389Y58819767D01*
X141244008Y59238815D02*
X141167818Y59238815D01*
X141091627Y59200720D01*
X141053532Y59162624D01*
X141015437Y59086434D01*
X140977341Y58934053D01*
X140977341Y58743577D01*
X141015437Y58591196D01*
X141053532Y58515005D01*
X141091627Y58476910D01*
X141167818Y58438815D01*
X141244008Y58438815D01*
X141320199Y58476910D01*
X141358294Y58515005D01*
X141396389Y58591196D01*
X141434484Y58743577D01*
X141434484Y58934053D01*
X141396389Y59086434D01*
X141358294Y59162624D01*
X141320199Y59200720D01*
X141244008Y59238815D01*
X140215437Y58438815D02*
X140672580Y58438815D01*
X140444008Y58438815D02*
X140444008Y59238815D01*
X140520199Y59124529D01*
X140596389Y59048339D01*
X140672580Y59010243D01*
X142196389Y55898815D02*
X142196389Y56698815D01*
X141891627Y56698815D01*
X141815437Y56660720D01*
X141777341Y56622624D01*
X141739246Y56546434D01*
X141739246Y56432148D01*
X141777341Y56355958D01*
X141815437Y56317862D01*
X141891627Y56279767D01*
X142196389Y56279767D01*
X141244008Y56698815D02*
X141167818Y56698815D01*
X141091627Y56660720D01*
X141053532Y56622624D01*
X141015437Y56546434D01*
X140977341Y56394053D01*
X140977341Y56203577D01*
X141015437Y56051196D01*
X141053532Y55975005D01*
X141091627Y55936910D01*
X141167818Y55898815D01*
X141244008Y55898815D01*
X141320199Y55936910D01*
X141358294Y55975005D01*
X141396389Y56051196D01*
X141434484Y56203577D01*
X141434484Y56394053D01*
X141396389Y56546434D01*
X141358294Y56622624D01*
X141320199Y56660720D01*
X141244008Y56698815D01*
X140482103Y56698815D02*
X140405913Y56698815D01*
X140329722Y56660720D01*
X140291627Y56622624D01*
X140253532Y56546434D01*
X140215437Y56394053D01*
X140215437Y56203577D01*
X140253532Y56051196D01*
X140291627Y55975005D01*
X140329722Y55936910D01*
X140405913Y55898815D01*
X140482103Y55898815D01*
X140558294Y55936910D01*
X140596389Y55975005D01*
X140634484Y56051196D01*
X140672580Y56203577D01*
X140672580Y56394053D01*
X140634484Y56546434D01*
X140596389Y56622624D01*
X140558294Y56660720D01*
X140482103Y56698815D01*
X141834484Y54120720D02*
X141910675Y54158815D01*
X142024961Y54158815D01*
X142139246Y54120720D01*
X142215437Y54044529D01*
X142253532Y53968339D01*
X142291627Y53815958D01*
X142291627Y53701672D01*
X142253532Y53549291D01*
X142215437Y53473100D01*
X142139246Y53396910D01*
X142024961Y53358815D01*
X141948770Y53358815D01*
X141834484Y53396910D01*
X141796389Y53435005D01*
X141796389Y53701672D01*
X141948770Y53701672D01*
X141453532Y53358815D02*
X141453532Y54158815D01*
X140996389Y53358815D01*
X140996389Y54158815D01*
X140615437Y53358815D02*
X140615437Y54158815D01*
X140424961Y54158815D01*
X140310675Y54120720D01*
X140234484Y54044529D01*
X140196389Y53968339D01*
X140158294Y53815958D01*
X140158294Y53701672D01*
X140196389Y53549291D01*
X140234484Y53473100D01*
X140310675Y53396910D01*
X140424961Y53358815D01*
X140615437Y53358815D01*
X141834484Y51580720D02*
X141910675Y51618815D01*
X142024961Y51618815D01*
X142139246Y51580720D01*
X142215437Y51504529D01*
X142253532Y51428339D01*
X142291627Y51275958D01*
X142291627Y51161672D01*
X142253532Y51009291D01*
X142215437Y50933100D01*
X142139246Y50856910D01*
X142024961Y50818815D01*
X141948770Y50818815D01*
X141834484Y50856910D01*
X141796389Y50895005D01*
X141796389Y51161672D01*
X141948770Y51161672D01*
X141453532Y50818815D02*
X141453532Y51618815D01*
X140996389Y50818815D01*
X140996389Y51618815D01*
X140615437Y50818815D02*
X140615437Y51618815D01*
X140424961Y51618815D01*
X140310675Y51580720D01*
X140234484Y51504529D01*
X140196389Y51428339D01*
X140158294Y51275958D01*
X140158294Y51161672D01*
X140196389Y51009291D01*
X140234484Y50933100D01*
X140310675Y50856910D01*
X140424961Y50818815D01*
X140615437Y50818815D01*
X142196389Y48278815D02*
X142196389Y49078815D01*
X141891627Y49078815D01*
X141815437Y49040720D01*
X141777341Y49002624D01*
X141739246Y48926434D01*
X141739246Y48812148D01*
X141777341Y48735958D01*
X141815437Y48697862D01*
X141891627Y48659767D01*
X142196389Y48659767D01*
X141244008Y49078815D02*
X141167818Y49078815D01*
X141091627Y49040720D01*
X141053532Y49002624D01*
X141015437Y48926434D01*
X140977341Y48774053D01*
X140977341Y48583577D01*
X141015437Y48431196D01*
X141053532Y48355005D01*
X141091627Y48316910D01*
X141167818Y48278815D01*
X141244008Y48278815D01*
X141320199Y48316910D01*
X141358294Y48355005D01*
X141396389Y48431196D01*
X141434484Y48583577D01*
X141434484Y48774053D01*
X141396389Y48926434D01*
X141358294Y49002624D01*
X141320199Y49040720D01*
X141244008Y49078815D01*
X140672580Y49002624D02*
X140634484Y49040720D01*
X140558294Y49078815D01*
X140367818Y49078815D01*
X140291627Y49040720D01*
X140253532Y49002624D01*
X140215437Y48926434D01*
X140215437Y48850243D01*
X140253532Y48735958D01*
X140710675Y48278815D01*
X140215437Y48278815D01*
X142196389Y45738815D02*
X142196389Y46538815D01*
X141891627Y46538815D01*
X141815437Y46500720D01*
X141777341Y46462624D01*
X141739246Y46386434D01*
X141739246Y46272148D01*
X141777341Y46195958D01*
X141815437Y46157862D01*
X141891627Y46119767D01*
X142196389Y46119767D01*
X141244008Y46538815D02*
X141167818Y46538815D01*
X141091627Y46500720D01*
X141053532Y46462624D01*
X141015437Y46386434D01*
X140977341Y46234053D01*
X140977341Y46043577D01*
X141015437Y45891196D01*
X141053532Y45815005D01*
X141091627Y45776910D01*
X141167818Y45738815D01*
X141244008Y45738815D01*
X141320199Y45776910D01*
X141358294Y45815005D01*
X141396389Y45891196D01*
X141434484Y46043577D01*
X141434484Y46234053D01*
X141396389Y46386434D01*
X141358294Y46462624D01*
X141320199Y46500720D01*
X141244008Y46538815D01*
X140710675Y46538815D02*
X140215437Y46538815D01*
X140482103Y46234053D01*
X140367818Y46234053D01*
X140291627Y46195958D01*
X140253532Y46157862D01*
X140215437Y46081672D01*
X140215437Y45891196D01*
X140253532Y45815005D01*
X140291627Y45776910D01*
X140367818Y45738815D01*
X140596389Y45738815D01*
X140672580Y45776910D01*
X140710675Y45815005D01*
X142196389Y43198815D02*
X142196389Y43998815D01*
X141891627Y43998815D01*
X141815437Y43960720D01*
X141777341Y43922624D01*
X141739246Y43846434D01*
X141739246Y43732148D01*
X141777341Y43655958D01*
X141815437Y43617862D01*
X141891627Y43579767D01*
X142196389Y43579767D01*
X141244008Y43998815D02*
X141167818Y43998815D01*
X141091627Y43960720D01*
X141053532Y43922624D01*
X141015437Y43846434D01*
X140977341Y43694053D01*
X140977341Y43503577D01*
X141015437Y43351196D01*
X141053532Y43275005D01*
X141091627Y43236910D01*
X141167818Y43198815D01*
X141244008Y43198815D01*
X141320199Y43236910D01*
X141358294Y43275005D01*
X141396389Y43351196D01*
X141434484Y43503577D01*
X141434484Y43694053D01*
X141396389Y43846434D01*
X141358294Y43922624D01*
X141320199Y43960720D01*
X141244008Y43998815D01*
X140291627Y43732148D02*
X140291627Y43198815D01*
X140482103Y44036910D02*
X140672580Y43465481D01*
X140177341Y43465481D01*
X142196389Y40658815D02*
X142196389Y41458815D01*
X141891627Y41458815D01*
X141815437Y41420720D01*
X141777341Y41382624D01*
X141739246Y41306434D01*
X141739246Y41192148D01*
X141777341Y41115958D01*
X141815437Y41077862D01*
X141891627Y41039767D01*
X142196389Y41039767D01*
X141244008Y41458815D02*
X141167818Y41458815D01*
X141091627Y41420720D01*
X141053532Y41382624D01*
X141015437Y41306434D01*
X140977341Y41154053D01*
X140977341Y40963577D01*
X141015437Y40811196D01*
X141053532Y40735005D01*
X141091627Y40696910D01*
X141167818Y40658815D01*
X141244008Y40658815D01*
X141320199Y40696910D01*
X141358294Y40735005D01*
X141396389Y40811196D01*
X141434484Y40963577D01*
X141434484Y41154053D01*
X141396389Y41306434D01*
X141358294Y41382624D01*
X141320199Y41420720D01*
X141244008Y41458815D01*
X140253532Y41458815D02*
X140634484Y41458815D01*
X140672580Y41077862D01*
X140634484Y41115958D01*
X140558294Y41154053D01*
X140367818Y41154053D01*
X140291627Y41115958D01*
X140253532Y41077862D01*
X140215437Y41001672D01*
X140215437Y40811196D01*
X140253532Y40735005D01*
X140291627Y40696910D01*
X140367818Y40658815D01*
X140558294Y40658815D01*
X140634484Y40696910D01*
X140672580Y40735005D01*
X142196389Y38118815D02*
X142196389Y38918815D01*
X141891627Y38918815D01*
X141815437Y38880720D01*
X141777341Y38842624D01*
X141739246Y38766434D01*
X141739246Y38652148D01*
X141777341Y38575958D01*
X141815437Y38537862D01*
X141891627Y38499767D01*
X142196389Y38499767D01*
X141244008Y38918815D02*
X141167818Y38918815D01*
X141091627Y38880720D01*
X141053532Y38842624D01*
X141015437Y38766434D01*
X140977341Y38614053D01*
X140977341Y38423577D01*
X141015437Y38271196D01*
X141053532Y38195005D01*
X141091627Y38156910D01*
X141167818Y38118815D01*
X141244008Y38118815D01*
X141320199Y38156910D01*
X141358294Y38195005D01*
X141396389Y38271196D01*
X141434484Y38423577D01*
X141434484Y38614053D01*
X141396389Y38766434D01*
X141358294Y38842624D01*
X141320199Y38880720D01*
X141244008Y38918815D01*
X140291627Y38918815D02*
X140444008Y38918815D01*
X140520199Y38880720D01*
X140558294Y38842624D01*
X140634484Y38728339D01*
X140672580Y38575958D01*
X140672580Y38271196D01*
X140634484Y38195005D01*
X140596389Y38156910D01*
X140520199Y38118815D01*
X140367818Y38118815D01*
X140291627Y38156910D01*
X140253532Y38195005D01*
X140215437Y38271196D01*
X140215437Y38461672D01*
X140253532Y38537862D01*
X140291627Y38575958D01*
X140367818Y38614053D01*
X140520199Y38614053D01*
X140596389Y38575958D01*
X140634484Y38537862D01*
X140672580Y38461672D01*
X142196389Y35578815D02*
X142196389Y36378815D01*
X141891627Y36378815D01*
X141815437Y36340720D01*
X141777341Y36302624D01*
X141739246Y36226434D01*
X141739246Y36112148D01*
X141777341Y36035958D01*
X141815437Y35997862D01*
X141891627Y35959767D01*
X142196389Y35959767D01*
X141244008Y36378815D02*
X141167818Y36378815D01*
X141091627Y36340720D01*
X141053532Y36302624D01*
X141015437Y36226434D01*
X140977341Y36074053D01*
X140977341Y35883577D01*
X141015437Y35731196D01*
X141053532Y35655005D01*
X141091627Y35616910D01*
X141167818Y35578815D01*
X141244008Y35578815D01*
X141320199Y35616910D01*
X141358294Y35655005D01*
X141396389Y35731196D01*
X141434484Y35883577D01*
X141434484Y36074053D01*
X141396389Y36226434D01*
X141358294Y36302624D01*
X141320199Y36340720D01*
X141244008Y36378815D01*
X140710675Y36378815D02*
X140177341Y36378815D01*
X140520199Y35578815D01*
X142196389Y33038815D02*
X142196389Y33838815D01*
X141891627Y33838815D01*
X141815437Y33800720D01*
X141777341Y33762624D01*
X141739246Y33686434D01*
X141739246Y33572148D01*
X141777341Y33495958D01*
X141815437Y33457862D01*
X141891627Y33419767D01*
X142196389Y33419767D01*
X141244008Y33838815D02*
X141167818Y33838815D01*
X141091627Y33800720D01*
X141053532Y33762624D01*
X141015437Y33686434D01*
X140977341Y33534053D01*
X140977341Y33343577D01*
X141015437Y33191196D01*
X141053532Y33115005D01*
X141091627Y33076910D01*
X141167818Y33038815D01*
X141244008Y33038815D01*
X141320199Y33076910D01*
X141358294Y33115005D01*
X141396389Y33191196D01*
X141434484Y33343577D01*
X141434484Y33534053D01*
X141396389Y33686434D01*
X141358294Y33762624D01*
X141320199Y33800720D01*
X141244008Y33838815D01*
X140520199Y33495958D02*
X140596389Y33534053D01*
X140634484Y33572148D01*
X140672580Y33648339D01*
X140672580Y33686434D01*
X140634484Y33762624D01*
X140596389Y33800720D01*
X140520199Y33838815D01*
X140367818Y33838815D01*
X140291627Y33800720D01*
X140253532Y33762624D01*
X140215437Y33686434D01*
X140215437Y33648339D01*
X140253532Y33572148D01*
X140291627Y33534053D01*
X140367818Y33495958D01*
X140520199Y33495958D01*
X140596389Y33457862D01*
X140634484Y33419767D01*
X140672580Y33343577D01*
X140672580Y33191196D01*
X140634484Y33115005D01*
X140596389Y33076910D01*
X140520199Y33038815D01*
X140367818Y33038815D01*
X140291627Y33076910D01*
X140253532Y33115005D01*
X140215437Y33191196D01*
X140215437Y33343577D01*
X140253532Y33419767D01*
X140291627Y33457862D01*
X140367818Y33495958D01*
X142196389Y30498815D02*
X142196389Y31298815D01*
X141891627Y31298815D01*
X141815437Y31260720D01*
X141777341Y31222624D01*
X141739246Y31146434D01*
X141739246Y31032148D01*
X141777341Y30955958D01*
X141815437Y30917862D01*
X141891627Y30879767D01*
X142196389Y30879767D01*
X141244008Y31298815D02*
X141167818Y31298815D01*
X141091627Y31260720D01*
X141053532Y31222624D01*
X141015437Y31146434D01*
X140977341Y30994053D01*
X140977341Y30803577D01*
X141015437Y30651196D01*
X141053532Y30575005D01*
X141091627Y30536910D01*
X141167818Y30498815D01*
X141244008Y30498815D01*
X141320199Y30536910D01*
X141358294Y30575005D01*
X141396389Y30651196D01*
X141434484Y30803577D01*
X141434484Y30994053D01*
X141396389Y31146434D01*
X141358294Y31222624D01*
X141320199Y31260720D01*
X141244008Y31298815D01*
X140596389Y30498815D02*
X140444008Y30498815D01*
X140367818Y30536910D01*
X140329722Y30575005D01*
X140253532Y30689291D01*
X140215437Y30841672D01*
X140215437Y31146434D01*
X140253532Y31222624D01*
X140291627Y31260720D01*
X140367818Y31298815D01*
X140520199Y31298815D01*
X140596389Y31260720D01*
X140634484Y31222624D01*
X140672580Y31146434D01*
X140672580Y30955958D01*
X140634484Y30879767D01*
X140596389Y30841672D01*
X140520199Y30803577D01*
X140367818Y30803577D01*
X140291627Y30841672D01*
X140253532Y30879767D01*
X140215437Y30955958D01*
%TD*%
M02*
