%TF.GenerationSoftware,KiCad,Pcbnew,5.1.12-1.fc35*%
%TF.CreationDate,2022-03-13T18:33:39-07:00*%
%TF.ProjectId,jackalope_split,6a61636b-616c-46f7-9065-5f73706c6974,v1.0.0*%
%TF.SameCoordinates,Original*%
%TF.FileFunction,Paste,Top*%
%TF.FilePolarity,Positive*%
%FSLAX46Y46*%
G04 Gerber Fmt 4.6, Leading zero omitted, Abs format (unit mm)*
G04 Created by KiCad (PCBNEW 5.1.12-1.fc35) date 2022-03-13 18:33:39*
%MOMM*%
%LPD*%
G01*
G04 APERTURE LIST*
%ADD10C,0.100000*%
%ADD11R,0.900000X1.200000*%
G04 APERTURE END LIST*
D10*
%TO.C,D1*%
G36*
X-1390344Y-10221886D02*
G01*
X-1474052Y-9024809D01*
X-576244Y-8962028D01*
X-492536Y-10159105D01*
X-1390344Y-10221886D01*
G37*
G36*
X1901618Y-9991690D02*
G01*
X1817910Y-8794613D01*
X2715718Y-8731832D01*
X2799426Y-9928909D01*
X1901618Y-9991690D01*
G37*
%TD*%
%TO.C,D2*%
G36*
X-2715718Y8731832D02*
G01*
X-2799426Y9928909D01*
X-1901618Y9991690D01*
X-1817910Y8794613D01*
X-2715718Y8731832D01*
G37*
G36*
X576244Y8962028D02*
G01*
X492536Y10159105D01*
X1390344Y10221886D01*
X1474052Y9024809D01*
X576244Y8962028D01*
G37*
%TD*%
%TO.C,D3*%
G36*
X-4041090Y27685548D02*
G01*
X-4124798Y28882625D01*
X-3226990Y28945406D01*
X-3143282Y27748329D01*
X-4041090Y27685548D01*
G37*
G36*
X-749128Y27915744D02*
G01*
X-832836Y29112821D01*
X64972Y29175602D01*
X148680Y27978525D01*
X-749128Y27915744D01*
G37*
%TD*%
%TO.C,D4*%
G36*
X17563373Y-8896513D02*
G01*
X17479665Y-7699436D01*
X18377473Y-7636655D01*
X18461181Y-8833732D01*
X17563373Y-8896513D01*
G37*
G36*
X20855335Y-8666317D02*
G01*
X20771627Y-7469240D01*
X21669435Y-7406459D01*
X21753143Y-8603536D01*
X20855335Y-8666317D01*
G37*
%TD*%
%TO.C,D5*%
G36*
X16237999Y10057205D02*
G01*
X16154291Y11254282D01*
X17052099Y11317063D01*
X17135807Y10119986D01*
X16237999Y10057205D01*
G37*
G36*
X19529961Y10287401D02*
G01*
X19446253Y11484478D01*
X20344061Y11547259D01*
X20427769Y10350182D01*
X19529961Y10287401D01*
G37*
%TD*%
%TO.C,D6*%
G36*
X14912626Y29010921D02*
G01*
X14828918Y30207998D01*
X15726726Y30270779D01*
X15810434Y29073702D01*
X14912626Y29010921D01*
G37*
G36*
X18204588Y29241117D02*
G01*
X18120880Y30438194D01*
X19018688Y30500975D01*
X19102396Y29303898D01*
X18204588Y29241117D01*
G37*
%TD*%
D11*
%TO.C,D7*%
X36774961Y4330720D03*
X40074961Y4330720D03*
%TD*%
%TO.C,D8*%
X36774961Y23330720D03*
X40074961Y23330720D03*
%TD*%
%TO.C,D9*%
X36774961Y42330720D03*
X40074961Y42330720D03*
%TD*%
%TO.C,D10*%
X55774961Y9330720D03*
X59074961Y9330720D03*
%TD*%
%TO.C,D11*%
X55774961Y28330720D03*
X59074961Y28330720D03*
%TD*%
%TO.C,D12*%
X55774961Y47330720D03*
X59074961Y47330720D03*
%TD*%
%TO.C,D13*%
X74774961Y3330720D03*
X78074961Y3330720D03*
%TD*%
%TO.C,D14*%
X74774961Y22330720D03*
X78074961Y22330720D03*
%TD*%
%TO.C,D15*%
X74774961Y41330720D03*
X78074961Y41330720D03*
%TD*%
%TO.C,D16*%
X93774961Y1330720D03*
X97074961Y1330720D03*
%TD*%
%TO.C,D17*%
X93774961Y20330720D03*
X97074961Y20330720D03*
%TD*%
%TO.C,D18*%
X93774961Y39330720D03*
X97074961Y39330720D03*
%TD*%
%TO.C,D19*%
X112774961Y16330720D03*
X116074961Y16330720D03*
%TD*%
%TO.C,D20*%
X112774961Y35330720D03*
X116074961Y35330720D03*
%TD*%
%TO.C,D21*%
X88774961Y-23669280D03*
X92074961Y-23669280D03*
%TD*%
D10*
%TO.C,D22*%
G36*
X112556670Y-14126015D02*
G01*
X112927491Y-12984747D01*
X113783442Y-13262863D01*
X113412621Y-14404131D01*
X112556670Y-14126015D01*
G37*
G36*
X115695156Y-15145771D02*
G01*
X116065977Y-14004503D01*
X116921928Y-14282619D01*
X116551107Y-15423887D01*
X115695156Y-15145771D01*
G37*
%TD*%
%TO.C,D23*%
G36*
X133162992Y-21462222D02*
G01*
X133689037Y-20383670D01*
X134497952Y-20778204D01*
X133971907Y-21856756D01*
X133162992Y-21462222D01*
G37*
G36*
X136129012Y-22908846D02*
G01*
X136655057Y-21830294D01*
X137463972Y-22224828D01*
X136937927Y-23303380D01*
X136129012Y-22908846D01*
G37*
%TD*%
%TO.C,D24*%
G36*
X106685347Y-32196089D02*
G01*
X107056168Y-31054821D01*
X107912119Y-31332937D01*
X107541298Y-32474205D01*
X106685347Y-32196089D01*
G37*
G36*
X109823833Y-33215845D02*
G01*
X110194654Y-32074577D01*
X111050605Y-32352693D01*
X110679784Y-33493961D01*
X109823833Y-33215845D01*
G37*
%TD*%
%TO.C,D25*%
G36*
X124464154Y-39044398D02*
G01*
X124990199Y-37965846D01*
X125799114Y-38360380D01*
X125273069Y-39438932D01*
X124464154Y-39044398D01*
G37*
G36*
X127430174Y-40491022D02*
G01*
X127956219Y-39412470D01*
X128765134Y-39807004D01*
X128239089Y-40885556D01*
X127430174Y-40491022D01*
G37*
%TD*%
M02*
