%TF.GenerationSoftware,KiCad,Pcbnew,5.1.12-1.fc35*%
%TF.CreationDate,2022-03-13T18:33:39-07:00*%
%TF.ProjectId,jackalope_split,6a61636b-616c-46f7-9065-5f73706c6974,v1.0.0*%
%TF.SameCoordinates,Original*%
%TF.FileFunction,Copper,L2,Bot*%
%TF.FilePolarity,Positive*%
%FSLAX46Y46*%
G04 Gerber Fmt 4.6, Leading zero omitted, Abs format (unit mm)*
G04 Created by KiCad (PCBNEW 5.1.12-1.fc35) date 2022-03-13 18:33:39*
%MOMM*%
%LPD*%
G01*
G04 APERTURE LIST*
%TA.AperFunction,ComponentPad*%
%ADD10C,2.000000*%
%TD*%
%TA.AperFunction,ComponentPad*%
%ADD11C,2.286000*%
%TD*%
%TA.AperFunction,ComponentPad*%
%ADD12C,2.032000*%
%TD*%
%TA.AperFunction,SMDPad,CuDef*%
%ADD13C,0.100000*%
%TD*%
%TA.AperFunction,ComponentPad*%
%ADD14C,1.905000*%
%TD*%
%TA.AperFunction,ComponentPad*%
%ADD15C,0.100000*%
%TD*%
%TA.AperFunction,SMDPad,CuDef*%
%ADD16R,0.900000X1.200000*%
%TD*%
%TA.AperFunction,ComponentPad*%
%ADD17R,1.778000X1.778000*%
%TD*%
%TA.AperFunction,ComponentPad*%
%ADD18R,1.752600X1.752600*%
%TD*%
%TA.AperFunction,ComponentPad*%
%ADD19C,1.752600*%
%TD*%
%TA.AperFunction,ComponentPad*%
%ADD20O,2.200000X1.600000*%
%TD*%
%TA.AperFunction,ViaPad*%
%ADD21C,0.800000*%
%TD*%
%TA.AperFunction,Conductor*%
%ADD22C,0.250000*%
%TD*%
G04 APERTURE END LIST*
D10*
%TO.P,RESET,1*%
%TO.N,GND*%
X144000000Y13500000D03*
%TO.P,RESET,2*%
%TO.N,N/C*%
X144000000Y9000000D03*
%TO.P,RESET,1*%
%TO.N,RST*%
X137500000Y13500000D03*
%TO.P,RESET,2*%
%TO.N,N/C*%
X137500000Y9000000D03*
%TD*%
D11*
%TO.P,S1,1*%
%TO.N,outer_bottom*%
X2179450Y5244807D03*
%TO.P,S1,2*%
%TO.N,P1*%
X-3977900Y2268041D03*
%TO.P,S1,1*%
%TO.N,outer_bottom*%
X-2888176Y4890444D03*
%TO.P,S1,2*%
%TO.N,P1*%
X3623538Y2799585D03*
%TD*%
D12*
%TO.P,S2,1*%
%TO.N,outer_bottom*%
X4722746Y4139526D03*
%TO.P,S2,2*%
%TO.N,P1*%
X-411563Y5885628D03*
%TO.P,S2,1*%
%TO.N,outer_bottom*%
X-5252895Y3441961D03*
%TO.P,S2,2*%
%TO.N,P1*%
X-411563Y5885628D03*
%TD*%
%TA.AperFunction,SMDPad,CuDef*%
D13*
%TO.P,D1,2*%
%TO.N,outer_bottom*%
G36*
X1901618Y-9991690D02*
G01*
X1817910Y-8794613D01*
X2715718Y-8731832D01*
X2799426Y-9928909D01*
X1901618Y-9991690D01*
G37*
%TD.AperFunction*%
%TA.AperFunction,SMDPad,CuDef*%
%TO.P,D1,1*%
%TO.N,P9*%
G36*
X-1390344Y-10221886D02*
G01*
X-1474052Y-9024809D01*
X-576244Y-8962028D01*
X-492536Y-10159105D01*
X-1390344Y-10221886D01*
G37*
%TD.AperFunction*%
D14*
%TO.N,outer_bottom*%
X4463406Y-9211087D03*
%TA.AperFunction,ComponentPad*%
D15*
%TO.P,D1,2*%
%TO.N,P9*%
G36*
X-3962853Y-10691479D02*
G01*
X-4086880Y-8917810D01*
X-2313211Y-8793783D01*
X-2189184Y-10567452D01*
X-3962853Y-10691479D01*
G37*
%TD.AperFunction*%
%TD*%
D11*
%TO.P,S3,1*%
%TO.N,outer_home*%
X854077Y24198524D03*
%TO.P,S3,2*%
%TO.N,P1*%
X-5303273Y21221758D03*
%TO.P,S3,1*%
%TO.N,outer_home*%
X-4213549Y23844161D03*
%TO.P,S3,2*%
%TO.N,P1*%
X2298165Y21753302D03*
%TD*%
D12*
%TO.P,S4,1*%
%TO.N,outer_home*%
X3397373Y23093243D03*
%TO.P,S4,2*%
%TO.N,P1*%
X-1736936Y24839345D03*
%TO.P,S4,1*%
%TO.N,outer_home*%
X-6578268Y22395678D03*
%TO.P,S4,2*%
%TO.N,P1*%
X-1736936Y24839345D03*
%TD*%
%TA.AperFunction,SMDPad,CuDef*%
D13*
%TO.P,D2,2*%
%TO.N,outer_home*%
G36*
X576244Y8962028D02*
G01*
X492536Y10159105D01*
X1390344Y10221886D01*
X1474052Y9024809D01*
X576244Y8962028D01*
G37*
%TD.AperFunction*%
%TA.AperFunction,SMDPad,CuDef*%
%TO.P,D2,1*%
%TO.N,P8*%
G36*
X-2715718Y8731832D02*
G01*
X-2799426Y9928909D01*
X-1901618Y9991690D01*
X-1817910Y8794613D01*
X-2715718Y8731832D01*
G37*
%TD.AperFunction*%
D14*
%TO.N,outer_home*%
X3138032Y9742631D03*
%TA.AperFunction,ComponentPad*%
D15*
%TO.P,D2,2*%
%TO.N,P8*%
G36*
X-5288227Y8262239D02*
G01*
X-5412254Y10035908D01*
X-3638585Y10159935D01*
X-3514558Y8386266D01*
X-5288227Y8262239D01*
G37*
%TD.AperFunction*%
%TD*%
D11*
%TO.P,S5,1*%
%TO.N,outer_top*%
X-471296Y43152241D03*
%TO.P,S5,2*%
%TO.N,P1*%
X-6628646Y40175475D03*
%TO.P,S5,1*%
%TO.N,outer_top*%
X-5538922Y42797878D03*
%TO.P,S5,2*%
%TO.N,P1*%
X972792Y40707019D03*
%TD*%
D12*
%TO.P,S6,1*%
%TO.N,outer_top*%
X2072000Y42046960D03*
%TO.P,S6,2*%
%TO.N,P1*%
X-3062309Y43793062D03*
%TO.P,S6,1*%
%TO.N,outer_top*%
X-7903641Y41349395D03*
%TO.P,S6,2*%
%TO.N,P1*%
X-3062309Y43793062D03*
%TD*%
%TA.AperFunction,SMDPad,CuDef*%
D13*
%TO.P,D3,2*%
%TO.N,outer_top*%
G36*
X-749128Y27915744D02*
G01*
X-832836Y29112821D01*
X64972Y29175602D01*
X148680Y27978525D01*
X-749128Y27915744D01*
G37*
%TD.AperFunction*%
%TA.AperFunction,SMDPad,CuDef*%
%TO.P,D3,1*%
%TO.N,P7*%
G36*
X-4041090Y27685548D02*
G01*
X-4124798Y28882625D01*
X-3226990Y28945406D01*
X-3143282Y27748329D01*
X-4041090Y27685548D01*
G37*
%TD.AperFunction*%
D14*
%TO.N,outer_top*%
X1812660Y28696347D03*
%TA.AperFunction,ComponentPad*%
D15*
%TO.P,D3,2*%
%TO.N,P7*%
G36*
X-6613599Y27215955D02*
G01*
X-6737626Y28989624D01*
X-4963957Y29113651D01*
X-4839930Y27339982D01*
X-6613599Y27215955D01*
G37*
%TD.AperFunction*%
%TD*%
D11*
%TO.P,S7,1*%
%TO.N,pinky_bottom*%
X21133167Y6570180D03*
%TO.P,S7,2*%
%TO.N,P0*%
X14975817Y3593414D03*
%TO.P,S7,1*%
%TO.N,pinky_bottom*%
X16065541Y6215817D03*
%TO.P,S7,2*%
%TO.N,P0*%
X22577255Y4124958D03*
%TD*%
D12*
%TO.P,S8,1*%
%TO.N,pinky_bottom*%
X23676463Y5464899D03*
%TO.P,S8,2*%
%TO.N,P0*%
X18542154Y7211001D03*
%TO.P,S8,1*%
%TO.N,pinky_bottom*%
X13700822Y4767334D03*
%TO.P,S8,2*%
%TO.N,P0*%
X18542154Y7211001D03*
%TD*%
%TA.AperFunction,SMDPad,CuDef*%
D13*
%TO.P,D4,2*%
%TO.N,pinky_bottom*%
G36*
X20855335Y-8666317D02*
G01*
X20771627Y-7469240D01*
X21669435Y-7406459D01*
X21753143Y-8603536D01*
X20855335Y-8666317D01*
G37*
%TD.AperFunction*%
%TA.AperFunction,SMDPad,CuDef*%
%TO.P,D4,1*%
%TO.N,P9*%
G36*
X17563373Y-8896513D02*
G01*
X17479665Y-7699436D01*
X18377473Y-7636655D01*
X18461181Y-8833732D01*
X17563373Y-8896513D01*
G37*
%TD.AperFunction*%
D14*
%TO.N,pinky_bottom*%
X23417123Y-7885714D03*
%TA.AperFunction,ComponentPad*%
D15*
%TO.P,D4,2*%
%TO.N,P9*%
G36*
X14990864Y-9366106D02*
G01*
X14866837Y-7592437D01*
X16640506Y-7468410D01*
X16764533Y-9242079D01*
X14990864Y-9366106D01*
G37*
%TD.AperFunction*%
%TD*%
D11*
%TO.P,S9,1*%
%TO.N,pinky_home*%
X19807794Y25523897D03*
%TO.P,S9,2*%
%TO.N,P0*%
X13650444Y22547131D03*
%TO.P,S9,1*%
%TO.N,pinky_home*%
X14740168Y25169534D03*
%TO.P,S9,2*%
%TO.N,P0*%
X21251882Y23078675D03*
%TD*%
D12*
%TO.P,S10,1*%
%TO.N,pinky_home*%
X22351090Y24418616D03*
%TO.P,S10,2*%
%TO.N,P0*%
X17216781Y26164718D03*
%TO.P,S10,1*%
%TO.N,pinky_home*%
X12375449Y23721051D03*
%TO.P,S10,2*%
%TO.N,P0*%
X17216781Y26164718D03*
%TD*%
%TA.AperFunction,SMDPad,CuDef*%
D13*
%TO.P,D5,2*%
%TO.N,pinky_home*%
G36*
X19529961Y10287401D02*
G01*
X19446253Y11484478D01*
X20344061Y11547259D01*
X20427769Y10350182D01*
X19529961Y10287401D01*
G37*
%TD.AperFunction*%
%TA.AperFunction,SMDPad,CuDef*%
%TO.P,D5,1*%
%TO.N,P8*%
G36*
X16237999Y10057205D02*
G01*
X16154291Y11254282D01*
X17052099Y11317063D01*
X17135807Y10119986D01*
X16237999Y10057205D01*
G37*
%TD.AperFunction*%
D14*
%TO.N,pinky_home*%
X22091749Y11068004D03*
%TA.AperFunction,ComponentPad*%
D15*
%TO.P,D5,2*%
%TO.N,P8*%
G36*
X13665490Y9587612D02*
G01*
X13541463Y11361281D01*
X15315132Y11485308D01*
X15439159Y9711639D01*
X13665490Y9587612D01*
G37*
%TD.AperFunction*%
%TD*%
D11*
%TO.P,S11,1*%
%TO.N,pinky_top*%
X18482421Y44477614D03*
%TO.P,S11,2*%
%TO.N,P0*%
X12325071Y41500848D03*
%TO.P,S11,1*%
%TO.N,pinky_top*%
X13414795Y44123251D03*
%TO.P,S11,2*%
%TO.N,P0*%
X19926509Y42032392D03*
%TD*%
D12*
%TO.P,S12,1*%
%TO.N,pinky_top*%
X21025717Y43372333D03*
%TO.P,S12,2*%
%TO.N,P0*%
X15891408Y45118435D03*
%TO.P,S12,1*%
%TO.N,pinky_top*%
X11050076Y42674768D03*
%TO.P,S12,2*%
%TO.N,P0*%
X15891408Y45118435D03*
%TD*%
%TA.AperFunction,SMDPad,CuDef*%
D13*
%TO.P,D6,2*%
%TO.N,pinky_top*%
G36*
X18204588Y29241117D02*
G01*
X18120880Y30438194D01*
X19018688Y30500975D01*
X19102396Y29303898D01*
X18204588Y29241117D01*
G37*
%TD.AperFunction*%
%TA.AperFunction,SMDPad,CuDef*%
%TO.P,D6,1*%
%TO.N,P7*%
G36*
X14912626Y29010921D02*
G01*
X14828918Y30207998D01*
X15726726Y30270779D01*
X15810434Y29073702D01*
X14912626Y29010921D01*
G37*
%TD.AperFunction*%
D14*
%TO.N,pinky_top*%
X20766376Y30021720D03*
%TA.AperFunction,ComponentPad*%
D15*
%TO.P,D6,2*%
%TO.N,P7*%
G36*
X12340117Y28541328D02*
G01*
X12216090Y30314997D01*
X13989759Y30439024D01*
X14113786Y28665355D01*
X12340117Y28541328D01*
G37*
%TD.AperFunction*%
%TD*%
D11*
%TO.P,S13,1*%
%TO.N,ring_bottom*%
X40964961Y18910720D03*
%TO.P,S13,2*%
%TO.N,P2*%
X34614961Y16370720D03*
%TO.P,S13,1*%
%TO.N,ring_bottom*%
X35884961Y18910720D03*
%TO.P,S13,2*%
%TO.N,P2*%
X42234961Y16370720D03*
%TD*%
D12*
%TO.P,S14,1*%
%TO.N,ring_bottom*%
X43424961Y17630720D03*
%TO.P,S14,2*%
%TO.N,P2*%
X38424961Y19730720D03*
%TO.P,S14,1*%
%TO.N,ring_bottom*%
X33424961Y17630720D03*
%TO.P,S14,2*%
%TO.N,P2*%
X38424961Y19730720D03*
%TD*%
D16*
%TO.P,D7,2*%
%TO.N,ring_bottom*%
X40074961Y4330720D03*
%TO.P,D7,1*%
%TO.N,P9*%
X36774961Y4330720D03*
D14*
%TO.N,ring_bottom*%
X42234961Y4330720D03*
D17*
%TO.P,D7,2*%
%TO.N,P9*%
X34614961Y4330720D03*
%TD*%
D11*
%TO.P,S15,1*%
%TO.N,ring_home*%
X40964961Y37910720D03*
%TO.P,S15,2*%
%TO.N,P2*%
X34614961Y35370720D03*
%TO.P,S15,1*%
%TO.N,ring_home*%
X35884961Y37910720D03*
%TO.P,S15,2*%
%TO.N,P2*%
X42234961Y35370720D03*
%TD*%
D12*
%TO.P,S16,1*%
%TO.N,ring_home*%
X43424961Y36630720D03*
%TO.P,S16,2*%
%TO.N,P2*%
X38424961Y38730720D03*
%TO.P,S16,1*%
%TO.N,ring_home*%
X33424961Y36630720D03*
%TO.P,S16,2*%
%TO.N,P2*%
X38424961Y38730720D03*
%TD*%
D16*
%TO.P,D8,2*%
%TO.N,ring_home*%
X40074961Y23330720D03*
%TO.P,D8,1*%
%TO.N,P8*%
X36774961Y23330720D03*
D14*
%TO.N,ring_home*%
X42234961Y23330720D03*
D17*
%TO.P,D8,2*%
%TO.N,P8*%
X34614961Y23330720D03*
%TD*%
D11*
%TO.P,S17,1*%
%TO.N,ring_top*%
X40964961Y56910720D03*
%TO.P,S17,2*%
%TO.N,P2*%
X34614961Y54370720D03*
%TO.P,S17,1*%
%TO.N,ring_top*%
X35884961Y56910720D03*
%TO.P,S17,2*%
%TO.N,P2*%
X42234961Y54370720D03*
%TD*%
D12*
%TO.P,S18,1*%
%TO.N,ring_top*%
X43424961Y55630720D03*
%TO.P,S18,2*%
%TO.N,P2*%
X38424961Y57730720D03*
%TO.P,S18,1*%
%TO.N,ring_top*%
X33424961Y55630720D03*
%TO.P,S18,2*%
%TO.N,P2*%
X38424961Y57730720D03*
%TD*%
D16*
%TO.P,D9,2*%
%TO.N,ring_top*%
X40074961Y42330720D03*
%TO.P,D9,1*%
%TO.N,P7*%
X36774961Y42330720D03*
D14*
%TO.N,ring_top*%
X42234961Y42330720D03*
D17*
%TO.P,D9,2*%
%TO.N,P7*%
X34614961Y42330720D03*
%TD*%
D11*
%TO.P,S19,1*%
%TO.N,middle_bottom*%
X59964961Y23910720D03*
%TO.P,S19,2*%
%TO.N,P3*%
X53614961Y21370720D03*
%TO.P,S19,1*%
%TO.N,middle_bottom*%
X54884961Y23910720D03*
%TO.P,S19,2*%
%TO.N,P3*%
X61234961Y21370720D03*
%TD*%
D12*
%TO.P,S20,1*%
%TO.N,middle_bottom*%
X62424961Y22630720D03*
%TO.P,S20,2*%
%TO.N,P3*%
X57424961Y24730720D03*
%TO.P,S20,1*%
%TO.N,middle_bottom*%
X52424961Y22630720D03*
%TO.P,S20,2*%
%TO.N,P3*%
X57424961Y24730720D03*
%TD*%
D16*
%TO.P,D10,2*%
%TO.N,middle_bottom*%
X59074961Y9330720D03*
%TO.P,D10,1*%
%TO.N,P9*%
X55774961Y9330720D03*
D14*
%TO.N,middle_bottom*%
X61234961Y9330720D03*
D17*
%TO.P,D10,2*%
%TO.N,P9*%
X53614961Y9330720D03*
%TD*%
D11*
%TO.P,S21,1*%
%TO.N,middle_home*%
X59964961Y42910720D03*
%TO.P,S21,2*%
%TO.N,P3*%
X53614961Y40370720D03*
%TO.P,S21,1*%
%TO.N,middle_home*%
X54884961Y42910720D03*
%TO.P,S21,2*%
%TO.N,P3*%
X61234961Y40370720D03*
%TD*%
D12*
%TO.P,S22,1*%
%TO.N,middle_home*%
X62424961Y41630720D03*
%TO.P,S22,2*%
%TO.N,P3*%
X57424961Y43730720D03*
%TO.P,S22,1*%
%TO.N,middle_home*%
X52424961Y41630720D03*
%TO.P,S22,2*%
%TO.N,P3*%
X57424961Y43730720D03*
%TD*%
D16*
%TO.P,D11,2*%
%TO.N,middle_home*%
X59074961Y28330720D03*
%TO.P,D11,1*%
%TO.N,P8*%
X55774961Y28330720D03*
D14*
%TO.N,middle_home*%
X61234961Y28330720D03*
D17*
%TO.P,D11,2*%
%TO.N,P8*%
X53614961Y28330720D03*
%TD*%
D11*
%TO.P,S23,1*%
%TO.N,middle_top*%
X59964961Y61910720D03*
%TO.P,S23,2*%
%TO.N,P3*%
X53614961Y59370720D03*
%TO.P,S23,1*%
%TO.N,middle_top*%
X54884961Y61910720D03*
%TO.P,S23,2*%
%TO.N,P3*%
X61234961Y59370720D03*
%TD*%
D12*
%TO.P,S24,1*%
%TO.N,middle_top*%
X62424961Y60630720D03*
%TO.P,S24,2*%
%TO.N,P3*%
X57424961Y62730720D03*
%TO.P,S24,1*%
%TO.N,middle_top*%
X52424961Y60630720D03*
%TO.P,S24,2*%
%TO.N,P3*%
X57424961Y62730720D03*
%TD*%
D16*
%TO.P,D12,2*%
%TO.N,middle_top*%
X59074961Y47330720D03*
%TO.P,D12,1*%
%TO.N,P7*%
X55774961Y47330720D03*
D14*
%TO.N,middle_top*%
X61234961Y47330720D03*
D17*
%TO.P,D12,2*%
%TO.N,P7*%
X53614961Y47330720D03*
%TD*%
D11*
%TO.P,S25,1*%
%TO.N,index_bottom*%
X78964961Y17910720D03*
%TO.P,S25,2*%
%TO.N,P4*%
X72614961Y15370720D03*
%TO.P,S25,1*%
%TO.N,index_bottom*%
X73884961Y17910720D03*
%TO.P,S25,2*%
%TO.N,P4*%
X80234961Y15370720D03*
%TD*%
D12*
%TO.P,S26,1*%
%TO.N,index_bottom*%
X81424961Y16630720D03*
%TO.P,S26,2*%
%TO.N,P4*%
X76424961Y18730720D03*
%TO.P,S26,1*%
%TO.N,index_bottom*%
X71424961Y16630720D03*
%TO.P,S26,2*%
%TO.N,P4*%
X76424961Y18730720D03*
%TD*%
D16*
%TO.P,D13,2*%
%TO.N,index_bottom*%
X78074961Y3330720D03*
%TO.P,D13,1*%
%TO.N,P9*%
X74774961Y3330720D03*
D14*
%TO.N,index_bottom*%
X80234961Y3330720D03*
D17*
%TO.P,D13,2*%
%TO.N,P9*%
X72614961Y3330720D03*
%TD*%
D11*
%TO.P,S27,1*%
%TO.N,index_home*%
X78964961Y36910720D03*
%TO.P,S27,2*%
%TO.N,P4*%
X72614961Y34370720D03*
%TO.P,S27,1*%
%TO.N,index_home*%
X73884961Y36910720D03*
%TO.P,S27,2*%
%TO.N,P4*%
X80234961Y34370720D03*
%TD*%
D12*
%TO.P,S28,1*%
%TO.N,index_home*%
X81424961Y35630720D03*
%TO.P,S28,2*%
%TO.N,P4*%
X76424961Y37730720D03*
%TO.P,S28,1*%
%TO.N,index_home*%
X71424961Y35630720D03*
%TO.P,S28,2*%
%TO.N,P4*%
X76424961Y37730720D03*
%TD*%
D16*
%TO.P,D14,2*%
%TO.N,index_home*%
X78074961Y22330720D03*
%TO.P,D14,1*%
%TO.N,P8*%
X74774961Y22330720D03*
D14*
%TO.N,index_home*%
X80234961Y22330720D03*
D17*
%TO.P,D14,2*%
%TO.N,P8*%
X72614961Y22330720D03*
%TD*%
D11*
%TO.P,S29,1*%
%TO.N,index_top*%
X78964961Y55910720D03*
%TO.P,S29,2*%
%TO.N,P4*%
X72614961Y53370720D03*
%TO.P,S29,1*%
%TO.N,index_top*%
X73884961Y55910720D03*
%TO.P,S29,2*%
%TO.N,P4*%
X80234961Y53370720D03*
%TD*%
D12*
%TO.P,S30,1*%
%TO.N,index_top*%
X81424961Y54630720D03*
%TO.P,S30,2*%
%TO.N,P4*%
X76424961Y56730720D03*
%TO.P,S30,1*%
%TO.N,index_top*%
X71424961Y54630720D03*
%TO.P,S30,2*%
%TO.N,P4*%
X76424961Y56730720D03*
%TD*%
D16*
%TO.P,D15,2*%
%TO.N,index_top*%
X78074961Y41330720D03*
%TO.P,D15,1*%
%TO.N,P7*%
X74774961Y41330720D03*
D14*
%TO.N,index_top*%
X80234961Y41330720D03*
D17*
%TO.P,D15,2*%
%TO.N,P7*%
X72614961Y41330720D03*
%TD*%
D11*
%TO.P,S31,1*%
%TO.N,inner_bottom*%
X97964961Y15910720D03*
%TO.P,S31,2*%
%TO.N,P5*%
X91614961Y13370720D03*
%TO.P,S31,1*%
%TO.N,inner_bottom*%
X92884961Y15910720D03*
%TO.P,S31,2*%
%TO.N,P5*%
X99234961Y13370720D03*
%TD*%
D12*
%TO.P,S32,1*%
%TO.N,inner_bottom*%
X100424961Y14630720D03*
%TO.P,S32,2*%
%TO.N,P5*%
X95424961Y16730720D03*
%TO.P,S32,1*%
%TO.N,inner_bottom*%
X90424961Y14630720D03*
%TO.P,S32,2*%
%TO.N,P5*%
X95424961Y16730720D03*
%TD*%
D16*
%TO.P,D16,2*%
%TO.N,inner_bottom*%
X97074961Y1330720D03*
%TO.P,D16,1*%
%TO.N,P9*%
X93774961Y1330720D03*
D14*
%TO.N,inner_bottom*%
X99234961Y1330720D03*
D17*
%TO.P,D16,2*%
%TO.N,P9*%
X91614961Y1330720D03*
%TD*%
D11*
%TO.P,S33,1*%
%TO.N,inner_home*%
X97964961Y34910720D03*
%TO.P,S33,2*%
%TO.N,P5*%
X91614961Y32370720D03*
%TO.P,S33,1*%
%TO.N,inner_home*%
X92884961Y34910720D03*
%TO.P,S33,2*%
%TO.N,P5*%
X99234961Y32370720D03*
%TD*%
D12*
%TO.P,S34,1*%
%TO.N,inner_home*%
X100424961Y33630720D03*
%TO.P,S34,2*%
%TO.N,P5*%
X95424961Y35730720D03*
%TO.P,S34,1*%
%TO.N,inner_home*%
X90424961Y33630720D03*
%TO.P,S34,2*%
%TO.N,P5*%
X95424961Y35730720D03*
%TD*%
D16*
%TO.P,D17,2*%
%TO.N,inner_home*%
X97074961Y20330720D03*
%TO.P,D17,1*%
%TO.N,P8*%
X93774961Y20330720D03*
D14*
%TO.N,inner_home*%
X99234961Y20330720D03*
D17*
%TO.P,D17,2*%
%TO.N,P8*%
X91614961Y20330720D03*
%TD*%
D11*
%TO.P,S35,1*%
%TO.N,inner_top*%
X97964961Y53910720D03*
%TO.P,S35,2*%
%TO.N,P5*%
X91614961Y51370720D03*
%TO.P,S35,1*%
%TO.N,inner_top*%
X92884961Y53910720D03*
%TO.P,S35,2*%
%TO.N,P5*%
X99234961Y51370720D03*
%TD*%
D12*
%TO.P,S36,1*%
%TO.N,inner_top*%
X100424961Y52630720D03*
%TO.P,S36,2*%
%TO.N,P5*%
X95424961Y54730720D03*
%TO.P,S36,1*%
%TO.N,inner_top*%
X90424961Y52630720D03*
%TO.P,S36,2*%
%TO.N,P5*%
X95424961Y54730720D03*
%TD*%
D16*
%TO.P,D18,2*%
%TO.N,inner_top*%
X97074961Y39330720D03*
%TO.P,D18,1*%
%TO.N,P7*%
X93774961Y39330720D03*
D14*
%TO.N,inner_top*%
X99234961Y39330720D03*
D17*
%TO.P,D18,2*%
%TO.N,P7*%
X91614961Y39330720D03*
%TD*%
D11*
%TO.P,S37,1*%
%TO.N,macro_home*%
X116964961Y30910720D03*
%TO.P,S37,2*%
%TO.N,P6*%
X110614961Y28370720D03*
%TO.P,S37,1*%
%TO.N,macro_home*%
X111884961Y30910720D03*
%TO.P,S37,2*%
%TO.N,P6*%
X118234961Y28370720D03*
%TD*%
D12*
%TO.P,S38,1*%
%TO.N,macro_home*%
X119424961Y29630720D03*
%TO.P,S38,2*%
%TO.N,P6*%
X114424961Y31730720D03*
%TO.P,S38,1*%
%TO.N,macro_home*%
X109424961Y29630720D03*
%TO.P,S38,2*%
%TO.N,P6*%
X114424961Y31730720D03*
%TD*%
D16*
%TO.P,D19,2*%
%TO.N,macro_home*%
X116074961Y16330720D03*
%TO.P,D19,1*%
%TO.N,P8*%
X112774961Y16330720D03*
D14*
%TO.N,macro_home*%
X118234961Y16330720D03*
D17*
%TO.P,D19,2*%
%TO.N,P8*%
X110614961Y16330720D03*
%TD*%
D11*
%TO.P,S39,1*%
%TO.N,macro_top*%
X116964961Y49910720D03*
%TO.P,S39,2*%
%TO.N,P6*%
X110614961Y47370720D03*
%TO.P,S39,1*%
%TO.N,macro_top*%
X111884961Y49910720D03*
%TO.P,S39,2*%
%TO.N,P6*%
X118234961Y47370720D03*
%TD*%
D12*
%TO.P,S40,1*%
%TO.N,macro_top*%
X119424961Y48630720D03*
%TO.P,S40,2*%
%TO.N,P6*%
X114424961Y50730720D03*
%TO.P,S40,1*%
%TO.N,macro_top*%
X109424961Y48630720D03*
%TO.P,S40,2*%
%TO.N,P6*%
X114424961Y50730720D03*
%TD*%
D16*
%TO.P,D20,2*%
%TO.N,macro_top*%
X116074961Y35330720D03*
%TO.P,D20,1*%
%TO.N,P7*%
X112774961Y35330720D03*
D14*
%TO.N,macro_top*%
X118234961Y35330720D03*
D17*
%TO.P,D20,2*%
%TO.N,P7*%
X110614961Y35330720D03*
%TD*%
D11*
%TO.P,S41,1*%
%TO.N,inner_upper*%
X92964961Y-9089280D03*
%TO.P,S41,2*%
%TO.N,P2*%
X86614961Y-11629280D03*
%TO.P,S41,1*%
%TO.N,inner_upper*%
X87884961Y-9089280D03*
%TO.P,S41,2*%
%TO.N,P2*%
X94234961Y-11629280D03*
%TD*%
D12*
%TO.P,S42,1*%
%TO.N,inner_upper*%
X95424961Y-10369280D03*
%TO.P,S42,2*%
%TO.N,P2*%
X90424961Y-8269280D03*
%TO.P,S42,1*%
%TO.N,inner_upper*%
X85424961Y-10369280D03*
%TO.P,S42,2*%
%TO.N,P2*%
X90424961Y-8269280D03*
%TD*%
D16*
%TO.P,D21,2*%
%TO.N,inner_upper*%
X92074961Y-23669280D03*
%TO.P,D21,1*%
%TO.N,P10*%
X88774961Y-23669280D03*
D14*
%TO.N,inner_upper*%
X94234961Y-23669280D03*
D17*
%TO.P,D21,2*%
%TO.N,P10*%
X86614961Y-23669280D03*
%TD*%
D11*
%TO.P,S43,1*%
%TO.N,home_upper*%
X121660451Y-1122816D03*
%TO.P,S43,2*%
%TO.N,P3*%
X114836339Y-1576242D03*
%TO.P,S43,1*%
%TO.N,home_upper*%
X116829084Y446990D03*
%TO.P,S43,2*%
%TO.N,P3*%
X122083389Y-3930951D03*
%TD*%
D12*
%TO.P,S44,1*%
%TO.N,home_upper*%
X123604508Y-3100350D03*
%TO.P,S44,2*%
%TO.N,P3*%
X119498161Y441953D03*
%TO.P,S44,1*%
%TO.N,home_upper*%
X114093943Y-10180D03*
%TO.P,S44,2*%
%TO.N,P3*%
X119498161Y441953D03*
%TD*%
%TA.AperFunction,SMDPad,CuDef*%
D13*
%TO.P,D22,2*%
%TO.N,home_upper*%
G36*
X115695156Y-15145771D02*
G01*
X116065977Y-14004503D01*
X116921928Y-14282619D01*
X116551107Y-15423887D01*
X115695156Y-15145771D01*
G37*
%TD.AperFunction*%
%TA.AperFunction,SMDPad,CuDef*%
%TO.P,D22,1*%
%TO.N,P10*%
G36*
X112556670Y-14126015D02*
G01*
X112927491Y-12984747D01*
X113783442Y-13262863D01*
X113412621Y-14404131D01*
X112556670Y-14126015D01*
G37*
%TD.AperFunction*%
D14*
%TO.N,home_upper*%
X118362824Y-15381672D03*
%TA.AperFunction,ComponentPad*%
D15*
%TO.P,D22,2*%
%TO.N,P10*%
G36*
X109995569Y-13597735D02*
G01*
X110545001Y-11906757D01*
X112235979Y-12456189D01*
X111686547Y-14147167D01*
X109995569Y-13597735D01*
G37*
%TD.AperFunction*%
%TD*%
D11*
%TO.P,S45,1*%
%TO.N,outer_upper*%
X143987870Y-9852571D03*
%TO.P,S45,2*%
%TO.N,P5*%
X137167065Y-9351851D03*
%TO.P,S45,1*%
%TO.N,outer_upper*%
X139421997Y-7625646D03*
%TO.P,S45,2*%
%TO.N,P5*%
X144015876Y-12692239D03*
%TD*%
D12*
%TO.P,S46,1*%
%TO.N,outer_upper*%
X145637789Y-12081420D03*
%TO.P,S46,2*%
%TO.N,P5*%
X142064398Y-8002097D03*
%TO.P,S46,1*%
%TO.N,outer_upper*%
X136649848Y-7697709D03*
%TO.P,S46,2*%
%TO.N,P5*%
X142064398Y-8002097D03*
%TD*%
%TA.AperFunction,SMDPad,CuDef*%
D13*
%TO.P,D23,2*%
%TO.N,outer_upper*%
G36*
X136129012Y-22908846D02*
G01*
X136655057Y-21830294D01*
X137463972Y-22224828D01*
X136937927Y-23303380D01*
X136129012Y-22908846D01*
G37*
%TD.AperFunction*%
%TA.AperFunction,SMDPad,CuDef*%
%TO.P,D23,1*%
%TO.N,P10*%
G36*
X133162992Y-21462222D02*
G01*
X133689037Y-20383670D01*
X134497952Y-20778204D01*
X133971907Y-21856756D01*
X133162992Y-21462222D01*
G37*
%TD.AperFunction*%
D14*
%TO.N,outer_upper*%
X138737887Y-23513719D03*
%TA.AperFunction,ComponentPad*%
D15*
%TO.P,D23,2*%
%TO.N,P10*%
G36*
X130700337Y-20582647D02*
G01*
X131479761Y-18984591D01*
X133077817Y-19764015D01*
X132298393Y-21362071D01*
X130700337Y-20582647D01*
G37*
%TD.AperFunction*%
%TD*%
D11*
%TO.P,S47,1*%
%TO.N,home_lower*%
X115789128Y-19192890D03*
%TO.P,S47,2*%
%TO.N,P4*%
X108965016Y-19646316D03*
%TO.P,S47,1*%
%TO.N,home_lower*%
X110957761Y-17623084D03*
%TO.P,S47,2*%
%TO.N,P4*%
X116212066Y-22001025D03*
%TD*%
D12*
%TO.P,S48,1*%
%TO.N,home_lower*%
X117733185Y-21170424D03*
%TO.P,S48,2*%
%TO.N,P4*%
X113626838Y-17628121D03*
%TO.P,S48,1*%
%TO.N,home_lower*%
X108222620Y-18080254D03*
%TO.P,S48,2*%
%TO.N,P4*%
X113626838Y-17628121D03*
%TD*%
%TA.AperFunction,SMDPad,CuDef*%
D13*
%TO.P,D24,2*%
%TO.N,home_lower*%
G36*
X109823833Y-33215845D02*
G01*
X110194654Y-32074577D01*
X111050605Y-32352693D01*
X110679784Y-33493961D01*
X109823833Y-33215845D01*
G37*
%TD.AperFunction*%
%TA.AperFunction,SMDPad,CuDef*%
%TO.P,D24,1*%
%TO.N,P10*%
G36*
X106685347Y-32196089D02*
G01*
X107056168Y-31054821D01*
X107912119Y-31332937D01*
X107541298Y-32474205D01*
X106685347Y-32196089D01*
G37*
%TD.AperFunction*%
D14*
%TO.N,home_lower*%
X112491501Y-33451746D03*
%TA.AperFunction,ComponentPad*%
D15*
%TO.P,D24,2*%
%TO.N,P10*%
G36*
X104124246Y-31667809D02*
G01*
X104673678Y-29976831D01*
X106364656Y-30526263D01*
X105815224Y-32217241D01*
X104124246Y-31667809D01*
G37*
%TD.AperFunction*%
%TD*%
D11*
%TO.P,S49,1*%
%TO.N,outer_lower*%
X135289032Y-27434747D03*
%TO.P,S49,2*%
%TO.N,P6*%
X128468227Y-26934027D03*
%TO.P,S49,1*%
%TO.N,outer_lower*%
X130723159Y-25207822D03*
%TO.P,S49,2*%
%TO.N,P6*%
X135317038Y-30274415D03*
%TD*%
D12*
%TO.P,S50,1*%
%TO.N,outer_lower*%
X136938951Y-29663596D03*
%TO.P,S50,2*%
%TO.N,P6*%
X133365560Y-25584273D03*
%TO.P,S50,1*%
%TO.N,outer_lower*%
X127951010Y-25279885D03*
%TO.P,S50,2*%
%TO.N,P6*%
X133365560Y-25584273D03*
%TD*%
%TA.AperFunction,SMDPad,CuDef*%
D13*
%TO.P,D25,2*%
%TO.N,outer_lower*%
G36*
X127430174Y-40491022D02*
G01*
X127956219Y-39412470D01*
X128765134Y-39807004D01*
X128239089Y-40885556D01*
X127430174Y-40491022D01*
G37*
%TD.AperFunction*%
%TA.AperFunction,SMDPad,CuDef*%
%TO.P,D25,1*%
%TO.N,P10*%
G36*
X124464154Y-39044398D02*
G01*
X124990199Y-37965846D01*
X125799114Y-38360380D01*
X125273069Y-39438932D01*
X124464154Y-39044398D01*
G37*
%TD.AperFunction*%
D14*
%TO.N,outer_lower*%
X130039049Y-41095895D03*
%TA.AperFunction,ComponentPad*%
D15*
%TO.P,D25,2*%
%TO.N,P10*%
G36*
X122001499Y-38164823D02*
G01*
X122780923Y-36566767D01*
X124378979Y-37346191D01*
X123599555Y-38944247D01*
X122001499Y-38164823D01*
G37*
%TD.AperFunction*%
%TD*%
D18*
%TO.P,MCU1,1*%
%TO.N,RAW*%
X141544961Y57550720D03*
D19*
%TO.P,MCU1,2*%
%TO.N,GND*%
X141544961Y55010720D03*
%TO.P,MCU1,3*%
%TO.N,RST*%
X141544961Y52470720D03*
%TO.P,MCU1,4*%
%TO.N,VCC*%
X141544961Y49930720D03*
%TO.P,MCU1,5*%
%TO.N,P21*%
X141544961Y47390720D03*
%TO.P,MCU1,6*%
%TO.N,P20*%
X141544961Y44850720D03*
%TO.P,MCU1,7*%
%TO.N,P19*%
X141544961Y42310720D03*
%TO.P,MCU1,8*%
%TO.N,P18*%
X141544961Y39770720D03*
%TO.P,MCU1,9*%
%TO.N,P15*%
X141544961Y37230720D03*
%TO.P,MCU1,10*%
%TO.N,P14*%
X141544961Y34690720D03*
%TO.P,MCU1,11*%
%TO.N,P16*%
X141544961Y32150720D03*
%TO.P,MCU1,12*%
%TO.N,P10*%
X141544961Y29610720D03*
%TO.P,MCU1,13*%
%TO.N,P1*%
X126304961Y57550720D03*
%TO.P,MCU1,14*%
%TO.N,P0*%
X126304961Y55010720D03*
%TO.P,MCU1,15*%
%TO.N,GND*%
X126304961Y52470720D03*
%TO.P,MCU1,16*%
X126304961Y49930720D03*
%TO.P,MCU1,17*%
%TO.N,P2*%
X126304961Y47390720D03*
%TO.P,MCU1,18*%
%TO.N,P3*%
X126304961Y44850720D03*
%TO.P,MCU1,19*%
%TO.N,P4*%
X126304961Y42310720D03*
%TO.P,MCU1,20*%
%TO.N,P5*%
X126304961Y39770720D03*
%TO.P,MCU1,21*%
%TO.N,P6*%
X126304961Y37230720D03*
%TO.P,MCU1,22*%
%TO.N,P7*%
X126304961Y34690720D03*
%TO.P,MCU1,23*%
%TO.N,P8*%
X126304961Y32150720D03*
%TO.P,MCU1,24*%
%TO.N,P9*%
X126304961Y29610720D03*
%TD*%
D18*
%TO.P,MCU2,1*%
%TO.N,RAW*%
X128804961Y58800720D03*
D19*
%TO.P,MCU2,2*%
%TO.N,GND*%
X128804961Y56260720D03*
%TO.P,MCU2,3*%
%TO.N,RST*%
X128804961Y53720720D03*
%TO.P,MCU2,4*%
%TO.N,VCC*%
X128804961Y51180720D03*
%TO.P,MCU2,5*%
%TO.N,P21*%
X128804961Y48640720D03*
%TO.P,MCU2,6*%
%TO.N,P20*%
X128804961Y46100720D03*
%TO.P,MCU2,7*%
%TO.N,P19*%
X128804961Y43560720D03*
%TO.P,MCU2,8*%
%TO.N,P18*%
X128804961Y41020720D03*
%TO.P,MCU2,9*%
%TO.N,P15*%
X128804961Y38480720D03*
%TO.P,MCU2,10*%
%TO.N,P14*%
X128804961Y35940720D03*
%TO.P,MCU2,11*%
%TO.N,P16*%
X128804961Y33400720D03*
%TO.P,MCU2,12*%
%TO.N,P10*%
X128804961Y30860720D03*
%TO.P,MCU2,13*%
%TO.N,P1*%
X144044961Y58800720D03*
%TO.P,MCU2,14*%
%TO.N,P0*%
X144044961Y56260720D03*
%TO.P,MCU2,15*%
%TO.N,GND*%
X144044961Y53720720D03*
%TO.P,MCU2,16*%
X144044961Y51180720D03*
%TO.P,MCU2,17*%
%TO.N,P2*%
X144044961Y48640720D03*
%TO.P,MCU2,18*%
%TO.N,P3*%
X144044961Y46100720D03*
%TO.P,MCU2,19*%
%TO.N,P4*%
X144044961Y43560720D03*
%TO.P,MCU2,20*%
%TO.N,P5*%
X144044961Y41020720D03*
%TO.P,MCU2,21*%
%TO.N,P6*%
X144044961Y38480720D03*
%TO.P,MCU2,22*%
%TO.N,P7*%
X144044961Y35940720D03*
%TO.P,MCU2,23*%
%TO.N,P8*%
X144044961Y33400720D03*
%TO.P,MCU2,24*%
%TO.N,P9*%
X144044961Y30860720D03*
%TD*%
D20*
%TO.P,REF\u002A\u002A,1*%
%TO.N,VCC*%
X136124961Y18830720D03*
%TO.P,REF\u002A\u002A,2*%
X137224961Y23430720D03*
%TO.P,REF\u002A\u002A,3*%
%TO.N,GND*%
X141224961Y23430720D03*
%TO.P,REF\u002A\u002A,4*%
%TO.N,P21*%
X144224961Y23430720D03*
%TO.P,REF\u002A\u002A,1*%
%TO.N,VCC*%
X136124961Y23430720D03*
%TO.P,REF\u002A\u002A,2*%
X137224961Y18830720D03*
%TO.P,REF\u002A\u002A,3*%
%TO.N,GND*%
X141224961Y18830720D03*
%TO.P,REF\u002A\u002A,4*%
%TO.N,P21*%
X144224961Y18830720D03*
%TD*%
D21*
%TO.N,P3*%
X94500000Y-1750000D03*
X68250000Y1250000D03*
%TO.N,P5*%
X114907898Y8907898D03*
X113132593Y8632593D03*
%TO.N,GND*%
X130750000Y54250000D03*
%TO.N,RST*%
X143500000Y27000000D03*
%TO.N,VCC*%
X146174962Y25250000D03*
%TD*%
D22*
%TO.N,P9*%
X13744355Y-10488588D02*
X15815685Y-8417258D01*
X-86663Y-10488588D02*
X13744355Y-10488588D01*
X-983294Y-9591957D02*
X-86663Y-10488588D01*
X30567727Y4330720D02*
X34614961Y4330720D01*
X17970423Y-8266584D02*
X30567727Y4330720D01*
X40924961Y9330720D02*
X53614961Y9330720D01*
X36774961Y5180720D02*
X40924961Y9330720D01*
X36774961Y4330720D02*
X36774961Y5180720D01*
X61774961Y3330720D02*
X72614961Y3330720D01*
X55774961Y9330720D02*
X61774961Y3330720D01*
X76774961Y1330720D02*
X91614961Y1330720D01*
X74774961Y3330720D02*
X76774961Y1330720D01*
X113195962Y15116719D02*
X126304961Y28225718D01*
X107410960Y15116719D02*
X113195962Y15116719D01*
X93774961Y1480720D02*
X107410960Y15116719D01*
X126304961Y28225718D02*
X126304961Y29610720D01*
X93774961Y1330720D02*
X93774961Y1480720D01*
%TO.N,P8*%
X11408505Y7454654D02*
X14490311Y10536460D01*
X-401561Y7454654D02*
X11408505Y7454654D01*
X-2308668Y9361761D02*
X-401561Y7454654D01*
X29288635Y23330720D02*
X34614961Y23330720D01*
X16645049Y10687134D02*
X29288635Y23330720D01*
X51264973Y25980732D02*
X53614961Y28330720D01*
X39424973Y25980732D02*
X51264973Y25980732D01*
X36774961Y23330720D02*
X39424973Y25980732D01*
X67892462Y27053219D02*
X72614961Y22330720D01*
X57052462Y27053219D02*
X67892462Y27053219D01*
X55774961Y28330720D02*
X57052462Y27053219D01*
X90963387Y19679146D02*
X91614961Y20330720D01*
X77426535Y19679146D02*
X90963387Y19679146D01*
X74774961Y22330720D02*
X77426535Y19679146D01*
X107892462Y19053219D02*
X110614961Y16330720D01*
X95052462Y19053219D02*
X107892462Y19053219D01*
X93774961Y20330720D02*
X95052462Y19053219D01*
X121160862Y27006621D02*
X126304961Y32150720D01*
X118940528Y27006621D02*
X121160862Y27006621D01*
X112774961Y20841054D02*
X118940528Y27006621D01*
X112774961Y16330720D02*
X112774961Y20841054D01*
%TO.N,P7*%
X10083133Y26408371D02*
X13164938Y29490176D01*
X-1726934Y26408371D02*
X10083133Y26408371D01*
X-3634040Y28315477D02*
X-1726934Y26408371D01*
X34614961Y41979603D02*
X34614961Y42330720D01*
X21379577Y28744219D02*
X34614961Y41979603D01*
X16216307Y28744219D02*
X21379577Y28744219D01*
X15319676Y29640850D02*
X16216307Y28744219D01*
X40924961Y47330720D02*
X53614961Y47330720D01*
X36774961Y43180720D02*
X40924961Y47330720D01*
X36774961Y42330720D02*
X36774961Y43180720D01*
X67892462Y46053219D02*
X72614961Y41330720D01*
X57052462Y46053219D02*
X67892462Y46053219D01*
X55774961Y47330720D02*
X57052462Y46053219D01*
X90960038Y38675797D02*
X91614961Y39330720D01*
X77429884Y38675797D02*
X90960038Y38675797D01*
X74774961Y41330720D02*
X77429884Y38675797D01*
X107892462Y38053219D02*
X110614961Y35330720D01*
X95052462Y38053219D02*
X107892462Y38053219D01*
X93774961Y39330720D02*
X95052462Y38053219D01*
X125667460Y34053219D02*
X126304961Y34690720D01*
X114052462Y34053219D02*
X125667460Y34053219D01*
X112774961Y35330720D02*
X114052462Y34053219D01*
%TO.N,P3*%
X71250000Y-1750000D02*
X68250000Y1250000D01*
X94500000Y-1750000D02*
X71250000Y-1750000D01*
%TO.N,P5*%
X113407898Y8907898D02*
X113132593Y8632593D01*
X114907898Y8907898D02*
X113407898Y8907898D01*
%TO.N,P10*%
X97867715Y-31097036D02*
X105244451Y-31097036D01*
X90439959Y-23669280D02*
X97867715Y-31097036D01*
X88774961Y-23669280D02*
X90439959Y-23669280D01*
X116723083Y-31288351D02*
X123190239Y-37755507D01*
X107774895Y-31288351D02*
X116723083Y-31288351D01*
X107298733Y-31764513D02*
X107774895Y-31288351D01*
X123190239Y-27883066D02*
X123190239Y-37755507D01*
X130899974Y-20173331D02*
X123190239Y-27883066D01*
X131889077Y-20173331D02*
X130899974Y-20173331D01*
X123055849Y-20173331D02*
X131889077Y-20173331D01*
X121124826Y-18242308D02*
X123055849Y-20173331D01*
X121124826Y-16252972D02*
X121124826Y-18242308D01*
X118090131Y-13218277D02*
X121124826Y-16252972D01*
X113646218Y-13218277D02*
X118090131Y-13218277D01*
X113170056Y-13694439D02*
X113646218Y-13218277D01*
X131889077Y21085840D02*
X140413957Y29610720D01*
X140413957Y29610720D02*
X141544961Y29610720D01*
X131889077Y-20173331D02*
X131889077Y21085840D01*
X130054961Y29610720D02*
X128804961Y30860720D01*
X141544961Y29610720D02*
X130054961Y29610720D01*
%TO.N,RAW*%
X130054961Y57550720D02*
X128804961Y58800720D01*
X141544961Y57550720D02*
X130054961Y57550720D01*
%TO.N,GND*%
X130054961Y55010720D02*
X128804961Y56260720D01*
X141544961Y55010720D02*
X130054961Y55010720D01*
X130750000Y54315681D02*
X130750000Y54250000D01*
X128804961Y56260720D02*
X130750000Y54315681D01*
%TO.N,RST*%
X130054961Y52470720D02*
X128804961Y53720720D01*
X141544961Y52470720D02*
X130054961Y52470720D01*
X142843660Y51172021D02*
X141544961Y52470720D01*
X142843660Y27656340D02*
X142843660Y51172021D01*
X143500000Y27000000D02*
X142843660Y27656340D01*
%TO.N,VCC*%
X130054961Y49930720D02*
X128804961Y51180720D01*
X141544961Y49930720D02*
X130054961Y49930720D01*
X138349971Y17705710D02*
X137224961Y18830720D01*
X146899962Y19614717D02*
X144990955Y17705710D01*
X146899962Y24525000D02*
X146899962Y19614717D01*
X144990955Y17705710D02*
X138349971Y17705710D01*
X146174962Y25250000D02*
X146899962Y24525000D01*
%TO.N,P21*%
X130054961Y47390720D02*
X128804961Y48640720D01*
X141544961Y47390720D02*
X130054961Y47390720D01*
%TO.N,P20*%
X130054961Y44850720D02*
X128804961Y46100720D01*
X141544961Y44850720D02*
X130054961Y44850720D01*
%TO.N,P19*%
X130054961Y42310720D02*
X128804961Y43560720D01*
X141544961Y42310720D02*
X130054961Y42310720D01*
%TO.N,P18*%
X130054961Y39770720D02*
X128804961Y41020720D01*
X141544961Y39770720D02*
X130054961Y39770720D01*
%TO.N,P15*%
X130054961Y37230720D02*
X128804961Y38480720D01*
X141544961Y37230720D02*
X130054961Y37230720D01*
%TO.N,P14*%
X130054961Y34690720D02*
X128804961Y35940720D01*
X141544961Y34690720D02*
X130054961Y34690720D01*
%TO.N,P16*%
X130054961Y32150720D02*
X128804961Y33400720D01*
X141544961Y32150720D02*
X130054961Y32150720D01*
%TD*%
M02*
