%TF.GenerationSoftware,KiCad,Pcbnew,5.1.12-1.fc35*%
%TF.CreationDate,2022-03-13T18:38:46-07:00*%
%TF.ProjectId,jackalope_unibody,6a61636b-616c-46f7-9065-5f756e69626f,v1.0.0*%
%TF.SameCoordinates,Original*%
%TF.FileFunction,Profile,NP*%
%FSLAX46Y46*%
G04 Gerber Fmt 4.6, Leading zero omitted, Abs format (unit mm)*
G04 Created by KiCad (PCBNEW 5.1.12-1.fc35) date 2022-03-13 18:38:46*
%MOMM*%
%LPD*%
G01*
G04 APERTURE LIST*
%TA.AperFunction,Profile*%
%ADD10C,0.150000*%
%TD*%
G04 APERTURE END LIST*
D10*
X-12713874Y-10197177D02*
X23245676Y-16537816D01*
X-13930613Y-8459493D02*
X-3598546Y50136568D01*
X-12713873Y-10197177D02*
G75*
G02*
X-13930613Y-8459493I260472J1477212D01*
G01*
X-1860862Y51353308D02*
X36648988Y44562982D01*
X-3598546Y50136569D02*
G75*
G02*
X-1860862Y51353307I1477211J-260473D01*
G01*
X23348087Y-16559584D02*
X71876735Y-28659135D01*
X42355425Y55482070D02*
X56909861Y51853241D01*
X40537098Y54389509D02*
G75*
G02*
X42355425Y55482070I1455444J-362883D01*
G01*
X40537099Y54389509D02*
X38364904Y45677311D01*
X83470729Y46776793D02*
X83954572Y48717385D01*
X82862012Y50535711D02*
G75*
G02*
X83954572Y48717385I-362883J-1455443D01*
G01*
X61030358Y55978954D02*
X82862012Y50535712D01*
X58728188Y52945802D02*
X59212031Y54886394D01*
X69824311Y-43091306D02*
X72969295Y-30477461D01*
X70916871Y-44909632D02*
X73287411Y-45500674D01*
X70916871Y-44909632D02*
G75*
G02*
X69824311Y-43091306I362883J1455443D01*
G01*
X134392089Y-64553531D02*
X149650249Y-46369565D01*
X134392089Y-64553531D02*
X134307100Y-64482217D01*
X73259662Y-45545083D02*
X104355760Y-64976082D01*
X73259662Y-45545083D02*
X73287411Y-45500674D01*
X104525063Y-65099087D02*
X120549064Y-78544821D01*
X122662312Y-78359935D02*
X134307100Y-64482217D01*
X244688770Y51853241D02*
X259243206Y55482070D01*
X217035342Y44958467D02*
X160799315Y30937250D01*
X140799315Y30937250D02*
X84563289Y44958467D01*
X278352954Y-16537816D02*
X314312504Y-10197177D01*
X315529244Y-8459493D02*
G75*
G02*
X314312504Y-10197177I-1477212J-260472D01*
G01*
X305197177Y50136568D02*
X315529244Y-8459493D01*
X303459493Y51353308D02*
G75*
G02*
X305197177Y50136568I260472J-1477212D01*
G01*
X303459493Y51353308D02*
X292872810Y49486590D01*
X292872810Y49486590D02*
X291149396Y49182705D01*
X264949643Y44562982D02*
X291149396Y49182705D01*
X229721896Y-28659135D02*
X278250544Y-16559584D01*
X263233727Y45677311D02*
X261061532Y54389509D01*
X259243205Y55482070D02*
G75*
G02*
X261061532Y54389509I362883J-1455444D01*
G01*
X218736619Y50535712D02*
X240568273Y55978954D01*
X217644058Y48717385D02*
G75*
G02*
X218736619Y50535712I1455444J362883D01*
G01*
X217644058Y48717385D02*
X218127902Y46776793D01*
X242386599Y54886394D02*
X242870443Y52945802D01*
X228629335Y-30477461D02*
X231774320Y-43091306D01*
X228311219Y-45500674D02*
X230681759Y-44909632D01*
X231774320Y-43091307D02*
G75*
G02*
X230681759Y-44909632I-1455443J-362882D01*
G01*
X167291531Y-64482217D02*
X167206542Y-64553531D01*
X151948382Y-46369565D02*
X167206542Y-64553531D01*
X197242871Y-64976082D02*
X228338969Y-45545083D01*
X228311219Y-45500674D02*
X228338969Y-45545083D01*
X181049567Y-78544821D02*
X197073568Y-65099087D01*
X167291531Y-64482217D02*
X178936319Y-78359935D01*
X23245676Y-16537816D02*
G75*
G02*
X23348087Y-16559584I-260472J-1477212D01*
G01*
X71876735Y-28659135D02*
G75*
G02*
X72969295Y-30477461I-362883J-1455443D01*
G01*
X104355761Y-64976082D02*
G75*
G02*
X104525063Y-65099088I-794880J-1272072D01*
G01*
X122662312Y-78359935D02*
G75*
G02*
X120549064Y-78544821I-1149067J964181D01*
G01*
X149650249Y-46369564D02*
G75*
G02*
X151948382Y-46369565I1149066J-964182D01*
G01*
X181049567Y-78544821D02*
G75*
G02*
X178936319Y-78359935I-964181J1149067D01*
G01*
X197073569Y-65099088D02*
G75*
G02*
X197242871Y-64976082I964180J-1149066D01*
G01*
X228629336Y-30477461D02*
G75*
G02*
X229721896Y-28659135I1455443J362883D01*
G01*
X278250544Y-16559585D02*
G75*
G02*
X278352954Y-16537816I362883J-1455443D01*
G01*
X264949642Y44562981D02*
G75*
G02*
X263233727Y45677311I-260471J1477212D01*
G01*
X244688770Y51853241D02*
G75*
G02*
X242870443Y52945802I-362883J1455444D01*
G01*
X240568273Y55978954D02*
G75*
G02*
X242386599Y54886394I362883J-1455443D01*
G01*
X218127902Y46776793D02*
G75*
G02*
X217035342Y44958467I-1455443J-362883D01*
G01*
X84563289Y44958466D02*
G75*
G02*
X83470728Y46776793I362883J1455444D01*
G01*
X59212032Y54886394D02*
G75*
G02*
X61030358Y55978954I1455443J-362883D01*
G01*
X58728188Y52945802D02*
G75*
G02*
X56909861Y51853241I-1455444J362883D01*
G01*
X38364903Y45677311D02*
G75*
G02*
X36648988Y44562982I-1455443J362882D01*
G01*
X140799315Y28294852D02*
X160799315Y28294852D01*
X160799315Y28294852D02*
X160799315Y30937250D01*
X140799315Y30937250D02*
X140799315Y28294852D01*
X16062243Y26504187D02*
G75*
G03*
X16062243Y26504187I-2250000J0D01*
G01*
X290036388Y26504187D02*
G75*
G03*
X290036388Y26504187I-2250000J0D01*
G01*
X12762928Y7792840D02*
G75*
G03*
X12762928Y7792840I-2250000J0D01*
G01*
X293335703Y7792840D02*
G75*
G03*
X293335703Y7792840I-2250000J0D01*
G01*
X58992112Y29479219D02*
G75*
G03*
X58992112Y29479219I-2250000J0D01*
G01*
X247106518Y29479219D02*
G75*
G03*
X247106518Y29479219I-2250000J0D01*
G01*
X54395596Y11043601D02*
G75*
G03*
X54395596Y11043601I-2250000J0D01*
G01*
X251703034Y11043601D02*
G75*
G03*
X251703034Y11043601I-2250000J0D01*
G01*
X95621428Y19315892D02*
G75*
G03*
X95621428Y19315892I-2250000J0D01*
G01*
X210477203Y19315892D02*
G75*
G03*
X210477203Y19315892I-2250000J0D01*
G01*
X91024912Y880273D02*
G75*
G03*
X91024912Y880273I-2250000J0D01*
G01*
X215073719Y880273D02*
G75*
G03*
X215073719Y880273I-2250000J0D01*
G01*
X118201173Y-46574570D02*
G75*
G03*
X118201173Y-46574570I-2250000J0D01*
G01*
X187897458Y-46574570D02*
G75*
G03*
X187897458Y-46574570I-2250000J0D01*
G01*
M02*
