M48
; DRILL file {KiCad 5.1.12-1.fc35} date Sat 12 Mar 2022 09:09:36 PM PST
; FORMAT={-:-/ absolute / inch / decimal}
; #@! TF.CreationDate,2022-03-12T21:09:36-08:00
; #@! TF.GenerationSoftware,Kicad,Pcbnew,5.1.12-1.fc35
FMAT,2
INCH
T1C0.0157
T2C0.0390
T3C0.0390
T4C0.0430
T5C0.0500
T6C0.0512
T7C0.0590
T8C0.0472
T9C0.0670
T10C0.1350
T11C0.1570
%
G90
G05
T1
X4.1339Y-0.8957
X5.7776Y-0.3445
X5.8268Y-0.3445
X6.4862Y-0.8465
X6.9488Y-0.8563
X7.5Y-0.8169
X8.2283Y-1.0433
T2
X6.4764Y1.1024
X6.6732Y1.1024
T3
X-0.2127Y-0.3423
X-0.0828Y0.3944
X0.0471Y1.131
X0.0828Y-0.3944
X0.2127Y0.3423
X0.3426Y1.079
X0.524Y-0.4722
X0.6539Y0.2645
X0.7838Y1.0012
X0.8194Y-0.5243
X0.9493Y0.2124
X1.0792Y0.9491
X1.3636Y-0.1643
X1.5445Y0.5616
X1.6546Y-0.2368
X1.7255Y1.2874
X1.8356Y0.489
X2.0166Y1.2148
X2.137Y-0.1542
X2.318Y0.5716
X2.4281Y-0.2268
X2.4989Y1.2974
X2.609Y0.499
X2.79Y1.2248
X2.8057Y-0.5644
X2.9866Y0.1614
X3.0833Y-1.7291
X3.0967Y-0.637
X3.1676Y0.8872
X3.2777Y0.0889
X3.3744Y-1.8017
X3.4587Y0.8147
X3.5124Y-0.8218
X3.6934Y-0.0959
X3.7242Y-2.1903
X3.8035Y-0.8943
X3.8744Y0.6299
X3.9786Y-2.3493
X3.9845Y-0.1685
X4.1206Y-1.556
X4.1654Y0.5573
X4.3463Y-2.6156
X4.375Y-1.7149
X4.3811Y-0.4297
X4.5621Y0.2961
X4.5762Y-2.8084
X4.6722Y-0.5023
X4.8461Y-2.0268
X4.8532Y0.2235
X5.0759Y-2.2196
X6.798Y-2.2196
X7.0208Y0.2235
X7.0279Y-2.0268
X7.2018Y-0.5023
X7.2978Y-2.8084
X7.3119Y0.2961
X7.4929Y-0.4297
X7.4989Y-1.7149
X7.5276Y-2.6156
X7.7085Y0.5573
X7.7533Y-1.556
X7.8895Y-0.1685
X7.8953Y-2.3493
X7.9996Y0.6299
X8.0705Y-0.8943
X8.1497Y-2.1903
X8.1806Y-0.0959
X8.3615Y-0.8218
X8.4153Y0.8147
X8.4996Y-1.8017
X8.5962Y0.0889
X8.7064Y0.8872
X8.7772Y-0.637
X8.7907Y-1.7291
X8.8873Y0.1614
X9.0683Y-0.5644
X9.0839Y1.2248
X9.2649Y0.499
X9.375Y1.2974
X9.4459Y-0.2268
X9.556Y0.5716
X9.737Y-0.1542
X9.8574Y1.2148
X10.0383Y0.489
X10.1485Y1.2874
X10.2193Y-0.2368
X10.3294Y0.5616
X10.5104Y-0.1643
X10.7947Y0.9491
X10.9246Y0.2124
X11.0545Y-0.5243
X11.0902Y1.0012
X11.2201Y0.2645
X11.35Y-0.4722
X11.5314Y1.079
X11.6613Y0.3423
X11.7912Y-0.3944
X11.8268Y1.131
X11.9567Y0.3944
X12.0866Y-0.3423
T4
X5.637Y0.9553
X5.637Y0.8553
X5.637Y0.7553
X5.637Y0.6553
X5.637Y0.5553
X5.637Y0.4553
X5.637Y0.3553
X5.637Y0.2553
X5.637Y0.1553
X5.637Y0.0553
X5.637Y-0.0447
X5.637Y-0.1447
X6.237Y0.9553
X6.237Y0.8553
X6.237Y0.7553
X6.237Y0.6553
X6.237Y0.5553
X6.237Y0.4553
X6.237Y0.3553
X6.237Y0.2553
X6.237Y0.1553
X6.237Y0.0553
X6.237Y-0.0447
X6.237Y-0.1447
T5
X0.0403Y0.2288
X0.1702Y0.9654
X0.2198Y0.1132
X0.3001Y1.7021
X0.3497Y0.8498
X0.4796Y1.5865
X0.777Y0.0989
X0.9069Y0.8355
X0.9565Y-0.0167
X1.0368Y1.5722
X1.0864Y0.7199
X1.2163Y1.4566
X1.6558Y0.3877
X1.8268Y0.2599
X1.8367Y1.1136
X2.0077Y0.9857
X2.0177Y1.8394
X2.1887Y1.7115
X2.4292Y0.3978
X2.6002Y0.2699
X2.6102Y1.1236
X2.7812Y0.9958
X2.7911Y1.8494
X2.9621Y1.7216
X3.0979Y-0.0124
X3.2689Y-0.1402
X3.2788Y0.7134
X3.3755Y-1.1771
X3.4498Y0.5856
X3.4598Y1.4392
X3.5465Y-1.305
X3.6308Y1.3114
X3.8046Y-0.2697
X3.9756Y-0.3976
X3.9856Y0.4561
X4.1566Y0.3282
X4.1666Y1.1819
X4.1727Y-1.7556
X4.2958Y-1.9301
X4.3376Y1.054
X4.5691Y-1.1213
X4.6733Y0.1223
X4.6922Y-1.2957
X4.8443Y-0.0055
X4.851Y-2.2476
X4.8543Y0.8481
X4.9486Y-2.4374
X5.0253Y0.7203
X5.3507Y-1.6588
X5.4484Y-1.8486
X6.5232Y-1.6588
X6.7272Y-1.5956
X7.0197Y0.8481
X7.023Y-2.2476
X7.2006Y0.1223
X7.2269Y-2.1844
X7.2307Y0.8155
X7.3048Y-1.1213
X7.4116Y0.0897
X7.5156Y-1.0871
X7.7012Y-1.7556
X7.7074Y1.1819
X7.8884Y0.4561
X7.912Y-1.7214
X7.9184Y1.1493
X8.0693Y-0.2697
X8.0994Y0.4235
X8.2803Y-0.3023
X8.4142Y1.4392
X8.4984Y-1.1771
X8.5951Y0.7134
X8.6252Y1.4066
X8.7094Y-1.2097
X8.7761Y-0.0124
X8.8061Y0.6808
X8.9871Y-0.045
X9.0828Y1.8494
X9.2638Y1.1236
X9.2938Y1.8168
X9.4447Y0.3978
X9.4748Y1.091
X9.6557Y0.3652
X9.8562Y1.8394
X10.0372Y1.1136
X10.0673Y1.8068
X10.2182Y0.3877
X10.2482Y1.081
X10.4292Y0.3551
X10.8372Y1.5722
X10.9671Y0.8355
X11.0454Y1.525
X11.097Y0.0989
X11.1753Y0.7883
X11.3052Y0.0516
X11.5738Y1.7021
X11.7037Y0.9654
X11.7821Y1.6549
X11.8336Y0.2288
X11.9119Y0.9182
X12.0418Y0.1815
T6
X6.437Y1.0043
X6.713Y1.0043
T7
X-0.1304Y0.1245
X-0.0005Y0.8612
X0.1294Y1.5979
X0.1332Y0.1796
X0.2631Y0.9163
X0.393Y1.6529
X0.6063Y-0.0054
X0.7362Y0.7313
X0.8661Y1.468
X0.8699Y0.0497
X0.9998Y0.7864
X1.1297Y1.523
X1.4782Y0.2957
X1.6592Y1.0215
X1.745Y0.3322
X1.8402Y1.7473
X1.926Y1.058
X2.1069Y1.7839
X2.2517Y0.3057
X2.4326Y1.0315
X2.5184Y0.3423
X2.6136Y1.7573
X2.6994Y1.0681
X2.8804Y1.7939
X2.9203Y-0.1044
X3.1013Y0.6214
X3.1871Y-0.0679
X3.198Y-1.2692
X3.2823Y1.3472
X3.3681Y0.6579
X3.4647Y-1.2327
X3.549Y1.3837
X3.6271Y-0.3618
X3.8081Y0.364
X3.8939Y-0.3253
X3.9754Y-1.7883
X3.989Y1.0898
X4.0748Y0.4005
X4.2404Y-1.836
X4.2558Y1.1264
X4.3718Y-1.154
X4.4958Y0.0302
X4.6368Y-1.2016
X4.651Y-2.2525
X4.6767Y0.756
X4.7625Y0.0668
X4.9068Y-2.3366
X4.9435Y0.7926
X5.1508Y-1.6637
X5.4066Y-1.7478
X6.4934Y-1.8565
X6.6206Y-1.6192
X6.9061Y0.6835
X6.9931Y-2.4453
X7.0871Y-0.0423
X7.1203Y-2.208
X7.1245Y0.841
X7.2477Y-1.3129
X7.3055Y0.1152
X7.4068Y-1.0957
X7.5938Y1.0172
X7.6441Y-1.9473
X7.7748Y0.2914
X7.8032Y-1.73
X7.8122Y1.1747
X7.9558Y-0.4344
X7.9932Y0.4489
X8.1742Y-0.2769
X8.3006Y1.2746
X8.3849Y-1.3418
X8.4816Y0.5488
X8.519Y1.4321
X8.6033Y-1.1843
X8.6625Y-0.177
X8.7Y0.7063
X8.8809Y-0.0195
X8.9693Y1.6848
X9.1502Y0.959
X9.1877Y1.8423
X9.3312Y0.2331
X9.3686Y1.1165
X9.5496Y0.3907
X9.7427Y1.6747
X9.9237Y0.9489
X9.9611Y1.8322
X10.1046Y0.2231
X10.1421Y1.1064
X10.323Y0.3806
X10.7124Y1.4159
X10.8423Y0.6792
X10.9413Y1.5578
X10.9722Y-0.0575
X11.0712Y0.8211
X11.201Y0.0844
X11.4491Y1.5458
X11.579Y0.8091
X11.6779Y1.6877
X11.7089Y0.0724
X11.8078Y0.951
X11.9377Y0.2143
T8
X6.5748Y1.15
T9
X-0.2132Y0.0376
X-0.197Y0.0347
X-0.0834Y0.7743
X-0.0671Y0.7714
X0.0465Y1.5109
X0.0628Y1.5081
X0.197Y-0.0347
X0.2132Y-0.0376
X0.3269Y0.7019
X0.3431Y0.6991
X0.4568Y1.4386
X0.473Y1.4357
X0.5234Y-0.0923
X0.5397Y-0.0952
X0.6533Y0.6444
X0.6696Y0.6415
X0.7832Y1.381
X0.7995Y1.3782
X0.9336Y-0.1646
X0.9499Y-0.1675
X1.0635Y0.572
X1.0798Y0.5692
X1.1934Y1.3087
X1.2097Y1.3058
X1.3895Y0.2147
X1.4055Y0.2107
X1.5704Y0.9406
X1.5865Y0.9366
X1.7514Y1.6664
X1.7675Y1.6624
X1.7936Y0.114
X1.8097Y0.11
X1.9746Y0.8398
X1.9907Y0.8358
X2.1556Y1.5656
X2.1629Y0.2248
X2.1716Y1.5616
X2.179Y0.2208
X2.3439Y0.9506
X2.3599Y0.9466
X2.5248Y1.6764
X2.5409Y1.6724
X2.5671Y0.124
X2.5831Y0.12
X2.748Y0.8498
X2.7641Y0.8458
X2.8316Y-0.1854
X2.8476Y-0.1894
X2.929Y1.5756
X2.9451Y1.5716
X3.0125Y0.5404
X3.0286Y0.5364
X3.1092Y-1.3501
X3.1253Y-1.3541
X3.1935Y1.2662
X3.2096Y1.2622
X3.2357Y-0.2862
X3.2518Y-0.2902
X3.4167Y0.4397
X3.4328Y0.4357
X3.5134Y-1.4509
X3.5294Y-1.4549
X3.5383Y-0.4427
X3.5544Y-0.4467
X3.5977Y1.1655
X3.6137Y1.1615
X3.7193Y0.2831
X3.7354Y0.2791
X3.866Y-1.8379
X3.88Y-1.8466
X3.9003Y1.0089
X3.9163Y1.0049
X3.9425Y-0.5435
X3.9586Y-0.5475
X4.1235Y0.1823
X4.1395Y0.1783
X4.2192Y-2.0586
X4.2333Y-2.0674
X4.2624Y-1.2035
X4.2764Y-1.2123
X4.3044Y0.9081
X4.3205Y0.9041
X4.407Y-0.0507
X4.4231Y-0.0547
X4.5358Y-2.2863
X4.5485Y-2.297
X4.588Y0.6751
X4.604Y0.6711
X4.6156Y-1.4242
X4.6297Y-1.433
X4.8112Y-0.1515
X4.8272Y-0.1555
X4.8549Y-2.5541
X4.8675Y-2.5647
X4.9922Y0.5743
X5.0082Y0.5703
X5.0355Y-1.6975
X5.0482Y-1.7082
X5.3546Y-1.9653
X5.3673Y-1.9759
X6.5067Y-1.9759
X6.5193Y-1.9653
X6.8257Y-1.7082
X6.8384Y-1.6975
X6.8658Y0.5703
X6.8818Y0.5743
X7.0064Y-2.5647
X7.0191Y-2.5541
X7.0467Y-0.1555
X7.0628Y-0.1515
X7.2443Y-1.433
X7.2583Y-1.4242
X7.2699Y0.6711
X7.286Y0.6751
X7.3255Y-2.297
X7.3382Y-2.2863
X7.4509Y-0.0547
X7.4669Y-0.0507
X7.5535Y0.9041
X7.5695Y0.9081
X7.5975Y-1.2123
X7.6116Y-1.2035
X7.6407Y-2.0674
X7.6547Y-2.0586
X7.7344Y0.1783
X7.7505Y0.1823
X7.9154Y-0.5475
X7.9315Y-0.5435
X7.9576Y1.0049
X7.9737Y1.0089
X7.9939Y-1.8466
X8.008Y-1.8379
X8.1386Y0.2791
X8.1547Y0.2831
X8.2602Y1.1615
X8.2763Y1.1655
X8.3196Y-0.4467
X8.3356Y-0.4427
X8.3445Y-1.4549
X8.3606Y-1.4509
X8.4412Y0.4357
X8.4573Y0.4397
X8.6222Y-0.2902
X8.6382Y-0.2862
X8.6644Y1.2622
X8.6804Y1.2662
X8.7487Y-1.3541
X8.7647Y-1.3501
X8.8454Y0.5364
X8.8614Y0.5404
X8.9289Y1.5716
X8.945Y1.5756
X9.0263Y-0.1894
X9.0424Y-0.1854
X9.1099Y0.8458
X9.1259Y0.8498
X9.2908Y0.12
X9.3069Y0.124
X9.3331Y1.6724
X9.3491Y1.6764
X9.514Y0.9466
X9.5301Y0.9506
X9.695Y0.2208
X9.7023Y1.5616
X9.711Y0.2248
X9.7184Y1.5656
X9.8833Y0.8358
X9.8993Y0.8398
X10.0643Y0.11
X10.0803Y0.114
X10.1065Y1.6624
X10.1225Y1.6664
X10.2875Y0.9366
X10.3035Y0.9406
X10.4684Y0.2107
X10.4845Y0.2147
X10.6643Y1.3058
X10.6805Y1.3087
X10.7942Y0.5692
X10.8104Y0.572
X10.924Y-0.1675
X10.9403Y-0.1646
X11.0745Y1.3782
X11.0908Y1.381
X11.2044Y0.6415
X11.2206Y0.6444
X11.3343Y-0.0952
X11.3505Y-0.0923
X11.4009Y1.4357
X11.4172Y1.4386
X11.5308Y0.6991
X11.5471Y0.7019
X11.6607Y-0.0376
X11.677Y-0.0347
X11.8111Y1.5081
X11.8274Y1.5109
X11.941Y0.7714
X11.9573Y0.7743
X12.0709Y0.0347
X12.0872Y0.0376
T10
X0.0Y0.0
X0.1299Y0.7367
X0.2598Y1.4733
X0.7367Y-0.1299
X0.8666Y0.6068
X0.9965Y1.3434
X1.5996Y0.1624
X1.7806Y0.8882
X1.9615Y1.614
X2.373Y0.1724
X2.554Y0.8982
X2.735Y1.624
X3.0417Y-0.2378
X3.2227Y0.488
X3.3193Y-1.4025
X3.4036Y1.2139
X3.7484Y-0.4951
X3.9294Y0.2307
X4.0496Y-1.9526
X4.1104Y0.9565
X4.446Y-1.3183
X4.6171Y-0.1031
X4.7017Y-2.4255
X4.7981Y0.6227
X5.2014Y-1.8367
X6.6725Y-1.8367
X7.0759Y0.6227
X7.1723Y-2.4255
X7.2568Y-0.1031
X7.4279Y-1.3183
X7.7636Y0.9565
X7.8243Y-1.9526
X7.9445Y0.2307
X8.1255Y-0.4951
X8.4703Y1.2139
X8.5546Y-1.4025
X8.6513Y0.488
X8.8323Y-0.2378
X9.139Y1.624
X9.32Y0.8982
X9.5009Y0.1724
X9.9124Y1.614
X10.0934Y0.8882
X10.2744Y0.1624
X10.8775Y1.3434
X11.0074Y0.6068
X11.1373Y-0.1299
X11.6142Y1.4733
X11.7441Y0.7367
X11.874Y0.0
T11
X0.0Y0.0
X0.1299Y0.7367
X0.2598Y1.4733
X0.7367Y-0.1299
X0.8666Y0.6068
X0.9965Y1.3434
X1.5996Y0.1624
X1.7806Y0.8882
X1.9615Y1.614
X2.373Y0.1724
X2.554Y0.8982
X2.735Y1.624
X3.0417Y-0.2378
X3.2227Y0.488
X3.3193Y-1.4025
X3.4036Y1.2139
X3.7484Y-0.4951
X3.9294Y0.2307
X4.0496Y-1.9526
X4.1104Y0.9565
X4.446Y-1.3183
X4.6171Y-0.1031
X4.7017Y-2.4255
X4.7981Y0.6227
X5.2014Y-1.8367
X6.6725Y-1.8367
X7.0759Y0.6227
X7.1723Y-2.4255
X7.2568Y-0.1031
X7.4279Y-1.3183
X7.7636Y0.9565
X7.8243Y-1.9526
X7.9445Y0.2307
X8.1255Y-0.4951
X8.4703Y1.2139
X8.5546Y-1.4025
X8.6513Y0.488
X8.8323Y-0.2378
X9.139Y1.624
X9.32Y0.8982
X9.5009Y0.1724
X9.9124Y1.614
X10.0934Y0.8882
X10.2744Y0.1624
X10.8775Y1.3434
X11.0074Y0.6068
X11.1373Y-0.1299
X11.6142Y1.4733
X11.7441Y0.7367
X11.874Y0.0
T0
M30
