%TF.GenerationSoftware,KiCad,Pcbnew,5.1.12-1.fc35*%
%TF.CreationDate,2022-03-13T18:38:46-07:00*%
%TF.ProjectId,jackalope_unibody,6a61636b-616c-46f7-9065-5f756e69626f,v1.0.0*%
%TF.SameCoordinates,Original*%
%TF.FileFunction,Legend,Bot*%
%TF.FilePolarity,Positive*%
%FSLAX46Y46*%
G04 Gerber Fmt 4.6, Leading zero omitted, Abs format (unit mm)*
G04 Created by KiCad (PCBNEW 5.1.12-1.fc35) date 2022-03-13 18:38:46*
%MOMM*%
%LPD*%
G01*
G04 APERTURE LIST*
%ADD10C,0.100000*%
G04 APERTURE END LIST*
D10*
%TO.C,D1*%
X-1403456Y-9399086D02*
X-911052Y-9485910D01*
X-1472915Y-9793009D02*
X-1994341Y-9294897D01*
X-1333997Y-9005163D02*
X-1472915Y-9793009D01*
X-1994341Y-9294897D02*
X-1333997Y-9005163D01*
X-1994341Y-9294897D02*
X-2089847Y-9836541D01*
X-1994341Y-9294897D02*
X-1898834Y-8753253D01*
X-2388264Y-9225438D02*
X-1994341Y-9294897D01*
%TO.C,D2*%
X1895860Y9312262D02*
X2388264Y9225438D01*
X1826401Y8918339D02*
X1304975Y9416451D01*
X1965319Y9706185D02*
X1826401Y8918339D01*
X1304975Y9416451D02*
X1965319Y9706185D01*
X1304975Y9416451D02*
X1209469Y8874807D01*
X1304975Y9416451D02*
X1400482Y9958095D01*
X911052Y9485910D02*
X1304975Y9416451D01*
%TO.C,D3*%
X5195175Y28023609D02*
X5687579Y27936785D01*
X5125716Y27629686D02*
X4604290Y28127798D01*
X5264634Y28417532D02*
X5125716Y27629686D01*
X4604290Y28127798D02*
X5264634Y28417532D01*
X4604290Y28127798D02*
X4508784Y27586154D01*
X4604290Y28127798D02*
X4699797Y28669442D01*
X4210367Y28197257D02*
X4604290Y28127798D01*
%TO.C,D4*%
X17307892Y-12698401D02*
X17800296Y-12785225D01*
X17238433Y-13092324D02*
X16717007Y-12594212D01*
X17377351Y-12304478D02*
X17238433Y-13092324D01*
X16717007Y-12594212D02*
X17377351Y-12304478D01*
X16717007Y-12594212D02*
X16621501Y-13135856D01*
X16717007Y-12594212D02*
X16812514Y-12052568D01*
X16323084Y-12524753D02*
X16717007Y-12594212D01*
%TO.C,D5*%
X20607207Y6012946D02*
X21099611Y5926122D01*
X20537748Y5619023D02*
X20016322Y6117135D01*
X20676666Y6406869D02*
X20537748Y5619023D01*
X20016322Y6117135D02*
X20676666Y6406869D01*
X20016322Y6117135D02*
X19920816Y5575491D01*
X20016322Y6117135D02*
X20111829Y6658779D01*
X19622399Y6186594D02*
X20016322Y6117135D01*
%TO.C,D6*%
X23906522Y24724294D02*
X24398926Y24637470D01*
X23837063Y24330371D02*
X23315637Y24828483D01*
X23975981Y25118217D02*
X23837063Y24330371D01*
X23315637Y24828483D02*
X23975981Y25118217D01*
X23315637Y24828483D02*
X23220131Y24286839D01*
X23315637Y24828483D02*
X23411144Y25370127D01*
X22921714Y24897942D02*
X23315637Y24828483D01*
%TO.C,D7*%
X38573845Y-5154240D02*
X39058993Y-5275201D01*
X38477076Y-5542359D02*
X37991667Y-5009087D01*
X38670614Y-4766122D02*
X38477076Y-5542359D01*
X37991667Y-5009087D02*
X38670614Y-4766122D01*
X37991667Y-5009087D02*
X37858610Y-5542750D01*
X37991667Y-5009087D02*
X38124725Y-4475425D01*
X37603549Y-4912319D02*
X37991667Y-5009087D01*
%TO.C,D8*%
X43170361Y13281379D02*
X43655509Y13160418D01*
X43073592Y12893260D02*
X42588183Y13426532D01*
X43267130Y13669497D02*
X43073592Y12893260D01*
X42588183Y13426532D02*
X43267130Y13669497D01*
X42588183Y13426532D02*
X42455126Y12892869D01*
X42588183Y13426532D02*
X42721241Y13960194D01*
X42200065Y13523300D02*
X42588183Y13426532D01*
%TO.C,D9*%
X47766877Y31716997D02*
X48252025Y31596036D01*
X47670108Y31328878D02*
X47184699Y31862150D01*
X47863646Y32105115D02*
X47670108Y31328878D01*
X47184699Y31862150D02*
X47863646Y32105115D01*
X47184699Y31862150D02*
X47051642Y31328487D01*
X47184699Y31862150D02*
X47317757Y32395812D01*
X46796581Y31958918D02*
X47184699Y31862150D01*
%TO.C,D10*%
X58219073Y-4899278D02*
X58704221Y-5020239D01*
X58122304Y-5287397D02*
X57636895Y-4754125D01*
X58315842Y-4511160D02*
X58122304Y-5287397D01*
X57636895Y-4754125D02*
X58315842Y-4511160D01*
X57636895Y-4754125D02*
X57503838Y-5287788D01*
X57636895Y-4754125D02*
X57769953Y-4220463D01*
X57248777Y-4657357D02*
X57636895Y-4754125D01*
%TO.C,D11*%
X62815589Y13536341D02*
X63300737Y13415380D01*
X62718820Y13148222D02*
X62233411Y13681494D01*
X62912358Y13924459D02*
X62718820Y13148222D01*
X62233411Y13681494D02*
X62912358Y13924459D01*
X62233411Y13681494D02*
X62100354Y13147831D01*
X62233411Y13681494D02*
X62366469Y14215156D01*
X61845293Y13778262D02*
X62233411Y13681494D01*
%TO.C,D12*%
X67412105Y31971960D02*
X67897253Y31850999D01*
X67315336Y31583841D02*
X66829927Y32117113D01*
X67508874Y32360078D02*
X67315336Y31583841D01*
X66829927Y32117113D02*
X67508874Y32360078D01*
X66829927Y32117113D02*
X66696870Y31583450D01*
X66829927Y32117113D02*
X66962985Y32650775D01*
X66441809Y32213881D02*
X66829927Y32117113D01*
%TO.C,D13*%
X75203161Y-15317568D02*
X75688309Y-15438529D01*
X75106392Y-15705687D02*
X74620983Y-15172415D01*
X75299930Y-14929450D02*
X75106392Y-15705687D01*
X74620983Y-15172415D02*
X75299930Y-14929450D01*
X74620983Y-15172415D02*
X74487926Y-15706078D01*
X74620983Y-15172415D02*
X74754041Y-14638753D01*
X74232865Y-15075647D02*
X74620983Y-15172415D01*
%TO.C,D14*%
X79799677Y3118051D02*
X80284825Y2997090D01*
X79702908Y2729932D02*
X79217499Y3263204D01*
X79896446Y3506169D02*
X79702908Y2729932D01*
X79217499Y3263204D02*
X79896446Y3506169D01*
X79217499Y3263204D02*
X79084442Y2729541D01*
X79217499Y3263204D02*
X79350557Y3796866D01*
X78829381Y3359972D02*
X79217499Y3263204D01*
%TO.C,D15*%
X84396193Y21553670D02*
X84881341Y21432709D01*
X84299424Y21165551D02*
X83814015Y21698823D01*
X84492962Y21941788D02*
X84299424Y21165551D01*
X83814015Y21698823D02*
X84492962Y21941788D01*
X83814015Y21698823D02*
X83680958Y21165160D01*
X83814015Y21698823D02*
X83947073Y22232485D01*
X83425897Y21795591D02*
X83814015Y21698823D01*
%TO.C,D16*%
X93154936Y-21854676D02*
X93640084Y-21975637D01*
X93058167Y-22242795D02*
X92572758Y-21709523D01*
X93251705Y-21466558D02*
X93058167Y-22242795D01*
X92572758Y-21709523D02*
X93251705Y-21466558D01*
X92572758Y-21709523D02*
X92439701Y-22243186D01*
X92572758Y-21709523D02*
X92705816Y-21175861D01*
X92184640Y-21612755D02*
X92572758Y-21709523D01*
%TO.C,D17*%
X97751452Y-3419057D02*
X98236600Y-3540018D01*
X97654683Y-3807176D02*
X97169274Y-3273904D01*
X97848221Y-3030939D02*
X97654683Y-3807176D01*
X97169274Y-3273904D02*
X97848221Y-3030939D01*
X97169274Y-3273904D02*
X97036217Y-3807567D01*
X97169274Y-3273904D02*
X97302332Y-2740242D01*
X96781156Y-3177136D02*
X97169274Y-3273904D01*
%TO.C,D18*%
X102347968Y15016562D02*
X102833116Y14895601D01*
X102251199Y14628443D02*
X101765790Y15161715D01*
X102444737Y15404680D02*
X102251199Y14628443D01*
X101765790Y15161715D02*
X102444737Y15404680D01*
X101765790Y15161715D02*
X101632733Y14628052D01*
X101765790Y15161715D02*
X101898848Y15695377D01*
X101377672Y15258483D02*
X101765790Y15161715D01*
%TO.C,D19*%
X115219383Y-11896756D02*
X115704531Y-12017717D01*
X115122614Y-12284875D02*
X114637205Y-11751603D01*
X115316152Y-11508638D02*
X115122614Y-12284875D01*
X114637205Y-11751603D02*
X115316152Y-11508638D01*
X114637205Y-11751603D02*
X114504148Y-12285266D01*
X114637205Y-11751603D02*
X114770263Y-11217941D01*
X114249087Y-11654835D02*
X114637205Y-11751603D01*
%TO.C,D20*%
X119815899Y6538863D02*
X120301047Y6417902D01*
X119719130Y6150744D02*
X119233721Y6684016D01*
X119912668Y6926981D02*
X119719130Y6150744D01*
X119233721Y6684016D02*
X119912668Y6926981D01*
X119233721Y6684016D02*
X119100664Y6150353D01*
X119233721Y6684016D02*
X119366779Y7217678D01*
X118845603Y6780784D02*
X119233721Y6684016D01*
%TO.C,D21*%
X82255410Y-44902459D02*
X82740558Y-45023420D01*
X82158641Y-45290578D02*
X81673232Y-44757306D01*
X82352179Y-44514341D02*
X82158641Y-45290578D01*
X81673232Y-44757306D02*
X82352179Y-44514341D01*
X81673232Y-44757306D02*
X81540175Y-45290969D01*
X81673232Y-44757306D02*
X81806290Y-44223644D01*
X81285114Y-44660538D02*
X81673232Y-44757306D01*
%TO.C,D22*%
X108106728Y-41672817D02*
X108530752Y-41937776D01*
X107894760Y-42012036D02*
X107597899Y-41354865D01*
X108318696Y-41333598D02*
X107894760Y-42012036D01*
X107597899Y-41354865D02*
X108318696Y-41333598D01*
X107597899Y-41354865D02*
X107306444Y-41821292D01*
X107597899Y-41354865D02*
X107889355Y-40888439D01*
X107258680Y-41142898D02*
X107597899Y-41354865D01*
%TO.C,D23*%
X126201177Y-54090670D02*
X126584199Y-54412064D01*
X125944062Y-54397088D02*
X125741550Y-53704997D01*
X126458292Y-53784252D02*
X125944062Y-54397088D01*
X125741550Y-53704997D02*
X126458292Y-53784252D01*
X125741550Y-53704997D02*
X125388017Y-54126322D01*
X125741550Y-53704997D02*
X126095084Y-53283673D01*
X125435133Y-53447882D02*
X125741550Y-53704997D01*
%TO.C,D24*%
X98038262Y-57785731D02*
X98462286Y-58050690D01*
X97826294Y-58124950D02*
X97529433Y-57467779D01*
X98250230Y-57446512D02*
X97826294Y-58124950D01*
X97529433Y-57467779D02*
X98250230Y-57446512D01*
X97529433Y-57467779D02*
X97237978Y-57934206D01*
X97529433Y-57467779D02*
X97820889Y-57001353D01*
X97190214Y-57255812D02*
X97529433Y-57467779D01*
%TO.C,D25*%
X113507218Y-69046141D02*
X113890240Y-69367535D01*
X113250103Y-69352559D02*
X113047591Y-68660468D01*
X113764333Y-68739723D02*
X113250103Y-69352559D01*
X113047591Y-68660468D02*
X113764333Y-68739723D01*
X113047591Y-68660468D02*
X112694058Y-69081793D01*
X113047591Y-68660468D02*
X113401125Y-68239144D01*
X112741174Y-68403353D02*
X113047591Y-68660468D01*
%TO.C,D26*%
X303494491Y-9312262D02*
X303986895Y-9225438D01*
X303563950Y-9706185D02*
X302903606Y-9416451D01*
X303425032Y-8918339D02*
X303563950Y-9706185D01*
X302903606Y-9416451D02*
X303425032Y-8918339D01*
X302903606Y-9416451D02*
X302999113Y-9958095D01*
X302903606Y-9416451D02*
X302808100Y-8874807D01*
X302509683Y-9485910D02*
X302903606Y-9416451D01*
%TO.C,D27*%
X300195175Y9399086D02*
X300687579Y9485910D01*
X300264634Y9005163D02*
X299604290Y9294897D01*
X300125716Y9793009D02*
X300264634Y9005163D01*
X299604290Y9294897D02*
X300125716Y9793009D01*
X299604290Y9294897D02*
X299699797Y8753253D01*
X299604290Y9294897D02*
X299508784Y9836541D01*
X299210367Y9225438D02*
X299604290Y9294897D01*
%TO.C,D28*%
X296895860Y28110433D02*
X297388264Y28197257D01*
X296965319Y27716510D02*
X296304975Y28006244D01*
X296826401Y28504356D02*
X296965319Y27716510D01*
X296304975Y28006244D02*
X296826401Y28504356D01*
X296304975Y28006244D02*
X296400482Y27464600D01*
X296304975Y28006244D02*
X296209469Y28547888D01*
X295911052Y27936785D02*
X296304975Y28006244D01*
%TO.C,D29*%
X284783143Y-12611577D02*
X285275547Y-12524753D01*
X284852602Y-13005500D02*
X284192258Y-12715766D01*
X284713684Y-12217654D02*
X284852602Y-13005500D01*
X284192258Y-12715766D02*
X284713684Y-12217654D01*
X284192258Y-12715766D02*
X284287765Y-13257410D01*
X284192258Y-12715766D02*
X284096752Y-12174122D01*
X283798335Y-12785225D02*
X284192258Y-12715766D01*
%TO.C,D30*%
X281483828Y6099770D02*
X281976232Y6186594D01*
X281553287Y5705847D02*
X280892943Y5995581D01*
X281414369Y6493693D02*
X281553287Y5705847D01*
X280892943Y5995581D02*
X281414369Y6493693D01*
X280892943Y5995581D02*
X280988450Y5453937D01*
X280892943Y5995581D02*
X280797437Y6537225D01*
X280499020Y5926122D02*
X280892943Y5995581D01*
%TO.C,D31*%
X278184513Y24811118D02*
X278676917Y24897942D01*
X278253972Y24417195D02*
X277593628Y24706929D01*
X278115054Y25205041D02*
X278253972Y24417195D01*
X277593628Y24706929D02*
X278115054Y25205041D01*
X277593628Y24706929D02*
X277689135Y24165285D01*
X277593628Y24706929D02*
X277498122Y25248573D01*
X277199705Y24637470D02*
X277593628Y24706929D01*
%TO.C,D32*%
X263509934Y-5033280D02*
X263995082Y-4912319D01*
X263606703Y-5421398D02*
X262927756Y-5178433D01*
X263413165Y-4645161D02*
X263606703Y-5421398D01*
X262927756Y-5178433D02*
X263413165Y-4645161D01*
X262927756Y-5178433D02*
X263060814Y-5712095D01*
X262927756Y-5178433D02*
X262794699Y-4644770D01*
X262539638Y-5275201D02*
X262927756Y-5178433D01*
%TO.C,D33*%
X258913418Y13402339D02*
X259398566Y13523300D01*
X259010187Y13014221D02*
X258331240Y13257186D01*
X258816649Y13790458D02*
X259010187Y13014221D01*
X258331240Y13257186D02*
X258816649Y13790458D01*
X258331240Y13257186D02*
X258464298Y12723524D01*
X258331240Y13257186D02*
X258198183Y13790849D01*
X257943122Y13160418D02*
X258331240Y13257186D01*
%TO.C,D34*%
X254316902Y31837957D02*
X254802050Y31958918D01*
X254413671Y31449839D02*
X253734724Y31692804D01*
X254220133Y32226076D02*
X254413671Y31449839D01*
X253734724Y31692804D02*
X254220133Y32226076D01*
X253734724Y31692804D02*
X253867782Y31159142D01*
X253734724Y31692804D02*
X253601667Y32226467D01*
X253346606Y31596036D02*
X253734724Y31692804D01*
%TO.C,D35*%
X243864705Y-4778318D02*
X244349853Y-4657357D01*
X243961474Y-5166436D02*
X243282527Y-4923471D01*
X243767936Y-4390199D02*
X243961474Y-5166436D01*
X243282527Y-4923471D02*
X243767936Y-4390199D01*
X243282527Y-4923471D02*
X243415585Y-5457133D01*
X243282527Y-4923471D02*
X243149470Y-4389808D01*
X242894409Y-5020239D02*
X243282527Y-4923471D01*
%TO.C,D36*%
X239268189Y13657301D02*
X239753337Y13778262D01*
X239364958Y13269183D02*
X238686011Y13512148D01*
X239171420Y14045420D02*
X239364958Y13269183D01*
X238686011Y13512148D02*
X239171420Y14045420D01*
X238686011Y13512148D02*
X238819069Y12978486D01*
X238686011Y13512148D02*
X238552954Y14045811D01*
X238297893Y13415380D02*
X238686011Y13512148D01*
%TO.C,D37*%
X234671673Y32092920D02*
X235156821Y32213881D01*
X234768442Y31704802D02*
X234089495Y31947767D01*
X234574904Y32481039D02*
X234768442Y31704802D01*
X234089495Y31947767D02*
X234574904Y32481039D01*
X234089495Y31947767D02*
X234222553Y31414105D01*
X234089495Y31947767D02*
X233956438Y32481430D01*
X233701377Y31850999D02*
X234089495Y31947767D01*
%TO.C,D38*%
X226880618Y-15196608D02*
X227365766Y-15075647D01*
X226977387Y-15584726D02*
X226298440Y-15341761D01*
X226783849Y-14808489D02*
X226977387Y-15584726D01*
X226298440Y-15341761D02*
X226783849Y-14808489D01*
X226298440Y-15341761D02*
X226431498Y-15875423D01*
X226298440Y-15341761D02*
X226165383Y-14808098D01*
X225910322Y-15438529D02*
X226298440Y-15341761D01*
%TO.C,D39*%
X222284102Y3239011D02*
X222769250Y3359972D01*
X222380871Y2850893D02*
X221701924Y3093858D01*
X222187333Y3627130D02*
X222380871Y2850893D01*
X221701924Y3093858D02*
X222187333Y3627130D01*
X221701924Y3093858D02*
X221834982Y2560196D01*
X221701924Y3093858D02*
X221568867Y3627521D01*
X221313806Y2997090D02*
X221701924Y3093858D01*
%TO.C,D40*%
X217687586Y21674630D02*
X218172734Y21795591D01*
X217784355Y21286512D02*
X217105408Y21529477D01*
X217590817Y22062749D02*
X217784355Y21286512D01*
X217105408Y21529477D02*
X217590817Y22062749D01*
X217105408Y21529477D02*
X217238466Y20995815D01*
X217105408Y21529477D02*
X216972351Y22063140D01*
X216717290Y21432709D02*
X217105408Y21529477D01*
%TO.C,D41*%
X208928843Y-21733716D02*
X209413991Y-21612755D01*
X209025612Y-22121834D02*
X208346665Y-21878869D01*
X208832074Y-21345597D02*
X209025612Y-22121834D01*
X208346665Y-21878869D02*
X208832074Y-21345597D01*
X208346665Y-21878869D02*
X208479723Y-22412531D01*
X208346665Y-21878869D02*
X208213608Y-21345206D01*
X207958547Y-21975637D02*
X208346665Y-21878869D01*
%TO.C,D42*%
X204332327Y-3298097D02*
X204817475Y-3177136D01*
X204429096Y-3686215D02*
X203750149Y-3443250D01*
X204235558Y-2909978D02*
X204429096Y-3686215D01*
X203750149Y-3443250D02*
X204235558Y-2909978D01*
X203750149Y-3443250D02*
X203883207Y-3976912D01*
X203750149Y-3443250D02*
X203617092Y-2909587D01*
X203362031Y-3540018D02*
X203750149Y-3443250D01*
%TO.C,D43*%
X199735811Y15137522D02*
X200220959Y15258483D01*
X199832580Y14749404D02*
X199153633Y14992369D01*
X199639042Y15525641D02*
X199832580Y14749404D01*
X199153633Y14992369D02*
X199639042Y15525641D01*
X199153633Y14992369D02*
X199286691Y14458707D01*
X199153633Y14992369D02*
X199020576Y15526032D01*
X198765515Y14895601D02*
X199153633Y14992369D01*
%TO.C,D44*%
X186864396Y-11775796D02*
X187349544Y-11654835D01*
X186961165Y-12163914D02*
X186282218Y-11920949D01*
X186767627Y-11387677D02*
X186961165Y-12163914D01*
X186282218Y-11920949D02*
X186767627Y-11387677D01*
X186282218Y-11920949D02*
X186415276Y-12454611D01*
X186282218Y-11920949D02*
X186149161Y-11387286D01*
X185894100Y-12017717D02*
X186282218Y-11920949D01*
%TO.C,D45*%
X182267880Y6659823D02*
X182753028Y6780784D01*
X182364649Y6271705D02*
X181685702Y6514670D01*
X182171111Y7047942D02*
X182364649Y6271705D01*
X181685702Y6514670D02*
X182171111Y7047942D01*
X181685702Y6514670D02*
X181818760Y5981008D01*
X181685702Y6514670D02*
X181552645Y7048333D01*
X181297584Y6417902D02*
X181685702Y6514670D01*
%TO.C,D46*%
X219828369Y-44781499D02*
X220313517Y-44660538D01*
X219925138Y-45169617D02*
X219246191Y-44926652D01*
X219731600Y-44393380D02*
X219925138Y-45169617D01*
X219246191Y-44926652D02*
X219731600Y-44393380D01*
X219246191Y-44926652D02*
X219379249Y-45460314D01*
X219246191Y-44926652D02*
X219113134Y-44392989D01*
X218858073Y-45023420D02*
X219246191Y-44926652D01*
%TO.C,D47*%
X193915927Y-41407857D02*
X194339951Y-41142898D01*
X194127895Y-41747076D02*
X193407098Y-41725809D01*
X193703959Y-41068638D02*
X194127895Y-41747076D01*
X193407098Y-41725809D02*
X193703959Y-41068638D01*
X193407098Y-41725809D02*
X193698554Y-42192235D01*
X193407098Y-41725809D02*
X193115643Y-41259382D01*
X193067879Y-41937776D02*
X193407098Y-41725809D01*
%TO.C,D48*%
X175780476Y-53769276D02*
X176163498Y-53447882D01*
X176037591Y-54075694D02*
X175320849Y-54154949D01*
X175523361Y-53462858D02*
X176037591Y-54075694D01*
X175320849Y-54154949D02*
X175523361Y-53462858D01*
X175320849Y-54154949D02*
X175674383Y-54576273D01*
X175320849Y-54154949D02*
X174967316Y-53733624D01*
X175014432Y-54412064D02*
X175320849Y-54154949D01*
%TO.C,D49*%
X203984393Y-57520771D02*
X204408417Y-57255812D01*
X204196361Y-57859990D02*
X203475564Y-57838723D01*
X203772425Y-57181552D02*
X204196361Y-57859990D01*
X203475564Y-57838723D02*
X203772425Y-57181552D01*
X203475564Y-57838723D02*
X203767020Y-58305149D01*
X203475564Y-57838723D02*
X203184109Y-57372296D01*
X203136345Y-58050690D02*
X203475564Y-57838723D01*
%TO.C,D50*%
X188474435Y-68724747D02*
X188857457Y-68403353D01*
X188731550Y-69031165D02*
X188014808Y-69110420D01*
X188217320Y-68418329D02*
X188731550Y-69031165D01*
X188014808Y-69110420D02*
X188217320Y-68418329D01*
X188014808Y-69110420D02*
X188368342Y-69531744D01*
X188014808Y-69110420D02*
X187661275Y-68689095D01*
X187708391Y-69367535D02*
X188014808Y-69110420D01*
%TD*%
M02*
